<?xml version="1.0" encoding="UTF-8"?>
<!DOCTYPE svg PUBLIC "-//W3C//DTD SVG 1.1//EN" "http://www.w3.org/Graphics/SVG/1.1/DTD/svg11.dtd">
<!-- Creator: CorelDRAW 2021 (64-Bit) -->
<svg xmlns="http://www.w3.org/2000/svg" xml:space="preserve" width="121.641mm" height="25.9095mm" version="1.1" style="shape-rendering:geometricPrecision; text-rendering:geometricPrecision; image-rendering:optimizeQuality; fill-rule:evenodd; clip-rule:evenodd"
viewBox="0 0 13840.22 2947.97"
 xmlns:xlink="http://www.w3.org/1999/xlink"
 xmlns:xodm="http://www.corel.com/coreldraw/odm/2003">
 <defs>
  <style type="text/css">
   <![CDATA[
    .fil0 {fill:#990000;fill-rule:nonzero}
   ]]>
  </style>
 </defs>
 <g id="Capa_x0020_1">
  <metadata id="CorelCorpID_0Corel-Layer"/>
  <path class="fil0" d="M1515.06 0c36.58,0 73.15,3.85 109.09,11.55 69.3,6.42 127.69,35.94 175.82,88.55 48.77,52.62 85.35,114.22 110.37,186.1 16.04,35.93 27.6,74.43 33.37,114.22 6.42,40.43 9.63,81.49 9.63,124.49 0,73.8 -5.13,146.95 -14.76,219.46 -1.29,3.86 -1.92,7.7 -1.92,11.56 -34.01,170.69 -90.48,330.47 -169.41,479.34 -64.17,125.13 -141.83,238.72 -232.94,339.46 -91.76,100.75 -197.01,171.98 -315.72,213.05 -23.11,10.26 -44.92,15.39 -66.09,15.39 -21.19,0 -41.71,-3.85 -62.25,-11.55 -19.89,-7.05 -39.79,-15.39 -59.68,-24.38 -21.82,-9.63 -42.35,-18.61 -63.53,-26.31 -20.53,-7.7 -41.71,-10.91 -64.81,-10.91l-7.05 0c-66.74,-11.55 -114.22,-51.34 -143.1,-119.35 -28.88,-68.67 -43,-139.89 -43,-213.69l0 -30.16c3.86,-91.11 19.25,-180.32 47.49,-265.66 28.23,-85.98 62.24,-170.06 100.74,-251.54 -44.92,50.69 -82.14,109.73 -111.01,179.03 -14.76,33.37 -31.44,65.46 -48.77,95.61 -91.76,181.6 -163.64,373.48 -216.25,575.61 -5.14,51.34 -12.83,102.03 -24.39,152.09 -6.42,34.01 -12.19,68.02 -17.97,102.66 -5.77,34.01 -8.34,68.67 -8.34,102.04 0,19.25 1.29,37.85 3.86,56.47 -1.29,14.12 -1.93,26.95 -1.93,39.79 0,81.49 14.12,159.13 42.36,232.93 28.23,73.8 64.16,140.54 107.81,199.57 37.85,41.07 80.85,71.87 128.98,93.05 48.13,20.54 98.18,30.8 149.52,30.8 31.44,0 62.89,-3.85 93.69,-11.55 171.98,-39.79 329.84,-122.56 474.21,-247.7 17.33,-15.39 34.66,-30.8 52.62,-47.48 91.13,-73.8 173.26,-157.86 246.41,-251.56 3.71,-4.47 7.36,-9.06 10.96,-13.78 5.39,-39.9 11.64,-79.79 18.57,-119.7 7.69,-46.19 18.6,-91.76 32.09,-135.4 6.42,-21.17 12.83,-42.99 19.25,-64.17 12.19,-25.02 23.73,-50.69 33.36,-76.99 20.54,-51.34 44.92,-99.47 73.8,-144.39 14.76,-36.58 32.09,-70.59 52.62,-102.03 14.76,-23.75 28.23,-47.49 39.14,-71.24 17.97,-19.89 35.29,-40.43 52.62,-60.31 26.31,-31.45 53.26,-61.6 80.85,-91.76 44.28,-44.28 98.18,-73.8 163.64,-88.55 17.32,-6.42 34.65,-12.83 50.69,-18.61 11.55,-3.85 21.17,-5.77 30.16,-5.77 16.04,0 26.95,5.77 30.8,17.97 4.49,11.55 7.05,26.31 7.05,44.27 0,12.2 -0.64,25.03 -1.92,37.22l0 50.7c-15.39,27.59 -26.94,57.11 -35.93,88.55 -11.55,36.58 -26.95,69.94 -46.84,101.39 -6.42,37.85 -19.25,73.15 -37.87,107.16 -16.04,28.88 -28.23,59.69 -35.29,92.41 -26.31,72.51 -47.48,146.95 -62.24,223.32 -3.86,26.31 -8.34,51.97 -13.48,77.64 -7.05,42.35 -14.11,84.7 -20.53,127.69 -3.86,16.04 -5.78,32.73 -5.78,50.7 0,21.17 1.29,41.71 3.85,62.24 3.86,21.19 5.78,42.36 5.78,63.53 0,10.26 -0.64,19.89 -1.92,30.16 0,5.13 0,10.26 0,14.76 0,20.54 1.92,41.06 5.77,62.24 3.86,21.19 12.83,32.09 28.24,32.09 8.34,0 19.25,-4.48 32.09,-13.47 55.18,-42.35 102.03,-93.05 140.53,-152.09 116.79,-176.46 200.22,-368.33 250.27,-574.96 30.15,-95.61 44.92,-192.5 44.92,-291.97 0,-37.22 -2.57,-75.08 -7.07,-112.3 -3.85,-35.29 -13.47,-69.3 -29.51,-102.67 -15.41,-33.36 -41.71,-55.82 -77.64,-68.65 -6.42,0 -16.69,1.27 -30.16,3.85 -11.55,2.57 -23.11,4.49 -34.66,6.42 -12.19,1.92 -22.46,3.21 -31.44,3.21 -13.48,0 -21.17,-3.21 -22.46,-9.63 0,-6.42 5.77,-14.76 16.68,-26.31 46.84,-46.21 99.47,-69.3 157.86,-69.3l7.7 0c31.45,0 61.6,6.42 90.48,19.25 28.88,13.47 53.26,34.01 73.16,61.6 27.59,29.51 48.13,63.52 62.24,100.1 13.48,37.22 24.39,75.08 32.09,114.22 1.29,0.64 1.29,1.92 1.29,3.21 7.7,55.18 11.55,109.73 11.55,163.64 0,95.61 -9.63,189.3 -28.23,282.34 -5.13,17.33 -9.63,35.29 -14.76,54.55 -28.88,122.56 -73.8,238.07 -133.47,345.88 -70.59,152.73 -164.28,290.05 -282.36,411.32 -28.88,26.32 -60.31,51.34 -95.61,74.45 -35.29,23.1 -73.16,34.65 -114.87,34.65 -16.04,0 -32.72,-2.56 -48.77,-7.05 -43.63,-20.54 -89.84,-34.01 -137.32,-41.71 -35.29,-6.42 -68.02,-14.76 -99.47,-26.31 -43,-3.86 -75.72,-19.25 -98.82,-46.21 -23.11,-26.95 -41.71,-58.39 -55.19,-94.97 -24.38,-30.16 -39.14,-61.6 -45.56,-95.62 -6.42,-34.01 -9.63,-68.02 -10.91,-103.31l0 -0.44c-78.39,132.95 -171.23,252.67 -278.5,359.16 -171.98,165.56 -363.84,265.66 -576.89,300.96 -24.38,2.57 -47.49,3.85 -69.95,3.85 -23.73,0 -47.48,-1.27 -71.23,-3.85 -15.39,1.29 -30.8,1.92 -46.84,1.92 -112.94,0 -221.39,-27.59 -325.34,-82.77 -107.81,-52.62 -193.8,-136.68 -257.96,-251.54 -67.38,-169.42 -101.39,-347.16 -101.39,-532.61 0,-127.71 14.76,-253.48 43.63,-377.33 32.09,-148.23 78.28,-290.68 136.68,-426.73 23.1,-50.69 47.48,-100.1 73.79,-148.87 21.19,-39.79 41.07,-80.21 59.69,-120 7.69,-14.12 16.04,-28.23 25.02,-43.63 46.21,-94.97 103.31,-180.32 170.69,-255.4 80.21,-126.41 174.55,-240 282.36,-340.1 27.59,-21.81 55.18,-44.27 84.06,-68.02 61.6,-51.34 124.49,-97.54 188.02,-139.25 70.58,-44.92 143.74,-82.77 220.1,-113.57 76.37,-30.8 153.38,-46.21 231.02,-46.21zm9012.71 853.46l5.77 0c42.36,0 77.64,15.41 105.25,46.21 27.59,30.8 41.06,55.83 41.06,74.43 0,3.86 0,7.07 -1.29,8.99 -23.1,104.6 -65.45,235.5 -128.33,393.36 -51.34,132.84 -92.41,254.12 -123.85,364.49l1.92 0c8.98,0 24.38,-19.25 46.84,-57.12 22.46,-38.5 48.13,-83.42 77.01,-134.76 31.44,-55.18 61.6,-106.52 90.48,-154 28.88,-47.49 51.97,-77.65 69.3,-90.48 7.7,-7.07 15.41,-15.41 23.1,-24.39 55.83,-62.24 118.72,-119.99 187.38,-172.62 69.3,-52.62 148.87,-81.5 238.71,-86.63 56.47,0 95.62,19.9 118.07,59.04 21.82,39.79 32.73,82.77 32.73,128.98 0,37.87 -5.78,73.16 -16.69,107.17 -7.69,36.57 -16.04,73.15 -25.02,111.01 -23.75,96.25 -42.35,194.43 -55.83,293.26 -16.68,63.52 -26.95,128.34 -32.09,193.79 -5.13,64.82 -7.7,130.91 -7.7,197.01 5.14,27.59 8.35,59.03 9.63,94.32 1.29,56.47 8.35,109.09 21.19,158.51 13.47,49.4 43.63,80.85 91.11,93.05 26.32,-4.49 58.4,-16.69 96.26,-35.29 19.89,-10.27 38.5,-18.61 56.47,-25.67 17.33,-7.07 32.09,-10.27 43,-10.27 11.55,0 17.97,5.78 18.6,16.69 0,12.83 -7.05,33.36 -22.46,62.24 -28.87,44.92 -64.81,83.42 -109.08,114.87 -43.63,31.44 -91.76,46.84 -144.39,46.84 -39.14,0 -79.57,-12.2 -122.56,-35.94 -76.37,-5.77 -136.68,-37.85 -180.97,-94.97 -44.92,-57.11 -68.65,-121.28 -72.51,-192.5 -8.98,-51.34 -13.47,-102.04 -13.47,-152.09 0,-52.61 3.21,-105.23 9.63,-157.21 6.42,-51.99 13.47,-103.32 22.46,-155.3 5.13,-35.93 10.26,-72.51 15.39,-108.44 4.49,-37.87 15.41,-80.21 31.45,-126.42 20.54,-55.18 30.16,-100.74 30.16,-137.32 0,-13.47 -2.57,-25.67 -7.07,-35.29 -93.04,72.51 -173.25,164.92 -240,275.93 -66.73,111.66 -124.49,229.1 -171.98,351.66 -47.48,123.2 -89.19,238.07 -123.85,345.88 -34.01,103.95 -64.81,189.3 -92.4,256.04 -27.59,66.09 -55.18,99.47 -82.77,99.47 -44.92,0 -82.14,-16.04 -111.66,-48.78 -29.51,-32.72 -52.61,-71.86 -69.94,-117.43 -16.69,-46.19 -28.88,-91.11 -35.29,-135.4 -7.05,-44.92 -10.26,-78.28 -10.26,-100.74l0 -32.09c0,-45.23 0.98,-90.36 2.94,-135.42l-4.87 9.65c-20.54,47.48 -47.48,91.11 -80.85,129.62 -35.29,62.89 -77.64,120 -128.34,171.34 -4.49,7.05 -10.26,14.11 -16.68,20.53 -48.77,53.91 -105.25,97.54 -169.41,131.55 -27.6,22.46 -58.4,37.87 -93.7,46.21 -35.29,7.7 -69.3,12.19 -103.31,12.19l-17.33 0 -10.9 -1.92c-31.45,0 -63.53,-5.13 -96.91,-16.04 -33.36,-10.91 -60.31,-26.31 -81.49,-48.13l-19.25 0c-32.72,0 -63.53,-3.21 -93.05,-10.26 -29.51,-7.05 -57.11,-20.54 -83.42,-40.43l-13.47 0c-18.61,0 -34.01,-5.13 -45.56,-14.76 -12.2,-10.27 -23.11,-21.82 -33.37,-35.94 -9.63,-13.47 -21.17,-25.67 -33.37,-35.93 -45.56,-80.21 -68.02,-162.99 -68.02,-249.62l0 -17.33c1.29,-17.33 2.56,-35.29 3.85,-54.55 0,-4.49 0,-9.63 0,-14.76 0,-50.05 11.55,-96.89 34.01,-141.18 5.14,-37.22 17.33,-72.51 37.22,-105.23 12.83,-22.46 23.11,-46.84 32.09,-73.15 15.41,-48.78 38.5,-94.97 69.3,-139.25 8.99,-13.47 17.98,-27.59 26.95,-41.06 14.76,-26.32 30.8,-50.7 48.77,-73.8 16.04,-21.17 31.45,-43.63 44.92,-67.38 8.99,-11.55 16.69,-22.46 24.39,-34.01 26.31,-35.94 55.82,-72.51 88.55,-109.09 14.76,-18.61 30.8,-36.58 46.84,-54.55l34.01 -37.22c16.04,-17.97 32.09,-35.93 46.84,-54.55 3.85,-5.13 8.34,-10.26 12.83,-15.41 14.12,-17.32 29.51,-34.01 46.21,-49.4 17.32,-16.04 35.93,-27.59 57.74,-34.66 21.19,-26.31 49.41,-45.56 84.07,-56.47 35.29,-11.55 69.94,-17.33 103.95,-17.33l18.61 0c32.72,0 58.39,11.56 77.01,34.66 18.6,23.75 34.65,47.48 46.84,72.51 1.29,10.26 1.92,19.89 1.92,28.24 0,59.03 -12.2,116.15 -37.22,171.33 -84.06,195.72 -204.7,366.42 -361.28,513.36 -34.01,26.31 -69.3,39.14 -107.16,39.14 -14.76,0 -30.16,-3.21 -44.92,-8.98 -11.55,33.36 -17.33,68.65 -17.33,105.23 0,14.76 0.65,28.88 1.92,43l0 54.55c0,25.02 3.86,50.69 11.56,76.99 6.41,23.75 9.61,47.49 9.61,71.24 0,6.42 -0.64,13.47 -1.92,21.17 10.91,14.76 21.17,31.44 29.53,50.69 11.55,22.46 25.02,43 39.78,60.96 15.41,17.97 35.94,30.16 62.25,36.58l12.83 0c35.29,0 70.59,-5.78 105.23,-17.97 35.29,-11.55 68.03,-25.67 98.18,-42.36 47.49,-27.59 91.76,-59.68 133.47,-97.53 13.48,-11.55 27.59,-22.46 41.07,-34.01 6.42,-7.7 13.47,-14.76 20.54,-22.46 52.61,-57.75 102.03,-118.08 148.87,-180.32 9.63,-16.69 20.54,-33.37 32.09,-50.7 19.35,-29.9 37.64,-59.27 54.84,-88.11 9.36,-68.59 21.03,-136.97 35,-205.14 22.46,-53.9 38.5,-109.73 46.84,-167.48 8.99,-69.94 30.8,-136.03 66.09,-197.65 52.62,-150.16 124.49,-288.76 216.26,-415.18 46.19,-44.27 88.55,-66.09 125.77,-66.09zm-37.22 257.97c-1.29,0 -2.57,0 -3.21,0.64 -0.65,0.64 -1.93,1.92 -4.49,3.21 -1.29,0.64 -2.57,1.92 -3.86,3.21 -3.85,2.56 -7.05,5.77 -9.63,8.98 -2.56,2.57 -3.21,5.14 -3.21,6.42 0,1.29 0.65,1.93 1.29,1.93 3.86,0 8.99,-4.49 15.41,-13.48 1.29,-1.29 2.56,-2.56 3.85,-3.85 1.29,-2.57 1.92,-3.85 2.57,-4.49 0.64,-0.64 1.29,-1.29 1.29,-2.56zm-64.17 119.99l-5.78 0c-2.57,2.57 -5.13,5.13 -7.7,8.34 -1.92,3.21 -3.21,6.42 -3.21,8.99 1.29,4.49 3.86,7.05 7.07,7.05 1.27,0 3.21,-0.64 5.77,-1.92 3.86,-1.29 6.42,-3.21 8.34,-6.42 1.93,-3.21 3.21,-5.78 3.21,-8.34 0,-2.57 -0.64,-4.49 -1.92,-5.78 -1.29,-1.29 -3.21,-1.92 -5.77,-1.92zm-80.86 252.19c-1.27,0 -3.21,1.29 -5.77,3.85 -1.29,1.29 -3.21,2.57 -5.78,3.21 -1.92,2.57 -4.49,6.42 -6.42,11.55 -1.92,5.13 -2.56,10.27 -2.56,15.41l0 5.13c0,10.26 0.64,15.41 1.92,15.41 1.29,0 4.49,-7.7 8.98,-22.46 2.57,-7.7 5.14,-14.12 7.07,-19.9 1.92,-5.77 2.56,-8.98 2.56,-10.26l0 -1.92zm607.06 648.11l0 13.48c0,10.26 0.64,15.39 1.92,16.68 1.29,0 1.92,-0.64 1.92,-1.92 1.29,-3.21 1.92,-7.05 1.92,-10.91 0,-5.13 -0.64,-9.63 -1.92,-13.47l-1.92 -3.86 -1.92 0zm5.77 60.33c-1.29,0 -1.92,0.64 -2.56,1.92 -0.65,1.29 -1.29,3.21 -1.29,5.78 1.29,6.42 3.21,11.55 5.13,14.76 1.92,3.85 3.85,5.77 6.42,5.77 2.57,0 4.49,-1.92 5.78,-5.77l0 -3.21c0,-5.13 -2.57,-10.27 -7.7,-15.41 -1.29,-1.29 -2.57,-1.92 -2.57,-1.92 -0.64,0 -1.29,-0.64 -1.29,-1.92 -1.27,0 -1.92,0 -1.92,0 0,0 0,0 0,0 0,0 0,0 0,0 0,0 0,0 0,0 0,0 0,0 0,0zm11.55 50.69c-1.27,0 -1.92,0.65 -1.92,1.93 0,1.27 0,3.85 0,7.69 0,2.57 0,5.14 0.65,7.7 0.64,2.57 1.92,3.86 3.21,3.86 1.27,0 1.92,-0.65 1.92,-1.93 1.29,-1.27 1.92,-3.21 1.92,-5.77 0,-3.86 -0.64,-7.07 -1.92,-9.63l-3.86 -3.86zm3.86 41.71l-3.86 0c-2.56,2.57 -3.85,5.13 -3.85,7.7 0,1.92 0.64,3.85 1.92,5.13 3.86,5.13 6.42,7.7 7.7,7.7 1.92,0 3.21,-3.85 3.21,-11.55 0,-1.92 -0.64,-4.49 -1.92,-6.42 -1.29,-1.92 -1.92,-2.57 -3.21,-2.57zm29.51 54.55c-1.29,0 -1.92,0.65 -3.21,1.92 -1.29,1.29 -2.57,3.21 -3.85,5.14 -1.29,2.56 -1.93,4.48 -1.93,5.77 0,2.57 1.93,3.86 5.78,3.86 4.49,0 7.05,-2.57 7.05,-7.7l0 -1.92c0,-1.93 0,-3.86 -0.64,-5.14 -0.64,-1.27 -1.92,-1.92 -3.21,-1.92zm35.93 60.33c0,0 0,0.64 -0.64,2.56 -0.64,1.92 -1.29,3.86 -1.29,6.42 1.29,3.86 2.57,6.42 3.21,8.34 0,1.93 1.29,3.21 2.57,3.21 1.29,-2.56 1.92,-5.13 1.92,-7.69 0,-3.86 -0.64,-7.07 -1.92,-9.63l-1.92 -3.21c-1.29,0 -1.93,0 -1.93,0 0,0 0,0 0,0 0,0 0,0 0,0 0,0 0,0 0,0 0,0 0,0 0,0zm13.48 75.07c-1.29,0 -2.57,0 -3.21,0 -0.65,0 -1.29,0.65 -2.57,1.92 -7.7,2.57 -11.55,4.49 -11.55,7.07 0,2.56 5.78,3.85 17.33,3.85 3.21,0 6.42,-0.64 8.98,-1.92 2.57,-1.29 3.86,-2.57 3.86,-3.85l-1.92 -1.29c-1.29,-2.57 -2.57,-4.49 -4.49,-5.13 -1.92,-0.65 -4.49,-0.65 -6.42,-0.65zm1274.41 -1439.97c31.45,0 61.6,6.42 90.48,19.25 28.88,13.47 53.26,34.01 73.16,61.6 27.59,29.51 48.13,63.52 62.24,100.1 13.48,37.22 24.39,75.08 32.09,114.22 1.29,0.64 1.29,1.92 1.29,3.21 7.7,55.18 11.55,109.73 11.55,163.64 0,95.61 -9.63,189.3 -28.23,282.34 -5.13,17.33 -9.63,35.29 -14.76,54.55 -28.88,122.56 -73.8,238.07 -133.47,345.88 -70.59,152.73 -164.28,290.05 -282.36,411.32 -28.88,26.32 -60.31,51.34 -95.61,74.45 -35.29,23.1 -73.16,34.65 -114.87,34.65 -16.04,0 -32.72,-2.56 -48.77,-7.05 -43.63,-20.54 -89.84,-34.01 -137.32,-41.71 -35.29,-6.42 -68.02,-14.76 -99.47,-26.31 -43,-3.86 -75.72,-19.25 -98.82,-46.21 -23.11,-26.95 -41.71,-58.39 -55.19,-94.97 -24.38,-30.16 -39.14,-61.6 -45.56,-95.62 -6.42,-34.01 -9.63,-68.02 -10.91,-103.31 0,-11.55 -0.64,-22.46 -1.92,-34.01 7.05,-77.64 17.97,-155.29 31.45,-232.94 7.69,-46.19 18.6,-91.76 32.09,-135.4 6.42,-21.17 12.83,-42.99 19.25,-64.17 12.19,-25.02 23.73,-50.69 33.36,-76.99 20.54,-51.34 44.92,-99.47 73.8,-144.39 14.76,-36.58 32.09,-70.59 52.62,-102.03 14.76,-23.75 28.23,-47.49 39.14,-71.24 17.97,-19.89 35.29,-40.43 52.62,-60.31 26.31,-31.45 53.26,-61.6 80.85,-91.76 44.28,-44.28 98.18,-73.8 163.64,-88.55 17.32,-6.42 34.65,-12.83 50.69,-18.61 11.55,-3.85 21.17,-5.77 30.16,-5.77 16.04,0 26.95,5.77 30.8,17.97 4.49,11.55 7.05,26.31 7.05,44.27 0,12.2 -0.64,25.03 -1.92,37.22l0 50.7c-15.39,27.59 -26.94,57.11 -35.93,88.55 -11.55,36.58 -26.95,69.94 -46.84,101.39 -6.42,37.85 -19.25,73.15 -37.87,107.16 -16.04,28.88 -28.23,59.69 -35.29,92.41 -26.31,72.51 -47.48,146.95 -62.24,223.32 -3.86,26.31 -8.34,51.97 -13.48,77.64 -7.05,42.35 -14.11,84.7 -20.53,127.69 -3.86,16.04 -5.78,32.73 -5.78,50.7 0,21.17 1.29,41.71 3.85,62.24 3.86,21.19 5.78,42.36 5.78,63.53 0,10.26 -0.64,19.89 -1.92,30.16 0,5.13 0,10.26 0,14.76 0,20.54 1.92,41.06 5.77,62.24 3.86,21.19 12.83,32.09 28.24,32.09 8.34,0 19.25,-4.48 32.09,-13.47 55.18,-42.35 102.03,-93.05 140.53,-152.09 116.79,-176.46 200.22,-368.33 250.27,-574.96 30.15,-95.61 44.92,-192.5 44.92,-291.97 0,-37.22 -2.57,-75.08 -7.07,-112.3 -3.85,-35.29 -13.47,-69.3 -29.51,-102.67 -15.41,-33.36 -41.71,-55.82 -77.64,-68.65 -6.42,0 -16.69,1.27 -30.16,3.85 -11.55,2.57 -23.11,4.49 -34.66,6.42 -12.19,1.92 -22.46,3.21 -31.44,3.21 -13.48,0 -21.17,-3.21 -22.46,-9.63 0,-6.42 5.77,-14.76 16.68,-26.31 46.84,-46.21 99.47,-69.3 157.86,-69.3l7.7 0zm111.01 204.7l-1.92 0c0,1.29 1.29,3.85 3.85,7.7 2.57,5.77 4.49,8.98 5.78,8.98l1.92 0c1.29,-1.29 1.92,-2.56 1.92,-3.85 0,-1.29 -0.64,-2.57 -1.92,-4.49 -1.29,-1.92 -2.57,-3.21 -3.85,-4.49 -1.29,-1.29 -2.57,-2.56 -3.86,-3.21 -1.29,-0.64 -1.92,-0.64 -1.92,-0.64zm-526.2 157.86l0 7.7c0,5.77 0.64,8.98 1.92,8.98l1.92 0c1.29,-1.29 1.93,-3.21 1.93,-5.13 0,-2.56 -0.65,-5.13 -1.93,-7.7l-1.92 -3.85c-1.29,0 -1.92,0 -1.92,0 0,0 0,0 0,0 0,0 0,0 0,0 0,0 0,0 0,0 0,0 0,0 0,0zm-39.79 73.15c-1.27,0 -2.56,1.29 -3.85,3.86 -1.29,2.56 -1.92,5.77 -1.92,9.63 1.29,9.63 3.85,14.76 7.7,14.76 3.85,0 7.05,-3.21 9.63,-8.99l0 -5.77c0,-7.7 -3.86,-12.2 -11.56,-13.48zm-14.76 37.87l-3.85 0c-1.29,1.29 -1.92,2.56 -1.92,3.85l0 7.07c3.85,3.85 6.42,5.77 7.69,5.77 1.29,0 1.93,-1.92 1.93,-5.77l0 -5.14c0,-2.56 -0.65,-4.48 -1.29,-5.13 -0.65,-0.64 -1.29,-0.64 -2.57,-0.64zm-45.56 91.76c-0.64,0 -1.92,0.64 -2.57,1.92 -0.64,1.29 -0.64,2.57 -0.64,3.85 0,1.29 0.64,3.21 1.92,5.78 0.65,2.57 1.92,4.49 3.21,6.42 1.29,1.92 2.57,3.21 3.85,3.21 0,0 0.65,-1.29 1.29,-3.21 0.65,-1.92 0.65,-3.85 0.65,-6.42 -1.29,-2.57 -1.93,-5.13 -2.57,-7.7 -0.64,-2.56 -2.57,-3.85 -5.13,-3.85zm-225.24 564.05c-1.29,0 -2.57,0 -3.21,0 -0.64,0 -1.29,0.65 -2.57,1.93 -2.56,1.27 -3.85,3.21 -3.85,5.77 0,2.57 1.29,5.13 3.85,7.7 2.57,2.56 5.78,3.85 9.63,3.85 2.57,0 3.86,-0.64 4.49,-1.92 0.65,-1.29 1.29,-2.57 1.29,-3.85 0,-3.86 -1.29,-7.07 -3.21,-9.63 -1.92,-2.57 -3.85,-3.86 -6.42,-3.86zm684.05 32.09l-5.78 5.78c-0.64,1.29 -1.27,2.56 -1.27,3.85 0,2.57 1.92,3.86 5.13,3.86 2.56,0 4.49,-1.29 5.13,-3.21 0.64,-1.93 0.64,-3.21 0.64,-4.49 0,-2.57 0,-3.86 -0.64,-4.49 -0.64,-0.64 -1.92,-1.29 -3.21,-1.29zm-682.13 1.92c-1.29,0 -2.56,0.65 -3.21,1.93 -0.64,1.27 -0.64,3.21 -0.64,5.77 0,5.78 1.29,8.99 3.85,8.99 1.29,0 3.21,-1.92 5.78,-5.13l0 -1.93c0,-1.27 -0.65,-2.56 -1.29,-3.85 -0.64,-1.29 -1.29,-2.57 -2.57,-3.85l0 -1.93 -1.92 0zm0 35.94l-7.7 18.6c-3.85,7.7 -5.77,13.48 -5.77,16.69 0,2.56 0.64,4.49 1.92,5.77 1.29,1.29 3.85,2.57 7.7,3.86 6.42,3.85 9.63,10.9 9.63,20.53l0 19.25c0,4.49 0.64,8.35 1.92,10.91 0.64,2.57 2.57,4.49 5.13,5.78 2.57,1.29 5.13,3.21 7.7,6.42 2.57,3.21 3.85,6.42 3.85,10.26 0,3.86 1.29,7.7 3.86,12.2 2.56,4.49 5.13,8.34 7.05,10.26 2.57,1.29 4.49,3.21 5.78,5.13 1.27,1.92 1.92,3.21 1.92,4.49l0 3.85c0,1.29 1.29,3.21 3.21,6.42 1.92,3.21 3.85,6.42 6.42,9.63 2.56,3.21 4.49,4.49 5.77,4.49l-3.85 -22.46c-1.29,-6.42 -3.21,-12.83 -5.78,-19.89 -2.56,-7.05 -5.13,-12.2 -7.69,-16.04 -2.57,-2.57 -4.49,-5.78 -5.78,-10.91 -0.64,-5.13 -1.29,-10.26 -1.29,-15.39l0 -12.83c0,-11.56 -3.85,-18.61 -11.55,-22.46 -5.13,-2.57 -8.98,-7.07 -12.19,-13.48 -3.21,-6.42 -5.14,-12.19 -6.42,-18.6l-3.86 -22.46zm627.59 24.38c-1.29,0 -2.57,0 -3.85,0.64 -0.65,0.65 -1.29,1.93 -1.29,3.21l0 1.93c0,1.27 0,1.92 0.64,3.21 0.65,1.27 0.65,1.92 0.65,1.92l0 1.92c1.27,0 2.56,-0.64 3.85,-1.92 1.29,-1.29 2.57,-3.21 3.85,-5.13l0 -1.93c0,-2.56 -1.27,-3.85 -3.85,-3.85zm-569.19 163.64c-1.27,0 -3.21,0.64 -5.77,1.92 -2.57,1.29 -6.42,2.56 -11.55,5.13 -7.07,5.13 -10.91,8.99 -10.91,11.55 0,2.57 3.21,3.86 8.98,3.86l7.7 0c10.27,-3.86 14.76,-8.35 14.76,-13.48 0,-2.56 0,-4.49 0,-6.42 0,-1.92 -0.64,-2.56 -3.21,-2.56zm-9.63 78.93c-1.27,0 -1.92,0.64 -1.92,1.92 0,2.56 0.65,4.49 1.92,7.05 3.86,2.57 7.07,3.86 9.63,3.86l3.21 0c1.29,-1.29 1.93,-2.57 1.93,-3.86 0,-2.56 -1.29,-4.49 -5.14,-7.05 -2.56,-1.29 -5.13,-1.92 -7.69,-1.92l-1.93 0zm62.25 33.36c-5.13,0 -7.7,2.57 -7.7,7.7 0,3.86 1.29,6.42 3.86,7.7 2.56,1.29 5.13,1.92 7.05,1.92 3.86,0 7.7,-1.92 11.55,-5.77l0 -1.93c0,-2.56 -3.21,-5.13 -9.63,-7.69 -1.27,-1.29 -1.92,-1.93 -2.56,-1.93 -0.65,0 -1.29,0 -2.57,0zm1887.25 -1468.21c22.46,0 44.92,0.65 68.02,1.92 8.34,1.29 18.6,2.57 29.51,3.86 32.73,2.56 64.17,8.34 94.97,17.97 30.8,9.63 50.7,26.95 59.68,53.26 1.29,2.57 1.29,5.78 1.29,9.63 0,15.41 -10.26,27.59 -30.8,36.58 -20.54,9.63 -44.28,17.97 -70.59,25.67 -30.8,7.69 -57.11,16.68 -77.01,28.23 -41.06,9.63 -80.85,24.38 -119.35,44.28 -37.85,19.25 -69.94,46.84 -94.97,83.42 -23.75,22.46 -35.29,48.12 -35.29,76.99 0,35.29 8.34,70.59 26.32,107.17 4.48,11.55 8.98,22.46 12.83,34.01 2.56,21.17 9.63,43 20.53,65.46 12.83,23.75 19.25,46.19 19.25,66.09l0 5.77c30.8,28.88 55.19,63.53 71.24,105.25 12.19,25.02 26.31,48.77 41.06,71.23 44.28,66.74 80.21,136.05 109.09,208.56 10.26,34.01 15.39,68.65 15.39,103.31 0,77.64 -21.17,151.44 -62.24,220.11 -42.36,80.2 -102.67,141.82 -180.32,185.45 -77.65,42.99 -161.07,68.02 -250.27,73.8 -7.7,1.27 -15.39,1.92 -24.38,1.92 -11.55,2.56 -22.46,3.85 -34.01,3.85 -5.78,0 -12.83,-0.64 -20.54,-1.92 -12.19,1.29 -24.38,1.92 -35.93,1.92 -43.63,0 -86.63,-7.05 -129.63,-21.17 -42.35,-14.76 -84.06,-30.16 -123.85,-46.21 -65.45,-31.44 -125.77,-50.05 -182.24,-56.47 -6.42,1.29 -12.19,1.92 -17.33,1.92 -35.93,0 -64.17,-15.39 -84.06,-46.19 -20.54,-30.8 -32.72,-62.89 -37.85,-96.89 -1.29,-8.35 -1.93,-17.98 -1.93,-28.24 0,-34.66 10.27,-68.02 30.16,-99.47 19.9,-31.44 43,-58.39 69.3,-80.85 56.47,-47.49 121.93,-83.42 195.72,-107.17 16.04,-10.26 30.16,-14.76 41.06,-14.76 20.54,0 34.66,12.2 42.36,36.58 8.34,24.38 12.19,47.48 12.19,70.59 0,8.34 -0.64,16.04 -1.29,22.46 41.07,85.98 109.09,136.03 204.71,148.23 42.35,18.6 86.62,28.23 131.54,28.23 47.49,0 91.76,-13.47 133.47,-41.06 17.33,-19.25 26.32,-39.79 26.32,-62.25 0,-19.89 -5.78,-41.06 -16.69,-62.89 -11.55,-21.81 -24.38,-43.63 -37.85,-64.81 -11.55,-16.68 -20.54,-32.09 -28.24,-47.49 -39.79,-63.52 -88.55,-121.28 -145.02,-172.62 -18.61,-25.02 -37.85,-48.77 -57.75,-71.23 -39.14,-41.71 -71.86,-86.63 -98.18,-135.4 -59.03,-75.08 -87.91,-156.57 -87.91,-244.49 0,-47.49 11.55,-93.69 35.28,-137.32 8.99,-32.73 23.75,-62.89 45.57,-90.49 21.17,-27.59 42.35,-52.61 63.52,-75.07 16.69,-19.9 35.29,-34.66 56.47,-43 21.19,-8.99 43.63,-16.04 68.03,-20.54 26.31,-6.42 51.33,-15.39 75.07,-26.31 93.69,-30.16 189.31,-46.84 285.56,-49.41zm26.31 135.4l-5.78 0c-6.42,3.86 -8.98,6.42 -8.98,7.7 0,1.29 1.92,1.92 5.13,1.92 3.85,0 7.7,-1.92 11.55,-5.77l0 -1.92c0,-1.29 -0.64,-1.93 -1.92,-1.93zm-485.12 214.33c0,0 0,0.65 -0.65,1.29 -0.64,0.65 -1.29,1.29 -1.92,2.57 -0.64,1.29 -1.92,2.56 -3.21,3.85 -1.29,1.29 -1.92,2.57 -1.92,3.86 0,2.56 1.29,3.85 3.85,3.85 2.57,0 4.49,-1.29 5.78,-3.21 1.29,-1.92 1.92,-3.21 1.92,-4.49 0,-2.56 0,-4.49 -0.64,-5.77 -0.65,-1.29 -1.93,-1.93 -3.21,-1.93zm1.92 39.79c-3.86,0 -5.78,4.49 -5.78,12.83 -1.29,5.13 -1.92,9.63 -1.92,13.48 0,3.85 1.29,6.42 3.21,7.69 1.92,0.65 5.13,1.29 10.26,1.29 2.57,0 4.49,-0.64 6.42,-3.21 1.93,-2.56 3.21,-5.13 3.21,-7.7 0,-3.85 -1.27,-7.69 -3.21,-11.55 -1.92,-3.85 -3.85,-6.42 -6.42,-8.98 -1.27,-1.29 -2.56,-2.57 -3.21,-3.21 -0.64,-0.65 -1.27,-0.65 -2.56,-0.65zm20.54 60.33l-3.86 0 0 1.92c0,1.92 1.29,5.13 3.86,8.98 2.56,3.86 5.77,5.78 9.63,5.78 2.56,0 3.85,-0.64 3.85,-1.92 0,-1.29 -1.29,-3.86 -3.85,-7.7 -5.14,-5.13 -8.35,-7.05 -9.63,-7.05zm7.69 37.22c-1.27,0 -1.92,0.64 -1.92,1.92 0,1.29 1.29,3.21 2.57,5.78 1.92,2.56 5.13,5.13 8.98,7.69 10.91,10.91 16.69,22.46 16.69,33.37 0,6.42 -2.57,12.2 -7.7,17.33 -2.57,2.56 -3.21,5.13 -3.21,7.05 0,7.7 10.91,12.83 33.37,15.41 3.85,0 5.77,-0.65 5.77,-1.92 0,-1.29 -1.92,-3.86 -5.77,-7.7 -2.57,-5.13 -3.86,-10.27 -3.86,-16.69l0 -7.69c1.29,-2.57 1.92,-5.14 1.92,-7.7 0,-7.05 -5.13,-16.04 -16.68,-26.31 -6.42,-5.78 -12.19,-10.91 -17.97,-14.77 -5.78,-3.85 -9.63,-5.77 -12.2,-5.77zm86.63 157.86c-2.56,0 -5.13,0.64 -7.7,1.92 -2.56,1.29 -4.48,3.21 -5.77,5.78l0 1.92c0,2.56 4.49,3.85 13.47,3.85 8.34,0 13.48,-1.29 14.76,-3.85l-1.92 -1.92c-1.29,-2.57 -3.21,-4.49 -5.13,-5.78 -2.57,-1.29 -5.13,-1.92 -7.7,-1.92zm275.94 444.06c-0.65,0 -1.93,0.64 -2.57,2.56 -0.64,1.93 -0.64,3.86 -0.64,6.42 0,2.57 0.64,5.78 1.92,9.63 1.92,5.13 3.85,7.7 5.13,7.7 1.29,0 1.92,-2.57 1.92,-7.7 1.29,-2.56 1.92,-5.77 1.92,-9.63 0,-2.56 -0.64,-5.13 -1.92,-7.05 -1.29,-1.29 -1.92,-1.92 -2.56,-1.92 -0.65,0 -1.93,0 -3.21,0zm5.77 35.29c-1.29,0 -5.13,1.92 -10.91,5.77 -2.56,2.57 -3.85,5.13 -3.85,7.7 0,3.85 0.64,7.7 1.92,10.91 2.57,3.85 4.49,8.34 6.42,13.47 1.92,5.13 3.21,8.99 4.49,11.55 2.57,7.07 4.49,10.91 5.78,10.91 2.56,0 3.85,-6.42 3.85,-18.6l0 -17.33c-1.29,-8.34 -1.92,-14.76 -2.57,-18.61 -0.64,-3.85 -2.56,-5.77 -5.13,-5.77zm-795.07 133.47c-1.29,0 -3.21,3.21 -5.77,9.63l0 3.85c0,3.85 1.27,6.42 3.21,8.34 1.92,1.92 3.85,2.57 6.42,2.57 3.85,0 7.05,-1.92 9.63,-5.13l0 -1.93c0,-2.56 -0.65,-5.13 -1.93,-7.05 -1.27,-1.29 -2.56,-3.21 -3.85,-4.49 -2.57,-2.56 -4.49,-3.85 -5.78,-3.85 0,0 -0.64,-0.65 -1.92,-1.92zm13.48 96.25c-3.86,0 -8.35,0.65 -13.48,1.93 -2.56,1.27 -5.13,1.92 -7.7,1.92l-24.38 7.05 28.24 11.55c8.98,3.86 16.68,7.07 22.46,10.27 6.42,3.21 10.26,5.77 11.55,8.34 2.57,3.85 6.42,7.05 10.91,9.63 5.13,2.56 9.63,3.85 13.47,3.85 2.57,0 4.49,-0.64 5.78,-1.92l0 -1.92c0,-2.57 -0.65,-5.13 -1.29,-8.34 -0.64,-3.21 -1.92,-6.42 -4.49,-8.99 -2.56,-4.49 -5.77,-8.98 -10.26,-12.19 -4.49,-2.57 -7.7,-4.49 -10.27,-4.49 -2.56,0 -5.13,-0.65 -7.69,-2.57 -2.57,-1.92 -4.49,-4.49 -5.78,-7.05l-7.05 -7.07zm-4972.55 -1504.14c63.52,0 114.86,32.72 154,97.54 8.35,22.45 12.83,44.91 12.83,66.09 0,22.46 -3.85,45.56 -10.9,68.65 -7.7,23.11 -16.04,45.57 -24.38,66.74 -77.01,142.45 -114.87,266.95 -114.87,372.18 0,21.17 1.92,40.43 5.78,58.39 -76.37,0 -129.63,-12.83 -159.79,-38.5 -30.15,-25.67 -45.56,-60.96 -45.56,-104.6 0,-32.72 7.07,-69.94 21.17,-112.94 13.48,-42.35 30.16,-87.91 50.7,-137.32 5.13,-10.91 7.05,-18.61 7.05,-22.46 -2.56,0 -6.42,4.49 -12.83,13.47 -6.42,8.34 -13.47,19.25 -21.81,32.09 -7.7,12.2 -15.41,24.38 -21.17,36.58 -6.42,11.55 -11.56,20.54 -15.41,26.95 -31.45,53.9 -58.39,109.73 -80.85,167.48 -13.48,30.15 -27.59,60.31 -41.07,90.48 -6.42,14.76 -13.47,28.88 -21.17,43 -29.51,53.9 -48.77,111.65 -55.83,172.62 -21.81,41.71 -32.09,84.7 -32.09,130.27 0,3.21 0,7.7 0,12.83 -1.27,18.6 -2.56,37.85 -3.85,56.47l0 78.93c0,48.77 5.13,96.26 14.76,143.1 -8.34,5.77 -12.83,11.55 -12.83,16.68 0,3.86 1.29,7.7 4.49,11.55 3.21,3.21 7.05,7.07 12.2,10.91 6.42,3.85 12.19,8.34 17.97,14.12 5.77,5.77 8.34,12.83 8.34,21.81 0,3.86 -0.64,7.7 -1.92,10.91 20.54,78.29 69.94,121.29 148.87,130.27 8.34,1.29 17.33,1.92 26.32,1.92 25.02,0 48.77,-5.13 71.23,-14.11 22.46,-9.63 44.92,-20.54 68.02,-33.37 5.78,-2.57 12.2,-5.78 18.61,-8.99 60.31,-30.15 111.65,-71.23 154,-122.56 41.71,-59.04 79.58,-128.34 114.87,-208.55 19.89,-40.44 37.85,-74.45 53.26,-103.32 16.04,-28.88 29.51,-44.92 40.43,-48.77 3.85,-1.29 7.7,-1.92 11.55,-1.92 9.63,0 16.68,5.13 20.54,16.04 3.85,10.26 5.77,23.1 5.77,38.5 0,14.76 -0.64,30.8 -1.92,46.84 -1.29,13.47 -1.92,26.31 -1.92,37.85l0 10.91c-8.99,77.64 -35.29,148.88 -78.93,212.4 -39.14,66.74 -82.14,131.55 -129.63,195.72 -34.01,37.85 -69.3,72.51 -105.23,105.23 -36.58,32.72 -77.64,59.04 -124.49,78.93 -64.82,32.72 -132.84,48.77 -202.78,48.77l-11.55 -3.85c-59.68,-7.05 -112.95,-23.75 -159.79,-48.77 -72.51,-2.57 -139.89,-17.97 -202.78,-46.84 -62.89,-28.88 -111.01,-69.95 -145.02,-123.85 -46.19,-69.3 -69.94,-145.67 -71.23,-229.73 2.57,-22.46 3.85,-44.28 3.85,-65.46 0,-11.55 0,-22.46 0,-32.09 -1.27,-11.55 -1.92,-21.81 -1.92,-32.09 0,-39.14 4.49,-76.99 12.83,-114.86 8.99,-7.05 14.76,-15.41 17.97,-24.38 3.21,-8.99 5.14,-17.33 5.14,-26.31l0 -22.46c0,-11.56 1.27,-21.82 4.48,-30.81 3.21,-9.63 10.91,-17.97 23.75,-25.66 7.05,-62.9 27.59,-119.37 59.68,-171.34 7.7,-14.76 15.41,-28.88 22.46,-43 20.54,-51.34 46.84,-96.25 78.93,-135.4 15.41,-38.5 36.58,-73.15 64.17,-103.31 14.12,-16.04 26.95,-34.01 39.79,-52.62 13.47,-17.32 27.59,-34.01 41.06,-48.77 21.17,-19.89 41.07,-43.63 58.4,-69.94 19.89,-21.19 39.14,-43 58.39,-65.46 25.02,-31.45 52.61,-60.96 82.77,-88.55 21.17,-13.47 37.22,-30.16 48.78,-48.77 13.47,-19.9 32.07,-35.94 54.53,-46.84 17.33,-23.75 41.07,-42.36 71.24,-54.55 30.15,-12.83 60.96,-21.17 92.4,-26.32 1.29,0 3.21,0 5.13,0 8.99,-2.56 17.33,-3.85 25.03,-3.85zm-321.5 385.67c-1.29,0 -3.21,0.64 -5.78,1.27 -2.56,1.29 -4.48,3.21 -5.77,5.78 -1.29,1.29 -1.92,2.57 -1.92,3.85 0,1.29 1.27,1.92 3.85,1.92 2.57,0 4.49,-0.64 6.42,-1.92 1.92,-1.27 3.85,-2.56 4.49,-3.85l1.92 -3.85c0,-1.93 -1.29,-3.21 -3.21,-3.21zm-114.86 178.38l-3.86 3.86c-1.27,1.29 -1.92,3.21 -2.56,5.77 -0.65,1.93 -1.29,3.86 -1.29,5.14l0 3.85c2.57,5.13 5.13,7.7 7.7,7.7 2.56,0 3.85,-5.13 3.85,-15.41 0,-3.21 -0.64,-5.77 -1.29,-7.05 -0.64,-1.29 -1.29,-2.57 -2.56,-3.86zm-46.84 103.32c-1.29,0 -4.49,1.27 -8.99,3.85 -3.85,2.57 -8.34,5.13 -12.2,8.34 -3.21,3.21 -5.77,6.42 -7.05,10.26 -1.29,3.86 -1.92,7.7 -1.92,11.56 0,3.85 1.92,5.77 5.77,5.77 3.21,0 8.35,-3.85 14.77,-11.55 2.56,-6.42 5.13,-11.55 7.69,-16.04 2.57,-4.49 3.86,-7.05 3.86,-8.34 0,-1.29 0,-2.57 0,-3.21 0,-0.64 -0.65,-0.64 -1.92,-0.64zm-62.25 171.33c0,0 -2.57,1.92 -7.7,5.13 -6.42,5.13 -8.98,8.99 -8.98,11.55 0,1.29 1.92,1.93 5.13,1.93 2.56,0 5.13,-1.29 7.05,-3.86 1.92,-2.56 3.21,-5.13 4.49,-7.7 1.29,-2.56 1.92,-3.85 1.92,-5.13 0,-1.29 -0.64,-1.92 -1.92,-1.92zm875.92 217.54c-1.29,0 -2.56,0.65 -3.85,1.92 -1.29,1.29 -1.92,3.21 -1.92,5.78 0,6.42 1.27,9.63 3.85,9.63 2.57,0 5.13,-1.92 7.7,-5.78l0 -3.85c0,-2.57 -1.29,-4.49 -3.86,-5.78l0 -1.92 -1.92 0zm-1049.19 111.01c0,0 0,0 0,0 -1.29,0 -1.92,4.49 -1.92,13.47 0,5.14 1.29,11.56 3.21,20.54 1.92,8.99 4.49,16.04 7.7,22.46 2.56,6.42 5.13,9.63 6.42,9.63 1.29,0 1.92,-1.92 1.92,-5.77 0,-5.14 -0.64,-10.91 -1.92,-16.69 -1.29,-7.7 -2.57,-14.76 -3.86,-21.81 -1.27,-7.07 -3.21,-11.56 -5.77,-14.12 -1.29,-5.13 -3.21,-7.7 -5.78,-7.7zm19.25 78.93c-2.56,0 -4.49,1.29 -5.77,3.21 -1.29,1.92 -1.93,3.21 -1.93,4.49 0,2.57 0.65,4.49 1.93,5.78 1.27,1.27 3.21,1.92 5.77,1.92 1.29,0 2.57,-0.65 4.49,-1.92 1.92,-1.29 2.57,-3.21 2.57,-5.78 0,-1.29 -0.65,-2.57 -2.57,-4.49 -1.92,-1.92 -3.21,-3.21 -4.49,-3.21zm0 28.24c0,0 1.92,3.21 5.13,9.63 6.42,7.69 10.91,11.55 13.48,11.55 1.29,0 1.92,-0.65 1.92,-1.92 0,-1.29 -1.29,-3.21 -3.85,-5.78 -2.57,-2.57 -5.14,-5.13 -7.7,-7.7 -5.78,-3.85 -8.99,-5.77 -8.99,-5.77zm10.91 35.93c0,0 0,0 -0.64,0 -0.65,0 -1.29,0 -1.29,0l-1.92 1.92c-4.49,3.86 -7.07,8.99 -7.07,14.76 0,3.86 0.65,7.7 2.57,10.27 1.92,3.21 3.85,5.13 6.42,5.13l1.92 0c2.57,-1.29 5.78,-3.21 8.34,-5.13 3.21,-1.29 5.13,-3.21 5.13,-4.49l0 -3.85c0,-5.14 -1.27,-8.99 -3.85,-12.83 -2.57,-3.86 -5.78,-5.78 -9.63,-5.78zm11.55 43c-1.29,0 -1.92,0.64 -1.92,1.92 0,1.29 1.29,3.85 3.85,7.7 1.29,2.56 3.21,4.48 6.42,5.77 3.21,1.29 5.78,1.92 8.35,1.92 5.13,0 7.69,-0.64 7.69,-1.92 0,-1.29 -3.21,-3.85 -9.63,-7.7 -7.05,-5.13 -12.19,-7.69 -14.76,-7.69zm35.29 45.56c-0.64,0 -1.29,0.64 -1.29,1.92 0,1.29 0,2.57 0,5.13 1.29,1.29 1.29,3.21 1.29,5.78 1.29,5.13 2.57,8.99 3.86,12.2 1.27,3.21 1.92,5.13 1.92,5.13 0,0 1.92,0.64 5.13,2.56 2.56,1.93 6.42,3.86 10.26,6.42 3.86,2.57 7.07,4.49 10.27,5.78 3.21,1.29 4.48,1.92 4.48,1.92 1.29,0 1.93,-1.29 1.93,-2.56 0,-1.93 0,-3.86 0,-5.14 0,-2.56 -1.29,-3.85 -3.86,-4.48 -2.56,-0.65 -5.13,-1.29 -7.05,-1.29 -2.57,0 -5.13,-0.65 -7.07,-2.57 -1.92,-1.92 -2.56,-3.21 -2.56,-4.49 -1.29,-5.13 -1.92,-10.26 -1.92,-15.39 -1.29,-2.57 -2.57,-4.49 -4.49,-6.42 -1.92,-1.92 -4.49,-3.21 -7.05,-4.49l-3.86 0zm35.93 166.85l-1.92 0c0,1.27 2.57,4.48 7.7,9.63 2.57,3.85 7.05,7.05 12.83,10.26 6.42,3.21 12.2,4.49 17.33,4.49 5.13,1.29 9.63,1.92 12.83,1.92 5.13,0 7.7,-1.29 7.7,-3.21 0,-1.29 -1.29,-3.21 -3.86,-5.78 -2.56,-2.56 -7.05,-5.13 -12.83,-6.42 -6.42,-1.92 -12.83,-4.48 -19.25,-7.05 -4.49,-1.29 -8.34,-1.92 -10.91,-1.92 -3.85,-1.29 -7.05,-1.92 -9.63,-1.92zm1522.76 -2267.14c21.19,0 39.15,10.91 52.62,32.09 14.12,21.17 22.46,45.56 26.32,73.16 16.04,42.99 24.38,87.27 24.38,133.46 0,36.58 -5.78,73.8 -16.69,112.95 6.42,14.11 21.17,20.53 44.92,20.53 19.9,0 43.63,-2.56 69.95,-7.05 26.31,-5.13 50.69,-7.7 73.15,-7.7 12.2,0 23.1,1.29 32.09,3.86l37.22 0c32.73,0 66.09,-0.65 99.47,-1.93 32.72,-1.27 64.81,-1.92 96.26,-1.92 64.81,0 129.62,6.42 193.79,18.61 28.88,8.98 50.05,23.75 64.81,44.92 14.12,21.81 21.19,44.27 21.19,68.02 0,26.31 -7.7,50.69 -23.11,73.15 -16.04,22.46 -37.85,39.79 -66.73,50.7 -50.05,14.12 -101.39,21.17 -154.01,21.17 -19.25,0 -38.5,-0.64 -58.39,-1.92l-37.87 0c-19.89,-1.29 -39.14,-1.92 -58.39,-1.92l-221.39 0c-61.6,0 -122.56,0.64 -182.88,1.92 -2.57,14.76 -4.49,30.16 -7.07,46.84 -8.98,69.94 -26.31,140.53 -52.61,210.48 -6.42,68.65 -17.97,137.96 -34.01,206.62 -6.42,26.31 -12.2,53.91 -16.69,82.79 -5.13,32.72 -13.47,66.09 -25.02,99.45 -17.33,45.57 -26.32,86.63 -26.32,124.5 0,6.42 0.65,12.19 1.93,18.6 -4.49,36.58 -11.56,73.8 -20.54,112.94 -14.76,51.34 -22.46,96.26 -22.46,135.41 -8.99,84.06 -20.54,170.04 -35.93,259.25 -2.57,28.88 -4.49,57.74 -7.07,86.62 -7.7,53.91 -11.55,107.17 -11.55,159.79 0,19.89 0.64,39.14 1.92,58.39 -3.85,13.47 -5.77,30.8 -5.77,50.69 0,26.32 3.85,52.62 10.26,78.93 7.05,26.32 17.33,44.92 31.45,56.48 16.03,-10.27 36.57,-21.19 60.95,-32.09 24.39,-11.56 44.28,-16.69 59.04,-16.69 12.83,0 18.61,5.13 18.61,16.69 0,10.9 -7.07,29.51 -22.46,54.55 -5.14,5.13 -10.27,9.61 -16.69,14.76 -22.46,23.73 -48.77,47.48 -78.93,70.59 -30.15,23.1 -60.96,34.65 -92.4,34.65 -13.48,0 -26.95,-3.21 -39.14,-8.99 -11.56,-14.11 -23.75,-21.81 -36.58,-24.38 -13.48,-2.56 -26.32,-3.85 -38.5,-3.85 -5.13,0 -10.26,0 -15.41,0 -21.17,0 -41.06,-2.57 -59.03,-7.7 -17.98,-5.13 -32.73,-19.25 -44.28,-43 -48.77,-94.32 -78.28,-194.43 -88.55,-300.96 -7.05,-65.45 -10.91,-129.62 -10.91,-193.79 0,-78.93 3.86,-157.86 12.2,-236.79 7.7,-78.93 17.97,-157.86 28.88,-236.79 17.97,-48.77 28.23,-98.83 32.09,-150.16 3.85,-44.28 11.55,-86.63 22.46,-128.34 11.55,-85.99 28.88,-171.34 52.61,-255.4 8.99,-30.16 17.33,-60.31 24.39,-90.48 11.55,-37.22 21.17,-75.08 30.15,-112.94 10.27,-47.49 22.46,-94.33 37.87,-140.54 -30.16,-2.56 -60.96,-5.13 -92.41,-7.69 -102.66,-5.13 -202.78,-20.54 -300.96,-46.84 -4.48,1.27 -9.63,1.92 -14.76,1.92 -21.17,0 -39.14,-7.07 -52.61,-21.17 -14.12,-13.48 -20.54,-28.24 -20.54,-43 0,-11.55 4.49,-21.17 14.12,-30.16 8.98,-8.34 24.38,-14.12 45.56,-16.68 66.73,-21.17 136.03,-32.09 209.2,-32.09 3.85,0 7.05,0 10.91,0 40.43,-1.29 80.21,-4.49 120.64,-9.63 7.05,0 14.76,-0.64 22.46,-1.92 43.63,0 82.77,-5.78 116.78,-18.61 33.37,-12.19 52.62,-43.63 55.83,-93.69 10.26,-56.47 32.72,-107.17 68.02,-151.44 35.29,-44.92 76.37,-83.42 123.85,-115.51 21.17,-27.59 41.71,-41.71 60.31,-41.71zm-39.14 208.56c-2.56,0 -3.85,1.29 -3.85,3.85 0,2.57 0.64,4.49 1.92,5.78 1.29,1.29 1.92,1.92 3.21,1.92 2.57,0 4.49,0 5.78,-0.64 1.27,-0.65 1.92,-1.93 1.92,-3.21l-5.78 -5.78c-1.29,-1.29 -2.56,-1.92 -3.21,-1.92zm-397.22 1372.59c-1.27,0 -2.56,0.65 -3.85,1.93 -1.29,1.27 -1.29,3.21 -1.29,5.77 0,1.29 0,2.57 1.29,4.49 1.29,1.92 2.57,3.21 3.85,3.21 2.57,0 4.49,-1.29 5.78,-3.21 1.29,-1.92 1.92,-3.21 1.92,-4.49 0,-2.56 -0.64,-4.49 -1.92,-5.77 -1.29,-1.29 -3.21,-1.93 -5.78,-1.93zm-24.38 122.57c-1.29,0 -3.21,5.13 -5.77,16.68 -0.65,7.7 -1.29,13.47 -1.29,18.61 0,6.42 0.64,11.55 1.29,15.39 1.27,4.49 3.21,7.07 5.77,7.07 2.57,0 5.78,-2.57 9.63,-7.07 3.86,-5.13 5.78,-11.55 5.78,-19.25 0,-5.13 -1.29,-9.63 -3.21,-14.76 -1.92,-5.13 -3.86,-8.99 -6.42,-11.55 -1.29,-3.86 -3.21,-5.13 -5.78,-5.13zm-3.85 85.98l-1.92 0c-1.93,2.57 -3.21,5.13 -3.21,7.7l0 3.85c2.56,3.86 3.85,5.78 5.13,5.78 2.56,0 4.49,-3.21 5.77,-9.63 0,-5.13 -1.27,-7.7 -3.85,-7.7 0,0 -0.64,0 -1.92,0zm0 26.31l-1.92 1.93c-1.93,1.27 -3.86,3.21 -5.14,5.13 -1.27,1.29 -1.92,3.85 -1.92,6.42 0,2.56 1.29,3.85 3.86,3.85l3.21 -1.92c2.56,-1.29 4.48,-3.21 5.13,-5.78 0.64,-2.56 0.64,-4.48 0.64,-5.77 0,-1.29 0,-1.92 -0.64,-2.57 -0.65,-0.64 -1.92,-1.29 -3.21,-1.29zm-7.07 34.02c-2.56,0 -5.13,1.27 -7.69,4.48 -2.57,3.21 -3.86,7.7 -3.86,12.2 0,2.56 0.65,5.13 1.92,7.7 1.29,6.42 1.93,15.39 1.93,27.59 0,11.55 0,23.75 0,36.58 -1.29,16.04 -1.93,26.94 -1.93,31.44l0 1.92c1.29,0 3.86,-4.49 7.7,-14.76 3.86,-11.55 5.78,-24.38 5.78,-39.79l0 -14.76c-1.29,-7.7 -1.92,-13.47 -1.92,-18.6 0,-10.27 1.92,-16.04 5.13,-17.33 2.56,-1.29 3.85,-3.21 3.85,-5.13l-1.92 -3.86c-2.57,-2.56 -4.49,-4.48 -5.13,-5.77 -1.29,-1.29 -2.57,-1.92 -3.86,-1.92zm-5.77 148.23c-2.57,0 -3.86,1.27 -3.86,3.85 0,1.29 0.65,2.57 1.93,3.85 1.27,2.57 1.92,4.49 2.56,5.78 0.65,1.29 1.92,1.92 3.21,1.92 1.29,0 1.92,-1.29 2.57,-3.21 0.64,-1.29 1.29,-3.21 1.29,-4.49 0,-2.56 -0.65,-4.48 -1.93,-5.77 -1.27,-1.29 -3.21,-1.92 -5.77,-1.92zm1.92 32.09l-5.78 0c-3.85,1.27 -5.77,3.85 -5.77,7.69 0,2.57 1.29,5.78 3.85,9.63 3.86,8.35 6.42,12.83 7.7,12.83 2.57,0 4.49,-5.77 5.78,-16.68 0,-8.99 -1.29,-13.47 -3.86,-13.47 -1.29,0 -1.92,0 -1.92,0zm5.78 75.07l-1.93 0c-5.13,7.7 -7.69,19.9 -7.69,35.94 0,15.39 1.27,29.51 4.48,43.63 3.21,13.47 7.7,20.53 12.2,20.53 2.57,0 5.13,-1.27 7.05,-3.21 1.93,-1.92 2.57,-3.21 2.57,-4.48 0,-6.42 -1.92,-13.48 -5.78,-20.54 -2.56,-3.86 -4.48,-10.27 -5.77,-18.61 -1.29,-8.98 -1.92,-17.97 -1.92,-26.94 0,-7.07 0,-13.48 -0.65,-18.61 -0.64,-5.13 -1.29,-7.7 -2.56,-7.7zm22.46 116.79c-1.29,0 -2.57,1.29 -3.86,3.21 -1.29,1.29 -2.56,5.13 -3.85,10.26 -1.29,4.49 -1.92,8.99 -1.92,12.83 0,3.86 0.64,6.42 1.92,7.7 2.56,2.56 4.49,3.85 5.77,3.85 3.86,0 6.42,-5.77 7.7,-17.32l0 -7.07c0,-8.98 -1.92,-13.47 -5.77,-13.47zm8.98 52.61l-1.29 0c-1.27,0 -3.21,3.21 -5.77,9.63 -2.57,5.14 -3.86,8.99 -3.86,12.83 0,5.14 1.93,10.27 5.78,15.41 7.05,9.63 12.83,14.76 16.68,14.76 2.57,0 3.86,-1.92 3.86,-5.77l0 -3.21c-1.29,-2.57 -2.57,-6.42 -3.86,-11.56 0,-2.56 -0.64,-5.13 -1.92,-7.69 0,-1.29 -0.64,-3.21 -1.92,-5.78 -2.57,-4.49 -3.85,-8.99 -3.85,-12.83 0,-1.29 -0.65,-2.57 -1.93,-3.85 0,0 0,0 0,-0.65 0,-0.64 -0.64,-1.29 -1.92,-1.29zm41.71 169.42c-3.85,0 -5.77,2.56 -5.77,7.05 0,1.29 1.92,2.57 4.48,3.85 3.21,1.29 7.07,1.93 10.91,1.93 7.05,0 10.91,-0.65 10.91,-1.93 0,-1.27 -1.92,-2.56 -5.78,-3.85 -5.77,-4.49 -10.9,-7.05 -14.76,-7.05zm1319.34 -1389.28l-3.21 0c-5.14,0 -10.27,1.92 -14.12,5.77 -4.49,3.21 -8.99,7.07 -12.2,10.91 -5.13,5.13 -9.63,9.63 -13.47,13.47l-84.71 95.62c-47.48,64.17 -87.91,132.83 -119.99,206.62 -10.27,22.46 -19.9,46.21 -28.24,69.95 -3.85,9.63 -7.7,19.89 -11.55,30.15 -1.29,5.78 -4.49,12.2 -8.99,18.61 -5.13,6.42 -7.69,11.55 -7.69,16.68l0 1.92c5.13,-1.27 8.98,-3.21 12.83,-6.42 3.85,-3.21 7.05,-7.05 9.63,-12.19 1.27,-3.86 3.21,-6.42 5.77,-7.7 2.57,-1.29 5.78,-1.92 8.99,-1.92 3.85,-1.29 7.05,-2.57 9.63,-4.49 2.56,-1.92 3.85,-5.13 3.85,-10.26l0 -1.92c8.99,-12.83 17.97,-24.39 28.24,-35.94l22.46 -22.46c10.26,-11.55 19.25,-23.1 28.23,-35.93 1.29,-1.29 2.57,-2.57 3.86,-3.21 7.69,-15.41 17.32,-27.59 30.15,-37.87 5.78,-18.6 15.41,-35.93 28.24,-50.69 2.56,-3.85 4.49,-7.7 7.05,-11.55 5.13,-5.78 9.63,-13.48 13.48,-22.46 3.85,-10.27 9.63,-17.97 16.68,-24.38 7.7,-8.99 12.83,-18.61 15.39,-30.16 1.29,-8.99 3.86,-16.04 7.07,-22.46 3.85,-8.99 8.34,-17.97 13.47,-28.24 16.04,-31.44 29.53,-64.81 39.15,-99.45zm-385.03 302.23l-3.85 0c-1.29,0 -1.92,0.65 -1.92,1.29 0,0.65 0,1.29 0,2.57 0,1.29 0.64,3.21 1.92,5.13 1.29,1.92 2.57,2.57 3.85,2.57 2.57,0 4.49,0 5.78,-0.65 1.29,-0.64 1.92,-1.92 1.92,-3.21 0,-1.29 -0.64,-2.56 -1.92,-3.85 -1.29,-1.29 -3.21,-2.57 -5.78,-3.86zm-265.02 539.68c-2.57,1.27 -4.49,6.42 -5.13,14.11 -0.65,8.35 -0.65,17.98 -0.65,29.53 0,16.04 0.65,32.09 2.57,48.77 1.92,16.04 4.49,26.31 7.05,30.16 4.49,7.05 7.05,14.12 7.05,20.54l0 3.85c0,5.13 1.93,9.63 5.78,14.76 2.57,2.57 4.49,7.05 6.42,13.47 1.92,5.78 3.21,12.2 3.21,18.61 1.29,7.7 3.85,13.47 7.05,17.97 3.86,4.49 7.7,6.42 11.56,6.42 3.85,0 7.05,-2.56 9.63,-7.7 1.27,-2.56 1.92,-5.13 1.92,-8.98 0,-5.13 -1.29,-9.63 -3.86,-13.48 -2.56,-3.85 -5.13,-6.42 -6.42,-8.98 -1.92,-2.57 -4.48,-3.86 -7.05,-3.86 -1.29,0 -2.57,-1.92 -4.49,-5.77 -1.92,-3.86 -2.56,-8.34 -2.56,-13.47 0,-5.78 -0.65,-11.56 -1.93,-15.41 -1.27,-4.49 -3.21,-8.34 -5.77,-10.91 -2.57,-3.21 -4.49,-9.63 -6.42,-18.6 -1.92,-8.99 -3.86,-17.98 -5.13,-28.24 -2.57,-38.5 -5.14,-65.46 -7.07,-80.85 0,-1.29 0,-1.92 0,-1.92l-5.77 0zm78.93 236.79c-1.29,0 -2.57,1.29 -3.86,3.85 -1.27,2.57 -1.92,5.78 -1.92,9.63 0,6.42 1.29,10.91 3.86,14.76 2.56,3.86 5.77,5.78 8.98,5.78 3.86,0 7.07,-3.21 9.63,-9.63l0 -3.21c0,-5.13 -1.29,-9.63 -4.49,-14.12 -3.21,-4.49 -7.05,-7.05 -12.19,-7.05zm1.92 116.78l-17.33 0 17.33 13.48c5.13,3.21 10.26,7.05 16.04,10.26 5.13,3.21 9.63,4.49 12.19,4.49 5.78,0 8.99,-0.65 8.99,-1.92 0,-2.57 -3.21,-7.07 -8.99,-12.83 -2.56,-3.86 -7.05,-7.07 -12.19,-9.63 -5.78,-2.57 -10.91,-3.86 -16.04,-3.86zm-2744.56 -1780.08c-6.42,-1.27 -10.91,-5.13 -13.47,-11.55 -2.57,-6.42 -4.49,-12.83 -5.14,-20.54 -1.27,-5.13 -2.56,-8.98 -3.21,-12.19 -0.64,-3.21 -1.92,-5.13 -4.48,-5.13 -3.86,0 -9.63,5.13 -17.33,15.39 -9.63,7.7 -19.25,10.91 -27.59,10.91 -12.83,0 -23.11,-3.85 -31.45,-12.83 -8.34,-8.99 -12.19,-18.6 -12.19,-30.16 0,-10.9 6.42,-22.46 18.6,-34.01 12.83,-7.05 25.03,-14.12 37.87,-20.54 31.44,-14.76 57.11,-35.93 76.99,-62.24 15.41,-16.04 30.16,-31.45 44.92,-46.84 46.85,-44.92 89.2,-93.05 128.34,-144.39 9.63,-14.12 22.46,-25.03 38.5,-34.01 15.41,-8.99 32.09,-13.48 49.41,-13.48 23.1,0 41.71,10.27 56.47,30.16 7.7,15.41 11.55,29.53 11.55,43.63 0,23.75 -6.42,46.84 -18.61,69.3 -12.83,22.46 -26.31,42.36 -41.7,60.33 -11.56,10.91 -22.46,22.46 -34.02,33.37 -56.47,59.03 -114.86,114.22 -176.46,165.55 -17.33,15.41 -36.58,22.46 -56.47,22.46 -7.7,0 -14.12,-0.64 -20.54,-3.21zm386.94 304.17c3.86,-1.27 8.35,-1.92 13.48,-1.92 3.85,0 7.69,0.65 10.9,1.92l5.78 0c5.13,0 10.91,-0.64 17.33,-1.92 5.77,-1.29 12.19,-1.92 18.6,-1.92 5.14,0 9.63,1.29 12.83,3.85 3.86,2.57 5.78,7.7 5.78,15.41l0 3.85c18.61,9.63 30.8,25.67 35.93,47.49 5.13,21.81 7.7,46.21 7.7,72.51l0 78.93c1.29,8.99 1.29,17.33 1.29,26.31 0,25.03 -2.57,48.78 -8.99,71.24 -3.85,21.81 -5.77,41.06 -5.77,58.39l0 13.47c0,28.88 -6.42,60.33 -18.61,93.69 -6.42,21.19 -10.91,39.79 -13.47,54.55 2.56,10.27 3.85,20.54 3.85,32.09 0,25.03 -5.77,50.05 -16.68,75.08 -10.27,23.75 -15.41,47.48 -15.41,71.23 0,8.99 1.29,17.97 3.86,26.95 -2.57,78.93 -17.33,152.08 -44.92,219.46 -6.42,20.54 -10.27,39.14 -11.55,56.47 -1.29,30.16 -10.91,62.89 -30.16,98.18 0,46.21 -6.42,92.41 -20.54,138.61 -7.7,31.45 -13.47,63.53 -18.61,96.26 -1.27,22.46 -1.92,44.92 -1.92,67.38 -1.29,43 -4.49,87.92 -9.63,135.4 -3.85,7.7 -5.13,16.04 -5.13,24.38 0,8.99 0.65,18.61 3.21,28.24 2.57,11.55 3.85,22.46 3.85,34.01 0,17.33 -6.41,35.93 -20.53,54.55l0 3.85c0,17.33 -7.7,34.66 -22.46,51.34 -15.41,17.33 -31.45,25.67 -48.78,25.67 -7.69,0 -14.76,-1.92 -21.17,-5.78 -7.05,-18.6 -19.25,-28.23 -35.29,-28.23 -14.11,0 -28.88,3.21 -45.56,9.63 -14.76,6.42 -28.88,9.63 -43,10.91 -7.69,-4.49 -17.32,-7.7 -30.15,-8.99 -10.91,-2.56 -21.19,-6.42 -30.8,-11.55 -9.63,-5.13 -15.41,-14.76 -17.98,-30.16 -22.46,-63.52 -40.43,-131.55 -54.55,-202.78 -3.85,-19.89 -5.77,-42.99 -5.77,-68.02 0,-7.05 0,-14.12 0,-20.54 -1.29,-21.17 -2.57,-40.43 -3.86,-58.39 -1.27,-17.33 -4.48,-30.8 -10.9,-39.14 -25.03,30.15 -48.13,60.95 -69.95,91.76 -34.65,52.61 -75.07,101.39 -119.99,145.02 -32.73,43.63 -74.45,77.64 -125.77,101.39 -17.98,10.26 -35.29,20.53 -52.62,32.09 -36.58,17.32 -73.16,26.31 -109.09,26.31 -43,0 -82.14,-9.63 -118.72,-28.24 -8.98,0 -16.68,0.65 -24.38,1.93 -14.76,0 -29.51,0 -43,0 -36.57,0 -73.15,-7.7 -109.08,-22.46 -3.86,-10.27 -10.27,-18.61 -19.25,-25.67 -8.34,-6.42 -18.61,-12.83 -29.53,-17.97 -15.39,-7.07 -28.23,-16.04 -39.78,-26.95 -11.55,-10.91 -17.33,-26.95 -18.61,-48.13 -21.17,-75.08 -32.09,-152.09 -32.09,-231.02 0,-36.57 1.29,-72.51 3.86,-109.08 2.56,-18.61 5.13,-38.5 7.69,-58.4 3.21,-61.6 19.25,-119.99 46.84,-176.46 7.7,-22.46 13.48,-46.84 18.61,-73.8 5.13,-52.62 23.75,-99.47 56.47,-140.53 28.88,-81.5 66.09,-159.14 112.94,-232.94 9.63,-15.41 19.25,-28.88 28.24,-41.71 12.19,-17.33 24.38,-34.66 35.29,-50.7 11.55,-16.04 23.1,-35.93 35.93,-58.39 28.88,-36.58 60.33,-70.59 94.33,-103.31 16.04,-16.04 32.09,-33.37 48.77,-50.69 25.03,-12.83 49.41,-26.32 73.15,-41.71 37.87,-22.46 77.65,-42.36 120,-59.68 17.97,-1.29 35.29,-3.86 52.62,-7.7 26.31,-5.13 51.97,-7.7 77.64,-7.7 29.51,0 56.47,7.7 80.85,22.46 51.34,39.14 83.42,87.27 97.54,145.02 10.26,43.63 14.76,89.19 14.76,135.4 0,34.01 -3.85,66.74 -10.91,99.47 -6.42,17.97 -12.83,35.93 -19.25,54.55 -14.76,57.75 -39.14,110.37 -73.15,157.86 -19.9,-2.57 -33.37,-13.47 -40.43,-32.72 -7.07,-19.25 -11.56,-42.36 -14.12,-68.67 -3.86,-32.72 -10.91,-59.68 -22.46,-80.85 -6.42,-22.46 -10.91,-46.84 -14.76,-73.16 -5.13,-27.59 -11.55,-54.55 -19.25,-80.21 -7.07,-25.67 -20.54,-46.84 -39.15,-64.81 -44.27,37.87 -80.85,81.5 -110.37,130.9 -28.88,49.41 -55.83,100.11 -79.58,151.45 0,1.27 -0.64,2.56 -1.92,3.85 -28.88,52.62 -51.34,105.88 -67.38,159.78 -7.69,19.9 -15.39,39.79 -23.1,59.68 -16.04,48.78 -28.88,97.54 -37.22,145.02 -5.13,27.59 -10.91,54.55 -17.33,80.86 -1.92,19.89 -4.49,38.5 -7.05,56.47 -6.42,39.78 -9.63,80.85 -9.63,121.91l0 26.32c1.29,28.88 4.49,58.39 9.63,87.27 5.13,29.51 12.83,55.18 24.38,76.36 6.42,27.6 16.68,41.71 32.09,41.71 14.76,0 30.8,-7.69 47.48,-21.81 17.33,-14.76 33.37,-30.16 48.13,-46.21 8.99,-7.7 16.04,-14.12 22.46,-20.54 12.83,-14.11 25.03,-27.59 37.87,-41.71 35.93,-34.65 64.17,-72.51 84.7,-112.29 53.91,-77.65 102.67,-157.86 146.31,-238.72 1.29,-2.56 2.57,-5.13 3.86,-7.69 17.32,-28.88 33.36,-58.4 46.84,-88.55 19.89,-39.79 42.99,-78.94 68.02,-116.16 25.03,-75.72 55.18,-148.87 89.84,-220.1 7.7,-45.57 21.81,-88.55 41.71,-129.63 13.47,-28.88 25.02,-58.39 33.36,-88.55 27.6,-35.29 48.13,-73.15 60.33,-114.86 14.12,-42.36 35.29,-80.21 64.17,-112.94 12.19,-22.46 29.51,-43.65 51.34,-64.82 22.46,-20.53 44.92,-33.36 68.65,-38.5zm-516.57 323.42c-2.56,0 -3.85,0.65 -3.85,1.92l1.92 1.93c1.29,2.56 2.57,3.85 4.49,4.48 1.92,0.65 3.85,1.29 6.42,1.29 1.29,0 2.57,-0.64 3.85,-1.29 1.29,-0.64 1.93,-1.27 1.93,-2.56 0,-1.29 -1.29,-1.92 -3.86,-2.57 -2.56,-0.64 -5.13,-1.92 -7.05,-3.21l-3.86 0zm7.07 17.33c-1.29,0 -2.57,0.64 -3.21,2.57 -1.29,1.92 -1.92,3.21 -1.92,4.48 0,2.57 0.64,4.49 1.92,5.14 0.64,0.64 1.92,0.64 3.21,0.64 2.56,0 4.49,-0.64 5.77,-2.57 1.29,-1.92 1.93,-3.85 1.93,-5.13 0,-2.56 -0.65,-3.85 -1.93,-4.49 -1.27,-0.64 -3.21,-0.64 -5.77,-0.64zm0 33.37c-1.92,0 -3.21,2.56 -3.21,7.7 0,3.85 0.64,7.69 1.29,11.55 5.13,18.6 8.98,27.59 11.55,27.59 0,0 0.64,-1.29 1.92,-5.13 0,-1.29 -0.64,-4.49 -1.92,-9.63 0,-6.42 -0.65,-12.2 -1.92,-16.69 0,-3.85 0,-6.42 0,-7.69 0,-2.57 -0.65,-4.49 -1.93,-5.78 -1.27,-1.29 -3.21,-1.92 -5.77,-1.92zm-481.28 193.79c-1.29,0 -2.57,1.29 -3.21,4.49 -1.29,3.21 -1.92,7.7 -1.92,12.2l0 7.69c1.27,10.27 2.56,15.41 3.21,15.41 1.27,0 3.21,-4.49 5.77,-13.47 2.57,-6.42 3.86,-11.56 3.86,-14.77 0,-3.85 -0.65,-6.42 -1.93,-7.69 -1.27,-1.29 -1.92,-2.57 -2.56,-3.21 -0.65,0 -1.92,-0.65 -3.21,-0.65zm511.44 69.3c0,1.29 0,2.57 0,3.86 1.27,1.27 1.92,2.56 1.92,3.85 2.56,5.13 4.49,7.7 5.77,7.7l1.93 0c1.27,0 1.92,-0.65 1.92,-1.92 0,-1.29 -0.65,-2.57 -1.92,-4.49 -1.29,-1.92 -2.57,-3.86 -3.86,-5.13 -1.29,-1.29 -1.92,-1.93 -2.56,-2.57 -0.65,-0.64 -1.93,-1.29 -3.21,-1.29zm-755.29 498.61c-1.29,0 -3.21,2.57 -5.77,7.05 -2.57,2.57 -4.49,6.42 -5.78,10.91 -1.29,3.86 -1.92,7.7 -1.92,10.27 0,5.13 0.64,7.05 1.92,7.05 1.29,0 3.21,-1.92 5.78,-7.05 2.56,-3.86 3.85,-8.35 4.48,-12.2 0.65,-4.49 1.29,-8.34 1.29,-10.26l0 -5.78zm712.29 34.01c-2.57,0.65 -3.86,2.57 -3.86,5.13l0 1.93c1.29,1.27 2.57,2.56 3.86,3.85 1.29,1.29 2.56,1.92 3.85,1.92 1.29,0 1.92,-0.64 2.57,-2.56 0.64,-1.93 1.29,-3.86 1.29,-5.14 0,-2.56 -0.65,-3.85 -1.93,-4.48 -1.27,-0.65 -3.21,-0.65 -5.77,-0.65zm-714.22 8.99c-2.56,0 -5.13,12.83 -7.7,37.85 -1.27,8.34 -1.92,14.76 -1.92,18.61 0,5.13 0.65,7.7 1.92,7.7 1.29,0 2.57,-1.29 3.86,-3.86 2.56,-3.85 3.85,-9.63 4.48,-16.68 0.65,-7.7 1.29,-14.76 1.29,-21.17 0,-14.76 -0.64,-22.46 -1.92,-22.46zm924.7 35.93c-1.29,0 -2.57,1.29 -3.86,4.49 -1.29,3.21 -1.92,6.42 -1.92,10.26 0,3.86 0.64,7.07 1.29,9.63 0.64,2.57 1.29,3.86 2.56,3.86 0,0 0.65,-0.65 1.29,-1.93 0,-1.27 0.65,-3.21 1.29,-5.77 0.64,-2.57 1.92,-5.13 3.21,-7.7l0 -5.13c0,-5.13 -1.29,-7.7 -3.85,-7.7zm-141.18 75.08c-1.29,1.27 -2.57,1.92 -3.86,1.92 -1.27,1.29 -2.56,3.21 -5.13,5.77l-3.85 5.78 0 1.29c1.29,0 3.85,-1.29 7.7,-3.21 4.48,-3.86 7.05,-6.42 7.05,-7.7l0 -3.85c0,0 -0.64,0 -1.92,0zm-783.52 3.85c-1.29,0 -3.21,1.29 -5.13,4.49 -1.92,3.21 -3.21,7.05 -4.49,12.19 -2.56,3.86 -3.85,7.7 -3.85,11.56 0,5.13 2.56,8.34 7.7,10.9 6.41,1.29 10.26,1.93 12.82,1.93l3.86 0c1.29,-1.29 1.92,-2.57 1.92,-3.86 0,-1.92 -1.92,-3.85 -5.78,-5.13 -5.13,-3.85 -7.05,-8.99 -7.05,-15.41l0 -3.85c1.29,-3.85 1.92,-6.42 1.92,-8.99 0,-2.56 -0.64,-3.85 -1.92,-3.85zm917 54.55c0,0 -0.65,0.64 -1.92,1.92 0,1.29 -0.65,2.57 -1.93,3.86l-7.05 7.05c0,1.29 -0.64,1.92 -1.92,1.92 -1.29,2.57 -1.92,5.13 -1.92,7.7 0,7.7 3.85,19.89 10.9,37.85 3.86,9.63 6.42,18.61 7.7,26.95 1.29,8.34 1.92,14.76 1.92,19.9l0 7.69c0,3.21 1.29,5.14 3.86,5.14 2.56,0 3.85,-3.21 4.49,-10.27 0.64,-7.05 1.27,-14.76 1.27,-23.1 0,-10.27 -0.64,-18.61 -1.27,-25.67 -0.65,-7.07 -1.29,-10.91 -2.57,-12.2 -1.29,-1.29 -2.57,-4.49 -3.85,-10.26 -1.29,-5.78 -1.93,-10.91 -1.93,-16.04 0,-2.57 0,-5.13 0,-7.7 -1.27,-9.63 -2.56,-14.76 -3.85,-14.76l-1.92 0zm-904.16 7.7c-1.29,0 -1.92,0 -2.57,0.64 -0.64,0.65 -1.92,1.29 -3.21,2.57 -2.56,2.56 -3.85,5.13 -3.85,7.7 0,3.85 1.29,7.05 3.85,9.63 2.57,2.56 5.78,3.85 9.63,3.85 1.29,-1.29 1.93,-4.49 1.93,-9.63l0 -5.78c-1.29,-2.56 -1.93,-4.48 -2.57,-5.77 -0.64,-1.29 -1.92,-1.92 -3.21,-3.21zm7.7 39.14c-2.57,1.29 -4.49,2.57 -5.78,3.85 -1.29,1.29 -2.56,3.21 -3.85,5.78 -1.29,3.85 -2.57,7.05 -4.49,10.91 -1.92,3.85 -3.21,6.42 -4.49,7.7l0 1.92c0,1.29 2.57,3.85 8.99,7.7 6.42,3.85 12.83,7.05 19.89,10.26 7.07,3.21 12.83,5.13 17.97,6.42 0,-2.57 -2.56,-7.05 -7.69,-13.47 -2.57,-3.21 -5.14,-7.7 -7.7,-12.83 -2.57,-5.14 -3.86,-9.63 -3.86,-12.83 0,-5.14 -0.64,-8.99 -2.56,-11.56 -1.92,-2.56 -3.86,-3.85 -6.42,-3.85zm44.92 77.01l-1.92 1.92c0,1.29 1.27,3.21 3.21,4.49 1.92,1.92 3.85,4.49 6.42,7.05 7.69,3.86 12.19,5.78 14.76,5.78l1.92 0c0,-2.57 -3.21,-6.42 -8.99,-11.55 -5.13,-5.13 -9.63,-7.7 -13.47,-7.7l-1.92 0zm857.31 17.33c-1.27,0 -1.92,0 -2.56,0.64 -0.65,0.64 -1.29,1.92 -1.29,4.49 0,1.29 1.29,3.85 3.85,7.05 2.57,3.21 5.14,5.78 7.7,8.34 2.57,2.57 5.13,3.86 7.7,3.86 0,0 0,-1.29 0,-3.86 0,-2.56 -0.64,-5.77 -1.92,-9.63 -5.13,-7.69 -9.63,-10.9 -13.48,-10.9zm-900.3 27.59c-2.57,0 -3.85,0.64 -3.85,1.92 0,1.29 0.64,3.21 1.92,5.78 1.29,2.56 3.85,4.48 7.7,5.77 3.21,1.29 7.69,1.92 12.83,1.92 3.85,0 7.69,-0.64 11.55,-1.92 3.21,-1.29 5.13,-3.21 5.13,-5.77 0,-1.29 -0.64,-2.57 -2.57,-3.86 -1.92,-1.29 -3.21,-1.92 -4.48,-1.92l-11.56 0c-5.13,0 -8.98,-0.64 -12.83,-1.92l-3.85 0zm904.16 11.55c-2.57,1.29 -4.49,2.57 -5.78,3.85 -1.29,1.29 -2.56,3.21 -3.85,5.78l0 1.92c0,1.29 1.92,3.21 5.13,7.07 3.21,3.85 6.42,7.05 10.26,9.63 3.86,2.56 6.42,3.85 8.99,3.85l1.92 0 0 -1.92c0,-2.57 -0.64,-6.42 -1.92,-11.55 0,-1.29 0,-2.57 0,-3.21 -2.57,-10.27 -7.05,-15.41 -14.76,-15.41zm24.38 41.71c-1.29,0 -1.92,0 -2.57,0.64 -0.64,0.65 -1.92,1.29 -3.21,2.57 -2.56,2.56 -3.85,5.77 -3.85,9.63 0,2.56 0.64,4.49 1.92,5.77 2.57,2.57 4.49,3.86 5.78,3.86 2.56,0 4.49,-1.29 5.77,-3.86 2.57,-3.85 3.86,-7.05 3.86,-9.63 0,-2.56 -0.65,-4.48 -1.92,-5.77 -1.29,-1.29 -2.57,-1.92 -3.21,-2.57 -0.65,-0.64 -1.29,-0.64 -2.57,-0.64zm-859.24 10.91c-5.13,1.27 -7.7,1.92 -7.7,1.92l7.7 3.85c5.13,2.57 10.26,3.86 15.41,3.86l5.13 0c5.13,0 7.7,-0.65 7.7,-1.93 0,-1.27 -2.57,-2.56 -7.7,-3.85 -4.49,-2.57 -9.63,-3.85 -14.76,-3.85l-5.78 0zm872.71 28.23c-1.29,0 -2.56,0 -3.21,0 -0.64,0 -1.27,0.65 -2.56,1.92 -7.7,2.57 -11.55,5.78 -11.55,9.63 0,4.49 5.13,10.91 15.39,18.61 7.05,6.42 12.83,9.63 16.68,9.63 1.29,0 1.93,-0.64 1.93,-1.92 0,-2.57 -2.57,-7.07 -7.7,-13.48 -2.57,-2.56 -4.49,-5.13 -5.78,-7.69 -1.29,-1.93 -1.92,-4.49 -1.92,-7.07l0 -9.63c0,0 0,0 -1.29,0zm0 75.08l-1.92 0c0,0 0,0.64 0,1.92 -1.29,0 -1.92,0.64 -1.92,1.92 0,1.29 0.64,2.57 1.92,3.86 1.29,1.27 3.21,2.56 5.13,3.85 5.13,2.57 8.99,3.85 11.55,3.85 0,-1.27 -1.92,-4.48 -5.77,-9.63 -3.86,-3.85 -7.07,-5.77 -8.99,-5.77zm39.15 15.39c-1.29,0 -1.93,0.65 -1.93,1.93 -1.27,0 -1.92,0 -2.56,0 -0.65,0 -1.29,0.64 -1.29,1.92l0 1.29c1.29,1.27 3.21,2.56 5.78,3.21 2.56,0.64 5.13,0.64 7.69,0.64 3.86,0 6.42,0 8.35,-0.64 1.92,-0.65 2.56,-1.93 2.56,-3.21 0,-1.93 -4.49,-3.21 -14.76,-3.21 0,0 0,-0.65 0,-1.93 -1.29,0 -1.92,0 -1.92,0 0,0 0,0 0,0 0,0 0,0 0,0 0,0 0,0 0,0 0,0 0,0 0,0 0,0 -0.65,0 -1.92,0zm-3718.66 -1449.6l-1.92 0c0,1.29 1.29,3.85 3.85,7.7 2.57,5.77 4.49,8.98 5.78,8.98l1.92 0c1.29,-1.29 1.92,-2.56 1.92,-3.85 0,-1.29 -0.64,-2.57 -1.92,-4.49 -1.29,-1.92 -2.57,-3.21 -3.85,-4.49 -1.29,-1.29 -2.57,-2.56 -3.86,-3.21 -1.29,-0.64 -1.92,-0.64 -1.92,-0.64zm-526.2 157.86l0 7.7c0,5.77 0.64,8.98 1.92,8.98l1.92 0c1.29,-1.29 1.93,-3.21 1.93,-5.13 0,-2.56 -0.65,-5.13 -1.93,-7.7l-1.92 -3.85c-1.29,0 -1.92,0 -1.92,0 0,0 0,0 0,0 0,0 0,0 0,0 0,0 0,0 0,0 0,0 0,0 0,0zm-39.79 73.15c-1.27,0 -2.56,1.29 -3.85,3.86 -1.29,2.56 -1.92,5.77 -1.92,9.63 1.29,9.63 3.85,14.76 7.7,14.76 3.85,0 7.05,-3.21 9.63,-8.99l0 -5.77c0,-7.7 -3.86,-12.2 -11.56,-13.48zm-14.76 37.87l-3.85 0c-1.29,1.29 -1.92,2.56 -1.92,3.85l0 7.07c3.85,3.85 6.42,5.77 7.69,5.77 1.29,0 1.93,-1.92 1.93,-5.77l0 -5.14c0,-2.56 -0.65,-4.48 -1.29,-5.13 -0.65,-0.64 -1.29,-0.64 -2.57,-0.64zm-45.56 91.76c-0.64,0 -1.92,0.64 -2.57,1.92 -0.64,1.29 -0.64,2.57 -0.64,3.85 0,1.29 0.64,3.21 1.92,5.78 0.65,2.57 1.92,4.49 3.21,6.42 1.29,1.92 2.57,3.21 3.85,3.21 0,0 0.65,-1.29 1.29,-3.21 0.65,-1.92 0.65,-3.85 0.65,-6.42 -1.29,-2.57 -1.93,-5.13 -2.57,-7.7 -0.64,-2.56 -2.57,-3.85 -5.13,-3.85zm-225.24 564.05c-1.29,0 -2.57,0 -3.21,0 -0.64,0 -1.29,0.65 -2.57,1.93 -2.56,1.27 -3.85,3.21 -3.85,5.77 0,2.57 1.29,5.13 3.85,7.7 2.57,2.56 5.78,3.85 9.63,3.85 2.57,0 3.86,-0.64 4.49,-1.92 0.65,-1.29 1.29,-2.57 1.29,-3.85 0,-3.86 -1.29,-7.07 -3.21,-9.63 -1.92,-2.57 -3.85,-3.86 -6.42,-3.86zm684.05 32.09l-5.78 5.78c-0.64,1.29 -1.27,2.56 -1.27,3.85 0,2.57 1.92,3.86 5.13,3.86 2.56,0 4.49,-1.29 5.13,-3.21 0.64,-1.93 0.64,-3.21 0.64,-4.49 0,-2.57 0,-3.86 -0.64,-4.49 -0.64,-0.64 -1.92,-1.29 -3.21,-1.29zm-682.13 1.92c-1.29,0 -2.56,0.65 -3.21,1.93 -0.64,1.27 -0.64,3.21 -0.64,5.77 0,5.78 1.29,8.99 3.85,8.99 1.29,0 3.21,-1.92 5.78,-5.13l0 -1.93c0,-1.27 -0.65,-2.56 -1.29,-3.85 -0.64,-1.29 -1.29,-2.57 -2.57,-3.85l0 -1.93 -1.92 0zm0 35.94l-7.7 18.6c-3.85,7.7 -5.77,13.48 -5.77,16.69 0,2.56 0.64,4.49 1.92,5.77 1.29,1.29 3.85,2.57 7.7,3.86 6.42,3.85 9.63,10.9 9.63,20.53l0 19.25c0,4.49 0.64,8.35 1.92,10.91 0.64,2.57 2.57,4.49 5.13,5.78 2.57,1.29 5.13,3.21 7.7,6.42 2.57,3.21 3.85,6.42 3.85,10.26 0,3.86 1.29,7.7 3.86,12.2 2.56,4.49 5.13,8.34 7.05,10.26 2.57,1.29 4.49,3.21 5.78,5.13 1.27,1.92 1.92,3.21 1.92,4.49l0 3.85c0,1.29 1.29,3.21 3.21,6.42 1.92,3.21 3.85,6.42 6.42,9.63 2.56,3.21 4.49,4.49 5.77,4.49l-3.85 -22.46c-1.29,-6.42 -3.21,-12.83 -5.78,-19.89 -2.56,-7.05 -5.13,-12.2 -7.69,-16.04 -2.57,-2.57 -4.49,-5.78 -5.78,-10.91 -0.64,-5.13 -1.29,-10.26 -1.29,-15.39l0 -12.83c0,-11.56 -3.85,-18.61 -11.55,-22.46 -5.13,-2.57 -8.98,-7.07 -12.19,-13.48 -3.21,-6.42 -5.14,-12.19 -6.42,-18.6l-3.86 -22.46zm627.59 24.38c-1.29,0 -2.57,0 -3.85,0.64 -0.65,0.65 -1.29,1.93 -1.29,3.21l0 1.93c0,1.27 0,1.92 0.64,3.21 0.65,1.27 0.65,1.92 0.65,1.92l0 1.92c1.27,0 2.56,-0.64 3.85,-1.92 1.29,-1.29 2.57,-3.21 3.85,-5.13l0 -1.93c0,-2.56 -1.27,-3.85 -3.85,-3.85zm-569.19 163.64c-1.27,0 -3.21,0.64 -5.77,1.92 -2.57,1.29 -6.42,2.56 -11.55,5.13 -7.07,5.13 -10.91,8.99 -10.91,11.55 0,2.57 3.21,3.86 8.98,3.86l7.7 0c10.27,-3.86 14.76,-8.35 14.76,-13.48 0,-2.56 0,-4.49 0,-6.42 0,-1.92 -0.64,-2.56 -3.21,-2.56zm-9.63 78.93c-1.27,0 -1.92,0.64 -1.92,1.92 0,2.56 0.65,4.49 1.92,7.05 3.86,2.57 7.07,3.86 9.63,3.86l3.21 0c1.29,-1.29 1.93,-2.57 1.93,-3.86 0,-2.56 -1.29,-4.49 -5.14,-7.05 -2.56,-1.29 -5.13,-1.92 -7.69,-1.92l-1.93 0zm62.25 33.36c-5.13,0 -7.7,2.57 -7.7,7.7 0,3.86 1.29,6.42 3.86,7.7 2.56,1.29 5.13,1.92 7.05,1.92 3.86,0 7.7,-1.92 11.55,-5.77l0 -1.93c0,-2.56 -3.21,-5.13 -9.63,-7.69 -1.27,-1.29 -1.92,-1.93 -2.56,-1.93 -0.65,0 -1.29,0 -2.57,0zm1507.36 -1680.62l5.77 0c42.36,0 77.64,15.41 105.25,46.21 27.59,30.8 41.06,55.83 41.06,74.43 0,3.86 0,7.07 -1.29,8.99 -23.1,104.6 -65.45,235.5 -128.33,393.36 -51.34,132.84 -92.41,254.12 -123.85,364.49l1.92 0c8.98,0 24.38,-19.25 46.84,-57.12 22.46,-38.5 48.13,-83.42 77.01,-134.76 31.44,-55.18 61.6,-106.52 90.48,-154 28.88,-47.49 51.97,-77.65 69.3,-90.48 7.7,-7.07 15.41,-15.41 23.1,-24.39 55.83,-62.24 118.72,-119.99 187.38,-172.62 69.3,-52.62 148.87,-81.5 238.71,-86.63 56.47,0 95.62,19.9 118.07,59.04 21.82,39.79 32.73,82.77 32.73,128.98 0,37.87 -5.78,73.16 -16.69,107.17 -7.69,36.57 -16.04,73.15 -25.02,111.01 -23.75,96.25 -42.35,194.43 -55.83,293.26 -16.68,63.52 -26.95,128.34 -32.09,193.79 -5.13,64.82 -7.7,130.91 -7.7,197.01 5.14,27.59 8.35,59.03 9.63,94.32 1.29,56.47 8.35,109.09 21.19,158.51 13.47,49.4 43.63,80.85 91.11,93.05 26.32,-4.49 58.4,-16.69 96.26,-35.29 19.89,-10.27 38.5,-18.61 56.47,-25.67 17.33,-7.07 32.09,-10.27 43,-10.27 11.55,0 17.97,5.78 18.6,16.69 0,12.83 -7.05,33.36 -22.46,62.24 -28.87,44.92 -64.81,83.42 -109.08,114.87 -43.63,31.44 -91.76,46.84 -144.39,46.84 -39.14,0 -79.57,-12.2 -122.56,-35.94 -76.37,-5.77 -136.68,-37.85 -180.97,-94.97 -44.92,-57.11 -68.65,-121.28 -72.51,-192.5 -8.98,-51.34 -13.47,-102.04 -13.47,-152.09 0,-52.61 3.21,-105.23 9.63,-157.21 6.42,-51.99 13.47,-103.32 22.46,-155.3 5.13,-35.93 10.26,-72.51 15.39,-108.44 4.49,-37.87 15.41,-80.21 31.45,-126.42 20.54,-55.18 30.16,-100.74 30.16,-137.32 0,-13.47 -2.57,-25.67 -7.07,-35.29 -93.04,72.51 -173.25,164.92 -240,275.93 -66.73,111.66 -124.49,229.1 -171.98,351.66 -47.48,123.2 -89.19,238.07 -123.85,345.88 -34.01,103.95 -64.81,189.3 -92.4,256.04 -27.59,66.09 -55.18,99.47 -82.77,99.47 -44.92,0 -82.14,-16.04 -111.66,-48.78 -29.51,-32.72 -52.61,-71.86 -69.94,-117.43 -16.69,-46.19 -28.88,-91.11 -35.29,-135.4 -7.05,-44.92 -10.26,-78.28 -10.26,-100.74l0 -32.09c0,-210.48 21.17,-419.04 63.52,-625.66 22.46,-53.9 38.5,-109.73 46.84,-167.48 8.99,-69.94 30.8,-136.03 66.09,-197.65 52.62,-150.16 124.49,-288.76 216.26,-415.18 46.19,-44.27 88.55,-66.09 125.77,-66.09zm-37.22 257.97c-1.29,0 -2.57,0 -3.21,0.64 -0.65,0.64 -1.93,1.92 -4.49,3.21 -1.29,0.64 -2.57,1.92 -3.86,3.21 -3.85,2.56 -7.05,5.77 -9.63,8.98 -2.56,2.57 -3.21,5.14 -3.21,6.42 0,1.29 0.65,1.93 1.29,1.93 3.86,0 8.99,-4.49 15.41,-13.48 1.29,-1.29 2.56,-2.56 3.85,-3.85 1.29,-2.57 1.92,-3.85 2.57,-4.49 0.64,-0.64 1.29,-1.29 1.29,-2.56zm-64.17 119.99l-5.78 0c-2.57,2.57 -5.13,5.13 -7.7,8.34 -1.92,3.21 -3.21,6.42 -3.21,8.99 1.29,4.49 3.86,7.05 7.07,7.05 1.27,0 3.21,-0.64 5.77,-1.92 3.86,-1.29 6.42,-3.21 8.34,-6.42 1.93,-3.21 3.21,-5.78 3.21,-8.34 0,-2.57 -0.64,-4.49 -1.92,-5.78 -1.29,-1.29 -3.21,-1.92 -5.77,-1.92zm-80.86 252.19c-1.27,0 -3.21,1.29 -5.77,3.85 -1.29,1.29 -3.21,2.57 -5.78,3.21 -1.92,2.57 -4.49,6.42 -6.42,11.55 -1.92,5.13 -2.56,10.27 -2.56,15.41l0 5.13c0,10.26 0.64,15.41 1.92,15.41 1.29,0 4.49,-7.7 8.98,-22.46 2.57,-7.7 5.14,-14.12 7.07,-19.9 1.92,-5.77 2.56,-8.98 2.56,-10.26l0 -1.92zm607.06 648.11l0 13.48c0,10.26 0.64,15.39 1.92,16.68 1.29,0 1.92,-0.64 1.92,-1.92 1.29,-3.21 1.92,-7.05 1.92,-10.91 0,-5.13 -0.64,-9.63 -1.92,-13.47l-1.92 -3.86 -1.92 0zm5.77 60.33c-1.29,0 -1.92,0.64 -2.56,1.92 -0.65,1.29 -1.29,3.21 -1.29,5.78 1.29,6.42 3.21,11.55 5.13,14.76 1.92,3.85 3.85,5.77 6.42,5.77 2.57,0 4.49,-1.92 5.78,-5.77l0 -3.21c0,-5.13 -2.57,-10.27 -7.7,-15.41 -1.29,-1.29 -2.57,-1.92 -2.57,-1.92 -0.64,0 -1.29,-0.64 -1.29,-1.92 -1.27,0 -1.92,0 -1.92,0 0,0 0,0 0,0 0,0 0,0 0,0 0,0 0,0 0,0 0,0 0,0 0,0zm11.55 50.69c-1.27,0 -1.92,0.65 -1.92,1.93 0,1.27 0,3.85 0,7.69 0,2.57 0,5.14 0.65,7.7 0.64,2.57 1.92,3.86 3.21,3.86 1.27,0 1.92,-0.65 1.92,-1.93 1.29,-1.27 1.92,-3.21 1.92,-5.77 0,-3.86 -0.64,-7.07 -1.92,-9.63l-3.86 -3.86zm3.86 41.71l-3.86 0c-2.56,2.57 -3.85,5.13 -3.85,7.7 0,1.92 0.64,3.85 1.92,5.13 3.86,5.13 6.42,7.7 7.7,7.7 1.92,0 3.21,-3.85 3.21,-11.55 0,-1.92 -0.64,-4.49 -1.92,-6.42 -1.29,-1.92 -1.92,-2.57 -3.21,-2.57zm29.51 54.55c-1.29,0 -1.92,0.65 -3.21,1.92 -1.29,1.29 -2.57,3.21 -3.85,5.14 -1.29,2.56 -1.93,4.48 -1.93,5.77 0,2.57 1.93,3.86 5.78,3.86 4.49,0 7.05,-2.57 7.05,-7.7l0 -1.92c0,-1.93 0,-3.86 -0.64,-5.14 -0.64,-1.27 -1.92,-1.92 -3.21,-1.92zm35.93 60.33c0,0 0,0.64 -0.64,2.56 -0.64,1.92 -1.29,3.86 -1.29,6.42 1.29,3.86 2.57,6.42 3.21,8.34 0,1.93 1.29,3.21 2.57,3.21 1.29,-2.56 1.92,-5.13 1.92,-7.69 0,-3.86 -0.64,-7.07 -1.92,-9.63l-1.92 -3.21c-1.29,0 -1.93,0 -1.93,0 0,0 0,0 0,0 0,0 0,0 0,0 0,0 0,0 0,0 0,0 0,0 0,0zm13.48 75.07c-1.29,0 -2.57,0 -3.21,0 -0.65,0 -1.29,0.65 -2.57,1.92 -7.7,2.57 -11.55,4.49 -11.55,7.07 0,2.56 5.78,3.85 17.33,3.85 3.21,0 6.42,-0.64 8.98,-1.92 2.57,-1.29 3.86,-2.57 3.86,-3.85l-1.92 -1.29c-1.29,-2.57 -2.57,-4.49 -4.49,-5.13 -1.92,-0.65 -4.49,-0.65 -6.42,-0.65zm1144.78 -2260.07c21.19,0 39.15,10.91 52.62,32.09 14.12,21.17 22.46,45.56 26.32,73.16 16.04,42.99 24.38,87.27 24.38,133.46 0,36.58 -5.78,73.8 -16.69,112.95 6.42,14.11 21.17,20.53 44.92,20.53 19.9,0 43.63,-2.56 69.95,-7.05 26.31,-5.13 50.69,-7.7 73.15,-7.7 12.2,0 23.1,1.29 32.09,3.86l37.22 0c32.73,0 66.09,-0.65 99.47,-1.93 32.72,-1.27 64.81,-1.92 96.26,-1.92 64.81,0 129.62,6.42 193.79,18.61 28.88,8.98 50.05,23.75 64.81,44.92 14.12,21.81 21.19,44.27 21.19,68.02 0,26.31 -7.7,50.69 -23.11,73.15 -16.04,22.46 -37.85,39.79 -66.73,50.7 -50.05,14.12 -101.39,21.17 -154.01,21.17 -19.25,0 -38.5,-0.64 -58.39,-1.92l-37.87 0c-19.89,-1.29 -39.14,-1.92 -58.39,-1.92l-221.39 0c-61.6,0 -122.56,0.64 -182.88,1.92 -2.57,14.76 -4.49,30.16 -7.07,46.84 -8.98,69.94 -26.31,140.53 -52.61,210.48 -6.42,68.65 -17.97,137.96 -34.01,206.62 -6.42,26.31 -12.2,53.91 -16.69,82.79 -5.13,32.72 -13.47,66.09 -25.02,99.45 -17.33,45.57 -26.32,86.63 -26.32,124.5 0,6.42 0.65,12.19 1.93,18.6 -4.49,36.58 -11.56,73.8 -20.54,112.94 -14.76,51.34 -22.46,96.26 -22.46,135.41 -8.99,84.06 -20.54,170.04 -35.93,259.25 -2.57,28.88 -4.49,57.74 -7.07,86.62 -7.7,53.91 -11.55,107.17 -11.55,159.79 0,19.89 0.64,39.14 1.92,58.39 -3.85,13.47 -5.77,30.8 -5.77,50.69 0,26.32 3.85,52.62 10.26,78.93 7.05,26.32 17.33,44.92 31.45,56.48 16.03,-10.27 36.57,-21.19 60.95,-32.09 24.39,-11.56 44.28,-16.69 59.04,-16.69 12.83,0 18.61,5.13 18.61,16.69 0,10.9 -7.07,29.51 -22.46,54.55 -5.14,5.13 -10.27,9.61 -16.69,14.76 -22.46,23.73 -48.77,47.48 -78.93,70.59 -30.15,23.1 -60.96,34.65 -92.4,34.65 -13.48,0 -26.95,-3.21 -39.14,-8.99 -11.56,-14.11 -23.75,-21.81 -36.58,-24.38 -13.48,-2.56 -26.32,-3.85 -38.5,-3.85 -5.13,0 -10.26,0 -15.41,0 -21.17,0 -41.06,-2.57 -59.03,-7.7 -17.98,-5.13 -32.73,-19.25 -44.28,-43 -48.77,-94.32 -78.28,-194.43 -88.55,-300.96 -7.05,-65.45 -10.91,-129.62 -10.91,-193.79 0,-78.93 3.86,-157.86 12.2,-236.79 7.7,-78.93 17.97,-157.86 28.88,-236.79 17.97,-48.77 28.23,-98.83 32.09,-150.16 3.85,-44.28 11.55,-86.63 22.46,-128.34 11.55,-85.99 28.88,-171.34 52.61,-255.4 8.99,-30.16 17.33,-60.31 24.39,-90.48 11.55,-37.22 21.17,-75.08 30.15,-112.94 10.27,-47.49 22.46,-94.33 37.87,-140.54 -30.16,-2.56 -60.96,-5.13 -92.41,-7.69 -102.66,-5.13 -202.78,-20.54 -300.96,-46.84 -4.48,1.27 -9.63,1.92 -14.76,1.92 -21.17,0 -39.14,-7.07 -52.61,-21.17 -14.12,-13.48 -20.54,-28.24 -20.54,-43 0,-11.55 4.49,-21.17 14.12,-30.16 8.98,-8.34 24.38,-14.12 45.56,-16.68 66.73,-21.17 136.03,-32.09 209.2,-32.09 3.85,0 7.05,0 10.91,0 40.43,-1.29 80.21,-4.49 120.64,-9.63 7.05,0 14.76,-0.64 22.46,-1.92 43.63,0 82.77,-5.78 116.78,-18.61 33.37,-12.19 52.62,-43.63 55.83,-93.69 10.26,-56.47 32.72,-107.17 68.02,-151.44 35.29,-44.92 76.37,-83.42 123.85,-115.51 21.17,-27.59 41.71,-41.71 60.31,-41.71zm-39.14 208.56c-2.56,0 -3.85,1.29 -3.85,3.85 0,2.57 0.64,4.49 1.92,5.78 1.29,1.29 1.92,1.92 3.21,1.92 2.57,0 4.49,0 5.78,-0.64 1.27,-0.65 1.92,-1.93 1.92,-3.21l-5.78 -5.78c-1.29,-1.29 -2.56,-1.92 -3.21,-1.92zm-397.22 1372.59c-1.27,0 -2.56,0.65 -3.85,1.93 -1.29,1.27 -1.29,3.21 -1.29,5.77 0,1.29 0,2.57 1.29,4.49 1.29,1.92 2.57,3.21 3.85,3.21 2.57,0 4.49,-1.29 5.78,-3.21 1.29,-1.92 1.92,-3.21 1.92,-4.49 0,-2.56 -0.64,-4.49 -1.92,-5.77 -1.29,-1.29 -3.21,-1.93 -5.78,-1.93zm-24.38 122.57c-1.29,0 -3.21,5.13 -5.77,16.68 -0.65,7.7 -1.29,13.47 -1.29,18.61 0,6.42 0.64,11.55 1.29,15.39 1.27,4.49 3.21,7.07 5.77,7.07 2.57,0 5.78,-2.57 9.63,-7.07 3.86,-5.13 5.78,-11.55 5.78,-19.25 0,-5.13 -1.29,-9.63 -3.21,-14.76 -1.92,-5.13 -3.86,-8.99 -6.42,-11.55 -1.29,-3.86 -3.21,-5.13 -5.78,-5.13zm-3.85 85.98l-1.92 0c-1.93,2.57 -3.21,5.13 -3.21,7.7l0 3.85c2.56,3.86 3.85,5.78 5.13,5.78 2.56,0 4.49,-3.21 5.77,-9.63 0,-5.13 -1.27,-7.7 -3.85,-7.7 0,0 -0.64,0 -1.92,0zm0 26.31l-1.92 1.93c-1.93,1.27 -3.86,3.21 -5.14,5.13 -1.27,1.29 -1.92,3.85 -1.92,6.42 0,2.56 1.29,3.85 3.86,3.85l3.21 -1.92c2.56,-1.29 4.48,-3.21 5.13,-5.78 0.64,-2.56 0.64,-4.48 0.64,-5.77 0,-1.29 0,-1.92 -0.64,-2.57 -0.65,-0.64 -1.92,-1.29 -3.21,-1.29zm-7.07 34.02c-2.56,0 -5.13,1.27 -7.69,4.48 -2.57,3.21 -3.86,7.7 -3.86,12.2 0,2.56 0.65,5.13 1.92,7.7 1.29,6.42 1.93,15.39 1.93,27.59 0,11.55 0,23.75 0,36.58 -1.29,16.04 -1.93,26.94 -1.93,31.44l0 1.92c1.29,0 3.86,-4.49 7.7,-14.76 3.86,-11.55 5.78,-24.38 5.78,-39.79l0 -14.76c-1.29,-7.7 -1.92,-13.47 -1.92,-18.6 0,-10.27 1.92,-16.04 5.13,-17.33 2.56,-1.29 3.85,-3.21 3.85,-5.13l-1.92 -3.86c-2.57,-2.56 -4.49,-4.48 -5.13,-5.77 -1.29,-1.29 -2.57,-1.92 -3.86,-1.92zm-5.77 148.23c-2.57,0 -3.86,1.27 -3.86,3.85 0,1.29 0.65,2.57 1.93,3.85 1.27,2.57 1.92,4.49 2.56,5.78 0.65,1.29 1.92,1.92 3.21,1.92 1.29,0 1.92,-1.29 2.57,-3.21 0.64,-1.29 1.29,-3.21 1.29,-4.49 0,-2.56 -0.65,-4.48 -1.93,-5.77 -1.27,-1.29 -3.21,-1.92 -5.77,-1.92zm1.92 32.09l-5.78 0c-3.85,1.27 -5.77,3.85 -5.77,7.69 0,2.57 1.29,5.78 3.85,9.63 3.86,8.35 6.42,12.83 7.7,12.83 2.57,0 4.49,-5.77 5.78,-16.68 0,-8.99 -1.29,-13.47 -3.86,-13.47 -1.29,0 -1.92,0 -1.92,0zm5.78 75.07l-1.93 0c-5.13,7.7 -7.69,19.9 -7.69,35.94 0,15.39 1.27,29.51 4.48,43.63 3.21,13.47 7.7,20.53 12.2,20.53 2.57,0 5.13,-1.27 7.05,-3.21 1.93,-1.92 2.57,-3.21 2.57,-4.48 0,-6.42 -1.92,-13.48 -5.78,-20.54 -2.56,-3.86 -4.48,-10.27 -5.77,-18.61 -1.29,-8.98 -1.92,-17.97 -1.92,-26.94 0,-7.07 0,-13.48 -0.65,-18.61 -0.64,-5.13 -1.29,-7.7 -2.56,-7.7zm22.46 116.79c-1.29,0 -2.57,1.29 -3.86,3.21 -1.29,1.29 -2.56,5.13 -3.85,10.26 -1.29,4.49 -1.92,8.99 -1.92,12.83 0,3.86 0.64,6.42 1.92,7.7 2.56,2.56 4.49,3.85 5.77,3.85 3.86,0 6.42,-5.77 7.7,-17.32l0 -7.07c0,-8.98 -1.92,-13.47 -5.77,-13.47zm8.98 52.61l-1.29 0c-1.27,0 -3.21,3.21 -5.77,9.63 -2.57,5.14 -3.86,8.99 -3.86,12.83 0,5.14 1.93,10.27 5.78,15.41 7.05,9.63 12.83,14.76 16.68,14.76 2.57,0 3.86,-1.92 3.86,-5.77l0 -3.21c-1.29,-2.57 -2.57,-6.42 -3.86,-11.56 0,-2.56 -0.64,-5.13 -1.92,-7.69 0,-1.29 -0.64,-3.21 -1.92,-5.78 -2.57,-4.49 -3.85,-8.99 -3.85,-12.83 0,-1.29 -0.65,-2.57 -1.93,-3.85 0,0 0,0 0,-0.65 0,-0.64 -0.64,-1.29 -1.92,-1.29zm41.71 169.42c-3.85,0 -5.77,2.56 -5.77,7.05 0,1.29 1.92,2.57 4.48,3.85 3.21,1.29 7.07,1.93 10.91,1.93 7.05,0 10.91,-0.65 10.91,-1.93 0,-1.27 -1.92,-2.56 -5.78,-3.85 -5.77,-4.49 -10.9,-7.05 -14.76,-7.05zm-3288.07 -2393.55c-14.12,0 -26.95,4.48 -39.79,12.19 -12.2,8.34 -20.54,22.46 -24.38,42.36 -7.7,22.46 -14.12,46.84 -18.61,71.86 -8.98,37.22 -20.53,73.8 -34.01,108.45 -12.83,61.6 -28.88,121.91 -48.77,180.96 -2.57,6.42 -4.49,13.47 -5.78,22.46 -5.13,17.33 -10.91,35.93 -17.97,54.55 -7.05,18.6 -14.76,28.23 -23.75,28.23 -5.77,0 -12.19,-5.13 -18.6,-15.39 1.29,-27.59 5.77,-55.18 13.47,-82.79 4.49,-25.02 8.34,-50.69 10.91,-76.99 3.85,-21.19 7.7,-42.36 11.55,-63.53 8.99,-36.58 14.76,-73.8 18.61,-111.01 -17.33,21.17 -34.01,46.84 -48.78,77.01 -5.13,11.55 -10.9,21.82 -16.68,32.09 -6.42,13.47 -12.83,27.59 -19.25,41.06 -47.48,91.76 -83.42,189.94 -107.17,295.19 -14.76,43 -24.38,87.27 -28.23,133.47 -2.57,23.73 -5.13,47.48 -8.99,71.86 -7.69,57.12 -13.47,114.87 -17.32,172.63l0 17.32c0,33.37 1.92,68.03 5.77,103.32 2.57,19.89 4.49,39.78 5.78,59.68 2.56,23.1 9.63,40.43 21.81,52.61 11.56,12.83 25.67,19.25 42.36,19.25 10.9,0 23.1,-4.49 35.29,-13.47l5.77 -1.92c76.37,-56.47 139.89,-123.85 189.94,-202.78 41.07,-59.04 77.01,-123.21 107.17,-191.87 6.42,-13.48 12.83,-26.95 20.53,-39.79 18.61,-33.37 33.37,-70.59 43.65,-110.38 4.48,-20.54 10.26,-40.43 16.68,-60.31 16.04,-41.71 26.95,-85.35 32.09,-131.55 13.47,-71.23 20.54,-143.1 20.54,-214.33 0,-37.87 -1.93,-74.43 -5.78,-111.01 -10.91,-62.89 -35.93,-114.22 -73.15,-154.01 -12.83,-10.26 -27.6,-15.39 -44.92,-15.39zm281.71 41.71c-2.57,0 -5.13,0.64 -8.34,2.56 -3.21,1.92 -5.14,3.86 -6.42,6.42l0 1.92c0,2.57 2.56,4.49 8.98,5.78 3.86,0 7.07,-0.64 9.63,-1.92 2.57,-1.29 4.49,-3.21 5.78,-5.78 0,-2.56 -1.29,-4.49 -3.21,-6.42 -1.92,-1.92 -3.86,-2.56 -6.42,-2.56zm9.63 42.99c0,0 0,1.92 0,5.78 1.29,1.29 1.92,2.56 1.92,3.85 1.92,6.42 3.85,8.99 5.13,8.99l1.92 0 0 -1.29c0,-2.57 0,-5.13 -0.64,-7.05 -0.65,-1.93 -1.92,-3.86 -3.21,-6.42 -0.64,-1.29 -1.92,-1.93 -2.57,-2.57 -0.64,-0.64 -1.27,-1.29 -2.56,-1.29zm1.92 56.47c-2.57,0 -3.85,1.93 -3.85,5.78l0 5.78c1.27,5.77 1.92,11.55 1.92,16.68l0 5.78c0,2.56 1.29,3.85 3.85,3.85 0.65,0 1.92,-0.64 3.21,-1.92 2.57,-2.57 3.85,-5.13 3.85,-7.7 0,-2.57 -0.64,-5.13 -1.92,-7.7 -2.56,-3.85 -3.85,-7.05 -3.85,-10.91 0,-2.56 0.64,-4.48 1.92,-5.77l0 -1.92c0,-1.29 -1.92,-1.93 -5.13,-1.93zm-822.02 11.56l-1.92 0c-1.29,1.27 -2.57,1.92 -3.85,1.92 -3.21,1.29 -6.42,2.56 -8.35,4.49 -1.92,1.92 -2.56,3.21 -2.56,4.48l0 1.93c2.56,3.85 5.77,5.77 9.63,5.77 4.49,0 8.98,-4.49 12.83,-13.47 0,-3.21 -1.92,-5.13 -5.78,-5.13zm827.16 44.91c-2.56,0 -3.85,3.86 -5.13,10.91 -1.29,7.7 -2.57,16.69 -3.85,26.32 -1.29,10.26 -1.93,19.25 -1.93,26.94 0,7.07 0.65,12.2 1.93,14.77 2.56,1.27 3.85,3.2 3.85,5.77l-3.85 7.7 0 1.29c0,1.27 0.64,1.92 1.92,1.92l3.85 0c1.92,-1.29 4.49,-3.86 6.42,-7.07 1.92,-3.85 3.21,-8.34 4.49,-13.47 0,-5.13 0,-9.63 -0.65,-12.83 -0.64,-3.85 -1.92,-5.77 -3.21,-5.77 -2.56,0 -3.85,-3.86 -3.85,-11.56 0,-3.85 0.64,-8.98 1.92,-16.68l0 -24.38c0,-2.57 -0.64,-3.86 -1.92,-3.86zm-674.43 125.78l-1.92 0c-2.57,3.85 -3.85,7.05 -3.85,9.63l0 3.85c2.56,5.13 4.48,7.05 5.77,7.05 2.57,0 3.85,-3.85 5.13,-12.83 0,-2.56 0,-4.48 -0.64,-5.77 -0.65,-1.29 -1.92,-1.92 -4.49,-1.92zm-345.88 20.53c-1.29,0 -2.56,0.65 -3.85,1.93 -1.29,1.27 -1.92,3.21 -1.92,5.77 0,5.13 5.13,8.34 14.76,9.63 6.42,0 9.63,-1.29 9.63,-3.85 0,-1.29 -1.29,-3.21 -3.86,-5.78 -2.56,-1.29 -5.13,-2.56 -7.69,-3.85 -2.57,-2.57 -5.14,-3.86 -7.07,-3.86zm999.77 21.19l-1.92 0c-1.29,1.27 -1.92,2.56 -1.92,4.48 0,1.93 0,4.49 0,8.34 0,3.86 0.64,7.7 1.29,11.56 0.64,3.85 1.29,7.05 1.92,8.98 0.64,2.57 1.29,3.86 2.57,3.86 1.27,0 1.92,-1.93 1.92,-6.42 0,-4.49 0,-8.99 0,-14.12 0,-5.13 0,-8.99 -0.65,-12.2 -0.64,-3.21 -1.92,-4.48 -3.21,-4.48zm-1035.7 39.14l-1.92 0c-1.29,0 -3.86,1.29 -7.7,3.85 -1.29,1.29 -2.57,2.57 -3.85,3.86 -4.49,3.85 -8.99,7.05 -12.2,10.26 -3.21,3.21 -4.49,5.13 -4.49,6.42l0 21.17c0,8.34 1.92,12.83 5.78,12.83 1.29,0 1.92,0 1.92,0l3.85 0c3.21,-1.29 5.14,-3.85 5.14,-7.7 0,-2.56 -1.29,-6.42 -3.86,-12.83 -1.92,-5.13 -3.21,-9.63 -3.21,-13.47 0,-5.13 3.86,-9.63 10.91,-14.76 2.57,-3.86 5.13,-6.42 7.05,-7.7 1.29,-1.29 2.57,-1.92 2.57,-1.92zm167.48 120.64c-2.57,0 -5.78,1.29 -9.63,4.49 -3.85,3.21 -7.05,6.42 -9.63,10.26 -2.57,3.85 -3.85,7.05 -3.85,9.63 0,1.29 0.64,1.92 1.92,1.92 2.56,0 6.42,-2.56 11.55,-7.7 3.85,-3.85 6.42,-7.05 8.34,-10.26 1.92,-3.21 3.21,-5.13 3.21,-6.42l0 -1.92 -1.92 0zm-266.95 26.31c-1.29,0 -1.92,3.86 -1.92,10.91l0 5.77c0,3.86 0.64,7.07 1.92,9.63 1.29,2.57 2.57,3.86 3.21,3.86 3.85,0 5.78,-1.92 5.78,-5.78l0 -1.92c0,-2.57 -0.65,-5.13 -1.93,-8.34 -1.27,-3.21 -2.56,-6.42 -3.85,-8.99 0,-0.64 0,-1.92 -1.29,-3.21 0,0 0,-0.64 0,-1.27 0,-0.65 -0.64,-0.65 -1.92,-0.65zm-50.69 78.93c-2.57,0 -5.14,0.65 -7.07,2.57 -1.92,1.92 -2.56,3.85 -2.56,4.49 0,2.56 0.64,5.13 2.56,7.05 1.92,1.92 4.49,2.57 7.07,2.57 1.92,0 4.48,-0.65 6.42,-2.57 1.92,-1.92 3.21,-4.49 4.48,-7.05 0,-0.65 -0.64,-2.57 -2.56,-4.49 -1.92,-1.92 -5.13,-2.57 -8.34,-2.57zm-60.33 99.47c-1.29,0 -1.92,0.64 -1.92,1.92 0,2.57 0.64,5.13 1.92,7.7 1.29,3.85 1.92,7.7 2.57,12.2 0.64,4.48 1.29,7.69 1.29,10.26 0,1.29 0.64,2.56 2.56,4.49 1.92,1.92 3.21,3.21 4.49,3.21 3.85,0 5.77,-1.93 5.77,-5.78 0,-2.57 -0.64,-5.77 -2.56,-9.63 -1.92,-3.85 -4.49,-8.34 -6.42,-12.83 -5.13,-7.7 -7.7,-11.55 -7.7,-11.55zm1101.81 208.56c-1.29,0 -2.57,1.27 -3.21,3.85 -0.65,2.57 -1.29,5.78 -2.57,9.63 -1.29,3.85 -1.92,7.05 -1.92,10.91 0,6.42 1.29,10.26 3.85,11.55 2.57,0 5.13,-3.86 7.07,-11.55 1.27,-3.86 1.92,-7.07 1.92,-10.91 0,-3.85 -0.65,-7.7 -1.92,-11.55 0,0 0,-0.65 0,-1.92 -1.29,0 -1.93,0 -1.93,0 0,0 0,0 0,0 0,0 0,0 0,0 0,0 0,0 0,0 0,0 0,0 0,0 0,0 -0.64,0 -1.27,0zm-788.02 68.02c-2.57,0 -3.85,1.29 -3.85,3.85l1.92 3.21c2.56,6.42 4.49,9.63 5.77,9.63 1.29,0 1.93,-0.64 2.57,-2.56 0.64,-1.93 1.29,-4.49 1.29,-7.07 0,-2.56 -0.65,-3.85 -1.92,-5.13 -1.29,-1.29 -3.21,-1.92 -5.78,-1.92zm5.78 26.31c-1.29,0 -3.21,1.92 -5.78,5.13 -2.57,5.14 -4.49,12.2 -5.78,21.17 -1.27,8.35 -1.92,16.69 -1.92,24.39 0,6.42 0.65,10.9 1.92,14.76 3.86,3.85 6.42,5.77 7.7,5.77 5.13,0 7.7,-10.26 7.7,-30.15 -1.29,-8.99 -1.92,-16.69 -1.92,-24.39l0 -16.68c0,0 -0.65,0 -1.92,0zm16.68 109.09l-3.85 3.21 0 3.85c0,1.29 0.64,2.57 1.27,3.21 0.65,0.65 1.29,0.65 2.57,0.65 2.57,0 4.49,1.92 4.49,5.13 0.64,2.56 1.29,7.05 1.29,12.19 0,4.49 -0.65,8.35 -1.93,10.91 -1.27,2.57 -3.21,3.86 -5.77,3.86 -2.57,0 -3.86,1.27 -3.86,3.85 0,5.13 2.57,10.91 7.7,17.97 5.13,6.42 10.91,11.55 16.69,14.12 10.26,1.29 16.68,3.21 19.25,5.13 0,-0.64 -1.29,-2.56 -3.21,-5.13 -1.93,-2.57 -3.86,-5.78 -6.42,-9.63 -2.57,-3.85 -4.49,-7.7 -5.78,-12.2 -1.29,-4.48 -1.92,-8.34 -1.92,-12.19l0 -3.86c1.29,-1.27 1.92,-3.21 1.92,-5.77 0,-4.49 -1.29,-10.27 -3.85,-16.04 -1.93,-5.13 -5.14,-10.27 -8.99,-14.12 -3.85,-3.21 -7.05,-5.13 -9.63,-5.13zm-520.42 119.99c-1.29,1.29 -2.57,3.21 -3.86,4.49 -1.27,1.92 -2.56,4.49 -3.85,7.07 -1.29,4.48 -1.92,7.69 -1.92,8.98l5.77 -5.13c3.86,-5.13 5.78,-8.99 5.78,-11.55l0 -3.86 -1.92 0zm550.58 56.48c-1.29,1.27 -1.92,3.85 -1.92,7.69 0,5.14 1.92,10.27 4.48,16.04 3.21,5.13 7.7,8.99 12.2,10.27 7.7,2.56 12.83,3.85 15.41,3.85 2.56,0 3.85,-0.64 3.85,-1.92 0,-3.86 -4.49,-10.27 -13.47,-19.25 -5.14,-4.49 -8.99,-8.99 -12.2,-12.2 -3.21,-3.21 -5.78,-4.48 -8.34,-4.48zm-731.55 293.26c-1.29,0 -1.92,3.85 -2.56,11.55 -0.65,7.05 -1.29,20.54 -2.57,39.14 0,8.99 -0.64,18.61 -1.92,30.16 -1.29,21.17 -1.92,39.14 -1.92,52.62 0,14.11 0.64,24.38 1.92,32.09 1.29,7.69 3.21,13.47 5.13,18.6 2.57,3.86 3.85,7.7 3.85,11.55 0,2.57 -0.64,5.14 -1.92,7.07 -1.29,1.29 -1.92,3.21 -1.92,5.77 0,2.57 1.29,4.49 3.85,5.78 5.14,5.13 7.7,10.26 7.7,14.76 0,3.85 -1.29,7.7 -3.85,10.91 -2.57,2.56 -5.78,4.49 -8.99,4.49 -5.13,0 -7.69,0.64 -7.69,1.92l8.98 8.98c5.13,5.14 9.63,8.99 13.47,11.56 1.29,1.27 1.93,1.92 1.93,1.92 2.56,0 3.85,-5.13 4.48,-16.04 0.65,-10.27 1.29,-23.11 1.29,-36.58l0 -14.76c0,-12.83 -0.64,-23.75 -1.92,-32.09 -1.29,-8.99 -3.21,-15.41 -5.78,-19.25 -2.56,-5.78 -3.85,-12.2 -3.85,-18.61l0 -5.77c1.29,-2.57 1.92,-4.49 1.92,-7.07 0,-5.13 -1.29,-8.34 -3.85,-9.61 -1.29,-2.57 -1.92,-7.07 -1.92,-13.48 0,-5.77 0.64,-13.47 1.92,-22.46 1.29,-7.05 1.92,-14.12 1.92,-20.54 0,-8.98 -1.29,-14.11 -3.85,-16.68 -2.57,-2.57 -3.86,-5.13 -3.86,-7.7 0,-2.56 0.65,-5.13 1.92,-7.7l3.86 -3.85c1.29,-3.21 1.92,-5.77 1.92,-7.05 0,-2.57 -1.29,-4.49 -3.85,-5.78l-1.93 -3.85c-1.27,0 -1.92,0 -1.92,0 0,0 0,0 0,0 0,0 0,0 0,0 0,0 0,0 0,0 0,0 0,0 0,0zm19.25 276.58c-2.56,1.27 -5.13,3.85 -7.7,7.05 -2.56,3.85 -3.85,7.7 -3.85,11.55 0,2.57 0.64,4.49 1.92,5.78 1.29,3.85 2.57,5.77 3.86,5.77 2.56,0 5.13,-3.21 7.69,-9.63 2.57,-6.42 3.21,-11.55 3.21,-14.76l0 -3.85c-0.64,-1.29 -1.92,-1.92 -2.56,-1.92 -0.65,0 -1.29,0 -2.57,0zm7.07 42.99l-3.21 0c-2.57,0 -3.86,1.92 -3.86,5.78 0,3.85 0.65,8.34 1.92,12.83 1.29,6.42 2.57,12.83 4.49,19.89 1.92,7.07 3.86,11.55 6.42,14.12 2.57,3.85 3.86,7.05 3.86,9.63 0,5.13 -1.93,8.99 -5.78,12.2 -3.85,3.21 -7.7,4.48 -12.83,4.48 -5.13,0 -7.7,2.57 -7.7,7.7l0 3.85c2.57,5.14 5.13,10.91 7.7,18.61 0,1.29 0,2.57 0,3.85 2.57,5.14 7.05,9.63 12.83,14.12 6.42,4.49 12.2,6.42 17.33,6.42 2.56,0 3.85,-0.64 5.13,-1.92 0,0 0,-4.49 -0.64,-12.83 -0.65,-8.99 -1.29,-19.89 -2.57,-32.09 -2.57,-12.83 -5.13,-23.75 -7.05,-34.01 -1.93,-9.63 -3.86,-16.04 -6.42,-18.61 -1.29,-2.56 -1.93,-5.77 -2.57,-10.26 -0.64,-4.49 -1.29,-7.7 -1.29,-10.26l0 -3.86c0,-3.85 -1.92,-7.05 -5.77,-9.63zm34.01 163.64c-1.29,0 -3.21,0.64 -6.42,1.92 -3.21,1.29 -5.78,3.21 -8.34,5.78 -7.7,5.13 -11.56,8.34 -11.56,10.9 0,3.86 5.14,7.07 15.41,9.63 10.91,5.14 18.61,7.7 22.46,7.7 2.57,0 3.85,-1.29 3.85,-3.85 0,-2.57 -0.64,-5.78 -1.92,-9.63 -1.29,-14.76 -5.77,-22.46 -13.47,-22.46zm22.46 60.31c-1.29,0 -1.92,3.86 -1.92,10.91l0 5.78c0,6.42 -2.57,9.63 -8.99,9.63 -6.42,0 -9.63,0.64 -9.63,1.92 0,1.29 2.57,3.85 7.7,7.05 6.42,5.14 12.19,7.7 18.6,7.7 8.99,0 14.12,-5.13 15.41,-14.76 0,-3.85 -1.29,-7.7 -3.86,-12.2 -2.56,-4.48 -5.13,-8.34 -7.69,-10.9 -1.29,-0.65 -2.57,-1.93 -3.86,-3.21 -1.27,0 -1.92,-0.65 -2.56,-1.29 -0.65,-0.65 -1.92,-0.65 -3.21,-0.65zm-1.92 116.16l-1.93 0c-1.27,1.27 -1.92,1.92 -3.21,1.92 -5.13,0 -7.69,1.29 -7.69,3.85 0,3.86 2.56,9.63 7.69,17.33 2.57,4.49 5.14,8.98 8.99,12.83 3.85,3.85 6.42,5.77 7.7,5.77 2.56,0 3.85,-0.64 3.85,-1.92 0,-2.56 -2.57,-5.77 -7.7,-9.63 -5.13,-5.13 -7.69,-8.34 -7.69,-10.9 0,-1.29 1.92,-2.57 5.77,-3.86 3.85,-2.56 5.78,-5.13 5.78,-7.7 0,-2.56 -1.29,-4.48 -2.57,-5.77 -1.92,-1.29 -5.13,-1.92 -8.98,-1.92zm26.31 47.48c-3.21,0 -5.13,1.29 -5.13,3.21 0,2.57 2.56,6.42 7.05,11.55l9.63 9.63c1.29,1.29 2.57,1.92 3.85,1.92 2.57,0 6.42,-1.27 10.91,-3.85 0,-1.29 0.65,-1.92 1.92,-1.92 3.86,-1.29 5.78,-2.57 5.78,-3.86 0,-2.56 -4.49,-6.42 -12.83,-11.55 -10.26,-3.21 -17.33,-5.13 -21.17,-5.13z"/>
 </g>
</svg>
