<?xml version="1.0" encoding="UTF-8"?>
<!DOCTYPE svg PUBLIC "-//W3C//DTD SVG 1.1//EN" "http://www.w3.org/Graphics/SVG/1.1/DTD/svg11.dtd">
<!-- Creator: CorelDRAW 2021 (64-Bit) -->
<svg xmlns="http://www.w3.org/2000/svg" xml:space="preserve" width="132.153mm" height="31.0136mm" version="1.1" style="shape-rendering:geometricPrecision; text-rendering:geometricPrecision; image-rendering:optimizeQuality; fill-rule:evenodd; clip-rule:evenodd"
viewBox="0 0 16325.58 3831.27"
 xmlns:xlink="http://www.w3.org/1999/xlink"
 xmlns:xodm="http://www.corel.com/coreldraw/odm/2003">
 <defs>
  <style type="text/css">
   <![CDATA[
    .fil0 {fill:#990000;fill-rule:nonzero}
   ]]>
  </style>
 </defs>
 <g id="Capa_x0020_1">
  <metadata id="CorelCorpID_0Corel-Layer"/>
  <path class="fil0" d="M2343.08 0c15.32,0 29.25,5.57 43.19,16.71 11.85,17.42 18.12,50.17 18.12,97.54 0,52.96 -6.28,113.57 -18.12,181.15 -12.54,66.88 -29.25,126.8 -50.86,178.36 -39.7,128.9 -81.51,257.09 -124.71,383.9 -62.71,175.57 -118.45,353.24 -167.22,534.38 -27.17,115.67 -63.4,227.13 -108.69,335.13 -16.02,39.01 -32.05,79.43 -46.68,120.53 -22.99,73.16 -48.77,146.31 -77.33,218.08 -42.5,104.51 -77.33,211.11 -104.51,318.4 -50.16,148.4 -94.75,299.58 -134.47,452.87 -52.95,200.66 -98.24,403.4 -134.47,608.94 -13.93,39.01 -20.9,87.78 -20.9,146.3 0,5.58 0,11.16 0,16.73 0,6.97 0,13.93 0,22.3 0,43.89 -3.48,84.99 -11.14,124.71 -7.66,39.01 -28.56,64.79 -64.1,75.25 -32.74,0 -58.52,-36.23 -78.02,-107.99 -18.81,-72.45 -32.06,-160.24 -40.41,-264.06 -8.36,-104.51 -12.55,-203.44 -12.55,-297.5 0,-50.17 0.7,-96.15 2.1,-138.64 8.35,-205.54 33.44,-407.59 75.94,-606.15 4.88,-29.96 10.45,-60.62 16.02,-91.97 4.19,-18.81 9.76,-40.41 16.73,-63.4 13.23,-40.41 20.2,-74.55 20.2,-101.72 0,-25.78 -11.14,-40.41 -32.74,-43.2 -13.93,0 -32.06,5.57 -55.05,16.73 -65.49,10.45 -131.68,20.2 -197.87,28.56 -112.87,11.85 -225.74,29.96 -337.21,52.95 -44.58,20.21 -76.64,52.95 -95.46,96.85 -19.51,44.58 -34.13,92.66 -45.29,146.3 -9.75,48.77 -22.99,94.06 -40.41,136.56 -4.18,16.03 -8.35,32.06 -12.54,46.68 -27.17,99.63 -51.55,199.97 -73.85,300.98 -21.59,101.73 -32.05,204.14 -32.05,307.26l0 30.66c11.83,15.33 28.56,22.3 48.77,22.3 18.8,0 39.01,-2.79 59.21,-7.67 20.21,-5.57 38.32,-8.36 52.96,-8.36 11.14,0 20.2,2.79 27.87,8.36 6.97,4.88 11.14,15.33 11.14,30.66 0,14.63 -4.88,35.53 -14.63,63.4 -16.03,43.2 -38.32,73.16 -66.89,90.58 -28.56,16.71 -59.91,25.08 -94.05,25.08 -35.54,0 -71.07,-6.26 -107.3,-18.81 -36.23,-13.23 -68.28,-27.87 -96.84,-43.89 -73.86,-43.89 -126.81,-107.99 -159.56,-192.99 -32.74,-85 -56.43,-172.1 -71.06,-260.57 -5.57,-40.41 -8.36,-81.52 -8.36,-122.62 0,-80.12 7.66,-159.56 22.3,-237.58 15.33,-78.04 32.05,-156.07 50.86,-233.41 9.75,-42.5 19.51,-83.61 29.27,-124.71 -2.79,-16.02 -4.19,-32.75 -4.19,-48.77 0,-48.08 8.36,-92.66 25.09,-133.78 17.42,-41.8 36.92,-82.9 60.61,-123.31 32.75,-56.44 58.53,-115.67 77.33,-179.76 124.02,-287.05 255.71,-569.92 395.74,-847.22 43.89,-69.67 85,-140.73 122.62,-214.59 36.92,-68.97 75.95,-137.25 117.74,-204.14 41.11,-66.18 88.49,-127.5 141.44,-183.23 28.57,-20.9 57.83,-30.66 87.8,-30.66 34.13,0 64.79,11.85 93.36,35.53 27.87,23.69 41.8,54.34 41.8,90.58 0,29.96 -13.24,62.71 -39.01,98.24 -34.15,91.28 -66.19,182.55 -96.15,273.82 -45.99,142.83 -96.85,282.18 -153.28,418.03 -20.21,75.95 -43.89,151.89 -71.07,226.44 -31.35,85.7 -57.83,172.08 -79.42,259.18 25.78,16.73 54.34,25.09 85.7,25.09 43.2,0 89.87,-9.76 138.64,-28.57 50.17,-19.51 99.63,-28.56 147.01,-28.56 16.02,0 32.75,1.4 48.77,5.57 25.78,9.76 49.48,14.63 71.76,14.63 40.41,0 74.55,-13.23 101.72,-39.01 27.18,-25.78 50.87,-58.52 69.67,-98.94 18.81,-40.41 36.23,-84.3 50.86,-131.68 78.74,-229.91 171.4,-451.47 277.3,-665.37 13.93,-29.96 28.56,-59.91 43.2,-89.87 68.28,-161.65 149.09,-314.92 243.15,-459.14 7.66,-9.75 16.02,-19.51 24.39,-30.65 31.35,-39.72 66.88,-79.43 105.91,-119.14 39.7,-40.42 76.63,-60.62 110.08,-60.62l2.09 0zm12200.98 1477.74l20.21 0c35.53,0 63.4,12.55 83.61,37.63 20.2,25.78 37.62,51.55 50.86,78.73 1.4,11.14 2.09,21.59 2.09,30.66 0,64.09 -13.24,126.1 -40.41,186.02 -91.27,212.51 -222.25,397.83 -392.26,557.38 -36.92,28.56 -75.25,42.5 -116.35,42.5 -16.02,0 -32.75,-3.48 -48.77,-9.75 -12.54,36.22 -18.81,74.54 -18.81,114.26 0,16.02 0.7,31.35 2.09,46.68l0 59.22c0,27.17 4.19,55.03 12.55,83.6 6.96,25.78 10.44,51.56 10.44,77.35 0,6.97 -0.69,14.63 -2.09,22.99 11.85,16.02 22.99,34.13 32.06,55.03 12.54,24.39 27.17,46.68 43.19,66.19 16.73,19.51 39.02,32.75 67.59,39.72l13.93 0c38.32,0 76.64,-6.28 114.26,-19.51 38.32,-12.54 73.86,-27.87 106.6,-45.99 51.56,-29.96 99.63,-64.79 144.92,-105.89 14.64,-12.54 29.96,-24.39 44.6,-36.92 6.97,-8.36 14.63,-16.02 22.3,-24.39 57.12,-62.71 110.77,-128.2 161.63,-195.78 10.45,-18.12 22.3,-36.23 34.84,-55.05 22.99,-35.53 44.58,-70.37 64.79,-104.51 5.57,-9.06 12.54,-22.99 20.9,-40.41 6.28,-19.51 14.63,-36.92 24.39,-52.95 9.06,-16.73 19.51,-25.08 30.66,-25.08 5.57,0 11.14,3.48 18.11,10.45 5.57,4.18 8.36,13.23 8.36,26.47 0,18.81 -4.19,43.89 -12.55,74.54 -8.35,30.66 -17.41,57.13 -28.56,78.74 -17.42,71.76 -43.2,142.82 -77.33,212.49 -6.97,14.64 -14.63,29.27 -22.3,44.6 -22.3,51.55 -51.55,98.93 -87.78,140.73 -38.32,68.28 -84.3,130.29 -139.35,186.03 -4.88,7.66 -11.14,15.32 -18.11,22.29 -52.95,58.53 -114.27,105.91 -183.93,142.83 -29.97,24.39 -63.41,41.11 -101.73,50.17 -38.32,8.36 -75.25,13.23 -112.17,13.23l-18.81 0 -11.83 -2.09c-34.15,0 -68.98,-5.57 -105.21,-17.42 -36.22,-11.85 -65.49,-28.56 -88.48,-52.26l-20.9 0c-35.53,0 -68.98,-3.48 -101.03,-11.14 -32.05,-7.66 -62,-22.3 -90.58,-43.89l-14.63 0c-20.21,0 -36.92,-5.57 -49.46,-16.02 -13.24,-11.16 -25.09,-23.69 -36.23,-39.02 -10.45,-14.63 -22.99,-27.87 -36.23,-39.01 -15.95,-28.08 -29.28,-56.44 -40.04,-85.14 -4,10.85 -9.88,23.63 -17.79,38.46 -31.34,48.77 -70.37,90.58 -118.43,124.72 -47.38,34.13 -99.63,50.86 -156.77,50.86 -42.5,0 -86.39,-13.24 -133.07,-39.02 -82.92,-6.26 -148.4,-41.1 -196.48,-103.11 -48.77,-62 -74.54,-131.68 -78.73,-209.01 -9.75,-55.74 -14.63,-110.79 -14.63,-165.13 0,-57.12 3.48,-114.26 10.45,-170.69 6.97,-56.44 14.63,-112.18 24.39,-168.61 5.57,-39.01 11.14,-78.73 16.71,-117.74 4.88,-41.11 16.73,-87.09 34.15,-137.26 22.3,-59.91 32.75,-109.38 32.75,-149.09 0,-14.63 -2.79,-27.87 -7.67,-38.32 -101.01,78.73 -188.11,179.06 -260.57,299.58 -72.45,121.24 -135.16,248.74 -186.72,381.81 -51.55,133.76 -96.84,258.48 -134.47,375.53 -36.92,112.86 -70.37,205.53 -100.32,277.99 -29.96,71.76 -59.91,107.99 -89.87,107.99 -48.77,0 -89.18,-17.42 -121.24,-52.96 -32.05,-35.53 -57.12,-78.02 -75.94,-127.5 -18.12,-50.16 -31.35,-98.93 -38.32,-147.01 -7.66,-48.77 -11.14,-84.99 -11.14,-109.38l0 -34.84c0,-228.53 22.99,-454.97 68.97,-679.31 24.39,-58.52 41.8,-119.14 50.86,-181.84 9.76,-75.94 33.44,-147.7 71.76,-214.59 57.13,-163.03 135.16,-313.52 234.8,-450.78 50.16,-48.07 96.15,-71.76 136.56,-71.76l6.26 0c45.99,0 84.3,16.73 114.27,50.17 29.96,33.44 44.58,60.62 44.58,80.82 0,4.19 0,7.67 -1.4,9.76 -25.08,113.57 -71.06,255.69 -139.34,427.09 -55.74,144.23 -100.34,275.9 -134.47,395.74l2.09 0c9.75,0 26.47,-20.9 50.86,-62.01 24.39,-41.8 52.26,-90.58 83.61,-146.31 34.13,-59.91 66.88,-115.65 98.24,-167.2 31.35,-51.56 56.43,-84.31 75.25,-98.24 8.36,-7.67 16.73,-16.73 25.08,-26.49 60.62,-67.57 128.9,-130.28 203.45,-187.42 75.25,-57.13 161.63,-88.49 259.18,-94.06 61.31,0 103.82,21.61 128.19,64.1 23.69,43.2 35.54,89.87 35.54,140.04 0,41.11 -6.28,79.43 -18.12,116.36 -8.35,39.7 -17.42,79.42 -27.17,120.53 -25.78,104.5 -45.98,211.1 -60.62,318.4 -18.11,68.97 -29.27,139.35 -34.84,210.4 -5.57,70.38 -8.36,142.14 -8.36,213.9 5.58,29.96 9.07,64.09 10.45,102.41 1.4,61.31 9.07,118.45 23,172.1 14.63,53.64 47.38,87.78 98.93,101.03 28.57,-4.88 63.41,-18.12 104.51,-38.32 21.59,-11.16 41.8,-20.21 61.31,-27.87 17.94,-7.31 33.34,-10.82 45,-11.13 -12.39,-45.29 -18.53,-91.45 -18.53,-138.67l0 -18.81c1.4,-18.81 2.78,-38.32 4.18,-59.22 0,-4.88 0,-10.45 0,-16.02 0,-54.34 12.54,-105.2 36.92,-153.28 5.58,-40.41 18.81,-78.73 40.41,-114.26 13.93,-24.39 25.09,-50.86 34.84,-79.42 16.73,-52.96 41.8,-103.11 75.25,-151.19 9.76,-14.63 19.52,-29.96 29.27,-44.58 16.02,-28.57 33.44,-55.05 52.95,-80.12 17.42,-22.99 34.15,-47.38 48.77,-73.16 9.76,-12.54 18.12,-24.39 26.49,-36.92 28.56,-39.02 60.61,-78.73 96.15,-118.45 16.02,-20.21 33.44,-39.72 50.86,-59.22l36.92 -40.41c17.42,-19.51 34.84,-39.01 50.86,-59.22 4.18,-5.57 9.06,-11.14 13.93,-16.73 15.33,-18.8 32.05,-36.92 50.17,-53.64 18.8,-17.42 39.01,-29.96 62.69,-37.63 23,-28.56 53.65,-49.46 91.28,-61.31 38.32,-12.54 75.94,-18.81 112.86,-18.81zm-53.64 218.78l-3.48 0c-5.58,0 -11.16,2.09 -15.33,6.26 -4.88,3.48 -9.76,7.67 -13.24,11.85 -5.57,5.57 -10.45,10.45 -14.63,14.63l-91.97 103.82c-51.55,69.67 -95.44,144.21 -130.28,224.34 -11.16,24.39 -21.61,50.17 -30.66,75.95 -4.18,10.45 -8.36,21.59 -12.54,32.74 -1.4,6.28 -4.88,13.24 -9.76,20.21 -5.57,6.97 -8.35,12.54 -8.35,18.11l0 2.09c5.57,-1.38 9.75,-3.48 13.93,-6.97 4.18,-3.48 7.66,-7.66 10.45,-13.23 1.38,-4.19 3.48,-6.97 6.26,-8.36 2.79,-1.4 6.28,-2.09 9.76,-2.09 4.18,-1.4 7.66,-2.79 10.45,-4.88 2.78,-2.09 4.18,-5.57 4.18,-11.14l0 -2.09c9.76,-13.93 19.51,-26.49 30.66,-39.02l24.39 -24.39c11.14,-12.54 20.9,-25.08 30.65,-39.01 1.4,-1.4 2.79,-2.79 4.19,-3.48 8.35,-16.73 18.8,-29.96 32.74,-41.11 6.28,-20.2 16.73,-39.01 30.66,-55.03 2.78,-4.18 4.88,-8.36 7.66,-12.54 5.57,-6.28 10.45,-14.64 14.64,-24.39 4.18,-11.16 10.45,-19.51 18.11,-26.47 8.36,-9.76 13.93,-20.21 16.71,-32.75 1.4,-9.76 4.19,-17.42 7.67,-24.39 4.18,-9.76 9.06,-19.51 14.63,-30.66 17.42,-34.13 32.06,-70.37 42.51,-107.98zm-418.04 328.15l-4.18 0c-1.4,0 -2.09,0.7 -2.09,1.4 0,0.7 0,1.4 0,2.79 0,1.4 0.69,3.48 2.09,5.57 1.4,2.09 2.79,2.79 4.18,2.79 2.79,0 4.88,0 6.28,-0.7 1.4,-0.69 2.09,-2.09 2.09,-3.48 0,-1.4 -0.69,-2.78 -2.09,-4.18 -1.4,-1.4 -3.48,-2.79 -6.28,-4.19zm955.21 273.82c-2.79,0 -4.18,1.4 -4.18,4.18 0,2.79 0.69,4.88 2.09,6.28 1.4,1.4 3.48,2.09 6.26,2.09 1.4,0 2.79,-0.69 4.19,-1.4 1.4,-0.69 2.09,-0.69 2.09,-0.69 0,-1.4 -0.69,-2.79 -2.09,-4.18 -1.4,-1.4 -2.79,-2.79 -4.19,-4.19 -1.38,-1.4 -2.78,-2.09 -4.18,-2.09zm-1242.95 312.14c-2.79,1.38 -4.88,6.97 -5.57,15.32 -0.7,9.07 -0.7,19.52 -0.7,32.06 0,17.42 0.7,34.84 2.79,52.95 2.09,17.42 4.88,28.56 7.66,32.75 4.88,7.66 7.66,15.33 7.66,22.3l0 4.18c0,5.57 2.1,10.45 6.28,16.02 2.79,2.79 4.88,7.66 6.97,14.63 2.09,6.28 3.48,13.24 3.48,20.21 1.4,8.36 4.18,14.63 7.66,19.51 4.19,4.88 8.36,6.97 12.55,6.97 4.18,0 7.66,-2.78 10.45,-8.36 1.38,-2.78 2.09,-5.57 2.09,-9.75 0,-5.57 -1.4,-10.45 -4.19,-14.64 -2.78,-4.18 -5.57,-6.97 -6.97,-9.75 -2.09,-2.79 -4.87,-4.19 -7.66,-4.19 -1.4,0 -2.79,-2.09 -4.88,-6.26 -2.09,-4.19 -2.78,-9.06 -2.78,-14.63 0,-6.28 -0.7,-12.55 -2.1,-16.73 -1.38,-4.88 -3.48,-9.06 -6.26,-11.85 -2.79,-3.48 -4.88,-10.45 -6.97,-20.2 -2.09,-9.76 -4.19,-19.52 -5.57,-30.66 -2.79,-41.8 -5.58,-71.07 -7.67,-87.78 0,-1.4 0,-2.09 0,-2.09l-6.26 0zm85.7 257.09c-1.4,0 -2.79,1.4 -4.19,4.18 -1.38,2.79 -2.09,6.28 -2.09,10.45 0,6.97 1.4,11.85 4.19,16.02 2.78,4.19 6.26,6.28 9.75,6.28 4.19,0 7.67,-3.48 10.45,-10.45l0 -3.48c0,-5.57 -1.4,-10.45 -4.88,-15.33 -3.48,-4.88 -7.66,-7.66 -13.23,-7.66zm2.09 126.8l-18.81 0 18.81 14.64c5.57,3.48 11.14,7.66 17.42,11.14 5.57,3.48 10.45,4.88 13.23,4.88 6.28,0 9.76,-0.7 9.76,-2.09 0,-2.79 -3.48,-7.67 -9.76,-13.93 -2.78,-4.19 -7.66,-7.67 -13.23,-10.45 -6.28,-2.79 -11.85,-4.19 -17.42,-4.19zm2177.96 -1518.85c24.39,0 48.77,0.7 73.85,2.09 9.06,1.4 20.2,2.79 32.05,4.19 35.54,2.78 69.67,9.06 103.11,19.51 33.44,10.45 55.05,29.27 64.79,57.83 1.4,2.79 1.4,6.28 1.4,10.45 0,16.73 -11.14,29.96 -33.44,39.72 -22.3,10.45 -48.08,19.51 -76.64,27.87 -33.44,8.35 -62,18.11 -83.61,30.65 -44.58,10.45 -87.78,26.47 -129.59,48.08 -41.1,20.9 -75.94,50.86 -103.11,90.58 -25.78,24.39 -38.32,52.24 -38.32,83.6 0,38.32 9.06,76.64 28.57,116.36 4.87,12.54 9.75,24.39 13.93,36.92 2.78,22.99 10.45,46.68 22.29,71.07 13.93,25.78 20.9,50.16 20.9,71.76l0 6.26c33.44,31.35 59.93,68.98 77.35,114.27 13.23,27.17 28.56,52.95 44.58,77.33 48.08,72.47 87.09,147.71 118.45,226.44 11.14,36.92 16.71,74.54 16.71,112.17 0,84.3 -22.99,164.43 -67.57,238.98 -45.99,87.08 -111.48,153.97 -195.78,201.35 -84.31,46.67 -174.88,73.85 -271.73,80.12 -8.36,1.38 -16.71,2.09 -26.47,2.09 -12.54,2.78 -24.39,4.18 -36.92,4.18 -6.28,0 -13.93,-0.69 -22.3,-2.09 -13.23,1.4 -26.47,2.09 -39.01,2.09 -47.38,0 -94.06,-7.66 -140.74,-22.99 -45.98,-16.02 -91.27,-32.75 -134.47,-50.17 -71.06,-34.13 -136.56,-54.34 -197.87,-61.31 -6.97,1.4 -13.23,2.09 -18.81,2.09 -39.01,0 -69.67,-16.71 -91.27,-50.16 -22.3,-33.44 -35.53,-68.28 -41.1,-105.2 -1.4,-9.07 -2.1,-19.52 -2.1,-30.66 0,-37.63 11.16,-73.85 32.75,-107.99 21.61,-34.13 46.68,-63.4 75.25,-87.78 61.31,-51.56 132.38,-90.58 212.51,-116.36 17.42,-11.14 32.75,-16.02 44.58,-16.02 22.3,0 37.63,13.24 45.99,39.72 9.06,26.47 13.23,51.55 13.23,76.64 0,9.06 -0.69,17.42 -1.4,24.39 44.6,93.36 118.45,147.7 222.26,160.94 45.98,20.2 94.05,30.65 142.82,30.65 51.56,0 99.63,-14.63 144.92,-44.58 18.81,-20.9 28.57,-43.2 28.57,-67.59 0,-21.59 -6.28,-44.58 -18.12,-68.28 -12.54,-23.68 -26.47,-47.38 -41.1,-70.37 -12.54,-18.11 -22.3,-34.84 -30.66,-51.56 -43.2,-68.97 -96.15,-131.68 -157.46,-187.42 -20.21,-27.17 -41.1,-52.95 -62.71,-77.33 -42.5,-45.29 -78.02,-94.06 -106.6,-147.01 -64.09,-81.52 -95.44,-170 -95.44,-265.45 0,-51.56 12.54,-101.72 38.31,-149.09 9.76,-35.54 25.78,-68.28 49.48,-98.25 22.99,-29.96 45.98,-57.12 68.97,-81.51 18.12,-21.61 38.32,-37.63 61.31,-46.68 23,-9.76 47.38,-17.42 73.86,-22.3 28.56,-6.97 55.73,-16.71 81.51,-28.56 101.72,-32.75 205.54,-50.86 310.05,-53.65zm28.56 147.01l-6.28 0c-6.97,4.19 -9.75,6.97 -9.75,8.36 0,1.4 2.09,2.09 5.57,2.09 4.18,0 8.36,-2.09 12.54,-6.26l0 -2.09c0,-1.4 -0.69,-2.1 -2.09,-2.1zm-526.72 232.7c0,0 0,0.7 -0.7,1.4 -0.69,0.7 -1.4,1.4 -2.09,2.79 -0.69,1.4 -2.09,2.78 -3.48,4.18 -1.4,1.4 -2.09,2.79 -2.09,4.19 0,2.78 1.4,4.18 4.18,4.18 2.79,0 4.88,-1.4 6.28,-3.48 1.4,-2.09 2.09,-3.48 2.09,-4.88 0,-2.78 0,-4.88 -0.69,-6.26 -0.7,-1.4 -2.1,-2.1 -3.48,-2.1zm2.09 43.2c-4.19,0 -6.28,4.88 -6.28,13.93 -1.4,5.57 -2.09,10.45 -2.09,14.64 0,4.18 1.4,6.97 3.48,8.35 2.09,0.7 5.57,1.4 11.14,1.4 2.79,0 4.88,-0.69 6.97,-3.48 2.1,-2.78 3.48,-5.57 3.48,-8.36 0,-4.18 -1.38,-8.35 -3.48,-12.54 -2.09,-4.18 -4.18,-6.97 -6.97,-9.75 -1.38,-1.4 -2.78,-2.79 -3.48,-3.48 -0.69,-0.7 -1.38,-0.7 -2.78,-0.7zm22.3 65.5l-4.19 0 0 2.09c0,2.09 1.4,5.57 4.19,9.75 2.78,4.19 6.26,6.28 10.45,6.28 2.78,0 4.18,-0.69 4.18,-2.09 0,-1.4 -1.4,-4.19 -4.18,-8.36 -5.58,-5.57 -9.07,-7.66 -10.45,-7.66zm8.35 40.41c-1.38,0 -2.09,0.69 -2.09,2.09 0,1.4 1.4,3.48 2.79,6.28 2.09,2.78 5.57,5.57 9.75,8.35 11.85,11.85 18.12,24.39 18.12,36.23 0,6.97 -2.79,13.24 -8.36,18.81 -2.79,2.78 -3.48,5.57 -3.48,7.66 0,8.36 11.85,13.93 36.23,16.73 4.18,0 6.26,-0.7 6.26,-2.09 0,-1.4 -2.09,-4.19 -6.26,-8.36 -2.79,-5.57 -4.19,-11.16 -4.19,-18.12l0 -8.35c1.4,-2.79 2.09,-5.58 2.09,-8.36 0,-7.66 -5.57,-17.42 -18.11,-28.56 -6.97,-6.28 -13.23,-11.85 -19.51,-16.03 -6.28,-4.18 -10.45,-6.26 -13.24,-6.26zm94.06 171.39c-2.78,0 -5.57,0.69 -8.36,2.09 -2.78,1.4 -4.87,3.48 -6.26,6.28l0 2.09c0,2.78 4.88,4.18 14.63,4.18 9.06,0 14.64,-1.4 16.02,-4.18l-2.09 -2.09c-1.4,-2.79 -3.48,-4.88 -5.57,-6.28 -2.79,-1.4 -5.57,-2.09 -8.36,-2.09zm299.6 482.13c-0.7,0 -2.1,0.69 -2.79,2.78 -0.69,2.1 -0.69,4.19 -0.69,6.97 0,2.79 0.69,6.28 2.09,10.45 2.09,5.57 4.18,8.36 5.57,8.36 1.4,0 2.09,-2.79 2.09,-8.36 1.4,-2.78 2.09,-6.26 2.09,-10.45 0,-2.78 -0.69,-5.57 -2.09,-7.66 -1.4,-1.4 -2.09,-2.09 -2.78,-2.09 -0.7,0 -2.1,0 -3.48,0zm6.26 38.32c-1.4,0 -5.57,2.09 -11.85,6.26 -2.78,2.79 -4.18,5.57 -4.18,8.36 0,4.18 0.69,8.36 2.09,11.85 2.79,4.18 4.88,9.06 6.97,14.63 2.09,5.57 3.48,9.76 4.88,12.54 2.79,7.67 4.88,11.85 6.28,11.85 2.78,0 4.18,-6.97 4.18,-20.2l0 -18.81c-1.4,-9.06 -2.09,-16.02 -2.79,-20.21 -0.69,-4.18 -2.78,-6.26 -5.57,-6.26zm-863.24 144.92c-1.4,0 -3.48,3.48 -6.26,10.45l0 4.18c0,4.18 1.38,6.97 3.48,9.06 2.09,2.09 4.18,2.79 6.97,2.79 4.18,0 7.66,-2.09 10.45,-5.57l0 -2.1c0,-2.78 -0.7,-5.57 -2.1,-7.66 -1.38,-1.4 -2.78,-3.48 -4.18,-4.88 -2.79,-2.78 -4.88,-4.18 -6.28,-4.18 0,0 -0.69,-0.7 -2.09,-2.09zm14.64 104.5c-4.19,0 -9.07,0.7 -14.64,2.1 -2.78,1.38 -5.57,2.09 -8.36,2.09l-26.47 7.66 30.66 12.54c9.75,4.19 18.11,7.67 24.39,11.16 6.97,3.48 11.14,6.26 12.54,9.06 2.79,4.18 6.97,7.66 11.85,10.45 5.57,2.78 10.45,4.18 14.63,4.18 2.79,0 4.88,-0.69 6.28,-2.09l0 -2.09c0,-2.79 -0.7,-5.57 -1.4,-9.06 -0.69,-3.48 -2.09,-6.97 -4.88,-9.76 -2.78,-4.88 -6.26,-9.75 -11.14,-13.23 -4.88,-2.79 -8.36,-4.88 -11.16,-4.88 -2.78,0 -5.57,-0.7 -8.35,-2.79 -2.79,-2.09 -4.88,-4.88 -6.28,-7.66l-7.66 -7.67zm-4695.21 -2322.87c20.2,0 41.8,1.4 64.79,4.19l10.45 0c32.74,0 60.61,12.54 82.9,38.32 22.3,25.77 33.44,54.34 33.44,85.7 0,12.54 -2.09,23.68 -6.26,34.84 -11.85,36.92 -32.75,69.66 -62.01,98.24 -29.27,28.56 -61.31,50.16 -96.84,64.79 -21.61,20.9 -44.6,30.65 -67.59,30.65 -21.59,0 -43.2,-3.48 -65.49,-11.83 -21.61,-8.36 -43.89,-12.55 -66.89,-12.55l-16.71 0c-25.78,0 -43.2,-4.87 -51.56,-13.93 -9.06,-9.75 -13.93,-21.59 -13.93,-36.92 0,-27.17 7.67,-56.43 23,-87.78 6.26,-17.42 11.14,-33.44 13.92,-46.68 16.73,-49.46 45.29,-84.99 85.71,-107.29 41.1,-22.3 84.99,-35.53 133.07,-39.72zm-26.47 707.87c11.83,0 20.89,4.19 26.47,11.16 4.87,7.66 9.75,15.32 13.93,23.68 0,1.4 0.69,2.79 2.09,4.19 20.2,17.42 34.84,39.01 43.89,63.4 9.06,24.39 13.24,48.07 13.24,71.07 0,22.29 -3.48,41.79 -9.76,59.21 -9.76,42.51 -18.81,85 -27.18,128.9 -7.66,41.11 -16.02,80.82 -24.39,120.53 -5.57,25.78 -12.54,52.95 -22.29,81.52 -20.21,55.74 -30.66,106.6 -30.66,153.28l0 22.29c0,40.41 -6.97,81.52 -20.2,122.62 -11.16,37.63 -18.12,76.64 -20.9,116.36 -18.81,44.6 -29.97,91.97 -34.15,142.83 -2.79,21.59 -6.26,43.89 -10.45,66.88 -4.18,27.18 -9.75,54.34 -16.02,80.12 -11.14,47.38 -18.11,93.36 -20.9,138.64l0 10.45c0,30.66 -4.18,61.31 -11.85,91.27 -9.75,28.57 -14.63,58.53 -14.63,89.88 0,12.54 1.4,25.08 4.18,39.01 31.35,-5.57 66.88,-27.87 105.91,-66.19 39.72,-39.01 77.33,-82.9 112.86,-131.68 34.84,-49.46 60.62,-89.87 77.35,-122.62 13.23,-15.33 23.68,-22.3 30.65,-22.3 4.19,0 6.28,2.79 6.28,7.66 0,2.79 0,4.88 0,6.28l0 10.45c-22.3,99.63 -55.05,174.18 -98.24,224.34 -12.55,22.99 -27.18,45.29 -44.6,65.5 -22.3,25.78 -39.01,52.26 -51.55,79.42 -7.67,13.93 -16.03,27.18 -24.39,41.11 -32.75,64.09 -75.25,121.22 -128.2,171.39 -13.93,13.23 -26.47,20.2 -36.92,20.2 -11.14,0 -20.2,-3.48 -28.56,-11.14 -8.36,-7.66 -16.73,-16.02 -24.39,-25.78 -6.97,-6.26 -13.24,-13.23 -19.51,-18.8 -6.28,-6.28 -12.55,-9.76 -19.52,-9.76 -4.18,0 -8.35,1.4 -12.54,4.18 -13.23,2.79 -26.47,4.19 -38.32,4.19 -36.92,0 -68.97,-11.16 -96.84,-34.84 -27.87,-22.99 -45.98,-53.65 -54.34,-91.27 -13.28,-98.96 -19.61,-197.92 -20.17,-298.08 -3.38,5.34 -6.88,10.65 -10.49,15.9 -42.5,72.47 -89.18,142.83 -140.74,212.51 -36.92,41.1 -75.25,78.73 -114.26,114.26 -39.72,35.53 -84.3,64.1 -135.16,85.7 -70.38,35.53 -144.23,52.95 -220.16,52.95l-12.54 -4.18c-64.79,-7.66 -122.63,-25.78 -173.49,-52.95 -78.73,-2.79 -151.89,-19.51 -220.16,-50.86 -68.28,-31.35 -120.53,-75.95 -157.46,-134.47 -50.16,-75.25 -75.94,-158.16 -77.33,-249.43 2.79,-24.39 4.18,-48.08 4.18,-71.07 0,-12.54 0,-24.39 0,-34.84 -1.38,-12.54 -2.09,-23.68 -2.09,-34.84 0,-42.5 4.88,-83.6 13.93,-124.71 9.76,-7.66 16.02,-16.73 19.51,-26.47 3.48,-9.76 5.58,-18.81 5.58,-28.56l0 -24.39c0,-12.55 1.38,-23.69 4.87,-33.45 3.48,-10.45 11.85,-19.51 25.78,-27.86 7.66,-68.29 29.96,-129.6 64.79,-186.03 8.36,-16.02 16.73,-31.35 24.39,-46.68 22.3,-55.74 50.86,-104.5 85.7,-147.01 16.73,-41.8 39.72,-79.42 69.67,-112.17 15.33,-17.42 29.27,-36.92 43.2,-57.13 14.63,-18.8 29.96,-36.92 44.58,-52.95 22.99,-21.59 44.6,-47.38 63.41,-75.94 21.59,-23 42.5,-46.68 63.4,-71.07 27.17,-34.15 57.12,-66.19 89.87,-96.15 22.99,-14.63 40.41,-32.75 52.96,-52.95 14.63,-21.61 34.82,-39.02 59.21,-50.86 18.81,-25.78 44.6,-45.99 77.35,-59.22 32.74,-13.93 66.19,-22.99 100.32,-28.57 1.4,0 3.48,0 5.57,0 9.76,-2.78 18.81,-4.18 27.18,-4.18 68.97,0 124.71,35.53 167.2,105.91 9.07,24.37 13.93,48.76 13.93,71.76 0,24.39 -4.18,49.46 -11.83,74.54 -8.36,25.09 -17.42,49.48 -26.47,72.47 -83.61,154.67 -124.72,289.84 -124.72,404.1 0,22.99 2.09,43.89 6.28,63.4 -82.92,0 -140.74,-13.93 -173.49,-41.8 -32.74,-27.87 -49.46,-66.19 -49.46,-113.57 0,-35.53 7.67,-75.94 22.99,-122.62 14.64,-45.98 32.75,-95.44 55.05,-149.09 5.57,-11.85 7.66,-20.21 7.66,-24.39 -2.78,0 -6.97,4.88 -13.93,14.63 -6.97,9.06 -14.63,20.9 -23.68,34.84 -8.36,13.24 -16.73,26.47 -22.99,39.72 -6.97,12.54 -12.55,22.3 -16.73,29.27 -34.15,58.52 -63.4,119.14 -87.78,181.84 -14.64,32.74 -29.96,65.49 -44.6,98.24 -6.97,16.02 -14.63,31.35 -22.99,46.68 -32.05,58.52 -52.95,121.22 -60.62,187.42 -23.68,45.29 -34.84,91.96 -34.84,141.44 0,3.48 0,8.36 0,13.93 -1.38,20.2 -2.78,41.1 -4.18,61.31l0 85.7c0,52.95 5.57,104.51 16.02,155.37 -9.06,6.26 -13.93,12.54 -13.93,18.11 0,4.19 1.4,8.36 4.88,12.54 3.48,3.48 7.66,7.67 13.24,11.85 6.97,4.18 13.23,9.06 19.51,15.33 6.26,6.26 9.06,13.93 9.06,23.68 0,4.19 -0.69,8.36 -2.09,11.85 22.3,85 75.94,131.69 161.63,141.44 9.06,1.4 18.81,2.09 28.57,2.09 27.17,0 52.95,-5.57 77.33,-15.32 24.39,-10.45 48.77,-22.3 73.85,-36.23 6.28,-2.79 13.24,-6.28 20.21,-9.76 65.49,-32.74 121.22,-77.33 167.2,-133.07 45.29,-64.1 86.4,-139.35 124.72,-226.43 21.59,-43.9 41.1,-80.83 57.83,-112.18 10.11,-18.18 19.26,-31.67 27.49,-40.62 3.53,-24.6 6.45,-49.23 8.75,-73.64 4.88,-46.68 11.85,-91.97 20.2,-136.56 21.61,-86.4 46.68,-170 75.25,-251.52 12.55,-50.17 26.49,-98.94 43.2,-147.01 13.24,-37.63 25.78,-77.33 36.92,-118.45 6.28,-16.02 13.93,-33.44 22.3,-50.86 22.99,-58.53 51.56,-116.36 85.7,-173.48 54.34,-62.71 123.33,-103.11 206.23,-122.63 1.4,0 2.09,0 2.09,-0.69 0,-0.69 0.7,-1.4 2.1,-1.4zm124 1371.84c0,0 0,0 -0.69,0 -0.69,0 -1.4,0 -1.4,0l0 2.09c-2.09,1.4 -4.18,2.79 -5.57,4.88 -1.4,2.09 -2.09,4.19 -2.09,5.57 0,4.88 0.69,7.67 2.09,7.67 2.79,0 4.88,-3.48 7.66,-11.85 1.4,-2.79 2.1,-4.88 2.1,-6.28 0,-1.38 -0.7,-2.09 -2.1,-2.09zm-522.54 138.66c-1.38,0 -2.09,0.69 -2.78,2.09 -0.7,1.4 -1.4,3.48 -1.4,6.26l0 4.19c1.4,2.78 2.79,4.88 4.18,6.97 1.4,2.09 2.79,3.48 4.19,3.48 1.4,0 2.09,-1.4 2.09,-3.48 0,-2.09 0,-4.19 0,-6.97 0,-2.79 0,-5.57 -0.69,-8.36 -0.7,-2.79 -2.79,-4.18 -5.58,-4.18zm2.1 83.6c-1.4,1.4 -2.1,2.79 -2.1,4.19 0,2.78 0.7,6.26 2.1,10.45 4.18,31.35 8.35,53.65 12.54,66.19 4.18,13.23 9.75,22.99 18.11,29.96 11.16,9.06 18.81,13.93 22.3,13.93 1.4,0 2.09,-1.4 2.09,-4.19 0,-1.38 -1.4,-3.48 -4.88,-6.97 -3.48,-3.48 -6.97,-6.97 -11.14,-11.14 -4.18,-4.18 -6.97,-7.66 -9.06,-10.45 -2.09,-2.79 -3.48,-4.88 -3.48,-5.57l0 -2.09c1.4,-1.4 2.09,-3.48 2.09,-6.28 0,-8.36 -2.09,-20.2 -6.28,-34.84 -3.48,-9.75 -7.66,-18.11 -11.83,-26.47l-10.45 -16.73zm83.61 188.12c-1.4,0 -2.79,0 -5.58,0.69 -2.78,0.7 -4.87,2.1 -6.26,3.48 -1.4,2.79 -4.88,4.19 -10.45,4.19l-4.19 0c-2.78,-1.4 -4.87,-2.09 -5.57,-2.09l0 4.18c2.09,4.88 7.67,7.66 16.02,7.66 6.97,0 13.93,-2.09 22.3,-5.57 4.18,-2.78 6.28,-4.88 6.28,-6.26 0,-1.4 -2.79,-2.79 -8.36,-4.19 0,-1.4 0,-2.09 -0.69,-2.09 -0.7,0 -2.1,0 -3.48,0zm1545.33 -1671.43c34.15,0 66.88,6.97 98.24,20.9 31.35,14.63 57.83,36.92 79.43,66.88 29.96,32.05 52.26,68.97 67.57,108.69 14.64,40.41 26.49,81.52 34.84,124.02 1.4,0.69 1.4,2.09 1.4,3.48 8.36,59.91 12.54,119.14 12.54,177.67 0,103.81 -10.45,205.53 -30.65,306.55 -5.57,18.81 -10.45,38.32 -16.02,59.22 -31.35,133.07 -80.12,258.48 -144.92,375.53 -76.64,165.82 -178.36,314.92 -306.56,446.59 -31.35,28.57 -65.49,55.74 -103.81,80.83 -38.32,25.08 -79.43,37.62 -124.72,37.62 -17.42,0 -35.53,-2.78 -52.95,-7.66 -47.38,-22.3 -97.54,-36.92 -149.09,-45.29 -38.32,-6.97 -73.85,-16.02 -107.99,-28.56 -46.68,-4.19 -82.21,-20.9 -107.29,-50.17 -25.09,-29.27 -45.29,-63.4 -59.93,-103.11 -26.47,-32.75 -42.5,-66.88 -49.46,-103.82 -6.97,-36.92 -10.45,-73.85 -11.85,-112.17 0,-12.54 -0.69,-24.39 -2.09,-36.92 7.66,-84.3 19.51,-168.6 34.15,-252.91 8.35,-50.16 20.2,-99.63 34.84,-147.01 6.97,-22.99 13.93,-46.67 20.9,-69.67 13.23,-27.17 25.77,-55.03 36.22,-83.6 22.3,-55.74 48.77,-107.99 80.12,-156.77 16.02,-39.72 34.84,-76.64 57.13,-110.77 16.02,-25.78 30.65,-51.56 42.5,-77.35 19.51,-21.59 38.32,-43.89 57.13,-65.49 28.56,-34.15 57.83,-66.88 87.78,-99.63 48.08,-48.08 106.6,-80.12 177.67,-96.15 18.8,-6.97 37.62,-13.93 55.03,-20.21 12.54,-4.18 22.99,-6.26 32.75,-6.26 17.42,0 29.27,6.26 33.44,19.51 4.88,12.54 7.66,28.56 7.66,48.07 0,13.24 -0.69,27.18 -2.09,40.41l0 55.05c-16.71,29.96 -29.25,62 -39.01,96.15 -12.54,39.72 -29.27,75.94 -50.86,110.08 -6.97,41.1 -20.9,79.42 -41.11,116.35 -17.42,31.35 -30.65,64.81 -38.32,100.34 -28.56,78.73 -51.55,159.55 -67.57,242.46 -4.19,28.56 -9.06,56.43 -14.64,84.3 -7.66,45.98 -15.32,91.96 -22.29,138.64 -4.19,17.42 -6.28,35.54 -6.28,55.05 0,22.99 1.4,45.29 4.18,67.57 4.19,23 6.28,45.99 6.28,68.98 0,11.14 -0.69,21.59 -2.09,32.75 0,5.57 0,11.14 0,16.02 0,22.3 2.09,44.58 6.26,67.57 4.19,23 13.93,34.84 30.66,34.84 9.06,0 20.9,-4.87 34.84,-14.63 59.91,-45.98 110.77,-101.03 152.58,-165.13 126.81,-191.59 217.38,-399.91 271.73,-624.26 32.74,-103.81 48.77,-209.01 48.77,-317 0,-40.41 -2.79,-81.52 -7.67,-121.93 -4.18,-38.32 -14.63,-75.25 -32.05,-111.48 -16.73,-36.22 -45.29,-60.61 -84.3,-74.54 -6.97,0 -18.12,1.38 -32.75,4.18 -12.54,2.79 -25.09,4.88 -37.63,6.97 -13.23,2.09 -24.39,3.48 -34.13,3.48 -14.64,0 -22.99,-3.48 -24.39,-10.45 0,-6.97 6.26,-16.02 18.11,-28.56 50.86,-50.17 107.99,-75.25 171.39,-75.25l8.36 0zm120.53 222.25l-2.09 0c0,1.4 1.4,4.18 4.18,8.36 2.79,6.26 4.88,9.75 6.28,9.75l2.09 0c1.4,-1.4 2.09,-2.78 2.09,-4.18 0,-1.4 -0.69,-2.79 -2.09,-4.88 -1.4,-2.09 -2.79,-3.48 -4.18,-4.88 -1.4,-1.4 -2.79,-2.78 -4.19,-3.48 -1.4,-0.69 -2.09,-0.69 -2.09,-0.69zm-571.31 171.39l0 8.36c0,6.26 0.69,9.75 2.09,9.75l2.09 0c1.4,-1.4 2.1,-3.48 2.1,-5.57 0,-2.78 -0.7,-5.57 -2.1,-8.36l-2.09 -4.18c-1.4,0 -2.09,0 -2.09,0 0,0 0,0 0,0 0,0 0,0 0,0 0,0 0,0 0,0 0,0 0,0 0,0zm-43.2 79.42c-1.38,0 -2.78,1.4 -4.18,4.19 -1.4,2.78 -2.09,6.26 -2.09,10.45 1.4,10.45 4.18,16.02 8.36,16.02 4.18,0 7.66,-3.48 10.45,-9.76l0 -6.26c0,-8.36 -4.19,-13.24 -12.55,-14.64zm-16.02 41.11l-4.18 0c-1.4,1.4 -2.09,2.78 -2.09,4.18l0 7.67c4.18,4.18 6.97,6.26 8.35,6.26 1.4,0 2.1,-2.09 2.1,-6.26l0 -5.58c0,-2.78 -0.7,-4.87 -1.4,-5.57 -0.7,-0.69 -1.4,-0.69 -2.79,-0.69zm-49.46 99.63c-0.69,0 -2.09,0.69 -2.79,2.09 -0.69,1.4 -0.69,2.79 -0.69,4.18 0,1.4 0.69,3.48 2.09,6.28 0.7,2.79 2.09,4.88 3.48,6.97 1.4,2.09 2.79,3.48 4.18,3.48 0,0 0.7,-1.4 1.4,-3.48 0.7,-2.09 0.7,-4.18 0.7,-6.97 -1.4,-2.79 -2.1,-5.57 -2.79,-8.36 -0.69,-2.78 -2.79,-4.18 -5.57,-4.18zm-244.55 612.41c-1.4,0 -2.79,0 -3.48,0 -0.69,0 -1.4,0.7 -2.79,2.1 -2.78,1.38 -4.18,3.48 -4.18,6.26 0,2.79 1.4,5.57 4.18,8.36 2.79,2.78 6.28,4.18 10.45,4.18 2.79,0 4.19,-0.69 4.88,-2.09 0.7,-1.4 1.4,-2.79 1.4,-4.18 0,-4.19 -1.4,-7.67 -3.48,-10.45 -2.09,-2.79 -4.18,-4.19 -6.97,-4.19zm742.71 34.84l-6.28 6.28c-0.69,1.4 -1.38,2.78 -1.38,4.18 0,2.79 2.09,4.19 5.57,4.19 2.78,0 4.88,-1.4 5.57,-3.48 0.69,-2.1 0.69,-3.48 0.69,-4.88 0,-2.79 0,-4.19 -0.69,-4.88 -0.69,-0.69 -2.09,-1.4 -3.48,-1.4zm-740.62 2.09c-1.4,0 -2.78,0.7 -3.48,2.1 -0.69,1.38 -0.69,3.48 -0.69,6.26 0,6.28 1.4,9.76 4.18,9.76 1.4,0 3.48,-2.09 6.28,-5.57l0 -2.1c0,-1.38 -0.7,-2.78 -1.4,-4.18 -0.69,-1.4 -1.4,-2.79 -2.79,-4.18l0 -2.1 -2.09 0zm0 39.02l-8.36 20.2c-4.18,8.36 -6.26,14.64 -6.26,18.12 0,2.78 0.69,4.88 2.09,6.26 1.4,1.4 4.18,2.79 8.36,4.19 6.97,4.18 10.45,11.83 10.45,22.29l0 20.9c0,4.88 0.69,9.07 2.09,11.85 0.69,2.79 2.79,4.88 5.57,6.28 2.79,1.4 5.57,3.48 8.36,6.97 2.79,3.48 4.18,6.97 4.18,11.14 0,4.19 1.4,8.36 4.19,13.24 2.78,4.88 5.57,9.06 7.66,11.14 2.79,1.4 4.88,3.48 6.28,5.57 1.38,2.09 2.09,3.48 2.09,4.88l0 4.18c0,1.4 1.4,3.48 3.48,6.97 2.09,3.48 4.18,6.97 6.97,10.45 2.78,3.48 4.88,4.88 6.26,4.88l-4.18 -24.39c-1.4,-6.97 -3.48,-13.93 -6.28,-21.59 -2.78,-7.66 -5.57,-13.24 -8.35,-17.42 -2.79,-2.79 -4.88,-6.28 -6.28,-11.85 -0.69,-5.57 -1.4,-11.14 -1.4,-16.71l0 -13.93c0,-12.55 -4.18,-20.21 -12.54,-24.39 -5.57,-2.79 -9.75,-7.67 -13.23,-14.64 -3.48,-6.97 -5.58,-13.23 -6.97,-20.2l-4.19 -24.39zm681.39 26.47c-1.4,0 -2.79,0 -4.18,0.69 -0.7,0.7 -1.4,2.1 -1.4,3.48l0 2.1c0,1.38 0,2.09 0.69,3.48 0.7,1.38 0.7,2.09 0.7,2.09l0 2.09c1.38,0 2.78,-0.69 4.18,-2.09 1.4,-1.4 2.79,-3.48 4.18,-5.57l0 -2.1c0,-2.78 -1.38,-4.18 -4.18,-4.18zm-618 177.67c-1.38,0 -3.48,0.69 -6.26,2.09 -2.79,1.4 -6.97,2.78 -12.54,5.57 -7.67,5.57 -11.85,9.76 -11.85,12.54 0,2.79 3.48,4.19 9.75,4.19l8.36 0c11.16,-4.19 16.02,-9.07 16.02,-14.64 0,-2.78 0,-4.88 0,-6.97 0,-2.09 -0.69,-2.78 -3.48,-2.78zm-10.45 85.7c-1.38,0 -2.09,0.69 -2.09,2.09 0,2.78 0.7,4.88 2.09,7.66 4.19,2.79 7.67,4.19 10.45,4.19l3.48 0c1.4,-1.4 2.1,-2.79 2.1,-4.19 0,-2.78 -1.4,-4.88 -5.58,-7.66 -2.78,-1.4 -5.57,-2.09 -8.35,-2.09l-2.1 0zm67.59 36.22c-5.57,0 -8.36,2.79 -8.36,8.36 0,4.19 1.4,6.97 4.19,8.36 2.78,1.4 5.57,2.09 7.66,2.09 4.19,0 8.36,-2.09 12.54,-6.26l0 -2.1c0,-2.78 -3.48,-5.57 -10.45,-8.35 -1.38,-1.4 -2.09,-2.1 -2.78,-2.1 -0.7,0 -1.4,0 -2.79,0zm1596.2 -1544.62c-1.4,0 -2.79,0 -3.48,0.69 -0.7,0.69 -2.1,2.09 -4.88,3.48 -1.4,0.69 -2.79,2.09 -4.19,3.48 -4.18,2.78 -7.66,6.26 -10.45,9.75 -2.78,2.79 -3.48,5.58 -3.48,6.97 0,1.4 0.7,2.1 1.4,2.1 4.19,0 9.76,-4.88 16.73,-14.64 1.4,-1.4 2.78,-2.78 4.18,-4.18 1.4,-2.79 2.09,-4.18 2.79,-4.88 0.69,-0.69 1.4,-1.4 1.4,-2.78zm-69.67 130.28l-6.28 0c-2.79,2.79 -5.57,5.57 -8.36,9.06 -2.09,3.48 -3.48,6.97 -3.48,9.76 1.4,4.88 4.19,7.66 7.67,7.66 1.38,0 3.48,-0.69 6.26,-2.09 4.19,-1.4 6.97,-3.48 9.06,-6.97 2.1,-3.48 3.48,-6.28 3.48,-9.06 0,-2.79 -0.69,-4.88 -2.09,-6.28 -1.4,-1.4 -3.48,-2.09 -6.26,-2.09zm-87.8 273.82c-1.38,0 -3.48,1.4 -6.26,4.18 -1.4,1.4 -3.48,2.79 -6.28,3.48 -2.09,2.79 -4.88,6.97 -6.97,12.54 -2.09,5.57 -2.78,11.16 -2.78,16.73l0 5.57c0,11.14 0.69,16.73 2.09,16.73 1.4,0 4.88,-8.36 9.75,-24.39 2.79,-8.36 5.58,-15.33 7.67,-21.61 2.09,-6.26 2.78,-9.75 2.78,-11.14l0 -2.09zm659.11 703.68l0 14.64c0,11.14 0.69,16.71 2.09,18.11 1.4,0 2.09,-0.69 2.09,-2.09 1.4,-3.48 2.09,-7.66 2.09,-11.85 0,-5.57 -0.69,-10.45 -2.09,-14.63l-2.09 -4.19 -2.09 0zm6.26 65.5c-1.4,0 -2.09,0.69 -2.78,2.09 -0.7,1.4 -1.4,3.48 -1.4,6.28 1.4,6.97 3.48,12.54 5.57,16.02 2.09,4.18 4.18,6.26 6.97,6.26 2.79,0 4.88,-2.09 6.28,-6.26l0 -3.48c0,-5.57 -2.79,-11.16 -8.36,-16.73 -1.4,-1.4 -2.79,-2.09 -2.79,-2.09 -0.69,0 -1.4,-0.69 -1.4,-2.09 -1.38,0 -2.09,0 -2.09,0 0,0 0,0 0,0 0,0 0,0 0,0 0,0 0,0 0,0 0,0 0,0 0,0zm12.54 55.03c-1.38,0 -2.09,0.7 -2.09,2.1 0,1.38 0,4.18 0,8.35 0,2.79 0,5.58 0.7,8.36 0.69,2.79 2.09,4.19 3.48,4.19 1.38,0 2.09,-0.7 2.09,-2.1 1.4,-1.38 2.09,-3.48 2.09,-6.26 0,-4.19 -0.69,-7.67 -2.09,-10.45l-4.19 -4.19zm4.19 45.29l-4.19 0c-2.78,2.79 -4.18,5.57 -4.18,8.36 0,2.09 0.69,4.18 2.09,5.57 4.19,5.57 6.97,8.36 8.36,8.36 2.09,0 3.48,-4.18 3.48,-12.54 0,-2.09 -0.69,-4.88 -2.09,-6.97 -1.4,-2.09 -2.09,-2.79 -3.48,-2.79zm32.05 59.22c-1.4,0 -2.09,0.7 -3.48,2.09 -1.4,1.4 -2.79,3.48 -4.18,5.58 -1.4,2.78 -2.1,4.87 -2.1,6.26 0,2.79 2.1,4.19 6.28,4.19 4.88,0 7.66,-2.79 7.66,-8.36l0 -2.09c0,-2.1 0,-4.19 -0.69,-5.58 -0.69,-1.38 -2.09,-2.09 -3.48,-2.09zm39.01 65.5c0,0 0,0.69 -0.69,2.78 -0.69,2.09 -1.4,4.19 -1.4,6.97 1.4,4.19 2.79,6.97 3.48,9.06 0,2.1 1.4,3.48 2.79,3.48 1.4,-2.78 2.09,-5.57 2.09,-8.35 0,-4.19 -0.69,-7.67 -2.09,-10.45l-2.09 -3.48c-1.4,0 -2.1,0 -2.1,0 0,0 0,0 0,0 0,0 0,0 0,0 0,0 0,0 0,0 0,0 0,0 0,0zm14.64 81.51c-1.4,0 -2.79,0 -3.48,0 -0.7,0 -1.4,0.7 -2.79,2.09 -8.36,2.79 -12.54,4.88 -12.54,7.67 0,2.78 6.28,4.18 18.81,4.18 3.48,0 6.97,-0.69 9.75,-2.09 2.79,-1.4 4.19,-2.79 4.19,-4.18l-2.09 -1.4c-1.4,-2.79 -2.79,-4.88 -4.88,-5.57 -2.09,-0.7 -4.88,-0.7 -6.97,-0.7zm-4780.92 -1612.91c4.19,-1.38 9.07,-2.09 14.64,-2.09 4.18,0 8.35,0.7 11.83,2.09l6.28 0c5.57,0 11.85,-0.69 18.81,-2.09 6.26,-1.4 13.23,-2.09 20.2,-2.09 5.58,0 10.45,1.4 13.93,4.18 4.19,2.79 6.28,8.36 6.28,16.73l0 4.18c20.21,10.45 33.44,27.87 39.01,51.56 5.57,23.68 8.36,50.17 8.36,78.73l0 85.7c1.4,9.76 1.4,18.81 1.4,28.56 0,27.18 -2.79,52.96 -9.76,77.35 -4.18,23.68 -6.26,44.58 -6.26,63.4l0 14.63c0,31.35 -6.97,65.5 -20.21,101.72 -6.97,23 -11.85,43.2 -14.63,59.22 2.78,11.16 4.18,22.3 4.18,34.84 0,27.18 -6.26,54.34 -18.11,81.52 -11.16,25.78 -16.73,51.55 -16.73,77.33 0,9.76 1.4,19.51 4.19,29.27 -2.79,85.7 -18.81,165.12 -48.77,238.27 -6.97,22.3 -11.16,42.5 -12.54,61.31 -1.4,32.75 -11.85,68.28 -32.75,106.6 0,50.17 -6.97,100.34 -22.3,150.49 -8.36,34.15 -14.63,68.98 -20.21,104.51 -1.38,24.39 -2.09,48.77 -2.09,73.16 -1.4,46.68 -4.88,95.46 -10.45,147.01 -4.18,8.36 -5.57,17.42 -5.57,26.47 0,9.76 0.7,20.21 3.48,30.66 2.79,12.54 4.18,24.39 4.18,36.92 0,18.81 -6.96,39.01 -22.29,59.22l0 4.18c0,18.81 -8.36,37.63 -24.39,55.74 -16.73,18.81 -34.15,27.87 -52.96,27.87 -8.35,0 -16.02,-2.09 -22.99,-6.28 -7.66,-20.2 -20.9,-30.65 -38.32,-30.65 -15.32,0 -31.35,3.48 -49.46,10.45 -16.02,6.97 -31.35,10.45 -46.68,11.85 -8.35,-4.88 -18.8,-8.36 -32.74,-9.76 -11.85,-2.78 -23,-6.97 -33.44,-12.54 -10.45,-5.57 -16.73,-16.02 -19.52,-32.75 -24.39,-68.97 -43.89,-142.83 -59.22,-220.16 -4.18,-21.59 -6.26,-46.67 -6.26,-73.85 0,-7.66 0,-15.33 0,-22.3 -1.4,-22.99 -2.79,-43.89 -4.19,-63.4 -1.38,-18.81 -4.87,-33.44 -11.83,-42.5 -27.18,32.74 -52.26,66.18 -75.95,99.63 -37.62,57.12 -81.51,110.08 -130.28,157.46 -35.54,47.38 -80.83,84.3 -136.56,110.08 -19.52,11.14 -38.32,22.29 -57.13,34.84 -39.72,18.8 -79.43,28.56 -118.45,28.56 -46.68,0 -89.18,-10.45 -128.9,-30.66 -9.75,0 -18.11,0.7 -26.47,2.1 -16.02,0 -32.05,0 -46.68,0 -39.7,0 -79.42,-8.36 -118.43,-24.39 -4.19,-11.16 -11.16,-20.21 -20.9,-27.87 -9.06,-6.97 -20.21,-13.93 -32.06,-19.51 -16.71,-7.67 -30.65,-17.42 -43.19,-29.27 -12.54,-11.85 -18.81,-29.27 -20.21,-52.26 -22.99,-81.52 -34.84,-165.13 -34.84,-250.83 0,-39.7 1.4,-78.73 4.19,-118.43 2.78,-20.21 5.57,-41.8 8.35,-63.41 3.48,-66.88 20.9,-130.28 50.86,-191.59 8.36,-24.39 14.64,-50.86 20.21,-80.12 5.57,-57.13 25.78,-107.99 61.31,-152.58 31.35,-88.49 71.76,-172.79 122.62,-252.91 10.45,-16.73 20.9,-31.35 30.66,-45.29 13.23,-18.81 26.47,-37.63 38.32,-55.05 12.54,-17.42 25.08,-39.01 39.01,-63.4 31.35,-39.72 65.5,-76.64 102.42,-112.17 17.42,-17.42 34.84,-36.23 52.95,-55.03 27.18,-13.93 53.65,-28.57 79.42,-45.29 41.11,-24.39 84.31,-45.99 130.29,-64.79 19.51,-1.4 38.32,-4.19 57.13,-8.36 28.56,-5.57 56.43,-8.36 84.3,-8.36 32.05,0 61.31,8.36 87.78,24.39 55.74,42.5 90.58,94.75 105.91,157.46 11.14,47.38 16.02,96.84 16.02,147.01 0,36.92 -4.18,72.47 -11.85,107.99 -6.97,19.51 -13.93,39.01 -20.9,59.22 -16.02,62.71 -42.5,119.83 -79.42,171.39 -21.61,-2.79 -36.23,-14.63 -43.89,-35.53 -7.67,-20.9 -12.55,-45.99 -15.33,-74.55 -4.19,-35.53 -11.85,-64.79 -24.39,-87.78 -6.97,-24.39 -11.85,-50.86 -16.02,-79.43 -5.57,-29.96 -12.54,-59.22 -20.9,-87.09 -7.67,-27.87 -22.3,-50.86 -42.51,-70.37 -48.07,41.11 -87.78,88.49 -119.83,142.13 -31.35,53.65 -60.62,108.7 -86.4,164.44 0,1.38 -0.69,2.78 -2.09,4.18 -31.35,57.13 -55.74,114.96 -73.16,173.48 -8.35,21.61 -16.71,43.2 -25.08,64.79 -17.42,52.96 -31.35,105.91 -40.41,157.46 -5.57,29.96 -11.85,59.22 -18.81,87.8 -2.09,21.59 -4.88,41.8 -7.66,61.31 -6.97,43.19 -10.45,87.78 -10.45,132.37l0 28.57c1.4,31.35 4.88,63.4 10.45,94.75 5.57,32.05 13.93,59.91 26.47,82.9 6.97,29.97 18.11,45.29 34.84,45.29 16.02,0 33.44,-8.35 51.55,-23.68 18.81,-16.02 36.23,-32.75 52.26,-50.17 9.76,-8.36 17.42,-15.33 24.39,-22.3 13.93,-15.32 27.18,-29.96 41.11,-45.29 39.01,-37.62 69.67,-78.73 91.96,-121.92 58.53,-84.31 111.48,-171.39 158.85,-259.19 1.4,-2.78 2.79,-5.57 4.19,-8.35 18.8,-31.35 36.22,-63.41 50.86,-96.15 21.59,-43.2 46.67,-85.71 73.85,-126.12 27.18,-82.21 59.91,-161.63 97.54,-238.97 8.36,-49.48 23.68,-96.15 45.29,-140.74 14.63,-31.35 27.17,-63.4 36.22,-96.15 29.97,-38.32 52.26,-79.42 65.5,-124.71 15.33,-45.99 38.32,-87.09 69.67,-122.62 13.23,-24.39 32.05,-47.39 55.74,-70.38 24.39,-22.29 48.77,-36.22 74.54,-41.8zm-560.86 351.15c-2.78,0 -4.18,0.7 -4.18,2.09l2.09 2.1c1.4,2.78 2.79,4.18 4.88,4.87 2.09,0.7 4.18,1.4 6.97,1.4 1.4,0 2.79,-0.69 4.18,-1.4 1.4,-0.69 2.1,-1.38 2.1,-2.78 0,-1.4 -1.4,-2.09 -4.19,-2.79 -2.78,-0.69 -5.57,-2.09 -7.66,-3.48l-4.19 0zm7.67 18.81c-1.4,0 -2.79,0.69 -3.48,2.79 -1.4,2.09 -2.09,3.48 -2.09,4.87 0,2.79 0.69,4.88 2.09,5.58 0.69,0.69 2.09,0.69 3.48,0.69 2.78,0 4.88,-0.69 6.26,-2.79 1.4,-2.09 2.1,-4.18 2.1,-5.57 0,-2.78 -0.7,-4.18 -2.1,-4.88 -1.38,-0.69 -3.48,-0.69 -6.26,-0.69zm0 36.23c-2.09,0 -3.48,2.78 -3.48,8.36 0,4.18 0.69,8.35 1.4,12.54 5.57,20.2 9.75,29.96 12.54,29.96 0,0 0.69,-1.4 2.09,-5.57 0,-1.4 -0.69,-4.88 -2.09,-10.45 0,-6.97 -0.7,-13.24 -2.09,-18.12 0,-4.18 0,-6.97 0,-8.35 0,-2.79 -0.7,-4.88 -2.1,-6.28 -1.38,-1.4 -3.48,-2.09 -6.26,-2.09zm-522.54 210.4c-1.4,0 -2.79,1.4 -3.48,4.88 -1.4,3.48 -2.09,8.36 -2.09,13.24l0 8.35c1.38,11.16 2.78,16.73 3.48,16.73 1.38,0 3.48,-4.88 6.26,-14.63 2.79,-6.97 4.19,-12.55 4.19,-16.03 0,-4.18 -0.7,-6.97 -2.1,-8.35 -1.38,-1.4 -2.09,-2.79 -2.78,-3.48 -0.7,0 -2.09,-0.7 -3.48,-0.7zm555.29 75.25c0,1.4 0,2.79 0,4.19 1.38,1.38 2.09,2.78 2.09,4.18 2.78,5.57 4.88,8.36 6.26,8.36l2.1 0c1.38,0 2.09,-0.7 2.09,-2.09 0,-1.4 -0.7,-2.79 -2.09,-4.88 -1.4,-2.09 -2.79,-4.19 -4.19,-5.57 -1.4,-1.4 -2.09,-2.1 -2.78,-2.79 -0.7,-0.69 -2.1,-1.4 -3.48,-1.4zm-820.05 541.36c-1.4,0 -3.48,2.79 -6.26,7.66 -2.79,2.79 -4.88,6.97 -6.28,11.85 -1.4,4.19 -2.09,8.36 -2.09,11.16 0,5.57 0.69,7.66 2.09,7.66 1.4,0 3.48,-2.09 6.28,-7.66 2.78,-4.19 4.18,-9.07 4.87,-13.24 0.7,-4.88 1.4,-9.06 1.4,-11.14l0 -6.28zm773.37 36.92c-2.79,0.7 -4.19,2.79 -4.19,5.57l0 2.1c1.4,1.38 2.79,2.78 4.19,4.18 1.4,1.4 2.78,2.09 4.18,2.09 1.4,0 2.09,-0.69 2.79,-2.78 0.69,-2.1 1.4,-4.19 1.4,-5.58 0,-2.78 -0.7,-4.18 -2.1,-4.87 -1.38,-0.7 -3.48,-0.7 -6.26,-0.7zm-775.45 9.76c-2.78,0 -5.57,13.93 -8.36,41.1 -1.38,9.06 -2.09,16.02 -2.09,20.21 0,5.57 0.7,8.36 2.09,8.36 1.4,0 2.79,-1.4 4.19,-4.19 2.78,-4.18 4.18,-10.45 4.87,-18.11 0.7,-8.36 1.4,-16.02 1.4,-22.99 0,-16.02 -0.69,-24.39 -2.09,-24.39zm1003.98 39.01c-1.4,0 -2.79,1.4 -4.19,4.88 -1.4,3.48 -2.09,6.97 -2.09,11.14 0,4.19 0.69,7.67 1.4,10.45 0.69,2.79 1.4,4.19 2.78,4.19 0,0 0.7,-0.7 1.4,-2.1 0,-1.38 0.7,-3.48 1.4,-6.26 0.69,-2.79 2.09,-5.57 3.48,-8.36l0 -5.57c0,-5.57 -1.4,-8.36 -4.18,-8.36zm-153.28 81.52c-1.4,1.38 -2.79,2.09 -4.19,2.09 -1.38,1.4 -2.78,3.48 -5.57,6.26l-4.18 6.28 0 1.4c1.4,0 4.18,-1.4 8.36,-3.48 4.87,-4.19 7.66,-6.97 7.66,-8.36l0 -4.18c0,0 -0.69,0 -2.09,0zm-850.7 4.18c-1.4,0 -3.48,1.4 -5.57,4.88 -2.09,3.48 -3.48,7.66 -4.88,13.23 -2.78,4.19 -4.18,8.36 -4.18,12.55 0,5.57 2.78,9.06 8.36,11.83 6.96,1.4 11.14,2.1 13.92,2.1l4.19 0c1.4,-1.4 2.09,-2.79 2.09,-4.19 0,-2.09 -2.09,-4.18 -6.28,-5.57 -5.57,-4.18 -7.66,-9.76 -7.66,-16.73l0 -4.18c1.4,-4.18 2.09,-6.97 2.09,-9.76 0,-2.78 -0.69,-4.18 -2.09,-4.18zm995.62 59.22c0,0 -0.7,0.69 -2.09,2.09 0,1.4 -0.7,2.79 -2.1,4.19l-7.66 7.66c0,1.4 -0.69,2.09 -2.09,2.09 -1.4,2.79 -2.09,5.57 -2.09,8.36 0,8.36 4.18,21.59 11.83,41.1 4.19,10.45 6.97,20.21 8.36,29.27 1.4,9.06 2.09,16.02 2.09,21.61l0 8.35c0,3.48 1.4,5.58 4.19,5.58 2.78,0 4.18,-3.48 4.88,-11.16 0.69,-7.66 1.38,-16.02 1.38,-25.08 0,-11.16 -0.69,-20.21 -1.38,-27.87 -0.7,-7.67 -1.4,-11.85 -2.79,-13.24 -1.4,-1.4 -2.79,-4.88 -4.18,-11.14 -1.4,-6.28 -2.1,-11.85 -2.1,-17.42 0,-2.79 0,-5.57 0,-8.36 -1.38,-10.45 -2.78,-16.02 -4.18,-16.02l-2.09 0zm-981.68 8.36c-1.4,0 -2.09,0 -2.79,0.69 -0.69,0.7 -2.09,1.4 -3.48,2.79 -2.78,2.78 -4.18,5.57 -4.18,8.36 0,4.18 1.4,7.66 4.18,10.45 2.79,2.78 6.28,4.18 10.45,4.18 1.4,-1.4 2.1,-4.88 2.1,-10.45l0 -6.28c-1.4,-2.78 -2.1,-4.87 -2.79,-6.26 -0.69,-1.4 -2.09,-2.09 -3.48,-3.48zm8.36 42.5c-2.79,1.4 -4.88,2.79 -6.28,4.18 -1.4,1.4 -2.78,3.48 -4.18,6.28 -1.4,4.18 -2.79,7.66 -4.88,11.85 -2.09,4.18 -3.48,6.97 -4.88,8.36l0 2.09c0,1.4 2.79,4.18 9.76,8.36 6.97,4.18 13.93,7.66 21.59,11.14 7.67,3.48 13.93,5.57 19.51,6.97 0,-2.79 -2.78,-7.66 -8.35,-14.63 -2.79,-3.48 -5.58,-8.36 -8.36,-13.93 -2.79,-5.58 -4.19,-10.45 -4.19,-13.93 0,-5.58 -0.69,-9.76 -2.78,-12.55 -2.09,-2.78 -4.19,-4.18 -6.97,-4.18zm48.77 83.61l-2.09 2.09c0,1.4 1.38,3.48 3.48,4.88 2.09,2.09 4.18,4.88 6.97,7.66 8.35,4.19 13.23,6.28 16.02,6.28l2.09 0c0,-2.79 -3.48,-6.97 -9.76,-12.54 -5.57,-5.57 -10.45,-8.36 -14.63,-8.36l-2.09 0zm930.81 18.81c-1.38,0 -2.09,0 -2.78,0.69 -0.7,0.69 -1.4,2.09 -1.4,4.88 0,1.4 1.4,4.18 4.18,7.66 2.79,3.48 5.58,6.28 8.36,9.06 2.79,2.79 5.57,4.19 8.36,4.19 0,0 0,-1.4 0,-4.19 0,-2.78 -0.69,-6.26 -2.09,-10.45 -5.57,-8.35 -10.45,-11.83 -14.64,-11.83zm-977.5 29.96c-2.79,0 -4.18,0.69 -4.18,2.09 0,1.4 0.69,3.48 2.09,6.28 1.4,2.78 4.18,4.87 8.36,6.26 3.48,1.4 8.35,2.09 13.93,2.09 4.18,0 8.35,-0.69 12.54,-2.09 3.48,-1.4 5.57,-3.48 5.57,-6.26 0,-1.4 -0.69,-2.79 -2.79,-4.19 -2.09,-1.4 -3.48,-2.09 -4.87,-2.09l-12.55 0c-5.57,0 -9.75,-0.69 -13.93,-2.09l-4.18 0zm981.68 12.54c-2.79,1.4 -4.88,2.79 -6.28,4.18 -1.4,1.4 -2.78,3.48 -4.18,6.28l0 2.09c0,1.4 2.09,3.48 5.57,7.67 3.48,4.18 6.97,7.66 11.14,10.45 4.19,2.78 6.97,4.18 9.76,4.18l2.09 0 0 -2.09c0,-2.79 -0.69,-6.97 -2.09,-12.54 0,-1.4 0,-2.79 0,-3.48 -2.79,-11.16 -7.66,-16.73 -16.02,-16.73zm26.47 45.29c-1.4,0 -2.09,0 -2.79,0.69 -0.69,0.7 -2.09,1.4 -3.48,2.79 -2.78,2.78 -4.18,6.26 -4.18,10.45 0,2.78 0.69,4.88 2.09,6.26 2.79,2.79 4.88,4.19 6.28,4.19 2.78,0 4.88,-1.4 6.26,-4.19 2.79,-4.18 4.19,-7.66 4.19,-10.45 0,-2.78 -0.7,-4.87 -2.09,-6.26 -1.4,-1.4 -2.79,-2.09 -3.48,-2.79 -0.7,-0.69 -1.4,-0.69 -2.79,-0.69zm-932.91 11.85c-5.57,1.38 -8.36,2.09 -8.36,2.09l8.36 4.18c5.57,2.79 11.14,4.19 16.73,4.19l5.57 0c5.57,0 8.36,-0.7 8.36,-2.1 0,-1.38 -2.79,-2.78 -8.36,-4.18 -4.88,-2.79 -10.45,-4.18 -16.02,-4.18l-6.28 0zm947.54 30.65c-1.4,0 -2.78,0 -3.48,0 -0.69,0 -1.38,0.7 -2.78,2.09 -8.36,2.79 -12.54,6.28 -12.54,10.45 0,4.88 5.57,11.85 16.71,20.21 7.66,6.97 13.93,10.45 18.11,10.45 1.4,0 2.1,-0.69 2.1,-2.09 0,-2.79 -2.79,-7.67 -8.36,-14.64 -2.79,-2.78 -4.88,-5.57 -6.28,-8.35 -1.4,-2.1 -2.09,-4.88 -2.09,-7.67l0 -10.45c0,0 0,0 -1.4,0zm0 81.52l-2.09 0c0,0 0,0.69 0,2.09 -1.4,0 -2.09,0.69 -2.09,2.09 0,1.4 0.69,2.79 2.09,4.19 1.4,1.38 3.48,2.78 5.57,4.18 5.57,2.79 9.76,4.18 12.54,4.18 0,-1.38 -2.09,-4.87 -6.26,-10.45 -4.19,-4.18 -7.67,-6.26 -9.76,-6.26zm42.51 16.71c-1.4,0 -2.1,0.7 -2.1,2.1 -1.38,0 -2.09,0 -2.78,0 -0.7,0 -1.4,0.69 -1.4,2.09l0 1.4c1.4,1.38 3.48,2.78 6.28,3.48 2.78,0.69 5.57,0.69 8.35,0.69 4.19,0 6.97,0 9.07,-0.69 2.09,-0.7 2.78,-2.1 2.78,-3.48 0,-2.1 -4.88,-3.48 -16.02,-3.48 0,0 0,-0.7 0,-2.1 -1.4,0 -2.09,0 -2.09,0 0,0 0,0 0,0 0,0 0,0 0,0 0,0 0,0 0,0 0,0 0,0 0,0 0,0 -0.7,0 -2.09,0zm1084.09 -1506.3c-1.4,0 -3.48,0.69 -6.28,1.38 -2.78,1.4 -4.87,3.48 -6.26,6.28 -1.4,1.4 -2.09,2.79 -2.09,4.18 0,1.4 1.38,2.09 4.18,2.09 2.79,0 4.88,-0.69 6.97,-2.09 2.09,-1.38 4.18,-2.78 4.88,-4.18l2.09 -4.18c0,-2.1 -1.4,-3.48 -3.48,-3.48zm-124.71 193.68l-4.19 4.19c-1.38,1.4 -2.09,3.48 -2.78,6.26 -0.7,2.1 -1.4,4.19 -1.4,5.58l0 4.18c2.79,5.57 5.57,8.36 8.36,8.36 2.78,0 4.18,-5.57 4.18,-16.73 0,-3.48 -0.69,-6.26 -1.4,-7.66 -0.69,-1.4 -1.4,-2.79 -2.78,-4.19zm-50.86 112.18c-1.4,0 -4.88,1.38 -9.76,4.18 -4.18,2.79 -9.06,5.57 -13.24,9.06 -3.48,3.48 -6.26,6.97 -7.66,11.14 -1.4,4.19 -2.09,8.36 -2.09,12.55 0,4.18 2.09,6.26 6.26,6.26 3.48,0 9.07,-4.18 16.03,-12.54 2.78,-6.97 5.57,-12.54 8.35,-17.42 2.79,-4.88 4.19,-7.66 4.19,-9.06 0,-1.4 0,-2.79 0,-3.48 0,-0.69 -0.7,-0.69 -2.09,-0.69zm-67.59 186.02c0,0 -2.79,2.09 -8.36,5.57 -6.97,5.57 -9.75,9.76 -9.75,12.54 0,1.4 2.09,2.1 5.57,2.1 2.78,0 5.57,-1.4 7.66,-4.19 2.09,-2.78 3.48,-5.57 4.88,-8.36 1.4,-2.78 2.09,-4.18 2.09,-5.57 0,-1.4 -0.69,-2.09 -2.09,-2.09zm-188.12 356.72c0,0 0,0 0,0 -1.4,0 -2.09,4.88 -2.09,14.63 0,5.58 1.4,12.55 3.48,22.3 2.09,9.76 4.88,17.42 8.36,24.39 2.78,6.97 5.57,10.45 6.97,10.45 1.4,0 2.09,-2.09 2.09,-6.26 0,-5.58 -0.69,-11.85 -2.09,-18.12 -1.4,-8.36 -2.79,-16.02 -4.19,-23.68 -1.38,-7.67 -3.48,-12.55 -6.26,-15.33 -1.4,-5.57 -3.48,-8.36 -6.28,-8.36zm20.9 85.7c-2.78,0 -4.88,1.4 -6.26,3.48 -1.4,2.09 -2.1,3.48 -2.1,4.88 0,2.79 0.7,4.88 2.1,6.28 1.38,1.38 3.48,2.09 6.26,2.09 1.4,0 2.79,-0.7 4.88,-2.09 2.09,-1.4 2.79,-3.48 2.79,-6.28 0,-1.4 -0.7,-2.79 -2.79,-4.88 -2.09,-2.09 -3.48,-3.48 -4.88,-3.48zm0 30.66c0,0 2.09,3.48 5.57,10.45 6.97,8.35 11.85,12.54 14.64,12.54 1.4,0 2.09,-0.7 2.09,-2.09 0,-1.4 -1.4,-3.48 -4.18,-6.28 -2.79,-2.79 -5.58,-5.57 -8.36,-8.36 -6.28,-4.18 -9.76,-6.26 -9.76,-6.26zm11.85 39.01c0,0 0,0 -0.69,0 -0.7,0 -1.4,0 -1.4,0l-2.09 2.09c-4.88,4.19 -7.67,9.76 -7.67,16.02 0,4.19 0.7,8.36 2.79,11.16 2.09,3.48 4.18,5.57 6.97,5.57l2.09 0c2.79,-1.4 6.28,-3.48 9.06,-5.57 3.48,-1.4 5.57,-3.48 5.57,-4.88l0 -4.18c0,-5.58 -1.38,-9.76 -4.18,-13.93 -2.79,-4.19 -6.28,-6.28 -10.45,-6.28zm12.54 46.68c-1.4,0 -2.09,0.69 -2.09,2.09 0,1.4 1.4,4.18 4.18,8.36 1.4,2.78 3.48,4.87 6.97,6.26 3.48,1.4 6.28,2.09 9.07,2.09 5.57,0 8.35,-0.69 8.35,-2.09 0,-1.4 -3.48,-4.18 -10.45,-8.36 -7.66,-5.57 -13.23,-8.35 -16.02,-8.35zm38.32 49.46c-0.69,0 -1.4,0.69 -1.4,2.09 0,1.4 0,2.79 0,5.57 1.4,1.4 1.4,3.48 1.4,6.28 1.4,5.57 2.79,9.76 4.19,13.24 1.38,3.48 2.09,5.57 2.09,5.57 0,0 2.09,0.69 5.57,2.78 2.78,2.1 6.97,4.19 11.14,6.97 4.19,2.79 7.67,4.88 11.16,6.28 3.48,1.4 4.87,2.09 4.87,2.09 1.4,0 2.1,-1.4 2.1,-2.78 0,-2.1 0,-4.19 0,-5.58 0,-2.78 -1.4,-4.18 -4.19,-4.87 -2.78,-0.7 -5.57,-1.4 -7.66,-1.4 -2.79,0 -5.57,-0.7 -7.67,-2.79 -2.09,-2.09 -2.78,-3.48 -2.78,-4.88 -1.4,-5.57 -2.09,-11.14 -2.09,-16.71 -1.4,-2.79 -2.79,-4.88 -4.88,-6.97 -2.09,-2.09 -4.88,-3.48 -7.66,-4.88l-4.19 0zm39.01 181.15l-2.09 0c0,1.38 2.79,4.87 8.36,10.45 2.79,4.18 7.66,7.66 13.93,11.14 6.97,3.48 13.24,4.88 18.81,4.88 5.57,1.4 10.45,2.09 13.93,2.09 5.57,0 8.36,-1.4 8.36,-3.48 0,-1.4 -1.4,-3.48 -4.19,-6.28 -2.78,-2.78 -7.66,-5.57 -13.93,-6.97 -6.97,-2.09 -13.93,-4.87 -20.9,-7.66 -4.88,-1.4 -9.06,-2.09 -11.85,-2.09 -4.18,-1.4 -7.66,-2.09 -10.45,-2.09zm-3230.69 -2389.76c20.2,0 41.8,1.4 64.79,4.19l10.45 0c32.74,0 60.61,12.54 82.9,38.32 22.3,25.77 33.44,54.34 33.44,85.7 0,12.54 -2.09,23.68 -6.26,34.84 -11.85,36.92 -32.75,69.66 -62.01,98.24 -29.27,28.56 -61.31,50.16 -96.84,64.79 -21.61,20.9 -44.6,30.65 -67.59,30.65 -21.59,0 -43.2,-3.48 -65.49,-11.83 -21.61,-8.36 -43.89,-12.55 -66.89,-12.55l-16.71 0c-25.78,0 -43.2,-4.87 -51.56,-13.93 -9.06,-9.75 -13.93,-21.59 -13.93,-36.92 0,-27.17 7.67,-56.43 23,-87.78 6.26,-17.42 11.14,-33.44 13.92,-46.68 16.73,-49.46 45.29,-84.99 85.71,-107.29 41.1,-22.3 84.99,-35.53 133.07,-39.72zm-26.47 707.87c11.83,0 20.89,4.19 26.47,11.16 4.87,7.66 9.75,15.32 13.93,23.68 0,1.4 0.69,2.79 2.09,4.19 20.2,17.42 34.84,39.01 43.89,63.4 9.06,24.39 13.24,48.07 13.24,71.07 0,22.29 -3.48,41.79 -9.76,59.21 -9.76,42.51 -18.81,85 -27.18,128.9 -7.66,41.11 -16.02,80.82 -24.39,120.53 -5.57,25.78 -12.54,52.95 -22.29,81.52 -20.21,55.74 -30.66,106.6 -30.66,153.28l0 22.29c0,40.41 -6.97,81.52 -20.2,122.62 -11.16,37.63 -18.12,76.64 -20.9,116.36 -18.81,44.6 -29.97,91.97 -34.15,142.83 -2.79,21.59 -6.26,43.89 -10.45,66.88 -4.18,27.18 -9.75,54.34 -16.02,80.12 -11.14,47.38 -18.11,93.36 -20.9,138.64l0 10.45c0,30.66 -4.18,61.31 -11.85,91.27 -9.75,28.57 -14.63,58.53 -14.63,89.88 0,12.54 1.4,25.08 4.18,39.01 31.35,-5.57 66.88,-27.87 105.91,-66.19 39.72,-39.01 77.33,-82.9 112.86,-131.68 34.84,-49.46 60.62,-89.87 77.35,-122.62 13.23,-15.33 23.68,-22.3 30.65,-22.3 4.19,0 6.28,2.79 6.28,7.66 0,2.79 0,4.88 0,6.28l0 10.45c-22.3,99.63 -55.05,174.18 -98.24,224.34 -12.55,22.99 -27.18,45.29 -44.6,65.5 -22.3,25.78 -39.01,52.26 -51.55,79.42 -7.67,13.93 -16.03,27.18 -24.39,41.11 -32.75,64.09 -75.25,121.22 -128.2,171.39 -13.93,13.23 -26.47,20.2 -36.92,20.2 -11.14,0 -20.2,-3.48 -28.56,-11.14 -8.36,-7.66 -16.73,-16.02 -24.39,-25.78 -6.97,-6.26 -13.24,-13.23 -19.51,-18.8 -6.28,-6.28 -12.55,-9.76 -19.52,-9.76 -4.18,0 -8.35,1.4 -12.54,4.18 -13.23,2.79 -26.47,4.19 -38.32,4.19 -36.92,0 -68.97,-11.16 -96.84,-34.84 -27.87,-22.99 -45.98,-53.65 -54.34,-91.27 -13.93,-103.82 -20.21,-207.63 -20.21,-312.83 0,-96.15 4.19,-192.29 11.85,-287.75 8.36,-44.6 14.63,-89.88 18.81,-134.47 4.88,-46.68 11.85,-91.97 20.2,-136.56 21.61,-86.4 46.68,-170 75.25,-251.52 12.55,-50.17 26.49,-98.94 43.2,-147.01 13.24,-37.63 25.78,-77.33 36.92,-118.45 6.28,-16.02 13.93,-33.44 22.3,-50.86 22.99,-58.53 51.56,-116.36 85.7,-173.48 54.34,-62.71 123.33,-103.11 206.23,-122.63 1.4,0 2.09,0 2.09,-0.69 0,-0.69 0.7,-1.4 2.1,-1.4zm124 1371.84c0,0 0,0 -0.69,0 -0.69,0 -1.4,0 -1.4,0l0 2.09c-2.09,1.4 -4.18,2.79 -5.57,4.88 -1.4,2.09 -2.09,4.19 -2.09,5.57 0,4.88 0.69,7.67 2.09,7.67 2.79,0 4.88,-3.48 7.66,-11.85 1.4,-2.79 2.1,-4.88 2.1,-6.28 0,-1.38 -0.7,-2.09 -2.1,-2.09zm-522.54 138.66c-1.38,0 -2.09,0.69 -2.78,2.09 -0.7,1.4 -1.4,3.48 -1.4,6.26l0 4.19c1.4,2.78 2.79,4.88 4.18,6.97 1.4,2.09 2.79,3.48 4.19,3.48 1.4,0 2.09,-1.4 2.09,-3.48 0,-2.09 0,-4.19 0,-6.97 0,-2.79 0,-5.57 -0.69,-8.36 -0.7,-2.79 -2.79,-4.18 -5.58,-4.18zm2.1 83.6c-1.4,1.4 -2.1,2.79 -2.1,4.19 0,2.78 0.7,6.26 2.1,10.45 4.18,31.35 8.35,53.65 12.54,66.19 4.18,13.23 9.75,22.99 18.11,29.96 11.16,9.06 18.81,13.93 22.3,13.93 1.4,0 2.09,-1.4 2.09,-4.19 0,-1.38 -1.4,-3.48 -4.88,-6.97 -3.48,-3.48 -6.97,-6.97 -11.14,-11.14 -4.18,-4.18 -6.97,-7.66 -9.06,-10.45 -2.09,-2.79 -3.48,-4.88 -3.48,-5.57l0 -2.09c1.4,-1.4 2.09,-3.48 2.09,-6.28 0,-8.36 -2.09,-20.2 -6.28,-34.84 -3.48,-9.75 -7.66,-18.11 -11.83,-26.47l-10.45 -16.73zm83.61 188.12c-1.4,0 -2.79,0 -5.58,0.69 -2.78,0.7 -4.87,2.1 -6.26,3.48 -1.4,2.79 -4.88,4.19 -10.45,4.19l-4.19 0c-2.78,-1.4 -4.87,-2.09 -5.57,-2.09l0 4.18c2.09,4.88 7.67,7.66 16.02,7.66 6.97,0 13.93,-2.09 22.3,-5.57 4.18,-2.78 6.28,-4.88 6.28,-6.26 0,-1.4 -2.79,-2.79 -8.36,-4.19 0,-1.4 0,-2.09 -0.69,-2.09 -0.7,0 -2.1,0 -3.48,0zm1404.58 -2561.85c23,0 42.51,11.85 57.13,34.84 15.33,22.99 24.39,49.46 28.57,79.43 17.42,46.67 26.47,94.75 26.47,144.91 0,39.72 -6.28,80.12 -18.12,122.63 6.97,15.32 22.99,22.29 48.77,22.29 21.61,0 47.38,-2.78 75.95,-7.66 28.56,-5.57 55.03,-8.36 79.42,-8.36 13.24,0 25.08,1.4 34.84,4.19l40.41 0c35.54,0 71.76,-0.7 107.99,-2.1 35.53,-1.38 70.37,-2.09 104.51,-2.09 70.37,0 140.73,6.97 210.4,20.21 31.35,9.75 54.34,25.78 70.37,48.77 15.33,23.68 23,48.07 23,73.85 0,28.56 -8.36,55.03 -25.09,79.42 -17.42,24.39 -41.1,43.2 -72.45,55.05 -54.34,15.33 -110.08,22.99 -167.22,22.99 -20.9,0 -41.8,-0.69 -63.4,-2.09l-41.11 0c-21.59,-1.4 -42.5,-2.09 -63.4,-2.09l-240.37 0c-66.88,0 -133.07,0.69 -198.56,2.09 -2.79,16.02 -4.88,32.75 -7.67,50.86 -9.75,75.94 -28.56,152.58 -57.12,228.53 -6.97,74.54 -19.51,149.79 -36.92,224.34 -6.97,28.56 -13.24,58.53 -18.12,89.88 -5.57,35.53 -14.63,71.76 -27.17,107.98 -18.81,49.48 -28.57,94.06 -28.57,135.17 0,6.97 0.7,13.23 2.1,20.2 -4.88,39.72 -12.55,80.12 -22.3,122.62 -16.02,55.74 -24.39,104.51 -24.39,147.02 -9.76,91.27 -22.3,184.62 -39.01,281.47 -2.79,31.35 -4.88,62.69 -7.67,94.05 -8.36,58.53 -12.54,116.36 -12.54,173.49 0,21.59 0.69,42.5 2.09,63.4 -4.18,14.63 -6.26,33.44 -6.26,55.03 0,28.57 4.18,57.13 11.14,85.7 7.66,28.57 18.81,48.77 34.15,61.32 17.41,-11.16 39.7,-23 66.18,-34.84 26.49,-12.55 48.08,-18.12 64.1,-18.12 13.93,0 20.21,5.57 20.21,18.12 0,11.83 -7.67,32.05 -24.39,59.22 -5.58,5.57 -11.16,10.44 -18.12,16.02 -24.39,25.77 -52.95,51.55 -85.7,76.64 -32.74,25.08 -66.19,37.62 -100.32,37.62 -14.64,0 -29.27,-3.48 -42.5,-9.76 -12.55,-15.32 -25.78,-23.68 -39.72,-26.47 -14.64,-2.78 -28.57,-4.18 -41.8,-4.18 -5.57,0 -11.14,0 -16.73,0 -22.99,0 -44.58,-2.79 -64.09,-8.36 -19.52,-5.57 -35.54,-20.9 -48.08,-46.68 -52.95,-102.41 -84.99,-211.1 -96.15,-326.76 -7.66,-71.06 -11.85,-140.73 -11.85,-210.4 0,-85.7 4.19,-171.39 13.24,-257.09 8.36,-85.7 19.51,-171.39 31.35,-257.09 19.51,-52.95 30.65,-107.3 34.84,-163.03 4.18,-48.08 12.54,-94.06 24.39,-139.35 12.54,-93.37 31.35,-186.03 57.12,-277.3 9.76,-32.75 18.81,-65.49 26.49,-98.24 12.54,-40.41 22.99,-81.52 32.74,-122.62 11.16,-51.56 24.39,-102.42 41.11,-152.59 -32.75,-2.78 -66.19,-5.57 -100.34,-8.35 -111.47,-5.57 -220.16,-22.3 -326.76,-50.86 -4.87,1.38 -10.45,2.09 -16.02,2.09 -22.99,0 -42.5,-7.67 -57.12,-22.99 -15.33,-14.64 -22.3,-30.66 -22.3,-46.68 0,-12.54 4.88,-22.99 15.33,-32.75 9.75,-9.06 26.47,-15.33 49.46,-18.11 72.45,-22.99 147.7,-34.84 227.13,-34.84 4.18,0 7.66,0 11.85,0 43.89,-1.4 87.09,-4.88 130.98,-10.45 7.66,0 16.02,-0.69 24.39,-2.09 47.38,0 89.87,-6.28 126.8,-20.21 36.23,-13.23 57.13,-47.38 60.62,-101.72 11.14,-61.31 35.53,-116.36 73.85,-164.43 38.32,-48.77 82.92,-90.58 134.47,-125.41 22.99,-29.96 45.29,-45.29 65.49,-45.29zm-42.5 226.44c-2.78,0 -4.18,1.4 -4.18,4.18 0,2.79 0.69,4.88 2.09,6.28 1.4,1.4 2.09,2.09 3.48,2.09 2.79,0 4.88,0 6.28,-0.69 1.38,-0.7 2.09,-2.1 2.09,-3.48l-6.28 -6.28c-1.4,-1.4 -2.78,-2.09 -3.48,-2.09zm-431.27 1490.28c-1.38,0 -2.78,0.7 -4.18,2.1 -1.4,1.38 -1.4,3.48 -1.4,6.26 0,1.4 0,2.79 1.4,4.88 1.4,2.09 2.79,3.48 4.18,3.48 2.79,0 4.88,-1.4 6.28,-3.48 1.4,-2.09 2.09,-3.48 2.09,-4.88 0,-2.78 -0.69,-4.88 -2.09,-6.26 -1.4,-1.4 -3.48,-2.1 -6.28,-2.1zm-26.47 133.08c-1.4,0 -3.48,5.57 -6.26,18.11 -0.7,8.36 -1.4,14.63 -1.4,20.21 0,6.97 0.69,12.54 1.4,16.71 1.38,4.88 3.48,7.67 6.26,7.67 2.79,0 6.28,-2.79 10.45,-7.67 4.19,-5.57 6.28,-12.54 6.28,-20.9 0,-5.57 -1.4,-10.45 -3.48,-16.02 -2.09,-5.57 -4.19,-9.76 -6.97,-12.54 -1.4,-4.19 -3.48,-5.57 -6.28,-5.57zm-4.18 93.36l-2.09 0c-2.1,2.79 -3.48,5.57 -3.48,8.36l0 4.18c2.78,4.19 4.18,6.28 5.57,6.28 2.78,0 4.88,-3.48 6.26,-10.45 0,-5.57 -1.38,-8.36 -4.18,-8.36 0,0 -0.69,0 -2.09,0zm0 28.56l-2.09 2.1c-2.1,1.38 -4.19,3.48 -5.58,5.57 -1.38,1.4 -2.09,4.18 -2.09,6.97 0,2.78 1.4,4.18 4.19,4.18l3.48 -2.09c2.78,-1.4 4.87,-3.48 5.57,-6.28 0.69,-2.78 0.69,-4.87 0.69,-6.26 0,-1.4 0,-2.09 -0.69,-2.79 -0.7,-0.69 -2.09,-1.4 -3.48,-1.4zm-7.67 36.94c-2.78,0 -5.57,1.38 -8.35,4.87 -2.79,3.48 -4.19,8.36 -4.19,13.24 0,2.78 0.7,5.57 2.09,8.36 1.4,6.97 2.1,16.71 2.1,29.96 0,12.54 0,25.78 0,39.72 -1.4,17.42 -2.1,29.25 -2.1,34.13l0 2.09c1.4,0 4.19,-4.88 8.36,-16.02 4.19,-12.54 6.28,-26.47 6.28,-43.2l0 -16.02c-1.4,-8.36 -2.09,-14.63 -2.09,-20.2 0,-11.16 2.09,-17.42 5.57,-18.81 2.78,-1.4 4.18,-3.48 4.18,-5.57l-2.09 -4.19c-2.79,-2.78 -4.88,-4.87 -5.57,-6.26 -1.4,-1.4 -2.79,-2.09 -4.19,-2.09zm-6.26 160.94c-2.79,0 -4.19,1.38 -4.19,4.18 0,1.4 0.7,2.79 2.1,4.18 1.38,2.79 2.09,4.88 2.78,6.28 0.7,1.4 2.09,2.09 3.48,2.09 1.4,0 2.09,-1.4 2.79,-3.48 0.69,-1.4 1.4,-3.48 1.4,-4.88 0,-2.78 -0.7,-4.87 -2.1,-6.26 -1.38,-1.4 -3.48,-2.09 -6.26,-2.09zm2.09 34.84l-6.28 0c-4.18,1.38 -6.26,4.18 -6.26,8.35 0,2.79 1.4,6.28 4.18,10.45 4.19,9.07 6.97,13.93 8.36,13.93 2.79,0 4.88,-6.26 6.28,-18.11 0,-9.76 -1.4,-14.63 -4.19,-14.63 -1.4,0 -2.09,0 -2.09,0zm6.28 81.51l-2.1 0c-5.57,8.36 -8.35,21.61 -8.35,39.02 0,16.71 1.38,32.05 4.87,47.38 3.48,14.63 8.36,22.29 13.24,22.29 2.79,0 5.57,-1.38 7.66,-3.48 2.1,-2.09 2.79,-3.48 2.79,-4.87 0,-6.97 -2.09,-14.64 -6.28,-22.3 -2.78,-4.19 -4.87,-11.16 -6.26,-20.21 -1.4,-9.75 -2.09,-19.51 -2.09,-29.25 0,-7.67 0,-14.64 -0.7,-20.21 -0.69,-5.57 -1.4,-8.36 -2.78,-8.36zm24.39 126.81c-1.4,0 -2.79,1.4 -4.19,3.48 -1.4,1.4 -2.78,5.57 -4.18,11.14 -1.4,4.88 -2.09,9.76 -2.09,13.93 0,4.19 0.69,6.97 2.09,8.36 2.78,2.78 4.88,4.18 6.26,4.18 4.19,0 6.97,-6.26 8.36,-18.8l0 -7.67c0,-9.75 -2.09,-14.63 -6.26,-14.63zm9.75 57.12l-1.4 0c-1.38,0 -3.48,3.48 -6.26,10.45 -2.79,5.58 -4.19,9.76 -4.19,13.93 0,5.58 2.1,11.16 6.28,16.73 7.66,10.45 13.93,16.02 18.11,16.02 2.79,0 4.19,-2.09 4.19,-6.26l0 -3.48c-1.4,-2.79 -2.79,-6.97 -4.19,-12.55 0,-2.78 -0.69,-5.57 -2.09,-8.35 0,-1.4 -0.69,-3.48 -2.09,-6.28 -2.79,-4.88 -4.18,-9.76 -4.18,-13.93 0,-1.4 -0.7,-2.79 -2.1,-4.18 0,0 0,0 0,-0.7 0,-0.69 -0.69,-1.4 -2.09,-1.4zm45.29 183.94c-4.18,0 -6.26,2.78 -6.26,7.66 0,1.4 2.09,2.79 4.87,4.18 3.48,1.4 7.67,2.1 11.85,2.1 7.66,0 11.85,-0.7 11.85,-2.1 0,-1.38 -2.09,-2.78 -6.28,-4.18 -6.26,-4.88 -11.83,-7.66 -16.02,-7.66zm-2837.75 -1812.88c4.19,-1.38 9.07,-2.09 14.64,-2.09 4.18,0 8.35,0.7 11.83,2.09l6.28 0c5.57,0 11.85,-0.69 18.81,-2.09 6.26,-1.4 13.23,-2.09 20.2,-2.09 5.58,0 10.45,1.4 13.93,4.18 4.19,2.79 6.28,8.36 6.28,16.73l0 4.18c20.21,10.45 33.44,27.87 39.01,51.56 5.57,23.68 8.36,50.17 8.36,78.73l0 85.7c1.4,9.76 1.4,18.81 1.4,28.56 0,27.18 -2.79,52.96 -9.76,77.35 -4.18,23.68 -6.26,44.58 -6.26,63.4l0 14.63c0,31.35 -6.97,65.5 -20.21,101.72 -6.97,23 -11.85,43.2 -14.63,59.22 2.78,11.16 4.18,22.3 4.18,34.84 0,27.18 -6.26,54.34 -18.11,81.52 -11.16,25.78 -16.73,51.55 -16.73,77.33 0,9.76 1.4,19.51 4.19,29.27 -2.79,85.7 -18.81,165.12 -48.77,238.27 -6.97,22.3 -11.16,42.5 -12.54,61.31 -1.4,32.75 -11.85,68.28 -32.75,106.6 0,50.17 -6.97,100.34 -22.3,150.49 -8.36,34.15 -14.63,68.98 -20.21,104.51 -1.38,24.39 -2.09,48.77 -2.09,73.16 -1.4,46.68 -4.88,95.46 -10.45,147.01 -4.18,8.36 -5.57,17.42 -5.57,26.47 0,9.76 0.7,20.21 3.48,30.66 2.79,12.54 4.18,24.39 4.18,36.92 0,18.81 -6.96,39.01 -22.29,59.22l0 4.18c0,18.81 -8.36,37.63 -24.39,55.74 -16.73,18.81 -34.15,27.87 -52.96,27.87 -8.35,0 -16.02,-2.09 -22.99,-6.28 -7.66,-20.2 -20.9,-30.65 -38.32,-30.65 -15.32,0 -31.35,3.48 -49.46,10.45 -16.02,6.97 -31.35,10.45 -46.68,11.85 -8.35,-4.88 -18.8,-8.36 -32.74,-9.76 -11.85,-2.78 -23,-6.97 -33.44,-12.54 -10.45,-5.57 -16.73,-16.02 -19.52,-32.75 -24.39,-68.97 -43.89,-142.83 -59.22,-220.16 -4.18,-21.59 -6.26,-46.67 -6.26,-73.85 0,-7.66 0,-15.33 0,-22.3 -1.4,-22.99 -2.79,-43.89 -4.19,-63.4 -1.38,-18.81 -4.87,-33.44 -11.83,-42.5 -27.18,32.74 -52.26,66.18 -75.95,99.63 -37.62,57.12 -81.51,110.08 -130.28,157.46 -35.54,47.38 -80.83,84.3 -136.56,110.08 -19.52,11.14 -38.32,22.29 -57.13,34.84 -39.72,18.8 -79.43,28.56 -118.45,28.56 -46.68,0 -89.18,-10.45 -128.9,-30.66 -9.75,0 -18.11,0.7 -26.47,2.1 -16.02,0 -32.05,0 -46.68,0 -39.7,0 -79.42,-8.36 -118.43,-24.39 -4.19,-11.16 -11.16,-20.21 -20.9,-27.87 -9.06,-6.97 -20.21,-13.93 -32.06,-19.51 -16.71,-7.67 -30.65,-17.42 -43.19,-29.27 -12.54,-11.85 -18.81,-29.27 -20.21,-52.26 -22.99,-81.52 -34.84,-165.13 -34.84,-250.83 0,-39.7 1.4,-78.73 4.19,-118.43 2.78,-20.21 5.57,-41.8 8.35,-63.41 3.48,-66.88 20.9,-130.28 50.86,-191.59 8.36,-24.39 14.64,-50.86 20.21,-80.12 5.57,-57.13 25.78,-107.99 61.31,-152.58 31.35,-88.49 71.76,-172.79 122.62,-252.91 10.45,-16.73 20.9,-31.35 30.66,-45.29 13.23,-18.81 26.47,-37.63 38.32,-55.05 12.54,-17.42 25.08,-39.01 39.01,-63.4 31.35,-39.72 65.5,-76.64 102.42,-112.17 17.42,-17.42 34.84,-36.23 52.95,-55.03 27.18,-13.93 53.65,-28.57 79.42,-45.29 41.11,-24.39 84.31,-45.99 130.29,-64.79 19.51,-1.4 38.32,-4.19 57.13,-8.36 28.56,-5.57 56.43,-8.36 84.3,-8.36 32.05,0 61.31,8.36 87.78,24.39 55.74,42.5 90.58,94.75 105.91,157.46 11.14,47.38 16.02,96.84 16.02,147.01 0,36.92 -4.18,72.47 -11.85,107.99 -6.97,19.51 -13.93,39.01 -20.9,59.22 -16.02,62.71 -42.5,119.83 -79.42,171.39 -21.61,-2.79 -36.23,-14.63 -43.89,-35.53 -7.67,-20.9 -12.55,-45.99 -15.33,-74.55 -4.19,-35.53 -11.85,-64.79 -24.39,-87.78 -6.97,-24.39 -11.85,-50.86 -16.02,-79.43 -5.57,-29.96 -12.54,-59.22 -20.9,-87.09 -7.67,-27.87 -22.3,-50.86 -42.51,-70.37 -48.07,41.11 -87.78,88.49 -119.83,142.13 -31.35,53.65 -60.62,108.7 -86.4,164.44 0,1.38 -0.69,2.78 -2.09,4.18 -31.35,57.13 -55.74,114.96 -73.16,173.48 -8.35,21.61 -16.71,43.2 -25.08,64.79 -17.42,52.96 -31.35,105.91 -40.41,157.46 -5.57,29.96 -11.85,59.22 -18.81,87.8 -2.09,21.59 -4.88,41.8 -7.66,61.31 -6.97,43.19 -10.45,87.78 -10.45,132.37l0 28.57c1.4,31.35 4.88,63.4 10.45,94.75 5.57,32.05 13.93,59.91 26.47,82.9 6.97,29.97 18.11,45.29 34.84,45.29 16.02,0 33.44,-8.35 51.55,-23.68 18.81,-16.02 36.23,-32.75 52.26,-50.17 9.76,-8.36 17.42,-15.33 24.39,-22.3 13.93,-15.32 27.18,-29.96 41.11,-45.29 39.01,-37.62 69.67,-78.73 91.96,-121.92 58.53,-84.31 111.48,-171.39 158.85,-259.19 1.4,-2.78 2.79,-5.57 4.19,-8.35 18.8,-31.35 36.22,-63.41 50.86,-96.15 21.59,-43.2 46.67,-85.71 73.85,-126.12 27.18,-82.21 59.91,-161.63 97.54,-238.97 8.36,-49.48 23.68,-96.15 45.29,-140.74 14.63,-31.35 27.17,-63.4 36.22,-96.15 29.97,-38.32 52.26,-79.42 65.5,-124.71 15.33,-45.99 38.32,-87.09 69.67,-122.62 13.23,-24.39 32.05,-47.39 55.74,-70.38 24.39,-22.29 48.77,-36.22 74.54,-41.8zm-560.86 351.15c-2.78,0 -4.18,0.7 -4.18,2.09l2.09 2.1c1.4,2.78 2.79,4.18 4.88,4.87 2.09,0.7 4.18,1.4 6.97,1.4 1.4,0 2.79,-0.69 4.18,-1.4 1.4,-0.69 2.1,-1.38 2.1,-2.78 0,-1.4 -1.4,-2.09 -4.19,-2.79 -2.78,-0.69 -5.57,-2.09 -7.66,-3.48l-4.19 0zm7.67 18.81c-1.4,0 -2.79,0.69 -3.48,2.79 -1.4,2.09 -2.09,3.48 -2.09,4.87 0,2.79 0.69,4.88 2.09,5.58 0.69,0.69 2.09,0.69 3.48,0.69 2.78,0 4.88,-0.69 6.26,-2.79 1.4,-2.09 2.1,-4.18 2.1,-5.57 0,-2.78 -0.7,-4.18 -2.1,-4.88 -1.38,-0.69 -3.48,-0.69 -6.26,-0.69zm0 36.23c-2.09,0 -3.48,2.78 -3.48,8.36 0,4.18 0.69,8.35 1.4,12.54 5.57,20.2 9.75,29.96 12.54,29.96 0,0 0.69,-1.4 2.09,-5.57 0,-1.4 -0.69,-4.88 -2.09,-10.45 0,-6.97 -0.7,-13.24 -2.09,-18.12 0,-4.18 0,-6.97 0,-8.35 0,-2.79 -0.7,-4.88 -2.1,-6.28 -1.38,-1.4 -3.48,-2.09 -6.26,-2.09zm-522.54 210.4c-1.4,0 -2.79,1.4 -3.48,4.88 -1.4,3.48 -2.09,8.36 -2.09,13.24l0 8.35c1.38,11.16 2.78,16.73 3.48,16.73 1.38,0 3.48,-4.88 6.26,-14.63 2.79,-6.97 4.19,-12.55 4.19,-16.03 0,-4.18 -0.7,-6.97 -2.1,-8.35 -1.38,-1.4 -2.09,-2.79 -2.78,-3.48 -0.7,0 -2.09,-0.7 -3.48,-0.7zm555.29 75.25c0,1.4 0,2.79 0,4.19 1.38,1.38 2.09,2.78 2.09,4.18 2.78,5.57 4.88,8.36 6.26,8.36l2.1 0c1.38,0 2.09,-0.7 2.09,-2.09 0,-1.4 -0.7,-2.79 -2.09,-4.88 -1.4,-2.09 -2.79,-4.19 -4.19,-5.57 -1.4,-1.4 -2.09,-2.1 -2.78,-2.79 -0.7,-0.69 -2.1,-1.4 -3.48,-1.4zm-820.05 541.36c-1.4,0 -3.48,2.79 -6.26,7.66 -2.79,2.79 -4.88,6.97 -6.28,11.85 -1.4,4.19 -2.09,8.36 -2.09,11.16 0,5.57 0.69,7.66 2.09,7.66 1.4,0 3.48,-2.09 6.28,-7.66 2.78,-4.19 4.18,-9.07 4.87,-13.24 0.7,-4.88 1.4,-9.06 1.4,-11.14l0 -6.28zm773.37 36.92c-2.79,0.7 -4.19,2.79 -4.19,5.57l0 2.1c1.4,1.38 2.79,2.78 4.19,4.18 1.4,1.4 2.78,2.09 4.18,2.09 1.4,0 2.09,-0.69 2.79,-2.78 0.69,-2.1 1.4,-4.19 1.4,-5.58 0,-2.78 -0.7,-4.18 -2.1,-4.87 -1.38,-0.7 -3.48,-0.7 -6.26,-0.7zm-775.45 9.76c-2.78,0 -5.57,13.93 -8.36,41.1 -1.38,9.06 -2.09,16.02 -2.09,20.21 0,5.57 0.7,8.36 2.09,8.36 1.4,0 2.79,-1.4 4.19,-4.19 2.78,-4.18 4.18,-10.45 4.87,-18.11 0.7,-8.36 1.4,-16.02 1.4,-22.99 0,-16.02 -0.69,-24.39 -2.09,-24.39zm1003.98 39.01c-1.4,0 -2.79,1.4 -4.19,4.88 -1.4,3.48 -2.09,6.97 -2.09,11.14 0,4.19 0.69,7.67 1.4,10.45 0.69,2.79 1.4,4.19 2.78,4.19 0,0 0.7,-0.7 1.4,-2.1 0,-1.38 0.7,-3.48 1.4,-6.26 0.69,-2.79 2.09,-5.57 3.48,-8.36l0 -5.57c0,-5.57 -1.4,-8.36 -4.18,-8.36zm-153.28 81.52c-1.4,1.38 -2.79,2.09 -4.19,2.09 -1.38,1.4 -2.78,3.48 -5.57,6.26l-4.18 6.28 0 1.4c1.4,0 4.18,-1.4 8.36,-3.48 4.87,-4.19 7.66,-6.97 7.66,-8.36l0 -4.18c0,0 -0.69,0 -2.09,0zm-850.7 4.18c-1.4,0 -3.48,1.4 -5.57,4.88 -2.09,3.48 -3.48,7.66 -4.88,13.23 -2.78,4.19 -4.18,8.36 -4.18,12.55 0,5.57 2.78,9.06 8.36,11.83 6.96,1.4 11.14,2.1 13.92,2.1l4.19 0c1.4,-1.4 2.09,-2.79 2.09,-4.19 0,-2.09 -2.09,-4.18 -6.28,-5.57 -5.57,-4.18 -7.66,-9.76 -7.66,-16.73l0 -4.18c1.4,-4.18 2.09,-6.97 2.09,-9.76 0,-2.78 -0.69,-4.18 -2.09,-4.18zm995.62 59.22c0,0 -0.7,0.69 -2.09,2.09 0,1.4 -0.7,2.79 -2.1,4.19l-7.66 7.66c0,1.4 -0.69,2.09 -2.09,2.09 -1.4,2.79 -2.09,5.57 -2.09,8.36 0,8.36 4.18,21.59 11.83,41.1 4.19,10.45 6.97,20.21 8.36,29.27 1.4,9.06 2.09,16.02 2.09,21.61l0 8.35c0,3.48 1.4,5.58 4.19,5.58 2.78,0 4.18,-3.48 4.88,-11.16 0.69,-7.66 1.38,-16.02 1.38,-25.08 0,-11.16 -0.69,-20.21 -1.38,-27.87 -0.7,-7.67 -1.4,-11.85 -2.79,-13.24 -1.4,-1.4 -2.79,-4.88 -4.18,-11.14 -1.4,-6.28 -2.1,-11.85 -2.1,-17.42 0,-2.79 0,-5.57 0,-8.36 -1.38,-10.45 -2.78,-16.02 -4.18,-16.02l-2.09 0zm-981.68 8.36c-1.4,0 -2.09,0 -2.79,0.69 -0.69,0.7 -2.09,1.4 -3.48,2.79 -2.78,2.78 -4.18,5.57 -4.18,8.36 0,4.18 1.4,7.66 4.18,10.45 2.79,2.78 6.28,4.18 10.45,4.18 1.4,-1.4 2.1,-4.88 2.1,-10.45l0 -6.28c-1.4,-2.78 -2.1,-4.87 -2.79,-6.26 -0.69,-1.4 -2.09,-2.09 -3.48,-3.48zm8.36 42.5c-2.79,1.4 -4.88,2.79 -6.28,4.18 -1.4,1.4 -2.78,3.48 -4.18,6.28 -1.4,4.18 -2.79,7.66 -4.88,11.85 -2.09,4.18 -3.48,6.97 -4.88,8.36l0 2.09c0,1.4 2.79,4.18 9.76,8.36 6.97,4.18 13.93,7.66 21.59,11.14 7.67,3.48 13.93,5.57 19.51,6.97 0,-2.79 -2.78,-7.66 -8.35,-14.63 -2.79,-3.48 -5.58,-8.36 -8.36,-13.93 -2.79,-5.58 -4.19,-10.45 -4.19,-13.93 0,-5.58 -0.69,-9.76 -2.78,-12.55 -2.09,-2.78 -4.19,-4.18 -6.97,-4.18zm48.77 83.61l-2.09 2.09c0,1.4 1.38,3.48 3.48,4.88 2.09,2.09 4.18,4.88 6.97,7.66 8.35,4.19 13.23,6.28 16.02,6.28l2.09 0c0,-2.79 -3.48,-6.97 -9.76,-12.54 -5.57,-5.57 -10.45,-8.36 -14.63,-8.36l-2.09 0zm930.81 18.81c-1.38,0 -2.09,0 -2.78,0.69 -0.7,0.69 -1.4,2.09 -1.4,4.88 0,1.4 1.4,4.18 4.18,7.66 2.79,3.48 5.58,6.28 8.36,9.06 2.79,2.79 5.57,4.19 8.36,4.19 0,0 0,-1.4 0,-4.19 0,-2.78 -0.69,-6.26 -2.09,-10.45 -5.57,-8.35 -10.45,-11.83 -14.64,-11.83zm-977.5 29.96c-2.79,0 -4.18,0.69 -4.18,2.09 0,1.4 0.69,3.48 2.09,6.28 1.4,2.78 4.18,4.87 8.36,6.26 3.48,1.4 8.35,2.09 13.93,2.09 4.18,0 8.35,-0.69 12.54,-2.09 3.48,-1.4 5.57,-3.48 5.57,-6.26 0,-1.4 -0.69,-2.79 -2.79,-4.19 -2.09,-1.4 -3.48,-2.09 -4.87,-2.09l-12.55 0c-5.57,0 -9.75,-0.69 -13.93,-2.09l-4.18 0zm981.68 12.54c-2.79,1.4 -4.88,2.79 -6.28,4.18 -1.4,1.4 -2.78,3.48 -4.18,6.28l0 2.09c0,1.4 2.09,3.48 5.57,7.67 3.48,4.18 6.97,7.66 11.14,10.45 4.19,2.78 6.97,4.18 9.76,4.18l2.09 0 0 -2.09c0,-2.79 -0.69,-6.97 -2.09,-12.54 0,-1.4 0,-2.79 0,-3.48 -2.79,-11.16 -7.66,-16.73 -16.02,-16.73zm26.47 45.29c-1.4,0 -2.09,0 -2.79,0.69 -0.69,0.7 -2.09,1.4 -3.48,2.79 -2.78,2.78 -4.18,6.26 -4.18,10.45 0,2.78 0.69,4.88 2.09,6.26 2.79,2.79 4.88,4.19 6.28,4.19 2.78,0 4.88,-1.4 6.26,-4.19 2.79,-4.18 4.19,-7.66 4.19,-10.45 0,-2.78 -0.7,-4.87 -2.09,-6.26 -1.4,-1.4 -2.79,-2.09 -3.48,-2.79 -0.7,-0.69 -1.4,-0.69 -2.79,-0.69zm-932.91 11.85c-5.57,1.38 -8.36,2.09 -8.36,2.09l8.36 4.18c5.57,2.79 11.14,4.19 16.73,4.19l5.57 0c5.57,0 8.36,-0.7 8.36,-2.1 0,-1.38 -2.79,-2.78 -8.36,-4.18 -4.88,-2.79 -10.45,-4.18 -16.02,-4.18l-6.28 0zm947.54 30.65c-1.4,0 -2.78,0 -3.48,0 -0.69,0 -1.38,0.7 -2.78,2.09 -8.36,2.79 -12.54,6.28 -12.54,10.45 0,4.88 5.57,11.85 16.71,20.21 7.66,6.97 13.93,10.45 18.11,10.45 1.4,0 2.1,-0.69 2.1,-2.09 0,-2.79 -2.79,-7.67 -8.36,-14.64 -2.79,-2.78 -4.88,-5.57 -6.28,-8.35 -1.4,-2.1 -2.09,-4.88 -2.09,-7.67l0 -10.45c0,0 0,0 -1.4,0zm0 81.52l-2.09 0c0,0 0,0.69 0,2.09 -1.4,0 -2.09,0.69 -2.09,2.09 0,1.4 0.69,2.79 2.09,4.19 1.4,1.38 3.48,2.78 5.57,4.18 5.57,2.79 9.76,4.18 12.54,4.18 0,-1.38 -2.09,-4.87 -6.26,-10.45 -4.19,-4.18 -7.67,-6.26 -9.76,-6.26zm42.51 16.71c-1.4,0 -2.1,0.7 -2.1,2.1 -1.38,0 -2.09,0 -2.78,0 -0.7,0 -1.4,0.69 -1.4,2.09l0 1.4c1.4,1.38 3.48,2.78 6.28,3.48 2.78,0.69 5.57,0.69 8.35,0.69 4.19,0 6.97,0 9.07,-0.69 2.09,-0.7 2.78,-2.1 2.78,-3.48 0,-2.1 -4.88,-3.48 -16.02,-3.48 0,0 0,-0.7 0,-2.1 -1.4,0 -2.09,0 -2.09,0 0,0 0,0 0,0 0,0 0,0 0,0 0,0 0,0 0,0 0,0 0,0 0,0 0,0 -0.7,0 -2.09,0zm1288.24 -3029.34l26.47 0c25.78,8.36 43.89,20.21 53.65,36.92 10.45,16.02 15.32,34.84 15.32,55.05 0,38.32 -8.35,75.94 -26.47,114.26 -18.8,71.76 -34.13,144.92 -44.58,218.08 -5.57,25.78 -10.45,51.55 -14.64,75.94 -25.77,65.5 -43.89,133.07 -55.03,204.14 -5.57,36.23 -12.54,73.16 -22.3,110.08 -8.36,32.75 -16.71,65.5 -24.39,98.24 -18.11,70.38 -34.13,140.74 -49.46,209.71 -10.45,38.32 -20.21,80.83 -28.56,126.81 -9.07,45.98 -20.21,91.27 -32.75,134.47 -0.7,8.36 -3.48,19.51 -6.97,32.75 -3.48,13.93 -7.67,27.86 -13.24,43.19 -4.18,14.64 -7.66,28.57 -11.14,40.41 -3.48,12.55 -4.88,21.61 -4.88,26.49 0,4.18 0.7,6.26 2.09,6.26 4.19,0 14.64,-13.23 32.75,-40.41 28.56,-45.29 59.91,-88.49 95.46,-130.98 16.71,-18.81 28.56,-34.84 36.92,-46.68 21.59,-19.51 42.5,-39.7 61.31,-61.31 35.53,-45.29 78.04,-78.73 128.19,-102.41 64.1,-43.2 134.47,-64.79 210.42,-64.79l26.47 0c5.57,-1.4 11.14,-2.1 16.71,-2.1 16.03,0 30.66,5.58 43.89,17.42 12.55,11.16 25.09,24.39 37.63,39.72 8.36,10.45 16.73,20.9 26.47,30.66 18.81,33.44 32.05,68.28 39.01,103.81 6.28,35.53 9.76,71.76 9.76,107.99 0,54.34 -4.18,109.38 -11.85,163.72 -2.78,20.21 -4.88,39.72 -6.26,59.22 -29.96,160.25 -70.38,317.71 -120.53,470.99 -13.24,31.35 -26.47,62 -39.02,91.96 -20.2,45.29 -40.41,94.06 -60.61,147.02 -65.5,138.64 -135.86,276.6 -210.42,412.46 -2.78,4.18 -4.87,7.66 -6.26,10.45 -31.35,57.12 -66.19,112.17 -103.82,165.12 -38.32,52.95 -84.99,97.54 -141.44,132.38 -7.66,4.18 -16.02,6.26 -24.39,6.26 -10.45,0 -21.59,-1.38 -32.74,-4.18 -4.88,-1.4 -10.45,-2.79 -16.02,-4.18 -28.57,-4.88 -53.65,-14.64 -75.26,-28.57 -23.68,-14.63 -47.38,-22.29 -71.76,-22.29 -14.63,0 -30.65,4.87 -46.67,14.63l-12.54 0c-41.8,0 -74.55,-16.02 -96.85,-48.08 -22.3,-32.05 -41.8,-66.18 -58.52,-103.11 -1.4,-5.57 -2.79,-10.45 -5.58,-14.63 -5.57,-10.45 -10.45,-21.59 -14.63,-32.05 -21.59,-48.08 -41.1,-96.15 -59.22,-144.23 -17.42,-48.07 -26.47,-98.24 -26.47,-149.8l0 -6.26c-2.79,-46.68 -4.18,-91.97 -4.18,-136.56 0,-96.85 6.97,-193 20.9,-287.75l0 -6.28c0,-49.46 6.97,-96.84 22.29,-142.82 10.45,-39.72 17.42,-78.73 20.21,-116.36 6.97,-54.34 16.02,-107.29 28.56,-157.46 12.54,-45.98 21.61,-94.75 28.57,-144.92 11.14,-68.28 27.17,-133.76 48.77,-197.87 13.92,-46.68 25.77,-92.66 36.92,-138.64 2.78,-5.58 4.87,-11.16 6.26,-16.73 31.35,-82.9 59.22,-168.6 83.61,-257.09 8.36,-24.39 16.73,-48.77 26.47,-73.16 21.61,-55.74 42.51,-113.57 61.31,-173.48 29.96,-83.61 61.31,-165.13 94.06,-245.25 22.99,-52.95 44.6,-107.29 65.5,-163.03 9.06,-27.17 19.51,-54.34 29.96,-82.21 12.54,-34.84 29.25,-69.67 51.55,-103.81 21.61,-34.15 52.26,-52.96 91.97,-57.13zm160.94 1371.84c-12.54,0 -25.78,12.54 -41.11,38.32 -115.65,137.95 -205.53,294.01 -268.92,469.59 -20.9,49.46 -39.72,101.72 -57.13,157.46 -9.76,28.56 -19.51,56.43 -28.56,83.61 -23.69,82.9 -43.9,167.2 -61.32,252.9 -1.38,9.76 -3.48,19.51 -6.26,28.57 -11.16,34.13 -16.02,67.57 -16.02,100.32 0,24.39 5.57,45.29 18.11,63.4 5.57,6.28 9.06,16.73 11.14,29.27 2.1,13.24 2.79,26.47 2.79,39.72 0,16.71 1.4,30.65 3.48,41.8 2.09,11.83 6.97,17.42 15.33,17.42 5.57,0 12.54,-4.19 22.3,-11.85 9.75,-9.76 19.51,-20.21 30.65,-30.66 45.98,-43.89 87.78,-87.78 124.71,-133.07 14.64,-32.75 32.75,-62.71 52.96,-89.87 28.56,-39.02 50.16,-82.21 65.49,-128.2 36.23,-80.11 70.37,-164.43 101.72,-251.51 21.61,-81.52 41.11,-163.73 57.13,-246.65 16.73,-82.9 24.39,-167.2 24.39,-252.9l0 -36.92c1.4,-5.58 2.09,-12.55 2.09,-20.21 0,-25.08 -4.88,-50.86 -13.93,-78.73 -9.75,-27.87 -22.29,-41.8 -36.92,-41.8l-2.09 0zm-230.62 134.47c-2.79,0 -5.57,2.79 -8.36,8.36 -2.78,5.57 -4.18,11.14 -4.18,18.11 0,2.79 0.69,4.18 2.09,4.18 1.4,0 4.18,-2.78 8.36,-8.35 4.18,-4.88 6.26,-10.45 6.26,-16.02 0,-2.79 -0.69,-4.88 -2.09,-6.28l-2.09 0zm-87.78 149.09c0,0 -0.7,0 -1.4,0 -0.69,0 -0.69,0 -0.69,0.7 0,0.69 -0.7,1.38 -2.1,1.38 -1.38,1.4 -2.78,4.19 -4.18,8.36 -1.4,4.19 -2.09,7.67 -2.09,11.85 0,8.36 0.69,12.54 2.09,12.54 1.4,0 3.48,-3.48 6.28,-10.45 1.38,-4.18 2.09,-8.36 2.78,-11.85 0.7,-4.18 1.4,-6.97 1.4,-8.35 0,-1.4 0,-2.79 0,-3.48 0,-0.7 -0.69,-0.7 -2.09,-0.7zm-294.01 69.67l-4.19 0c-4.18,3.48 -6.26,7.67 -6.26,11.85 1.38,4.18 2.78,6.28 4.18,6.28 1.4,0 3.48,-3.48 6.28,-10.45l2.09 -5.58c0,-1.38 -0.7,-2.09 -2.09,-2.09zm216.68 101.72c-1.4,0 -2.79,0.7 -3.48,2.1 -0.7,1.38 -1.4,3.48 -2.79,6.26 -1.4,1.4 -2.09,2.79 -2.09,4.19 0,1.38 1.4,2.09 4.18,2.09 5.57,0 8.36,-1.4 8.36,-4.19 0,-1.38 0,-2.09 0,-2.09 0,-2.78 -0.69,-4.88 -1.4,-6.26 -0.69,-1.4 -1.4,-2.1 -2.78,-2.1zm-375.53 753.16c-1.4,0 -2.79,2.09 -3.48,4.88 -0.7,3.48 -0.7,8.36 -0.7,13.93l0 7.66c0,2.79 0,5.58 0.7,8.36 0.69,2.79 2.09,4.19 3.48,4.19 2.09,-1.4 3.48,-5.58 3.48,-12.55l0 -7.66c0,-5.57 0,-10.45 -0.7,-13.93 -0.69,-2.79 -2.09,-4.88 -2.78,-4.88zm-1631.03 -2608.52l-4.18 0c-4.19,1.38 -7.67,3.48 -11.16,6.26 -3.48,2.79 -6.26,5.57 -7.66,8.36l0 3.48c0,4.18 2.09,6.28 6.28,6.28l4.18 0c4.18,-1.4 7.66,-3.48 11.14,-6.28 3.48,-2.09 6.28,-5.57 6.97,-9.76 0,-2.78 0,-4.87 -0.69,-6.26 -0.69,-1.4 -2.09,-2.09 -4.88,-2.09zm-1253.4 420.12c0,0 -0.69,1.4 -1.4,3.48 -0.69,2.09 -0.69,4.88 -0.69,9.06 0,9.76 0.69,14.64 2.09,14.64 1.4,0 2.09,-0.7 2.09,-2.1 1.4,-4.18 2.09,-8.35 2.09,-12.54 0,-4.18 -0.69,-7.66 -2.09,-10.45l0 -2.09c0,0 -0.69,0 -2.09,0zm1082.01 4.18c-1.4,0 -2.78,1.4 -3.48,4.19 -0.69,2.78 -0.69,5.57 -0.69,8.36 0,4.18 0.69,7.66 2.78,10.45 2.1,2.78 4.19,3.48 4.88,3.48 2.79,0 4.19,-1.4 4.19,-5.58 0,-1.38 -0.7,-4.18 -2.1,-8.35 -1.38,-2.79 -2.09,-5.58 -2.78,-8.36 -0.7,-2.79 -1.4,-4.19 -2.79,-4.19zm-53.65 135.17l-5.57 0c-2.78,2.78 -4.18,6.26 -4.18,9.75l0 4.19c1.4,2.78 3.48,4.18 6.26,4.18 2.1,0 4.19,-0.69 5.58,-2.09 2.78,-1.4 4.18,-3.48 4.18,-6.28 0,-2.78 -0.69,-4.18 -2.09,-5.57 0,-1.4 0,-2.78 -0.7,-3.48 -0.69,-0.69 -2.09,-0.69 -3.48,-0.69zm-1105.69 57.13c-1.4,0 -4.19,4.18 -8.36,11.83l0 6.28c0,4.18 2.09,6.26 6.28,6.26 4.87,0 7.66,-2.09 7.66,-6.26 0,0 0,-0.7 0,-2.09l0 -4.19c-1.4,-4.18 -2.79,-6.97 -4.18,-9.06 -0.7,-2.09 -1.4,-2.78 -1.4,-2.78zm-55.74 116.35c-0.69,0 -2.09,0 -3.48,0.69 -1.4,0.7 -2.79,2.1 -4.18,3.48 -5.58,4.88 -8.36,10.45 -8.36,16.03 0,2.78 0.69,4.87 2.09,6.26 1.4,5.57 3.48,8.36 6.28,8.36 1.38,0 4.18,-1.4 7.66,-4.18 1.4,-2.79 2.78,-6.28 4.18,-9.07 1.4,-3.48 2.09,-6.97 2.09,-9.75l0 -3.48c-1.38,-2.79 -2.09,-4.88 -2.78,-6.28 -0.7,-1.4 -2.09,-2.09 -3.48,-2.09zm1061.8 107.99c-5.57,0 -10.45,3.48 -14.63,10.45 -1.4,1.4 -2.09,3.48 -2.09,5.57 0,4.18 1.4,8.36 4.18,12.54 2.79,4.19 5.57,6.28 8.36,6.28 1.4,0 2.09,-0.7 2.09,-2.09l-2.09 -4.19c-1.4,-1.4 -2.09,-2.78 -2.09,-4.18 0,-4.19 1.4,-8.36 4.18,-11.85 2.79,-4.18 4.19,-7.66 4.19,-10.45 0,-1.4 -0.7,-2.09 -2.1,-2.09zm-1163.52 167.22c-1.4,0 -3.48,0.69 -6.28,1.38 -2.78,0.7 -5.57,2.1 -8.36,4.88 -4.87,2.79 -9.75,5.57 -13.23,8.36 -3.48,2.79 -5.57,5.57 -6.97,7.66 -1.4,2.79 -2.09,4.88 -2.09,6.28 0,2.79 1.38,4.18 4.18,4.18 4.18,0 11.85,-6.26 22.3,-18.11 6.97,-8.36 10.45,-13.24 10.45,-14.63zm1084.09 61.31l-2.09 2.09c-2.79,1.4 -4.88,3.48 -6.28,6.26 -1.4,2.79 -2.09,5.58 -2.09,8.36 0,1.4 0,2.09 0.69,2.79 0.7,0.69 2.1,0.69 3.48,0.69l4.19 0c2.78,-2.09 4.18,-4.88 4.88,-7.66 0.69,-2.79 1.38,-4.88 1.38,-6.28l0 -2.09c0,-2.79 -1.38,-4.18 -4.18,-4.18zm-1161.44 83.6c-2.78,0 -4.18,2.1 -4.18,6.28l0 4.18c1.4,1.4 2.79,2.79 4.18,4.19 1.4,2.78 2.79,4.18 3.48,4.18 1.4,0 2.79,-1.4 3.48,-3.48 0.7,-2.09 0.7,-3.48 0.7,-4.88 0,-2.78 -0.7,-4.87 -2.09,-6.97 -1.4,-2.09 -2.79,-3.48 -5.58,-3.48zm-22.99 87.8c-2.09,0 -4.18,0.69 -5.57,2.09 -1.4,1.4 -2.09,3.48 -2.09,6.28l0 8.35c0,1.4 0.69,2.09 2.09,2.09 1.4,0 2.79,-1.38 3.48,-3.48 1.4,-2.09 2.79,-4.18 4.18,-6.96l2.1 -4.19c0,-2.78 -1.4,-4.18 -4.19,-4.18zm1014.43 337.21c-1.4,0 -2.09,0 -2.79,0.69 -0.69,0.69 -1.4,2.09 -2.78,3.48 -4.19,2.09 -7.67,7.66 -9.76,14.63 -1.4,7.67 -2.79,14.64 -2.79,19.52 0,4.18 0.7,7.66 2.1,9.75 1.38,1.4 2.78,2.79 4.18,2.79l2.09 0c4.19,-5.57 7.67,-16.02 9.76,-30.66 1.4,-6.97 2.09,-12.54 2.09,-16.02 0,-2.79 -0.69,-4.18 -2.09,-4.18zm-307.95 48.77c-1.4,0 -2.1,0.69 -2.1,2.09 0,1.4 3.48,2.09 10.45,2.09 8.36,0 11.85,-0.69 11.85,-2.09 0,-1.4 -0.69,-2.09 -2.09,-2.09 -0.69,-1.4 -2.09,-2.1 -3.48,-2.1l-8.36 0c-2.78,0 -4.88,0.7 -6.26,2.1zm-267.55 16.02l-4.18 0c-3.48,0 -6.97,0.69 -9.76,2.09 -2.78,1.4 -4.18,3.48 -4.18,6.28 0,1.38 1.4,3.48 4.18,6.26 4.19,2.79 8.36,4.19 13.93,4.19 4.19,0 8.36,-0.7 12.55,-2.1 6.97,-1.38 10.45,-2.78 10.45,-4.18 0,-1.4 -2.79,-4.18 -8.36,-8.36 -2.79,-2.78 -7.67,-4.18 -14.64,-4.18zm-181.14 41.1c-4.19,0 -8.36,0.7 -11.85,2.09 -2.79,1.4 -5.57,3.48 -6.97,6.28 -1.4,2.79 -2.09,4.88 -2.09,6.28 0,0.69 1.4,1.38 4.18,1.38 2.79,0 8.36,-2.09 16.73,-7.66 4.88,-2.79 7.66,-4.88 7.66,-6.28 0,-1.38 -2.78,-2.09 -7.66,-2.09zm560.86 581.76c-1.4,0 -2.79,2.09 -4.88,6.28 -2.09,4.18 -3.48,8.36 -3.48,13.93 0,8.36 0.69,12.54 2.09,12.54 0,0 0,0 0,0 1.4,0 3.48,-2.09 6.28,-6.28 2.78,-4.18 4.88,-8.35 6.26,-12.54 1.4,-3.48 2.1,-6.26 2.1,-7.66 0,-1.4 -0.7,-2.79 -2.1,-4.19 -1.38,-1.38 -3.48,-2.09 -6.26,-2.09zm-142.83 271.73c-1.4,0 -3.48,2.09 -6.28,5.57 -2.78,5.57 -3.48,10.45 -3.48,14.63 0,2.79 0,4.88 1.4,6.28 2.79,4.18 4.88,6.26 6.28,6.26 2.78,0 4.18,-6.26 4.18,-18.8 0,-5.58 0,-9.07 -0.69,-11.16 -0.7,-2.09 -1.4,-2.78 -1.4,-2.78zm-1196.28 34.13c-2.78,0 -4.87,4.88 -6.97,14.64 -2.09,9.75 -3.47,22.29 -4.87,39.01 -2.79,27.17 -4.19,48.77 -4.19,64.79 0,15.33 0.7,26.47 2.79,34.84 2.09,8.36 5.57,16.02 9.06,22.3 2.79,6.97 5.57,12.54 7.66,17.42 2.1,4.87 2.79,8.35 2.79,11.14 -1.4,4.18 -2.09,7.66 -2.09,10.45 0,4.18 1.4,6.28 4.18,6.28 1.4,0 3.48,-2.1 6.28,-6.28 1.4,-2.79 2.09,-6.28 2.78,-10.45 0.7,-3.48 1.4,-8.36 1.4,-13.93l0 -10.45c0,-5.57 -1.4,-12.54 -3.48,-21.59 -2.09,-8.36 -4.18,-16.03 -6.97,-22.99 -2.78,-8.36 -4.88,-18.12 -6.26,-29.97 -1.4,-11.14 -2.1,-22.29 -2.1,-33.44 0,-9.75 0.7,-17.42 2.1,-24.39l0 -45.29c0,-1.38 -0.7,-2.09 -2.1,-2.09zm1165.62 137.26c-1.38,0 -2.78,0.69 -4.87,2.09 -2.1,1.4 -3.48,3.48 -3.48,5.57 0,2.79 0,5.57 0,7.66 0,2.1 0.69,2.79 2.09,2.79 1.4,0 2.78,-0.69 4.18,-2.79 1.4,-2.09 2.79,-4.87 4.19,-7.66 1.38,-1.4 2.09,-2.79 2.09,-3.48 0,-2.78 -1.4,-4.18 -4.19,-4.18zm-1159.34 99.63c-1.4,0 -2.79,0 -4.18,0 -1.4,1.4 -2.79,2.09 -4.19,2.09 -7.66,1.4 -11.83,4.18 -11.83,8.36 0,1.38 2.09,4.87 6.26,10.45 2.79,3.48 4.88,9.06 6.97,16.02 2.09,6.97 3.48,13.93 4.88,20.2 0,5.58 0.69,10.45 2.09,15.33 1.4,4.88 3.48,8.36 6.28,9.06 1.38,1.4 2.78,3.48 4.18,6.28 1.4,2.79 2.09,6.97 2.09,12.54l0 6.28c0,11.83 3.48,18.8 9.76,20.2 4.18,0 7.66,-4.88 10.45,-14.63l0 -5.57c0,-2.79 -0.7,-6.28 -0.7,-9.76 -0.69,-2.78 -2.09,-6.26 -3.48,-9.06 -2.78,-6.97 -4.18,-10.45 -4.18,-11.85l0 -2.09c1.4,0 2.09,-0.69 2.09,-2.09 0,-2.79 -2.78,-9.06 -8.36,-18.81 -2.09,-6.28 -4.87,-13.24 -7.66,-20.21 -2.79,-6.97 -4.18,-12.54 -4.18,-18.11l0 -4.18c0,-4.19 -0.7,-6.97 -2.1,-8.36 -1.38,-1.4 -2.78,-2.09 -4.18,-2.09zm1153.08 24.39c0,0 0,0 -0.7,0 -0.69,0 -1.38,0.69 -1.38,1.38 0,0.7 -0.7,0.7 -1.4,0.7 -2.79,2.78 -5.57,9.75 -7.67,20.9 -2.09,10.45 -4.18,22.99 -6.97,36.23 -1.38,13.93 -2.09,24.39 -2.09,30.65 0,8.36 0.7,12.54 2.09,12.54 1.4,-2.78 2.79,-6.97 4.19,-12.54 1.4,-4.88 2.78,-11.14 4.18,-18.11 1.4,-8.36 2.79,-16.73 4.19,-26.47 1.38,-9.76 2.78,-18.12 5.57,-26.49 1.4,-6.97 2.09,-11.83 2.09,-14.63 0,-2.79 -0.69,-4.18 -2.09,-4.18zm-1124.52 116.35l-8.35 0c-4.88,0 -7.67,2.09 -7.67,6.28 0,2.78 2.79,6.26 7.67,10.45 2.78,1.4 4.18,3.48 4.18,6.26 0,2.79 -0.69,4.19 -2.09,5.58 -1.4,1.38 -2.09,3.48 -2.09,6.26 0,5.57 3.48,11.85 9.75,18.81 5.57,6.28 12.54,9.76 18.81,9.76 4.18,0 6.28,-0.7 6.28,-2.1 0,0 0,0 0,0 0,-1.38 -0.7,-2.78 -2.1,-4.18 -4.87,-4.88 -9.75,-11.85 -13.93,-18.81 -4.18,-7.66 -6.26,-13.93 -6.26,-19.51 0,-4.18 1.4,-6.97 4.18,-8.36 1.4,0 2.09,-0.69 2.09,-2.09 0,-2.79 -3.48,-5.57 -10.45,-8.36zm48.77 124.72c-1.38,0 -2.09,0.69 -3.48,2.09 -1.38,1.4 -2.09,3.48 -2.09,6.26 0,5.58 4.19,8.36 11.85,8.36 4.18,0 6.26,-1.4 6.26,-4.18l0 -4.19c-1.38,-2.78 -2.78,-4.87 -4.87,-6.26 -2.09,-1.4 -4.88,-2.09 -7.67,-2.09zm1047.18 28.56c-1.4,0 -2.1,1.4 -2.1,4.18l0 18.12c1.4,0 2.1,-0.7 2.1,-2.09 2.78,-1.4 4.18,-3.48 4.18,-7.67 0,-2.78 -0.69,-5.57 -2.09,-8.36 0,-1.38 0,-2.09 -0.7,-2.09 -0.69,0 -1.38,0 -1.38,0l0 -2.09zm-1045.08 50.86c-1.4,0 -2.1,0.69 -2.1,1.4 0,0.69 0,1.4 0,2.78 0,5.58 1.4,9.76 3.48,13.24 2.1,3.48 4.19,5.57 6.97,5.57 1.4,0 2.79,-0.69 4.19,-2.09l0 -2.09c0,-1.4 -0.7,-3.48 -1.4,-6.28 -0.7,-2.78 -2.09,-4.88 -4.88,-6.26 -1.4,-4.19 -3.48,-6.28 -6.26,-6.28zm1042.98 2.09c0,0 0,0.7 0,1.4 0,0.69 0,1.4 -0.69,2.09 -0.69,0.7 -1.4,2.09 -1.4,4.88 0,8.36 1.4,12.54 4.19,12.54 1.38,-2.78 2.09,-5.57 2.09,-8.36 0,-2.78 -0.7,-5.57 -2.09,-8.35l0 -4.19c0,0 -0.7,0 -2.1,0zm-995.61 51.56c-2.79,0 -4.19,1.4 -4.19,5.57 0,2.79 0.7,4.88 2.09,6.28 1.4,1.38 3.48,2.09 6.28,2.09 1.4,0 2.09,0 3.48,-0.7 1.4,-0.69 2.09,-2.09 2.09,-3.48 0,0 -0.69,-0.69 -2.09,-2.78 -1.4,-2.09 -2.09,-4.19 -3.48,-4.88 -1.4,-1.4 -2.79,-2.09 -4.18,-2.09zm1018.6 183.24l-6.26 0c-2.79,2.78 -4.88,5.57 -6.28,6.97 -1.38,2.09 -2.09,4.87 -2.09,7.66 0,1.4 0.7,2.09 1.4,2.79 0.69,0.69 1.4,1.38 2.78,1.38l4.19 0c2.78,-2.78 4.88,-5.57 6.26,-8.35 1.4,-2.79 2.1,-4.88 2.1,-6.28 0,-2.79 -0.7,-4.18 -2.1,-4.18z"/>
 </g>
</svg>
