<?xml version="1.0" encoding="UTF-8"?>
<!DOCTYPE svg PUBLIC "-//W3C//DTD SVG 1.1//EN" "http://www.w3.org/Graphics/SVG/1.1/DTD/svg11.dtd">
<!-- Creator: CorelDRAW 2021 (64-Bit) -->
<svg xmlns="http://www.w3.org/2000/svg" xml:space="preserve" width="73.9386mm" height="25.825mm" version="1.1" style="shape-rendering:geometricPrecision; text-rendering:geometricPrecision; image-rendering:optimizeQuality; fill-rule:evenodd; clip-rule:evenodd"
viewBox="0 0 5103.93 1782.68"
 xmlns:xlink="http://www.w3.org/1999/xlink"
 xmlns:xodm="http://www.corel.com/coreldraw/odm/2003">
 <defs>
  <style type="text/css">
   <![CDATA[
    .fil0 {fill:#990000;fill-rule:nonzero}
   ]]>
  </style>
 </defs>
 <g id="Capa_x0020_1">
  <metadata id="CorelCorpID_0Corel-Layer"/>
  <path class="fil0" d="M745.93 0l10.12 0c84.49,0 169.35,15.57 254.22,46.72 64.24,32.71 121.08,77.09 170.52,132.37 49.83,55.67 80.58,119.52 91.88,191.54 4.67,30.37 7.01,60.73 7.01,90.32 0,74.36 -12.85,144.83 -38.93,211.01 -25.69,66.19 -60.34,126.53 -103.56,181.42 -43.6,54.51 -92.26,102.39 -145.99,143.66 -53.34,39.32 -111.34,73.19 -173.64,100.83 -62.29,27.65 -128.48,41.66 -198.16,41.66 -28.42,0 -56.45,-2.73 -84.48,-8.17 -38.93,14.01 -63.85,40.49 -75.53,80.58 -11.29,40.1 -17.91,84.09 -20.25,132.76 -2.33,54.89 -11.29,103.17 -26.47,144.83 -12.85,32.7 -19.47,66.57 -19.47,101.61 0,33.48 6.23,65.79 18.3,96.54 12.46,30.76 29.98,57.62 53.73,80.21 -15.18,10.12 -31.93,14.79 -50.22,14.79 -5.84,0 -12.07,-1.17 -18.3,-3.51 -56.84,-6.62 -100.44,-29.2 -130.03,-66.96 -29.59,-38.16 -49.45,-82.92 -59.18,-134.7 -9.73,-51.78 -14.79,-100.06 -14.79,-144.83l0 -7.01c8.95,-69.69 21.41,-138.6 36.6,-206.34 12.85,-54.12 23.36,-108.23 31.92,-163.12 27.25,-116.4 64.24,-230.09 110.57,-341.04 21.41,-69.3 45.94,-136.65 73.96,-201.67 26.87,-60.35 49.83,-121.86 69.69,-184.92 0.77,-4.67 1.17,-8.95 1.17,-12.46 0,-12.46 -4.29,-18.3 -12.46,-18.3 0,0 -0.39,0 -1.17,0 -10.9,0 -25.31,6.23 -43.61,18.69 -17.91,12.46 -36.21,26.47 -54.51,41.66 -22.97,18.3 -40.49,30.37 -52.55,36.59 -48.67,35.04 -90.32,77.48 -125.36,126.92 -35.04,49.83 -54.11,107.84 -57.23,174.03 0.77,14.4 1.17,29.97 1.17,46.71 0,22.19 -1.17,44.77 -3.89,68.13 -2.73,22.97 -7.4,42.44 -14.41,58.01 -6.62,15.57 -17.13,23.36 -30.75,23.36 -17.52,0 -41.66,-19.08 -72.81,-56.85 -17.52,-28.42 -29.98,-56.45 -37.77,-85.26 -7.79,-28.42 -11.29,-56.84 -11.29,-84.87 0,-51 8.57,-100.44 26.08,-148.72 17.52,-48.28 37.38,-93.44 59.18,-135.09 38.15,-60.35 81.76,-114.85 131.2,-164.3 49.45,-49.44 107.45,-89.15 173.64,-118.74 106.28,-63.07 225.03,-95.77 355.84,-98.11zm3362.52 646.65l11.29 0c19.85,0 35.43,7.01 46.72,21.03 11.29,14.41 21.02,28.81 28.42,43.99 0.78,6.23 1.17,12.07 1.17,17.13 0,35.81 -7.4,70.47 -22.58,103.94 -51,118.74 -124.19,222.3 -219.19,311.45 -20.63,15.96 -42.05,23.75 -65.01,23.75 -8.95,0 -18.3,-1.95 -27.25,-5.45 -7.01,20.24 -10.51,41.65 -10.51,63.85 0,8.95 0.39,17.52 1.17,26.09l0 33.09c0,15.18 2.34,30.75 7.01,46.71 3.89,14.41 5.83,28.81 5.83,43.22 0,3.89 -0.39,8.17 -1.17,12.85 6.62,8.95 12.85,19.07 17.91,30.75 7.01,13.63 15.18,26.09 24.13,36.99 9.35,10.9 21.81,18.3 37.77,22.19l7.79 0c21.41,0 42.83,-3.51 63.85,-10.9 21.41,-7.01 41.27,-15.57 59.57,-25.7 28.81,-16.74 55.67,-36.21 80.98,-59.17 8.18,-7.01 16.74,-13.63 24.92,-20.63 3.89,-4.67 8.17,-8.95 12.46,-13.63 31.92,-35.04 61.9,-71.64 90.32,-109.4 5.84,-10.13 12.46,-20.25 19.47,-30.76 12.85,-19.85 24.91,-39.32 36.21,-58.4 3.11,-5.06 7.01,-12.85 11.68,-22.58 3.51,-10.9 8.17,-20.63 13.63,-29.59 5.06,-9.35 10.9,-14.01 17.13,-14.01 3.11,0 6.23,1.95 10.12,5.84 3.11,2.33 4.67,7.39 4.67,14.79 0,10.51 -2.34,24.53 -7.01,41.65 -4.67,17.13 -9.73,31.93 -15.96,44 -9.73,40.1 -24.14,79.8 -43.21,118.74 -3.89,8.18 -8.17,16.35 -12.46,24.92 -12.46,28.81 -28.81,55.28 -49.05,78.64 -21.41,38.15 -47.11,72.81 -77.87,103.95 -2.73,4.28 -6.23,8.56 -10.12,12.45 -29.59,32.71 -63.85,59.18 -102.78,79.81 -16.75,13.63 -35.43,22.97 -56.85,28.03 -21.41,4.67 -42.05,7.39 -62.68,7.39l-10.51 0 -6.61 -1.17c-19.08,0 -38.55,-3.11 -58.79,-9.73 -20.24,-6.62 -36.59,-15.96 -49.44,-29.2l-11.68 0c-19.85,0 -38.55,-1.95 -56.45,-6.23 -17.91,-4.28 -34.65,-12.46 -50.61,-24.53l-8.17 0c-11.29,0 -20.63,-3.11 -27.64,-8.95 -7.4,-6.23 -14.02,-13.24 -20.25,-21.81 -5.84,-8.17 -12.85,-15.57 -20.25,-21.8 -8.91,-15.69 -16.36,-31.54 -22.37,-47.58 -2.24,6.06 -5.52,13.21 -9.94,21.49 -17.51,27.25 -39.32,50.61 -66.18,69.69 -26.47,19.07 -55.67,28.42 -87.6,28.42 -23.75,0 -48.27,-7.4 -74.36,-21.81 -46.33,-3.5 -82.92,-22.97 -109.79,-57.62 -27.25,-34.65 -41.65,-73.58 -43.99,-116.79 -5.45,-31.15 -8.17,-61.91 -8.17,-92.27 0,-31.92 1.95,-63.85 5.84,-95.38 3.89,-31.54 8.17,-62.69 13.63,-94.22 3.11,-21.8 6.23,-43.99 9.34,-65.79 2.73,-22.97 9.35,-48.67 19.08,-76.7 12.46,-33.48 18.3,-61.12 18.3,-83.31 0,-8.17 -1.56,-15.57 -4.29,-21.41 -56.45,43.99 -105.11,100.06 -145.6,167.4 -40.49,67.75 -75.53,138.99 -104.34,213.35 -28.81,74.75 -54.11,144.44 -75.14,209.84 -20.63,63.07 -39.32,114.84 -56.06,155.34 -16.74,40.1 -33.48,60.35 -50.22,60.35 -27.25,0 -49.83,-9.73 -67.75,-29.59 -17.91,-19.85 -31.92,-43.6 -42.43,-71.25 -10.13,-28.03 -17.52,-55.28 -21.41,-82.14 -4.28,-27.25 -6.23,-47.49 -6.23,-61.12l0 -19.47c0,-127.7 12.85,-254.23 38.54,-379.59 13.63,-32.7 23.36,-66.57 28.42,-101.61 5.45,-42.43 18.69,-82.53 40.1,-119.91 31.93,-91.1 75.53,-175.19 131.2,-251.89 28.03,-26.86 53.73,-40.1 76.31,-40.1l3.5 0c25.7,0 47.11,9.35 63.85,28.03 16.74,18.69 24.91,33.87 24.91,45.16 0,2.34 0,4.29 -0.78,5.45 -14.01,63.46 -39.71,142.88 -77.86,238.65 -31.15,80.59 -56.07,154.17 -75.14,221.14l1.17 0c5.45,0 14.79,-11.68 28.42,-34.65 13.63,-23.36 29.2,-50.61 46.72,-81.76 19.07,-33.48 37.37,-64.63 54.89,-93.43 17.52,-28.81 31.53,-47.11 42.05,-54.89 4.67,-4.29 9.35,-9.35 14.01,-14.8 33.87,-37.76 72.03,-72.8 113.68,-104.72 42.05,-31.93 90.32,-49.45 144.82,-52.56 34.26,0 58.01,12.07 71.63,35.82 13.24,24.14 19.86,50.22 19.86,78.25 0,22.97 -3.51,44.39 -10.13,65.02 -4.67,22.19 -9.73,44.38 -15.18,67.35 -14.41,58.39 -25.69,117.96 -33.87,177.92 -10.12,38.54 -16.35,77.87 -19.47,117.57 -3.11,39.33 -4.67,79.43 -4.67,119.52 3.12,16.74 5.07,35.81 5.84,57.23 0.78,34.26 5.07,66.19 12.85,96.16 8.17,29.97 26.47,49.05 55.28,56.45 15.97,-2.73 35.43,-10.13 58.4,-21.41 12.07,-6.23 23.36,-11.29 34.26,-15.57 10.02,-4.09 18.63,-6.05 25.15,-6.22 -6.92,-25.31 -10.35,-51.1 -10.35,-77.49l0 -10.51c0.78,-10.51 1.55,-21.41 2.33,-33.09 0,-2.73 0,-5.84 0,-8.95 0,-30.37 7.01,-58.79 20.63,-85.65 3.12,-22.58 10.51,-43.99 22.58,-63.85 7.79,-13.63 14.02,-28.42 19.47,-44.38 9.35,-29.59 23.36,-57.62 42.05,-84.49 5.45,-8.17 10.91,-16.74 16.35,-24.91 8.95,-15.97 18.69,-30.76 29.59,-44.77 9.73,-12.85 19.08,-26.47 27.25,-40.88 5.45,-7.01 10.13,-13.63 14.8,-20.63 15.96,-21.81 33.87,-43.99 53.73,-66.19 8.95,-11.29 18.69,-22.19 28.42,-33.09l20.63 -22.58c9.73,-10.9 19.47,-21.8 28.42,-33.09 2.33,-3.11 5.06,-6.23 7.79,-9.35 8.57,-10.51 17.91,-20.63 28.03,-29.97 10.51,-9.73 21.8,-16.74 35.03,-21.03 12.85,-15.96 29.98,-27.64 51.01,-34.26 21.41,-7.01 42.43,-10.51 63.07,-10.51zm-29.97 122.25l-1.95 0c-3.12,0 -6.23,1.17 -8.57,3.5 -2.73,1.95 -5.45,4.29 -7.4,6.62 -3.11,3.11 -5.84,5.84 -8.17,8.17l-51.39 58.01c-28.81,38.93 -53.33,80.58 -72.8,125.36 -6.23,13.63 -12.07,28.03 -17.13,42.44 -2.33,5.84 -4.67,12.07 -7.01,18.29 -0.78,3.51 -2.73,7.4 -5.45,11.29 -3.11,3.89 -4.67,7.01 -4.67,10.12l0 1.17c3.11,-0.77 5.45,-1.95 7.79,-3.89 2.33,-1.95 4.28,-4.28 5.84,-7.39 0.77,-2.34 1.95,-3.89 3.5,-4.67 1.56,-0.78 3.51,-1.17 5.45,-1.17 2.33,-0.78 4.28,-1.56 5.84,-2.73 1.55,-1.17 2.33,-3.11 2.33,-6.23l0 -1.17c5.45,-7.79 10.9,-14.8 17.13,-21.81l13.63 -13.63c6.23,-7.01 11.68,-14.01 17.13,-21.8 0.78,-0.78 1.56,-1.56 2.34,-1.95 4.67,-9.35 10.51,-16.74 18.29,-22.97 3.51,-11.29 9.35,-21.8 17.13,-30.75 1.55,-2.33 2.73,-4.67 4.28,-7.01 3.11,-3.51 5.84,-8.18 8.18,-13.63 2.33,-6.23 5.84,-10.9 10.12,-14.79 4.67,-5.45 7.79,-11.29 9.34,-18.3 0.78,-5.45 2.34,-9.73 4.29,-13.63 2.33,-5.45 5.06,-10.9 8.17,-17.13 9.73,-19.07 17.91,-39.32 23.75,-60.34zm-233.6 183.36l-2.33 0c-0.78,0 -1.17,0.39 -1.17,0.78 0,0.39 0,0.78 0,1.56 0,0.78 0.39,1.95 1.17,3.11 0.78,1.17 1.56,1.56 2.33,1.56 1.56,0 2.73,0 3.51,-0.39 0.78,-0.39 1.17,-1.17 1.17,-1.95 0,-0.78 -0.39,-1.55 -1.17,-2.33 -0.78,-0.78 -1.95,-1.56 -3.51,-2.34zm533.76 153c-1.56,0 -2.33,0.78 -2.33,2.33 0,1.56 0.39,2.73 1.17,3.51 0.78,0.78 1.95,1.17 3.5,1.17 0.78,0 1.56,-0.39 2.34,-0.78 0.78,-0.39 1.17,-0.39 1.17,-0.39 0,-0.78 -0.39,-1.56 -1.17,-2.33 -0.78,-0.78 -1.56,-1.56 -2.34,-2.34 -0.77,-0.78 -1.55,-1.17 -2.33,-1.17zm-694.54 174.42c-1.56,0.77 -2.73,3.89 -3.11,8.56 -0.39,5.07 -0.39,10.91 -0.39,17.91 0,9.73 0.39,19.47 1.56,29.59 1.17,9.73 2.73,15.96 4.28,18.3 2.73,4.28 4.28,8.57 4.28,12.46l0 2.33c0,3.11 1.17,5.84 3.51,8.95 1.56,1.56 2.73,4.28 3.89,8.17 1.17,3.51 1.95,7.4 1.95,11.29 0.78,4.67 2.33,8.17 4.28,10.9 2.34,2.73 4.67,3.89 7.01,3.89 2.33,0 4.28,-1.55 5.84,-4.67 0.77,-1.55 1.17,-3.11 1.17,-5.45 0,-3.11 -0.78,-5.84 -2.34,-8.18 -1.55,-2.33 -3.11,-3.89 -3.89,-5.45 -1.17,-1.56 -2.72,-2.34 -4.28,-2.34 -0.78,0 -1.56,-1.17 -2.73,-3.5 -1.17,-2.34 -1.55,-5.06 -1.55,-8.17 0,-3.51 -0.39,-7.01 -1.17,-9.35 -0.77,-2.73 -1.95,-5.06 -3.5,-6.62 -1.56,-1.95 -2.73,-5.84 -3.89,-11.29 -1.17,-5.45 -2.34,-10.91 -3.11,-17.13 -1.56,-23.36 -3.12,-39.71 -4.29,-49.05 0,-0.78 0,-1.17 0,-1.17l-3.5 0zm47.89 143.66c-0.78,0 -1.56,0.78 -2.34,2.33 -0.77,1.56 -1.17,3.51 -1.17,5.84 0,3.89 0.78,6.62 2.34,8.95 1.55,2.34 3.5,3.51 5.45,3.51 2.34,0 4.29,-1.95 5.84,-5.84l0 -1.95c0,-3.11 -0.78,-5.84 -2.73,-8.57 -1.95,-2.73 -4.28,-4.28 -7.39,-4.28zm1.17 70.85l-10.51 0 10.51 8.18c3.11,1.95 6.23,4.28 9.73,6.23 3.11,1.95 5.84,2.73 7.39,2.73 3.51,0 5.45,-0.39 5.45,-1.17 0,-1.56 -1.95,-4.29 -5.45,-7.79 -1.55,-2.34 -4.28,-4.29 -7.39,-5.84 -3.51,-1.56 -6.62,-2.34 -9.73,-2.34zm1217.01 -848.71c13.63,0 27.25,0.39 41.27,1.17 5.06,0.78 11.29,1.56 17.91,2.34 19.86,1.55 38.93,5.06 57.62,10.9 18.69,5.84 30.76,16.35 36.21,32.31 0.78,1.56 0.78,3.51 0.78,5.84 0,9.35 -6.23,16.74 -18.69,22.19 -12.46,5.84 -26.87,10.9 -42.83,15.57 -18.69,4.67 -34.65,10.12 -46.72,17.13 -24.91,5.84 -49.05,14.79 -72.41,26.87 -22.97,11.68 -42.43,28.42 -57.62,50.61 -14.41,13.63 -21.41,29.19 -21.41,46.71 0,21.41 5.06,42.83 15.97,65.02 2.72,7.01 5.45,13.63 7.79,20.63 1.55,12.85 5.84,26.09 12.45,39.71 7.79,14.41 11.68,28.03 11.68,40.1l0 3.5c18.69,17.52 33.49,38.55 43.22,63.85 7.39,15.18 15.96,29.59 24.91,43.21 26.87,40.49 48.67,82.54 66.19,126.53 6.23,20.63 9.34,41.65 9.34,62.68 0,47.11 -12.85,91.88 -37.76,133.54 -25.7,48.66 -62.29,86.04 -109.4,112.51 -47.11,26.08 -97.72,41.27 -151.84,44.77 -4.67,0.77 -9.34,1.17 -14.79,1.17 -7.01,1.55 -13.63,2.33 -20.63,2.33 -3.51,0 -7.79,-0.39 -12.46,-1.17 -7.39,0.78 -14.79,1.17 -21.8,1.17 -26.47,0 -52.56,-4.28 -78.65,-12.85 -25.69,-8.95 -51,-18.3 -75.14,-28.03 -39.71,-19.07 -76.31,-30.37 -110.56,-34.26 -3.89,0.78 -7.39,1.17 -10.51,1.17 -21.8,0 -38.93,-9.34 -51,-28.03 -12.46,-18.69 -19.85,-38.15 -22.97,-58.79 -0.78,-5.07 -1.17,-10.91 -1.17,-17.13 0,-21.03 6.23,-41.27 18.3,-60.35 12.07,-19.07 26.09,-35.43 42.05,-49.05 34.26,-28.81 73.97,-50.61 118.74,-65.02 9.73,-6.23 18.3,-8.95 24.91,-8.95 12.46,0 21.03,7.4 25.7,22.19 5.06,14.79 7.39,28.81 7.39,42.83 0,5.06 -0.39,9.73 -0.78,13.63 24.92,52.17 66.19,82.53 124.2,89.93 25.69,11.29 52.55,17.13 79.8,17.13 28.81,0 55.67,-8.17 80.98,-24.91 10.51,-11.68 15.97,-24.14 15.97,-37.77 0,-12.07 -3.51,-24.91 -10.13,-38.15 -7.01,-13.23 -14.79,-26.47 -22.97,-39.32 -7.01,-10.12 -12.46,-19.47 -17.13,-28.81 -24.14,-38.54 -53.73,-73.58 -87.98,-104.72 -11.29,-15.18 -22.97,-29.59 -35.04,-43.21 -23.75,-25.31 -43.6,-52.56 -59.57,-82.14 -35.81,-45.55 -53.33,-94.99 -53.33,-148.33 0,-28.81 7.01,-56.84 21.41,-83.31 5.45,-19.86 14.41,-38.15 27.65,-54.9 12.85,-16.74 25.69,-31.92 38.54,-45.55 10.13,-12.07 21.41,-21.03 34.26,-26.09 12.85,-5.45 26.47,-9.73 41.27,-12.46 15.96,-3.89 31.14,-9.34 45.55,-15.96 56.84,-18.3 114.85,-28.42 173.25,-29.98zm15.96 82.14l-3.51 0c-3.89,2.34 -5.45,3.89 -5.45,4.67 0,0.78 1.17,1.17 3.11,1.17 2.33,0 4.67,-1.17 7.01,-3.5l0 -1.17c0,-0.78 -0.39,-1.17 -1.17,-1.17zm-294.32 130.03c0,0 0,0.39 -0.39,0.78 -0.39,0.39 -0.78,0.78 -1.17,1.56 -0.39,0.78 -1.17,1.55 -1.95,2.33 -0.78,0.78 -1.17,1.56 -1.17,2.34 0,1.55 0.78,2.33 2.33,2.33 1.56,0 2.73,-0.78 3.51,-1.95 0.78,-1.17 1.17,-1.95 1.17,-2.73 0,-1.55 0,-2.73 -0.39,-3.5 -0.39,-0.78 -1.17,-1.17 -1.95,-1.17zm1.17 24.14c-2.34,0 -3.51,2.73 -3.51,7.79 -0.78,3.11 -1.17,5.84 -1.17,8.18 0,2.33 0.78,3.89 1.95,4.67 1.17,0.39 3.11,0.78 6.23,0.78 1.56,0 2.73,-0.39 3.89,-1.95 1.17,-1.55 1.95,-3.11 1.95,-4.67 0,-2.33 -0.77,-4.67 -1.95,-7.01 -1.17,-2.33 -2.33,-3.89 -3.89,-5.45 -0.77,-0.78 -1.55,-1.56 -1.95,-1.95 -0.39,-0.39 -0.77,-0.39 -1.55,-0.39zm12.46 36.6l-2.34 0 0 1.17c0,1.17 0.78,3.11 2.34,5.45 1.55,2.34 3.5,3.51 5.84,3.51 1.55,0 2.33,-0.39 2.33,-1.17 0,-0.78 -0.78,-2.34 -2.33,-4.67 -3.12,-3.11 -5.07,-4.28 -5.84,-4.28zm4.67 22.58c-0.77,0 -1.17,0.39 -1.17,1.17 0,0.78 0.78,1.95 1.56,3.51 1.17,1.55 3.11,3.11 5.45,4.67 6.62,6.62 10.13,13.63 10.13,20.25 0,3.89 -1.56,7.4 -4.67,10.51 -1.56,1.55 -1.95,3.11 -1.95,4.28 0,4.67 6.62,7.79 20.25,9.35 2.33,0 3.5,-0.39 3.5,-1.17 0,-0.78 -1.17,-2.34 -3.5,-4.67 -1.56,-3.11 -2.34,-6.23 -2.34,-10.13l0 -4.67c0.78,-1.56 1.17,-3.12 1.17,-4.67 0,-4.28 -3.11,-9.73 -10.12,-15.96 -3.89,-3.51 -7.39,-6.62 -10.9,-8.96 -3.51,-2.33 -5.84,-3.5 -7.4,-3.5zm52.56 95.77c-1.55,0 -3.11,0.39 -4.67,1.17 -1.55,0.78 -2.72,1.95 -3.5,3.51l0 1.17c0,1.55 2.73,2.33 8.17,2.33 5.06,0 8.18,-0.78 8.95,-2.33l-1.17 -1.17c-0.78,-1.56 -1.95,-2.73 -3.11,-3.51 -1.56,-0.78 -3.11,-1.17 -4.67,-1.17zm167.41 269.41c-0.39,0 -1.17,0.39 -1.56,1.55 -0.39,1.17 -0.39,2.34 -0.39,3.89 0,1.56 0.39,3.51 1.17,5.84 1.17,3.11 2.33,4.67 3.11,4.67 0.78,0 1.17,-1.56 1.17,-4.67 0.78,-1.55 1.17,-3.5 1.17,-5.84 0,-1.55 -0.39,-3.11 -1.17,-4.28 -0.78,-0.78 -1.17,-1.17 -1.55,-1.17 -0.39,0 -1.17,0 -1.95,0zm3.5 21.41c-0.78,0 -3.11,1.17 -6.62,3.5 -1.55,1.56 -2.33,3.11 -2.33,4.67 0,2.33 0.39,4.67 1.17,6.62 1.56,2.33 2.73,5.06 3.89,8.17 1.17,3.11 1.95,5.45 2.73,7.01 1.56,4.29 2.73,6.62 3.51,6.62 1.55,0 2.33,-3.89 2.33,-11.29l0 -10.51c-0.78,-5.06 -1.17,-8.95 -1.56,-11.29 -0.39,-2.33 -1.55,-3.5 -3.11,-3.5zm-482.36 80.98c-0.78,0 -1.95,1.95 -3.5,5.84l0 2.33c0,2.33 0.77,3.89 1.95,5.06 1.17,1.17 2.33,1.56 3.89,1.56 2.33,0 4.28,-1.17 5.84,-3.11l0 -1.17c0,-1.55 -0.39,-3.11 -1.17,-4.28 -0.77,-0.78 -1.55,-1.95 -2.33,-2.73 -1.56,-1.55 -2.73,-2.33 -3.51,-2.33 0,0 -0.39,-0.39 -1.17,-1.17zm8.18 58.39c-2.34,0 -5.07,0.39 -8.18,1.17 -1.55,0.77 -3.11,1.17 -4.67,1.17l-14.79 4.28 17.13 7.01c5.45,2.34 10.12,4.29 13.63,6.23 3.89,1.95 6.23,3.5 7.01,5.06 1.56,2.33 3.89,4.28 6.62,5.84 3.11,1.55 5.84,2.33 8.17,2.33 1.56,0 2.73,-0.39 3.51,-1.17l0 -1.17c0,-1.56 -0.39,-3.11 -0.78,-5.06 -0.39,-1.95 -1.17,-3.89 -2.73,-5.45 -1.55,-2.73 -3.5,-5.45 -6.23,-7.39 -2.73,-1.56 -4.67,-2.73 -6.23,-2.73 -1.55,0 -3.11,-0.39 -4.67,-1.56 -1.56,-1.17 -2.73,-2.73 -3.51,-4.28l-4.28 -4.29zm-1885.85 -868.18c2.34,-0.77 5.07,-1.17 8.18,-1.17 2.33,0 4.67,0.39 6.61,1.17l3.51 0c3.11,0 6.62,-0.39 10.51,-1.17 3.5,-0.78 7.39,-1.17 11.29,-1.17 3.12,0 5.84,0.78 7.79,2.33 2.34,1.56 3.51,4.67 3.51,9.35l0 2.33c11.29,5.84 18.69,15.57 21.8,28.81 3.11,13.23 4.67,28.03 4.67,43.99l0 47.89c0.78,5.45 0.78,10.51 0.78,15.96 0,15.19 -1.56,29.59 -5.45,43.22 -2.33,13.23 -3.5,24.91 -3.5,35.43l0 8.17c0,17.52 -3.89,36.6 -11.29,56.84 -3.89,12.85 -6.62,24.14 -8.17,33.09 1.55,6.23 2.33,12.46 2.33,19.47 0,15.19 -3.5,30.37 -10.12,45.55 -6.23,14.41 -9.35,28.81 -9.35,43.21 0,5.45 0.78,10.9 2.34,16.35 -1.56,47.89 -10.51,92.26 -27.25,133.14 -3.89,12.46 -6.23,23.75 -7.01,34.26 -0.78,18.3 -6.62,38.15 -18.3,59.57 0,28.03 -3.89,56.07 -12.46,84.09 -4.67,19.08 -8.17,38.55 -11.29,58.4 -0.77,13.63 -1.17,27.25 -1.17,40.88 -0.78,26.09 -2.73,53.34 -5.84,82.14 -2.33,4.67 -3.11,9.73 -3.11,14.79 0,5.45 0.39,11.29 1.95,17.13 1.56,7.01 2.33,13.63 2.33,20.63 0,10.51 -3.89,21.8 -12.45,33.09l0 2.33c0,10.51 -4.67,21.03 -13.63,31.15 -9.35,10.51 -19.08,15.57 -29.59,15.57 -4.67,0 -8.95,-1.17 -12.85,-3.51 -4.28,-11.29 -11.68,-17.13 -21.41,-17.13 -8.56,0 -17.52,1.95 -27.64,5.84 -8.95,3.89 -17.52,5.84 -26.09,6.62 -4.67,-2.73 -10.51,-4.67 -18.29,-5.45 -6.62,-1.55 -12.85,-3.89 -18.69,-7.01 -5.84,-3.11 -9.35,-8.95 -10.91,-18.3 -13.63,-38.54 -24.53,-79.81 -33.09,-123.02 -2.33,-12.07 -3.5,-26.08 -3.5,-41.27 0,-4.28 0,-8.57 0,-12.46 -0.78,-12.85 -1.56,-24.53 -2.34,-35.43 -0.77,-10.51 -2.72,-18.69 -6.61,-23.75 -15.19,18.29 -29.2,36.98 -42.44,55.67 -21.02,31.92 -45.55,61.51 -72.8,87.98 -19.86,26.47 -45.17,47.11 -76.31,61.51 -10.91,6.23 -21.41,12.45 -31.93,19.47 -22.19,10.51 -44.39,15.96 -66.19,15.96 -26.09,0 -49.83,-5.84 -72.03,-17.13 -5.45,0 -10.12,0.39 -14.79,1.17 -8.95,0 -17.91,0 -26.09,0 -22.19,0 -44.38,-4.67 -66.18,-13.63 -2.34,-6.23 -6.23,-11.29 -11.68,-15.57 -5.06,-3.89 -11.29,-7.79 -17.91,-10.9 -9.34,-4.29 -17.13,-9.73 -24.13,-16.35 -7.01,-6.62 -10.51,-16.35 -11.29,-29.2 -12.85,-45.55 -19.47,-92.27 -19.47,-140.16 0,-22.19 0.78,-43.99 2.34,-66.18 1.55,-11.29 3.11,-23.36 4.67,-35.43 1.95,-37.37 11.68,-72.8 28.42,-107.06 4.67,-13.63 8.18,-28.42 11.29,-44.77 3.11,-31.93 14.41,-60.35 34.26,-85.26 17.52,-49.45 40.1,-96.55 68.52,-141.32 5.84,-9.35 11.68,-17.52 17.13,-25.31 7.39,-10.51 14.79,-21.03 21.41,-30.76 7.01,-9.73 14.01,-21.8 21.8,-35.43 17.52,-22.19 36.6,-42.83 57.23,-62.68 9.73,-9.73 19.47,-20.25 29.59,-30.75 15.19,-7.79 29.98,-15.97 44.38,-25.31 22.97,-13.63 47.11,-25.7 72.81,-36.21 10.9,-0.78 21.41,-2.34 31.93,-4.67 15.96,-3.11 31.53,-4.67 47.11,-4.67 17.91,0 34.26,4.67 49.05,13.63 31.15,23.75 50.61,52.95 59.18,87.98 6.23,26.47 8.95,54.11 8.95,82.14 0,20.63 -2.33,40.49 -6.62,60.35 -3.89,10.9 -7.79,21.8 -11.68,33.09 -8.95,35.04 -23.75,66.96 -44.38,95.77 -12.07,-1.56 -20.25,-8.17 -24.53,-19.85 -4.29,-11.68 -7.01,-25.7 -8.57,-41.66 -2.34,-19.85 -6.62,-36.21 -13.63,-49.05 -3.89,-13.63 -6.62,-28.42 -8.95,-44.39 -3.11,-16.74 -7.01,-33.09 -11.68,-48.67 -4.29,-15.57 -12.46,-28.42 -23.75,-39.32 -26.86,22.97 -49.05,49.45 -66.96,79.42 -17.52,29.98 -33.87,60.74 -48.28,91.88 0,0.77 -0.39,1.55 -1.17,2.33 -17.52,31.93 -31.15,64.24 -40.88,96.94 -4.67,12.07 -9.34,24.14 -14.01,36.21 -9.73,29.59 -17.52,59.18 -22.58,87.98 -3.11,16.74 -6.62,33.09 -10.51,49.06 -1.17,12.07 -2.73,23.36 -4.28,34.26 -3.89,24.13 -5.84,49.05 -5.84,73.96l0 15.97c0.78,17.52 2.73,35.43 5.84,52.95 3.11,17.91 7.79,33.48 14.79,46.33 3.89,16.75 10.12,25.31 19.47,25.31 8.95,0 18.69,-4.67 28.81,-13.23 10.51,-8.95 20.25,-18.3 29.2,-28.03 5.45,-4.67 9.73,-8.57 13.63,-12.46 7.79,-8.56 15.19,-16.74 22.97,-25.31 21.8,-21.02 38.93,-43.99 51.39,-68.13 32.71,-47.11 62.29,-95.77 88.76,-144.83 0.78,-1.55 1.56,-3.11 2.34,-4.67 10.51,-17.52 20.24,-35.43 28.42,-53.73 12.07,-24.14 26.08,-47.89 41.27,-70.47 15.19,-45.94 33.48,-90.32 54.51,-133.53 4.67,-27.65 13.23,-53.73 25.31,-78.65 8.17,-17.52 15.18,-35.43 20.24,-53.73 16.75,-21.41 29.2,-44.38 36.6,-69.69 8.57,-25.7 21.41,-48.67 38.93,-68.52 7.39,-13.63 17.91,-26.48 31.15,-39.33 13.63,-12.45 27.25,-20.24 41.65,-23.36zm-313.4 196.22c-1.55,0 -2.33,0.39 -2.33,1.17l1.17 1.17c0.78,1.55 1.56,2.33 2.73,2.72 1.17,0.39 2.33,0.78 3.89,0.78 0.78,0 1.56,-0.39 2.33,-0.78 0.78,-0.39 1.17,-0.77 1.17,-1.55 0,-0.78 -0.78,-1.17 -2.34,-1.56 -1.55,-0.39 -3.11,-1.17 -4.28,-1.95l-2.34 0zm4.29 10.51c-0.78,0 -1.56,0.39 -1.95,1.56 -0.78,1.17 -1.17,1.95 -1.17,2.72 0,1.56 0.39,2.73 1.17,3.12 0.39,0.39 1.17,0.39 1.95,0.39 1.55,0 2.73,-0.39 3.5,-1.56 0.78,-1.17 1.17,-2.33 1.17,-3.11 0,-1.55 -0.39,-2.33 -1.17,-2.73 -0.77,-0.39 -1.95,-0.39 -3.5,-0.39zm0 20.25c-1.17,0 -1.95,1.55 -1.95,4.67 0,2.33 0.39,4.67 0.78,7.01 3.11,11.29 5.45,16.74 7.01,16.74 0,0 0.39,-0.78 1.17,-3.11 0,-0.78 -0.39,-2.73 -1.17,-5.84 0,-3.89 -0.39,-7.4 -1.17,-10.13 0,-2.33 0,-3.89 0,-4.67 0,-1.56 -0.39,-2.73 -1.17,-3.51 -0.77,-0.78 -1.95,-1.17 -3.5,-1.17zm-291.99 117.57c-0.78,0 -1.56,0.78 -1.95,2.73 -0.78,1.95 -1.17,4.67 -1.17,7.4l0 4.67c0.77,6.23 1.55,9.35 1.95,9.35 0.77,0 1.95,-2.73 3.5,-8.17 1.56,-3.89 2.34,-7.01 2.34,-8.96 0,-2.33 -0.39,-3.89 -1.17,-4.67 -0.77,-0.78 -1.17,-1.56 -1.55,-1.95 -0.39,0 -1.17,-0.39 -1.95,-0.39zm310.29 42.05c0,0.78 0,1.56 0,2.34 0.77,0.77 1.17,1.55 1.17,2.33 1.55,3.11 2.73,4.67 3.5,4.67l1.17 0c0.77,0 1.17,-0.39 1.17,-1.17 0,-0.78 -0.39,-1.56 -1.17,-2.73 -0.78,-1.17 -1.56,-2.34 -2.34,-3.11 -0.78,-0.78 -1.17,-1.17 -1.55,-1.56 -0.39,-0.39 -1.17,-0.78 -1.95,-0.78zm-458.23 302.5c-0.78,0 -1.95,1.56 -3.5,4.28 -1.56,1.56 -2.73,3.89 -3.51,6.62 -0.78,2.34 -1.17,4.67 -1.17,6.23 0,3.11 0.39,4.28 1.17,4.28 0.78,0 1.95,-1.17 3.51,-4.28 1.55,-2.34 2.33,-5.07 2.72,-7.4 0.39,-2.73 0.78,-5.06 0.78,-6.23l0 -3.51zm432.14 20.63c-1.56,0.39 -2.34,1.56 -2.34,3.11l0 1.17c0.78,0.77 1.56,1.55 2.34,2.33 0.78,0.78 1.55,1.17 2.33,1.17 0.78,0 1.17,-0.39 1.56,-1.55 0.39,-1.17 0.78,-2.34 0.78,-3.12 0,-1.55 -0.39,-2.33 -1.17,-2.72 -0.77,-0.39 -1.95,-0.39 -3.5,-0.39zm-433.31 5.45c-1.55,0 -3.11,7.79 -4.67,22.97 -0.77,5.06 -1.17,8.95 -1.17,11.29 0,3.11 0.39,4.67 1.17,4.67 0.78,0 1.56,-0.78 2.34,-2.34 1.55,-2.33 2.33,-5.84 2.72,-10.12 0.39,-4.67 0.78,-8.95 0.78,-12.85 0,-8.95 -0.39,-13.63 -1.17,-13.63zm561.01 21.8c-0.78,0 -1.56,0.78 -2.34,2.73 -0.78,1.95 -1.17,3.89 -1.17,6.23 0,2.34 0.39,4.29 0.78,5.84 0.39,1.56 0.78,2.34 1.55,2.34 0,0 0.39,-0.39 0.78,-1.17 0,-0.77 0.39,-1.95 0.78,-3.5 0.39,-1.56 1.17,-3.11 1.95,-4.67l0 -3.11c0,-3.11 -0.78,-4.67 -2.33,-4.67zm-85.65 45.55c-0.78,0.77 -1.56,1.17 -2.34,1.17 -0.77,0.78 -1.55,1.95 -3.11,3.5l-2.33 3.51 0 0.78c0.78,0 2.33,-0.78 4.67,-1.95 2.72,-2.34 4.28,-3.89 4.28,-4.67l0 -2.33c0,0 -0.39,0 -1.17,0zm-475.36 2.33c-0.78,0 -1.95,0.78 -3.11,2.73 -1.17,1.95 -1.95,4.28 -2.73,7.39 -1.55,2.34 -2.33,4.67 -2.33,7.01 0,3.11 1.55,5.06 4.67,6.61 3.89,0.78 6.23,1.17 7.78,1.17l2.34 0c0.78,-0.78 1.17,-1.56 1.17,-2.34 0,-1.17 -1.17,-2.33 -3.51,-3.11 -3.11,-2.33 -4.28,-5.45 -4.28,-9.35l0 -2.33c0.78,-2.33 1.17,-3.89 1.17,-5.45 0,-1.55 -0.39,-2.33 -1.17,-2.33zm556.34 33.09c0,0 -0.39,0.39 -1.17,1.17 0,0.78 -0.39,1.56 -1.17,2.34l-4.28 4.28c0,0.78 -0.39,1.17 -1.17,1.17 -0.78,1.56 -1.17,3.11 -1.17,4.67 0,4.67 2.33,12.07 6.61,22.97 2.34,5.84 3.89,11.29 4.67,16.35 0.78,5.06 1.17,8.95 1.17,12.07l0 4.67c0,1.95 0.78,3.12 2.34,3.12 1.55,0 2.33,-1.95 2.73,-6.23 0.39,-4.28 0.77,-8.95 0.77,-14.01 0,-6.23 -0.39,-11.29 -0.77,-15.57 -0.39,-4.29 -0.78,-6.62 -1.56,-7.4 -0.78,-0.78 -1.56,-2.73 -2.33,-6.23 -0.78,-3.51 -1.17,-6.62 -1.17,-9.73 0,-1.56 0,-3.11 0,-4.67 -0.77,-5.84 -1.55,-8.95 -2.33,-8.95l-1.17 0zm-548.55 4.67c-0.78,0 -1.17,0 -1.56,0.39 -0.39,0.39 -1.17,0.78 -1.95,1.56 -1.55,1.55 -2.33,3.11 -2.33,4.67 0,2.33 0.78,4.28 2.33,5.84 1.56,1.55 3.51,2.33 5.84,2.33 0.78,-0.78 1.17,-2.73 1.17,-5.84l0 -3.51c-0.78,-1.55 -1.17,-2.72 -1.56,-3.5 -0.39,-0.78 -1.17,-1.17 -1.95,-1.95zm4.67 23.75c-1.56,0.78 -2.73,1.56 -3.51,2.33 -0.78,0.78 -1.55,1.95 -2.33,3.51 -0.78,2.33 -1.56,4.28 -2.73,6.62 -1.17,2.33 -1.95,3.89 -2.73,4.67l0 1.17c0,0.78 1.56,2.33 5.45,4.67 3.89,2.33 7.79,4.28 12.07,6.23 4.29,1.95 7.79,3.11 10.9,3.89 0,-1.56 -1.55,-4.28 -4.67,-8.17 -1.56,-1.95 -3.12,-4.67 -4.67,-7.79 -1.56,-3.12 -2.34,-5.84 -2.34,-7.79 0,-3.12 -0.39,-5.45 -1.55,-7.01 -1.17,-1.55 -2.34,-2.33 -3.89,-2.33zm27.25 46.72l-1.17 1.17c0,0.78 0.77,1.95 1.95,2.73 1.17,1.17 2.33,2.73 3.89,4.28 4.67,2.34 7.39,3.51 8.95,3.51l1.17 0c0,-1.56 -1.95,-3.89 -5.45,-7.01 -3.11,-3.11 -5.84,-4.67 -8.17,-4.67l-1.17 0zm520.12 10.51c-0.77,0 -1.17,0 -1.55,0.39 -0.39,0.39 -0.78,1.17 -0.78,2.73 0,0.78 0.78,2.33 2.33,4.28 1.56,1.95 3.12,3.51 4.67,5.06 1.56,1.56 3.11,2.34 4.67,2.34 0,0 0,-0.78 0,-2.34 0,-1.55 -0.39,-3.5 -1.17,-5.84 -3.11,-4.67 -5.84,-6.61 -8.18,-6.61zm-546.21 16.74c-1.56,0 -2.33,0.39 -2.33,1.17 0,0.78 0.39,1.95 1.17,3.51 0.78,1.55 2.33,2.72 4.67,3.5 1.95,0.78 4.67,1.17 7.79,1.17 2.33,0 4.67,-0.39 7.01,-1.17 1.95,-0.78 3.11,-1.95 3.11,-3.5 0,-0.78 -0.39,-1.56 -1.56,-2.34 -1.17,-0.78 -1.95,-1.17 -2.72,-1.17l-7.01 0c-3.11,0 -5.45,-0.39 -7.79,-1.17l-2.33 0zm548.55 7.01c-1.56,0.78 -2.73,1.56 -3.51,2.33 -0.78,0.78 -1.55,1.95 -2.33,3.51l0 1.17c0,0.78 1.17,1.95 3.11,4.29 1.95,2.33 3.89,4.28 6.23,5.84 2.34,1.55 3.89,2.33 5.45,2.33l1.17 0 0 -1.17c0,-1.56 -0.39,-3.89 -1.17,-7.01 0,-0.78 0,-1.56 0,-1.95 -1.56,-6.23 -4.28,-9.35 -8.95,-9.35zm14.79 25.31c-0.78,0 -1.17,0 -1.56,0.39 -0.39,0.39 -1.17,0.78 -1.95,1.56 -1.55,1.55 -2.33,3.5 -2.33,5.84 0,1.55 0.39,2.73 1.17,3.5 1.56,1.56 2.73,2.34 3.51,2.34 1.55,0 2.73,-0.78 3.5,-2.34 1.56,-2.33 2.34,-4.28 2.34,-5.84 0,-1.55 -0.39,-2.72 -1.17,-3.5 -0.78,-0.78 -1.56,-1.17 -1.95,-1.56 -0.39,-0.39 -0.78,-0.39 -1.56,-0.39zm-521.3 6.62c-3.11,0.77 -4.67,1.17 -4.67,1.17l4.67 2.33c3.11,1.56 6.23,2.34 9.35,2.34l3.11 0c3.11,0 4.67,-0.39 4.67,-1.17 0,-0.77 -1.56,-1.55 -4.67,-2.33 -2.73,-1.56 -5.84,-2.33 -8.95,-2.33l-3.51 0zm529.47 17.13c-0.78,0 -1.55,0 -1.95,0 -0.39,0 -0.77,0.39 -1.55,1.17 -4.67,1.56 -7.01,3.51 -7.01,5.84 0,2.73 3.11,6.62 9.34,11.29 4.28,3.89 7.79,5.84 10.12,5.84 0.78,0 1.17,-0.39 1.17,-1.17 0,-1.56 -1.56,-4.29 -4.67,-8.18 -1.56,-1.55 -2.73,-3.11 -3.51,-4.67 -0.78,-1.17 -1.17,-2.73 -1.17,-4.29l0 -5.84c0,0 0,0 -0.78,0zm0 45.55l-1.17 0c0,0 0,0.39 0,1.17 -0.78,0 -1.17,0.39 -1.17,1.17 0,0.78 0.39,1.56 1.17,2.34 0.78,0.77 1.95,1.55 3.11,2.33 3.11,1.56 5.45,2.33 7.01,2.33 0,-0.77 -1.17,-2.72 -3.5,-5.84 -2.34,-2.33 -4.29,-3.5 -5.45,-3.5zm23.75 9.34c-0.78,0 -1.17,0.39 -1.17,1.17 -0.77,0 -1.17,0 -1.55,0 -0.39,0 -0.78,0.39 -0.78,1.17l0 0.78c0.78,0.77 1.95,1.55 3.51,1.95 1.55,0.39 3.11,0.39 4.67,0.39 2.34,0 3.89,0 5.07,-0.39 1.17,-0.39 1.55,-1.17 1.55,-1.95 0,-1.17 -2.73,-1.95 -8.95,-1.95 0,0 0,-0.39 0,-1.17 -0.78,0 -1.17,0 -1.17,0 0,0 0,0 0,0 0,0 0,0 0,0 0,0 0,0 0,0 0,0 0,0 0,0 0,0 -0.39,0 -1.17,0zm588.65 -956.93c-0.78,0 -1.56,0 -1.95,0.39 -0.39,0.39 -1.17,1.17 -2.73,1.95 -0.78,0.39 -1.56,1.17 -2.34,1.95 -2.33,1.55 -4.28,3.5 -5.84,5.45 -1.55,1.56 -1.95,3.12 -1.95,3.89 0,0.78 0.39,1.17 0.78,1.17 2.34,0 5.45,-2.73 9.35,-8.18 0.78,-0.78 1.55,-1.55 2.33,-2.33 0.78,-1.56 1.17,-2.33 1.56,-2.73 0.39,-0.39 0.78,-0.78 0.78,-1.55zm-38.93 72.8l-3.51 0c-1.56,1.56 -3.11,3.11 -4.67,5.06 -1.17,1.95 -1.95,3.89 -1.95,5.45 0.78,2.73 2.34,4.28 4.29,4.28 0.77,0 1.95,-0.39 3.5,-1.17 2.34,-0.78 3.89,-1.95 5.06,-3.89 1.17,-1.95 1.95,-3.51 1.95,-5.06 0,-1.56 -0.39,-2.73 -1.17,-3.51 -0.78,-0.78 -1.95,-1.17 -3.5,-1.17zm-49.06 153c-0.77,0 -1.95,0.78 -3.5,2.33 -0.78,0.78 -1.95,1.56 -3.51,1.95 -1.17,1.56 -2.73,3.89 -3.89,7.01 -1.17,3.11 -1.55,6.23 -1.55,9.35l0 3.11c0,6.23 0.39,9.35 1.17,9.35 0.78,0 2.73,-4.67 5.45,-13.63 1.56,-4.67 3.12,-8.57 4.29,-12.07 1.17,-3.5 1.55,-5.45 1.55,-6.23l0 -1.17zm368.3 393.21l0 8.18c0,6.23 0.39,9.34 1.17,10.12 0.78,0 1.17,-0.39 1.17,-1.17 0.78,-1.95 1.17,-4.28 1.17,-6.62 0,-3.11 -0.39,-5.84 -1.17,-8.17l-1.17 -2.34 -1.17 0zm3.5 36.6c-0.78,0 -1.17,0.39 -1.55,1.17 -0.39,0.78 -0.78,1.95 -0.78,3.51 0.78,3.89 1.95,7.01 3.11,8.95 1.17,2.33 2.33,3.5 3.89,3.5 1.56,0 2.73,-1.17 3.51,-3.5l0 -1.95c0,-3.11 -1.56,-6.23 -4.67,-9.35 -0.78,-0.78 -1.56,-1.17 -1.56,-1.17 -0.39,0 -0.78,-0.39 -0.78,-1.17 -0.77,0 -1.17,0 -1.17,0 0,0 0,0 0,0 0,0 0,0 0,0 0,0 0,0 0,0 0,0 0,0 0,0zm7.01 30.75c-0.77,0 -1.17,0.39 -1.17,1.17 0,0.77 0,2.33 0,4.67 0,1.56 0,3.12 0.39,4.67 0.39,1.56 1.17,2.34 1.95,2.34 0.77,0 1.17,-0.39 1.17,-1.17 0.78,-0.77 1.17,-1.95 1.17,-3.5 0,-2.34 -0.39,-4.29 -1.17,-5.84l-2.34 -2.34zm2.34 25.31l-2.34 0c-1.55,1.56 -2.33,3.11 -2.33,4.67 0,1.17 0.39,2.33 1.17,3.11 2.34,3.11 3.89,4.67 4.67,4.67 1.17,0 1.95,-2.33 1.95,-7.01 0,-1.17 -0.39,-2.73 -1.17,-3.89 -0.78,-1.17 -1.17,-1.56 -1.95,-1.56zm17.91 33.09c-0.78,0 -1.17,0.39 -1.95,1.17 -0.78,0.78 -1.56,1.95 -2.33,3.12 -0.78,1.55 -1.17,2.72 -1.17,3.5 0,1.56 1.17,2.34 3.51,2.34 2.73,0 4.28,-1.56 4.28,-4.67l0 -1.17c0,-1.17 0,-2.34 -0.39,-3.12 -0.39,-0.77 -1.17,-1.17 -1.95,-1.17zm21.8 36.6c0,0 0,0.39 -0.39,1.55 -0.39,1.17 -0.78,2.34 -0.78,3.89 0.78,2.34 1.56,3.89 1.95,5.06 0,1.17 0.78,1.95 1.56,1.95 0.78,-1.55 1.17,-3.11 1.17,-4.67 0,-2.34 -0.39,-4.29 -1.17,-5.84l-1.17 -1.95c-0.78,0 -1.17,0 -1.17,0 0,0 0,0 0,0 0,0 0,0 0,0 0,0 0,0 0,0 0,0 0,0 0,0zm8.18 45.55c-0.78,0 -1.56,0 -1.95,0 -0.39,0 -0.78,0.39 -1.56,1.17 -4.67,1.56 -7.01,2.73 -7.01,4.29 0,1.55 3.51,2.33 10.51,2.33 1.95,0 3.89,-0.39 5.45,-1.17 1.56,-0.78 2.34,-1.56 2.34,-2.33l-1.17 -0.78c-0.78,-1.56 -1.56,-2.73 -2.73,-3.11 -1.17,-0.39 -2.73,-0.39 -3.89,-0.39zm-2500.19 -1345.87l-12.46 0c-26.87,0 -54.89,1.17 -84.09,3.89 -29.2,2.73 -49.83,5.84 -61.91,9.73 -3.11,1.56 -4.67,2.73 -4.67,3.51l2.33 0c3.11,0 8.57,-0.39 17.13,-1.17 8.17,-1.55 22.19,-2.72 41.65,-3.11 19.08,-0.39 39.33,-0.39 59.57,-0.39 22.19,0 39.33,0 51,0.39 11.68,0.39 21.41,1.56 29.59,3.11 8.17,1.56 16.35,3.51 24.53,6.62 8.17,2.34 16.35,5.06 24.53,8.57 7.79,3.51 13.63,5.84 16.35,7.4 3.89,1.55 7.01,3.11 8.57,4.28 1.95,0.78 3.11,1.56 3.11,1.56l0 -7.01c0,-1.55 -1.17,-2.72 -3.11,-3.89 -1.56,-1.17 -3.51,-1.55 -5.07,-1.55 -2.33,0 -4.28,-0.39 -5.45,-1.17 -1.56,-0.78 -2.73,-1.95 -3.51,-3.51 0,-0.78 -1.55,-1.56 -3.89,-2.73 -2.73,-1.17 -6.23,-2.33 -9.73,-3.11 -7.01,-2.33 -10.51,-3.89 -10.51,-5.45l0 -2.33c0,-2.33 -3.11,-3.51 -10.12,-3.51 -3.11,0 -6.62,-0.39 -10.12,-1.55 -3.89,-1.17 -6.62,-2.73 -8.18,-4.29 -6.23,-2.72 -21.41,-4.28 -45.55,-4.28zm-9.35 62.68c-5.84,0 -11.68,0.39 -17.13,1.17 -4.29,0 -9.35,0 -14.8,0 -6.61,1.56 -14.79,2.34 -23.75,2.34 -12.07,0 -22.97,0.78 -32.7,2.73 -9.35,1.95 -14.02,7.79 -14.02,17.52 0,2.33 0.39,4.67 1.17,7.01 -5.45,14.41 -8.56,29.2 -9.34,44.38 -0.78,15.97 -4.28,31.54 -10.12,46.72 -6.23,36.6 -14.8,72.41 -26.48,107.45 -5.84,23.36 -12.07,46.33 -17.91,68.13 -3.11,11.68 -6.23,22.97 -9.34,34.26 -5.84,21.41 -13.24,42.05 -21.41,61.9 -9.35,21.81 -17.13,44.77 -24.14,68.13 -11.29,22.97 -20.63,46.33 -27.25,70.86 -3.11,9.73 -6.23,19.47 -9.35,28.42 -2.33,15.18 -6.23,29.59 -12.45,43.6 -8.18,15.97 -12.46,32.71 -12.46,51.01l0 2.33c-3.11,3.11 -4.67,5.45 -4.67,7.01 0,2.34 2.34,3.51 7.01,3.51 5.84,0 13.63,-1.17 22.58,-3.51 7.79,-1.55 13.24,-2.33 17.13,-2.33l2.33 0c72.41,-9.73 140.94,-28.42 206.34,-56.07 3.11,-1.55 6.23,-2.72 9.34,-4.28 31.15,-13.63 60.35,-30.75 87.6,-51.39 3.89,-2.33 7.39,-4.67 10.51,-7.01 18.29,-10.51 34.26,-22.97 47.89,-37.37 16.74,-12.46 31.15,-26.87 43.21,-43.61 7.79,-9.73 15.57,-19.07 24.14,-27.25 28.03,-31.92 48.67,-68.13 61.51,-108.22 9.73,-24.53 14.79,-49.83 14.79,-76.7 0,-3.51 0,-7.4 0,-11.29 0,-8.95 0.39,-18.29 1.17,-27.25 0.78,-3.12 1.17,-5.84 1.17,-8.18 0,-7.39 -2.33,-14.01 -6.23,-19.47 -4.29,-5.06 -10.51,-8.17 -19.08,-8.95 -23.36,-21.41 -42.43,-45.94 -56.84,-73.97 -22.97,-35.04 -54.11,-61.9 -93.44,-80.2 -14.79,-8.95 -29.97,-14.79 -46.33,-17.52 -16.35,-2.73 -32.71,-3.89 -48.67,-3.89zm290.04 44.39l-2.33 0c-1.56,0.78 -2.73,1.55 -3.11,2.33 -0.39,0.78 -0.39,1.56 -0.39,2.34l0 2.33c2.34,2.33 4.29,3.11 5.84,3.11 1.95,0 3.51,-1.55 4.29,-5.45 -0.78,-1.56 -1.17,-2.73 -1.56,-3.51 -0.39,-0.78 -1.56,-1.17 -2.73,-1.17zm6.62 31.92c-4.67,0 -6.62,0.39 -6.62,1.17 0,0.77 2.73,2.72 8.95,5.84 5.45,2.72 8.95,4.28 11.29,4.28 0.78,0 1.17,-0.78 1.17,-2.33 0,-0.39 -0.78,-1.95 -2.33,-4.29 -1.56,-1.55 -3.12,-2.73 -5.45,-3.5 -2.33,-0.78 -4.67,-1.17 -7.01,-1.17zm-529.08 34.27c-1.55,0 -2.33,0.77 -2.33,2.33 0,1.55 0.39,3.11 1.17,4.67 1.56,1.17 2.73,2.72 3.51,4.28 0.77,1.56 1.55,2.33 2.33,2.33l0 -6.61c0,-1.56 -0.39,-3.12 -1.17,-4.67 -0.78,-1.56 -1.95,-2.33 -3.51,-2.33zm-411.9 52.55c-0.77,0 -1.55,0 -2.72,0.39 -1.17,0.39 -1.95,1.55 -1.95,3.11 0.77,1.17 1.55,2.33 1.95,3.11 0.39,0.78 0.77,1.17 1.55,1.17 0,0 0.39,0 0.78,-0.39 0.39,-0.39 0.78,-1.17 1.17,-1.95 0.39,-0.78 0.78,-1.56 1.56,-1.95l0 -1.17c0,-1.56 -0.78,-2.34 -2.34,-2.34zm399.44 1.17l-1.17 1.17c-1.55,0.78 -2.33,1.55 -2.33,3.11l1.17 2.33c2.33,3.11 3.51,4.67 4.28,4.67 0.78,0 1.17,-1.17 1.17,-3.51l0 -3.5c0,-1.56 0,-2.33 -0.39,-3.11 -0.39,-0.78 -1.55,-1.17 -2.73,-1.17zm-413.06 19.07c-0.77,0 -1.55,0.39 -2.72,1.17 -1.17,0.78 -1.95,1.95 -1.95,3.51 0.77,1.55 1.55,2.73 1.95,3.5 0.39,0.78 0.77,1.17 1.55,1.17 0,0 0.39,-0.39 0.39,-0.78 0.39,0 0.77,-0.78 1.17,-1.56 0.39,-0.78 1.17,-1.55 1.95,-2.33l0 -2.34c0,-0.77 -0.39,-1.17 -0.78,-1.55 -0.39,-0.39 -0.78,-0.78 -1.56,-0.78zm987.7 10.51c-1.56,0.78 -2.34,2.33 -2.34,4.67 0,1.95 0.78,3.89 1.95,5.06 1.17,1.17 1.95,1.55 2.73,1.55 1.56,0 2.73,-0.39 3.51,-1.17 0.78,-0.78 1.17,-1.55 1.17,-2.33 -0.78,-1.56 -1.56,-2.73 -2.33,-3.89 -0.78,-1.17 -1.95,-1.95 -3.51,-2.73l-1.17 -1.17zm-586.31 15.96c-0.77,0 -1.55,0.39 -2.33,1.17 -0.78,0.78 -1.17,1.95 -1.17,3.51 0,0.78 0.78,1.56 1.95,2.73 1.17,1.17 1.95,1.55 2.73,1.55 0.77,0 1.55,-0.39 2.33,-1.17 0.78,-0.78 1.17,-1.55 1.17,-1.95l0 -1.17c0,-1.56 -0.39,-2.73 -1.17,-3.51 -0.78,-0.77 -1.95,-1.17 -3.51,-1.17zm-14.79 43.21c-1.55,0 -2.33,0.78 -2.33,2.34 0,0.78 0.39,1.55 1.17,2.33 0.78,0.78 1.56,1.56 2.33,2.34 0.78,0.77 1.56,1.17 2.34,1.17 0.78,0 1.17,-0.39 1.17,-1.17l0 -2.34c0,-1.55 -0.39,-2.73 -1.17,-3.5 -0.78,-0.78 -1.95,-1.17 -3.51,-1.17zm-419.68 10.51l0 -4.67c-0.77,0 -2.33,0.78 -4.67,2.34 -3.11,3.5 -4.29,6.23 -4.29,7.79 0,0.78 1.17,1.17 3.12,1.17 1.55,0 2.72,-0.78 3.5,-2.33 0.78,-1.56 1.56,-3.12 2.33,-4.29zm1056.22 54.51c-2.33,0 -3.51,0.39 -3.51,1.17 0,0.78 0.39,1.56 1.17,2.34 1.55,1.55 2.72,2.72 3.5,3.5 0.78,0.78 1.56,1.17 2.34,1.17 0.77,0 1.17,-0.77 1.17,-1.95 0,-1.17 0,-1.95 0,-2.72 0,-1.56 -0.39,-2.34 -1.17,-2.73 -0.78,-0.39 -1.95,-0.78 -3.51,-0.78zm-1.17 13.63l-1.17 0 0 1.17c-0.78,0.78 -1.56,2.34 -2.34,4.29 -0.78,1.55 -1.17,3.89 -1.17,6.23l0 3.11c0,2.33 0.39,3.51 1.17,3.51 2.34,-1.56 3.89,-5.07 4.67,-11.29 0,-1.55 0,-3.11 0,-4.67 0,-1.55 -0.39,-2.33 -1.17,-2.33zm-700.38 123.41c-0.78,0 -1.56,0.39 -2.73,1.17 -1.17,0.77 -1.95,1.95 -1.95,3.11 0,0.78 0.78,1.95 1.95,3.11 1.17,1.17 2.33,1.55 3.89,1.55 3.89,0 5.84,-1.17 5.84,-3.5l0 -1.17c-0.78,-1.17 -1.95,-2.34 -3.11,-3.11 -1.17,-0.78 -2.34,-1.17 -3.89,-1.17zm-439.15 1.17c-0.78,0.77 -1.56,2.33 -2.33,5.06 -0.78,2.72 -1.17,5.84 -1.17,9.73 0,3.11 0.39,6.23 1.17,10.12 0.77,7.01 1.55,10.12 2.33,10.12 0.78,0 1.17,-0.39 1.17,-0.77 0,-0.78 0.39,-1.56 0.78,-1.95 0.39,-0.39 0.78,-0.39 1.56,-0.39l3.5 0c0.78,0 1.17,-0.39 1.17,-1.17 0,-1.56 -0.39,-3.11 -1.17,-4.67 0,-0.78 0,-1.55 0,-2.33 -0.78,-2.34 -1.55,-5.06 -2.33,-7.79 -0.78,-3.11 -1.17,-5.84 -1.17,-8.18 -0.78,-5.06 -1.95,-7.78 -3.51,-7.78zm425.52 31.92c-0.78,0 -1.17,0 -1.56,0 -0.39,0 -1.17,0.39 -1.95,1.17 -1.55,1.56 -2.33,3.51 -2.33,6.62 0,1.56 0.39,3.11 1.17,4.67 1.56,3.11 3.11,4.67 4.67,4.67 1.55,0 2.73,-0.78 3.89,-2.34 1.17,-1.55 1.95,-3.5 1.95,-5.84 0,-1.55 -0.39,-3.11 -1.17,-4.67 -0.78,-1.17 -1.56,-2.34 -2.34,-3.12 -0.78,-0.77 -1.55,-1.17 -2.33,-1.17zm-422.02 23.75c-0.78,0 -1.17,0.39 -1.17,1.17l1.17 3.5c0.77,2.34 1.55,4.29 2.33,6.23 0.78,1.95 1.95,3.11 3.51,3.89 0.77,0.77 1.17,1.95 1.17,3.5 0,1.56 -0.78,3.51 -2.34,5.84 -1.55,1.56 -2.33,2.73 -2.33,3.51 0,1.17 1.95,1.95 5.84,1.95 2.73,0 4.28,-1.17 4.28,-3.11 0,-2.34 -0.77,-5.45 -2.33,-9.35 -1.56,-3.89 -3.11,-7.4 -5.06,-10.9 -1.95,-3.11 -3.51,-5.45 -5.06,-6.23zm419.68 9.34c-1.55,0 -3.89,1.95 -7.39,5.45 -3.51,3.89 -6.23,7.79 -8.57,12.07 -2.33,4.28 -3.51,7.79 -3.51,10.9l0 1.17c1.56,2.34 3.12,3.51 4.67,3.51 1.56,0 3.11,-1.17 4.67,-3.51 1.56,-2.33 2.73,-5.06 3.51,-8.17 0,-2.33 0.39,-4.67 1.55,-7.4 1.17,-2.72 2.34,-4.67 3.89,-6.23 2.34,-1.56 3.51,-3.51 3.51,-5.84 0,-0.39 -0.39,-1.17 -1.17,-1.95l-1.17 0zm-36.59 93.44c-3.51,0 -5.45,0.78 -5.45,2.33 0,3.11 3.89,6.23 12.46,10.13 0.78,0 1.17,-0.39 1.17,-1.56 0,-1.17 0,-2.73 0,-4.28 -0.78,-1.17 -1.95,-2.73 -3.5,-4.29 -1.56,-1.55 -3.12,-2.33 -4.67,-2.33zm-336.37 12.46c-0.77,0 -1.55,0.77 -2.33,1.95 -0.78,0.77 -1.17,1.95 -1.17,2.72 0,1.56 0.78,2.73 1.95,3.51 1.17,0.78 1.95,1.17 2.73,1.17 1.55,0 2.72,-0.39 3.5,-1.17 0.78,-0.78 1.17,-1.95 1.17,-3.51 -0.77,-0.77 -1.55,-1.95 -2.33,-2.72 -0.78,-1.17 -1.95,-1.95 -3.51,-1.95zm319.24 69.69c-1.17,0 -2.72,0 -3.89,0 -1.17,0 -1.55,0.39 -1.55,1.17 0,0.78 0,1.56 0,2.33 -0.78,1.95 -1.17,4.29 -1.17,6.62l0 3.51c0,1.55 0.39,2.33 1.17,2.33 2.33,0 4.67,-2.73 7.79,-8.17 1.55,-2.73 2.33,-4.67 2.33,-5.45 0,-1.55 -1.55,-2.33 -4.67,-2.33zm-24.91 94.6c0,0 -0.39,0.78 -1.17,2.33 -0.78,1.56 -1.95,3.51 -3.51,5.84 -0.78,1.95 -1.17,3.89 -1.17,5.45 0,2.33 1.17,3.5 3.5,3.5 3.12,0 4.67,-2.33 4.67,-7.01l0 -1.95c0,-2.33 -0.39,-4.28 -0.78,-5.84 -0.39,-1.55 -0.77,-2.33 -1.55,-2.33zm298.99 87.98c-0.78,0 -3.89,0.39 -9.35,1.17 -9.73,1.95 -14.79,3.51 -14.79,4.28 0,0.78 2.73,1.17 8.18,1.17 1.95,0 4.67,-0.39 7.79,-1.17 3.11,-0.77 5.45,-1.95 7.01,-3.5 1.55,-0.39 2.33,-1.17 2.33,-1.95l-1.17 0zm-328.58 30.75c0,0 -0.39,0 -0.78,0 -0.39,0 -0.39,0.39 -0.39,1.17 -0.77,0 -1.55,0.39 -2.33,1.17 -2.33,2.73 -3.51,5.45 -3.51,7.79 0,3.11 1.95,4.67 5.84,4.67 3.12,0 4.67,-1.95 4.67,-5.84l0 -2.34c-0.78,-4.28 -1.95,-6.62 -3.5,-6.62zm-17.13 61.51c0,0 -0.39,0.39 -1.17,1.17l-3.51 2.33c0,0 -0.39,0.39 -1.17,1.17l0 1.95c0,3.11 1.17,5.84 3.11,7.4 1.56,1.95 3.89,3.11 6.23,3.11 1.55,0 2.33,-1.56 2.33,-4.67l0 -3.5c-1.56,-5.84 -3.51,-8.96 -5.84,-8.96zm-85.65 345.71c-0.78,0 -1.55,5.07 -2.33,15.97 0,7.39 0.78,11.68 2.33,12.45l1.17 -1.17c0.78,-0.78 1.56,-1.95 1.56,-3.89 0.39,-1.95 0.78,-4.28 0.78,-6.23l0 -5.84c-0.78,-7.79 -1.95,-11.29 -3.51,-11.29zm2.34 36.21c-2.34,0 -3.51,1.95 -3.51,5.84 0,3.12 0.78,6.62 2.33,10.91 1.56,4.28 3.51,7.39 5.84,9.73 2.34,3.11 3.12,4.67 3.12,5.45l0 1.17c0,1.56 1.95,7.79 5.84,18.3 3.89,8.57 5.84,14.01 5.84,17.13 0,0.77 -0.39,1.55 -1.17,1.95 -0.77,0.39 -1.55,0.39 -2.33,0.39 -1.56,0 -2.33,0.39 -2.33,1.17 0,1.56 3.11,4.67 9.34,8.95 8.18,7.79 13.24,11.68 14.79,11.68l0 -1.17c0,0 -1.17,-1.55 -3.5,-4.67 -1.56,-1.55 -3.11,-4.28 -4.67,-8.56 -1.56,-4.29 -2.73,-8.18 -3.51,-12.07 -1.55,-3.5 -2.72,-7.39 -3.89,-11.29 -1.17,-3.89 -1.95,-6.62 -2.72,-8.18 -3.12,-3.5 -6.62,-16.35 -10.51,-37.37 -0.78,-1.56 -1.56,-3.51 -3.11,-5.06 -1.56,-1.95 -3.12,-3.51 -4.67,-4.29l-1.17 0zm45.55 107.45c-0.77,0 -1.17,0.78 -1.17,2.34 0,1.95 0.39,5.06 1.17,8.95 2.34,7.01 5.06,10.12 8.18,10.12 1.55,0 3.11,-1.95 4.28,-6.61l0 -1.17c0,-1.55 -0.39,-2.33 -1.17,-2.33 -0.39,0 -1.17,0.39 -1.95,1.17l-1.17 1.17c-0.78,0 -1.17,-0.77 -1.17,-2.33l0 -2.33c0,-1.56 -0.39,-3.12 -1.17,-4.67 -0.78,-1.17 -1.95,-2.34 -3.5,-3.11 0,0 0,0 -0.39,0 -0.39,0 -0.78,-0.39 -0.78,-1.17l-1.17 0zm21.81 46.72c-1.56,0 -2.34,0.39 -2.34,1.17l1.17 1.17c0.78,1.55 1.95,2.72 3.89,3.5 1.95,0.39 3.51,0.78 5.07,0.78 0.77,0 1.17,-0.39 1.17,-1.17 0,-0.39 -0.78,-1.17 -2.34,-1.95 -1.55,-0.78 -2.72,-1.56 -4.28,-2.33 0,0 -0.39,0 -0.78,0 -0.39,0 -0.39,0 -0.39,0l-1.17 -1.17zm1401.54 -1682.23c28.81,0 52.55,12.85 70.85,38.54 5.84,8.57 8.95,17.52 8.95,27.25 0,17.52 -4.67,35.82 -14.79,54.89 -7.39,15.19 -12.46,29.98 -14.79,44.39 -16.74,44.38 -30.37,89.15 -40.88,134.7 -6.23,20.63 -11.29,40.49 -15.18,59.17 -5.07,26.09 -13.24,52.95 -23.75,80.98 -1.55,26.87 -5.84,53.73 -12.45,80.98 -5.45,21.41 -9.35,42.83 -11.68,64.24 -8.18,34.65 -15.57,69.69 -21.41,104.72 -2.34,12.07 -4.67,24.14 -7.01,35.43 -11.29,20.64 -17.52,42.83 -18.3,67.35 0,26.47 -7.01,51.01 -21.41,72.81 1.55,4.67 1.95,10.12 1.95,15.96 0,17.52 -3.51,37.38 -11.29,59.57 -6.61,17.91 -10.12,33.49 -10.12,45.55 0,2.33 0.39,4.28 1.17,6.62 -3.89,18.29 -7.79,35.81 -11.68,52.55 -5.06,19.08 -9.34,37.77 -12.85,56.45 -3.51,18.69 -5.06,38.15 -5.06,58.79 -1.56,19.07 -4.29,36.98 -8.18,53.73 -5.45,19.46 -7.79,39.71 -7.79,60.34 0,6.23 0.39,11.68 1.17,17.13 -4.67,30.37 -7.01,60.73 -7.01,91.1 0,15.96 0.39,31.53 1.17,46.72l0 75.53c-0.78,4.29 -1.17,8.95 -1.17,13.63 0,19.86 6.23,38.93 18.69,58.01 12.85,19.07 29.97,28.81 52.17,28.81l3.11 0c14.02,0 20.63,1.95 20.63,6.62 0,0.78 0,1.17 0,1.17 0,5.45 -5.06,11.68 -14.79,19.47 -9.73,7.4 -21.02,14.41 -33.48,20.63 -12.85,5.84 -23.36,8.95 -31.53,8.95 -2.34,0 -4.29,-0.39 -5.84,-1.17 -2.73,0 -5.45,-1.17 -7.79,-3.5 -3.11,-1.56 -6.23,-2.34 -9.35,-2.34 -8.95,-1.95 -18.3,-4.28 -28.42,-6.62 -21.41,-4.67 -41.66,-10.9 -61.51,-18.69 -19.85,-8.17 -36.99,-22.19 -51.39,-41.65 -32.7,-37.38 -54.5,-82.14 -66.18,-134.7 -8.18,-28.03 -14.02,-56.85 -17.13,-85.65 -3.11,-28.81 -4.28,-57.62 -4.28,-86.82 0,-31.15 0.39,-62.29 1.95,-93.44 0.78,-21.02 1.55,-42.43 2.33,-63.85 9.35,-27.25 13.63,-55.29 13.63,-84.48 0,-1.95 0,-4.29 0,-6.62 0.78,-22.19 3.11,-44.39 7.01,-67.35 3.89,-19.86 7.4,-40.1 10.13,-60.35 5.45,-43.61 14.79,-84.87 28.81,-124.58 2.73,-34.26 10.12,-66.96 21.41,-98.88 8.57,-24.53 14.79,-49.44 19.47,-75.53 12.07,-35.82 25.31,-71.25 38.93,-107.06 9.73,-24.53 19.07,-48.67 28.42,-73.19l0 -2.33c0,-12.07 2.33,-22.97 6.62,-33.09 4.67,-9.73 10.12,-19.08 16.35,-28.42 5.84,-8.18 11.29,-17.13 15.97,-26.87 4.28,-9.34 6.62,-20.24 6.62,-32.31l0 -3.5c16.74,-28.03 30.37,-58.79 41.27,-92.27 8.17,-24.53 17.52,-47.89 28.42,-70.85 7.4,-12.07 14.41,-25.7 20.63,-40.88 7.4,-18.3 16.35,-35.04 26.47,-49.83 10.51,-14.79 24.92,-23.75 43.99,-26.87 16.74,-12.85 33.49,-19.07 50.23,-19.07zm-186.88 652.1c-0.78,0 -1.95,1.17 -3.5,3.51 0,0.78 -0.39,1.56 -1.17,2.33 -4.67,5.45 -7.01,8.96 -7.01,11.29 0,2.33 1.56,3.51 4.67,3.51 2.34,0 3.51,-1.17 3.51,-3.51 0,-1.56 0,-3.11 0.39,-5.45 0.39,-2.33 1.17,-4.28 1.95,-5.84 0.78,-1.55 1.17,-2.72 1.17,-3.89 0,-1.17 0,-1.95 0,-1.95zm-160.01 553.22c0,0 0,0.39 0,0.78 0,0.39 0,0.78 -0.39,1.17 -0.39,0.39 -0.39,1.17 -0.39,2.73 0,3.89 0.39,5.84 0.77,5.84l1.17 0c1.55,-0.78 2.33,-1.95 2.33,-3.51 0,-1.55 -0.78,-3.11 -2.33,-4.67 0,-0.77 0,-1.17 0,-1.55 0,-0.39 -0.39,-0.78 -1.17,-0.78zm5.84 21.8c-0.77,0 -1.17,0.39 -1.55,1.17 -0.39,0.78 -1.17,1.95 -1.95,3.51 -0.78,1.95 -1.17,3.51 -1.17,4.28 0,0 0.39,0 1.17,0 0.78,0 1.55,-0.77 2.33,-2.33 0.78,-0.39 1.56,-1.56 1.95,-2.73 0.39,-1.17 0.39,-1.95 0.39,-2.73l0 -1.17 -1.17 0zm-4.67 38.93c-0.78,0 -1.56,0 -2.73,0.78 -1.17,0.78 -1.56,1.95 -1.56,3.51 0,0.77 0,1.95 0.39,3.11 0.39,0.78 1.17,1.55 1.95,1.55 0.39,0 1.17,-0.39 1.55,-1.17 0.39,-0.78 0.78,-1.95 1.56,-3.5 0.78,-0.78 1.17,-1.56 1.17,-2.34 0,-1.55 -0.78,-1.95 -2.33,-1.95zm3.5 16.74c-0.78,0 -1.95,1.17 -3.5,3.51 0,0.78 -0.39,1.55 -1.17,2.33 -2.72,4.67 -4.28,10.13 -4.28,17.13 0,7.01 1.95,13.23 5.45,19.47 0.77,0.78 1.17,1.17 1.17,1.17 0.78,0 1.55,-1.17 2.33,-3.11 0.78,-1.56 1.56,-4.29 2.34,-7.4 0.77,-2.73 1.17,-5.45 1.17,-7.79 0,-3.11 -0.39,-5.45 -1.17,-7.01 -1.56,-2.73 -2.34,-7.01 -2.34,-12.46l0 -5.84zm0 83.32c-0.78,0 -1.17,0.39 -1.17,1.17l0 8.17c0,4.29 -1.56,7.79 -4.28,10.13 -1.56,1.55 -2.34,2.72 -2.34,3.5 0,2.34 2.34,3.89 6.62,4.67 3.11,0.78 5.45,1.95 7.01,3.89 1.56,1.95 2.34,3.89 2.34,6.23 0.77,2.34 1.55,4.29 2.33,5.84 0.78,1.56 1.17,2.34 1.95,2.34 1.56,0 2.73,-0.78 3.51,-1.95 0.77,-1.17 1.17,-2.34 1.17,-3.89 0,-1.56 -0.78,-3.51 -2.34,-5.84 -1.55,-2.34 -3.11,-4.29 -4.28,-6.62 -3.11,-3.89 -4.67,-7.4 -4.67,-10.51l0 -3.5c0,-1.95 -0.78,-5.07 -2.33,-8.96 -2.34,-3.11 -3.51,-4.67 -3.51,-4.67zm13.63 56.06c-0.78,0 -1.17,0 -1.55,0 -0.39,0 -0.39,0.39 -0.39,1.17 -3.11,0.78 -4.67,1.56 -4.67,2.34 0,0.77 1.17,1.95 3.51,3.11 2.73,2.33 4.67,3.5 5.45,3.5 0.77,0 1.17,-0.77 1.17,-2.33l0 -3.11c0,-3.11 -0.78,-4.67 -2.34,-4.67 0,0 -0.39,0 -1.17,0zm4.67 22.58c-0.78,0 -1.56,0.39 -2.73,1.17 -1.17,0.78 -1.95,1.95 -1.95,3.51 0,0.78 0.39,1.56 0.78,2.33 0.39,0.78 0.78,1.17 1.56,1.17 0.77,0 1.55,-0.39 2.33,-1.17 0.78,-0.77 1.56,-1.55 2.33,-2.33l0 -2.33c0,-0.78 -0.39,-1.17 -0.77,-1.56 0,-0.39 -0.78,-0.78 -1.56,-0.78zm2.33 17.13c-0.77,0 -1.17,0.39 -1.55,0.77 -0.39,0.39 -0.78,1.17 -0.78,2.73 0.78,1.56 1.95,3.11 3.89,5.06 1.95,1.95 3.89,3.12 5.06,3.12 1.56,0 2.34,-0.78 2.34,-2.34 0,-0.78 -0.39,-1.95 -1.17,-3.5 -1.17,-3.89 -3.11,-5.84 -5.45,-5.84l-2.34 0zm6.62 22.97c-0.39,0 -1.17,0 -1.55,0 -0.39,0 -0.78,0.39 -1.56,1.17 -1.56,0.78 -2.33,1.95 -2.33,3.51 0,1.56 1.55,3.51 4.67,6.62 3.51,3.89 6.23,5.84 7.79,5.84 0.78,0 1.17,-0.78 1.17,-2.34 0,-1.55 -0.77,-4.28 -2.33,-7.79 -0.78,-2.33 -1.55,-4.28 -2.33,-5.45 -0.78,-1.17 -1.95,-1.56 -3.51,-1.56zm25.31 44.39l-1.17 0c0,0 0,0.39 0,1.17 0,2.33 1.17,6.62 3.5,12.46 2.34,5.45 4.29,8.17 5.84,8.17l0.78 -1.17 0 -1.17c0,-1.56 -0.39,-3.51 -1.17,-5.84 -0.78,-1.95 -1.17,-4.29 -1.95,-6.62 -2.33,-4.67 -4.28,-7.01 -5.84,-7.01z"/>
 </g>
</svg>
