<?xml version="1.0" encoding="UTF-8"?>
<!DOCTYPE svg PUBLIC "-//W3C//DTD SVG 1.1//EN" "http://www.w3.org/Graphics/SVG/1.1/DTD/svg11.dtd">
<!-- Creator: CorelDRAW 2021 (64-Bit) -->
<svg xmlns="http://www.w3.org/2000/svg" xml:space="preserve" width="85.196mm" height="25.9096mm" version="1.1" style="shape-rendering:geometricPrecision; text-rendering:geometricPrecision; image-rendering:optimizeQuality; fill-rule:evenodd; clip-rule:evenodd"
viewBox="0 0 6791.46 2065.4"
 xmlns:xlink="http://www.w3.org/1999/xlink"
 xmlns:xodm="http://www.corel.com/coreldraw/odm/2003">
 <defs>
  <style type="text/css">
   <![CDATA[
    .fil0 {fill:#990000;fill-rule:nonzero}
   ]]>
  </style>
 </defs>
 <g id="Capa_x0020_1">
  <metadata id="CorelCorpID_0Corel-Layer"/>
  <path class="fil0" d="M1030.01 0l14.84 0c74.63,0 148.81,9.89 222.54,29.22 112.4,31.47 188.83,111.05 228.84,238.28 12.59,33.27 18.44,67.44 18.44,102.51 0,32.82 -3.15,65.19 -10.35,97.56 -7.19,32.37 -14.38,64.29 -22.48,94.86 -0.89,0.9 -1.35,1.8 -1.35,2.69 -35.97,106.1 -86.77,201.42 -152.85,285.94 -65.65,84.07 -138.03,158.25 -217.15,222.54 -110.6,93.07 -231.53,164.1 -362.36,213.1 -8.55,4.5 -20.23,8.99 -34.17,13.49 -11.23,2.7 -21.58,5.4 -30.12,8.99 -8.99,3.6 -13.49,8.09 -13.49,13.49 0,4.94 10.34,12.14 30.57,20.68 38.66,20.23 77.33,40.92 115.99,62.04 37.76,22.03 75.98,43.17 114.64,63.4 31.47,20.23 63.4,39.11 95.76,56.65 67.89,33.27 129.94,75.53 187.03,126.33 25.63,21.13 53.95,38.66 84.52,52.6 26.08,13.03 51.26,28.32 74.18,44.95 23.38,16.64 41.36,39.57 53.5,68.34 -0.89,27.42 -6.74,46.31 -17.08,56.65 -10.34,10.79 -23.38,15.74 -38.22,15.74 -13.93,0 -29.67,-3.15 -46.75,-8.99 -17.08,-6.29 -33.72,-13.03 -49.46,-19.78 -12.14,-6.3 -23.38,-11.24 -32.82,-14.39 -96.66,-42.27 -195.57,-76.43 -296.28,-102.95 -26.52,-11.24 -52.15,-24.28 -77.78,-38.22 -44.06,-24.73 -88.56,-43.17 -134.42,-55.3 -50.8,-32.37 -103.41,-58.45 -157.81,-77.78 -30.12,-11.24 -59.35,-23.83 -88.56,-36.87l-1.36 0c-18.43,0 -32.36,7.19 -41.36,22.03 -9.45,14.38 -15.74,32.36 -18.88,54.4 -3.6,22.03 -6.3,44.96 -8.09,68.33 -1.8,30.12 -5.4,55.75 -10.34,76.43 -4.5,18.44 -6.74,36.42 -6.74,53.95 0,31.92 3.6,62.94 10.34,93.96 7.19,29.68 10.79,59.35 10.79,89.47 0,11.24 -0.89,22.48 -2.69,34.17 -3.6,11.24 -8.99,20.23 -16.64,26.98 -7.19,6.74 -14.84,9.89 -22.93,9.89 -9.44,0 -18.43,-4.5 -26.53,-13.04 -44.51,-3.6 -82.72,-22.48 -114.19,-56.65 -31.92,-34.62 -53.05,-76.88 -63.39,-128.14 -10.79,-41.81 -15.74,-84.07 -15.74,-126.33 0,-46.31 4.5,-93.06 13.93,-140.27 8.99,-46.76 19.79,-93.51 31.93,-140.28 5.39,-22.03 10.79,-43.6 15.74,-65.64 -28.78,-25.62 -60.25,-47.65 -94.87,-66.08 -26.97,-14.84 -51.7,-31.03 -73.73,-48.55 -15.74,-11.69 -28.32,-23.38 -38.22,-36.42 -9.44,-12.59 -14.39,-23.83 -14.39,-33.27 0,-12.59 9.89,-19.33 29.22,-21.13 5.85,0 13.04,0.9 21.13,2.25 46.31,-40.91 98.01,-61.6 155.11,-61.6 30.12,0 59.34,7.2 88.56,22.48 19.79,-4.5 36.41,-17.53 48.55,-39.11 12.14,-21.58 23.38,-45.86 32.82,-72.84 12.59,-33.72 26.98,-62.04 43.61,-85.87 88.57,-184.33 184.78,-362.36 288.63,-534.56 7.64,-17.54 19.78,-37.77 36.87,-60.7 12.13,-17.53 22.93,-34.62 32.82,-50.8 9.44,-16.18 14.38,-30.12 14.38,-41.36 0,-6.29 -2.25,-11.69 -6.74,-15.74 -13.03,5.85 -26.08,12.6 -39.56,19.79 -41.81,19.33 -83.62,40.46 -124.09,63.84 -40.91,22.93 -79.57,51.25 -115.54,84.97 -32.37,23.38 -66.54,43.61 -102.51,60.24 -30.12,14.39 -58.45,30.12 -85.87,47.66 -26.98,17.53 -50.8,41.36 -71.03,71.03 -1.8,10.79 -3.6,22.48 -5.4,35.51 -2.69,23.83 -6.29,45.41 -11.24,65.19 -4.5,19.78 -13.93,29.67 -27.88,29.67 -11.69,0 -26.52,-8.54 -44.95,-26.08 -25.63,-14.39 -45.41,-35.07 -59.79,-63.39 -14.84,-27.88 -22.03,-58 -22.03,-89.46 0,-30.12 7.64,-58.9 22.48,-87.22 2.69,-3.15 4.94,-6.74 6.74,-10.34 40.46,-68.34 88.56,-127.23 144.76,-176.69 60.7,-42.7 122.29,-82.72 185.68,-119.59 94.86,-45.85 191.97,-82.72 291.78,-111.5 99.8,-28.32 200.96,-43.6 303.47,-45.41zm3394.37 688.77c22.93,1.8 44.06,9.44 63.84,23.38 19.78,13.49 29.67,32.36 29.67,57.09l0 4.05c3.6,-0.9 8.55,-4.5 15.29,-11.24 6.29,-6.74 13.93,-14.39 22.93,-22.93 13.93,-16.64 26.53,-29.68 38.22,-38.22 2.69,-0.9 4.94,-1.8 6.74,-2.7 15.74,-7.19 31.92,-13.49 48.55,-19.78 16.64,-6.3 33.72,-9.45 51.25,-9.45 11.69,0 22.93,1.8 34.17,5.4 35.07,22.93 53.05,51.7 53.05,87.22 0,7.64 -0.9,16.18 -2.7,24.72 -1.79,8.1 -3.14,15.29 -4.04,22.48 -8.99,33.27 -13.04,67.89 -13.04,103.86l0 8.09c-1.79,16.63 -2.69,33.27 -2.69,49.9 0,19.33 1.79,39.12 5.84,59.35 4.05,20.23 11.24,39.56 21.58,57.99 -2.69,6.3 -4.94,10.79 -7.64,14.39 -2.69,3.6 -4.04,6.74 -4.04,9.44 0,1.8 1.35,3.6 4.04,5.84 2.7,2.25 6.74,4.5 13.04,7.2 8.09,17.53 14.39,33.72 19.78,49 11.24,28.78 24.28,53.05 38.22,72.84 13.94,19.78 38.67,36.86 73.74,50.8 -24.73,36.86 -57.55,65.19 -98.91,85.42 -41.36,20.22 -80.03,30.57 -117.34,30.57 -13.93,0 -26.98,-1.36 -39.12,-4.05l-2.69 0c-25.63,0 -49.46,-11.69 -71.94,-35.51 -22.48,-23.83 -38.66,-49.01 -49.46,-75.08 -12.14,-21.13 -22.03,-43.16 -29.67,-66.09 -7.19,-22.48 -11.24,-45.85 -11.24,-69.68 0,-6.3 0.45,-12.14 1.35,-18.44 0,-0.9 -0.45,-1.35 -1.35,-1.35 -2.25,0 -6.3,5.4 -11.24,16.64 -4.5,10.79 -9.44,22.93 -14.84,35.97 -6.3,15.74 -11.69,28.32 -15.74,36.86 -19.33,44.96 -34.17,83.63 -43.61,115.99 -9.89,32.37 -18.88,73.28 -27.88,122.74 -3.14,11.24 -6.74,22.03 -10.34,32.82 -9.88,27.88 -18.43,56.65 -25.62,85.42 -7.64,29.22 -11.24,58.45 -11.24,88.56 0,16.64 1.79,33.27 5.39,49.91 0,22.03 -1.79,53.5 -4.94,93.96 -2.69,40.91 -6.74,73.73 -10.79,98.46l0 1.36c0,4.94 -2.25,9.44 -6.29,12.13 -3.6,3.15 -8.55,4.95 -13.49,4.95l-4.05 0c-14.84,-6.3 -31.02,-10.34 -47.65,-12.14 -15.74,-1.8 -30.57,-5.4 -44.06,-11.69 -13.49,-6.3 -24.73,-18.44 -33.72,-36.87 -28.77,-53.51 -46.31,-109.7 -52.6,-168.6 -3.6,-29.22 -4.94,-57.55 -4.94,-85.87 0,-48.5 2.69,-97.39 8.74,-146.66 -4.82,11.32 -9.99,22.6 -15.48,33.82 -4.5,9.45 -9.44,18.88 -14.39,28.78 -14.39,33.27 -33.27,63.84 -56.65,90.81 -24.73,44.06 -54.4,84.08 -89.92,120.04 -3.15,4.94 -7.19,9.88 -11.69,14.38 -34.17,37.77 -73.74,68.34 -118.69,92.17 -19.34,15.74 -40.92,26.53 -65.65,32.37 -24.73,5.4 -48.55,8.54 -72.38,8.54l-12.14 0 -7.64 -1.35c-22.03,0 -44.51,-3.6 -67.89,-11.24 -23.37,-7.64 -42.26,-18.43 -57.09,-33.72l-13.49 0c-22.93,0 -44.51,-2.25 -65.19,-7.19 -20.68,-4.94 -40.01,-14.39 -58.45,-28.32l-9.44 0c-13.04,0 -23.83,-3.6 -31.92,-10.34 -8.55,-7.2 -16.19,-15.29 -23.38,-25.18 -6.74,-9.44 -14.84,-17.98 -23.38,-25.17 -31.92,-56.2 -47.65,-114.19 -47.65,-174.89l0 -12.14c0.9,-12.14 1.79,-24.73 2.69,-38.22 0,-3.15 0,-6.74 0,-10.34 0,-35.07 8.09,-67.89 23.83,-98.91 3.6,-26.08 12.14,-50.8 26.08,-73.73 8.99,-15.74 16.19,-32.82 22.48,-51.25 10.79,-34.17 26.98,-66.54 48.55,-97.56 6.3,-9.44 12.6,-19.33 18.88,-28.77 10.34,-18.44 21.58,-35.52 34.17,-51.7 11.24,-14.84 22.03,-30.57 31.47,-47.21 6.3,-8.09 11.69,-15.74 17.09,-23.83 18.43,-25.18 39.11,-50.8 62.04,-76.43 10.34,-13.04 21.58,-25.63 32.82,-38.22l23.83 -26.08c11.24,-12.59 22.48,-25.17 32.82,-38.22 2.69,-3.6 5.84,-7.19 8.99,-10.79 9.89,-12.13 20.68,-23.83 32.37,-34.61 12.13,-11.24 25.17,-19.33 40.46,-24.28 14.84,-18.43 34.62,-31.92 58.9,-39.56 24.73,-8.09 49,-12.14 72.83,-12.14l13.04 0c22.93,0 40.91,8.1 53.95,24.28 13.03,16.64 24.27,33.27 32.82,50.8 0.9,7.19 1.35,13.93 1.35,19.79 0,41.36 -8.55,81.37 -26.08,120.04 -58.89,137.13 -143.42,256.72 -253.12,359.67 -23.83,18.43 -48.55,27.42 -75.08,27.42 -10.34,0 -21.13,-2.25 -31.47,-6.29 -8.09,23.37 -12.14,48.1 -12.14,73.73 0,10.34 0.45,20.23 1.35,30.12l0 38.22c0,17.53 2.7,35.51 8.1,53.94 4.49,16.64 6.74,33.27 6.74,49.91 0,4.5 -0.45,9.44 -1.35,14.84 7.64,10.34 14.84,22.03 20.69,35.51 8.09,15.74 17.53,30.12 27.87,42.71 10.79,12.59 25.18,21.13 43.61,25.63l8.99 0c24.73,0 49.46,-4.05 73.73,-12.59 24.73,-8.09 47.66,-17.98 68.79,-29.68 33.27,-19.33 64.29,-41.81 93.51,-68.33 9.45,-8.09 19.33,-15.74 28.78,-23.83 4.5,-5.4 9.44,-10.34 14.39,-15.74 36.86,-40.46 71.48,-82.73 104.3,-126.33 6.74,-11.69 14.39,-23.38 22.48,-35.52 14.84,-22.93 28.77,-45.41 41.81,-67.44 3.6,-5.84 8.09,-14.84 13.49,-26.08 4.05,-12.59 9.44,-23.83 15.74,-34.17 2.45,-4.51 5.05,-8.08 7.77,-10.71 1.11,-41.78 9.57,-83.14 25.05,-123.72 1.8,-48.55 14.84,-92.61 39.56,-133.08 3.6,-11.69 7.2,-22.93 10.35,-34.17 10.79,-38.67 24.27,-75.08 40.91,-109.7 8.99,-15.74 16.64,-32.36 23.83,-49.9 8.55,-26.08 21.13,-49.9 36.87,-71.03 3.6,-8.09 8.99,-13.93 16.63,-17.98 7.2,-3.6 15.29,-7.64 24.28,-11.24 13.93,-3.15 25.17,-8.99 34.17,-17.08zm-73.73 356.97c-0.9,0 -3.15,2.69 -6.74,8.09 -1.8,2.69 -3.15,5.39 -4.5,8.54 -1.35,3.15 -1.8,5.4 -1.8,7.2 0,0.89 0.45,1.35 1.35,1.35 1.36,0 3.6,-2.7 6.3,-8.09 1.8,-2.25 3.15,-5.4 4.05,-8.99 0.89,-3.6 1.35,-5.84 1.35,-6.74l0 -1.35zm260.76 90.81c-0.9,0 -1.35,0.45 -1.35,1.35 0,0 0.9,1.35 2.69,4.05 0.9,0.9 1.8,2.69 2.7,5.4 4.94,7.64 8.99,11.69 11.69,11.69 1.8,0 2.69,-1.35 2.69,-4.05l0 -2.25c0,-1.79 -0.89,-4.04 -3.14,-6.74 -2.25,-2.69 -5.4,-4.94 -8.55,-6.74 -1.8,-0.89 -3.15,-1.35 -4.05,-1.79 -0.89,-0.45 -1.79,-0.9 -2.69,-0.9zm13.04 27.88c-0.9,0.9 -1.36,1.79 -1.8,2.69 -0.45,0.9 -1.35,2.7 -1.8,5.4l0 1.35c0,3.15 1.36,7.2 4.95,10.79 3.6,4.04 7.19,6.29 10.79,6.29 0.9,0 1.36,-0.9 1.36,-2.69 0,-2.69 -0.9,-6.3 -2.7,-10.79 -2.69,-8.54 -6.29,-13.03 -10.79,-13.03zm27.87 49.9l-1.35 1.35c0,1.8 -1.35,3.6 -4.04,4.5 -2.7,1.35 -5.85,2.7 -8.99,3.6 -3.6,0 -7.2,0.45 -9.89,1.8 -3.15,1.35 -5.4,3.15 -6.3,4.94l0 0.9c0,1.8 1.35,2.7 4.05,2.7l2.69 0c2.7,0 6.3,0.89 11.24,2.25 4.95,1.35 9.45,2.69 13.94,4.5 9.44,4.5 15.28,6.74 17.08,6.74l0 -1.36c0,0 -1.8,-1.35 -5.4,-4.04 -1.8,-1.8 -3.6,-4.5 -5.84,-8.55 -2.25,-4.04 -3.15,-7.64 -3.15,-11.24 -0.9,-2.69 -1.8,-4.5 -2.25,-5.84 -0.45,-1.35 -0.9,-2.25 -1.8,-2.25zm43.17 53.95c-1.36,0 -2.7,0.45 -3.6,1.35 0,0 -0.45,0 -1.35,0 0,0.9 0,2.25 0.45,3.6 0.45,1.35 1.35,2.7 2.25,4.5 1.79,1.8 3.6,3.15 5.84,4.05 2.25,0.9 4.04,1.35 5.84,1.35 1.8,0 3.6,-0.45 5.4,-1.35 1.79,-0.9 2.69,-2.25 2.69,-4.05 -0.9,-1.79 -3.15,-3.6 -6.74,-5.4 -3.6,-1.79 -7.19,-3.14 -10.79,-4.04zm-0.9 42.26c-1.8,0 -2.7,0.45 -2.7,1.36 0,1.79 1.36,4.04 3.6,6.74 4.5,3.6 7.64,4.94 9.44,4.94 1.8,0 2.69,-0.45 2.69,-0.9 0,-1.79 -1.35,-4.04 -4.04,-6.74 -0.9,-1.79 -2.25,-3.15 -4.05,-4.04 -1.79,-0.9 -3.6,-1.36 -4.94,-1.36zm1127.11 -806.1l2.7 0c13.93,0 27.88,5.84 41.36,17.98 13.94,11.69 22.03,26.53 24.73,44.07 17.54,49.9 26.08,101.61 26.08,154.2 0,41.81 -3.6,83.18 -10.35,123.64 -1.79,17.53 -4.94,38.22 -9.88,61.14 -4.95,23.38 -9.45,45.86 -13.94,67.89 -10.34,35.97 -22.48,71.03 -35.51,105.66 -5.4,14.84 -10.34,29.22 -15.74,43.16 -11.69,41.36 -25.18,81.83 -40.92,121.39 -3.6,8.55 -7.19,17.53 -10.34,26.08 -53.95,151.06 -120.04,295.38 -199.16,432.05 -43.61,79.13 -102.96,139.82 -177.59,182.09 -19.33,8.54 -39.11,13.03 -59.34,13.03 -13.94,0 -27.88,-3.6 -40.92,-10.79 -8.54,-12.14 -18.88,-19.79 -30.12,-23.38 -11.69,-3.6 -23.38,-5.4 -35.52,-5.4l-21.13 0c-9.88,0 -18.88,-0.9 -26.98,-2.69 -8.54,-1.8 -15.73,-5.84 -22.03,-11.69 -27.88,-1.79 -50.8,-11.24 -68.34,-28.32 -17.53,-17.08 -33.27,-38.22 -47.65,-62.49 -19.78,-41.36 -33.27,-87.22 -39.12,-137.13 -1.79,-11.24 -3.6,-22.48 -5.39,-32.82 -8.1,-62.49 -12.14,-124.99 -12.14,-187.03 0,-42.26 1.79,-84.52 5.4,-126.78 7.19,-26.98 11.69,-56.2 13.49,-86.77 0.45,-21.13 2.69,-42.27 6.29,-63.39 8.99,-24.28 13.94,-50.36 15.74,-77.33 2.7,-29.22 8.99,-56.65 18.43,-83.18 4.5,-10.34 8.99,-21.58 13.49,-32.82 13.04,-42.26 35.07,-79.13 65.65,-110.6 8.99,-7.19 17.98,-17.08 27.87,-30.57 9.45,-11.24 19.34,-22.03 29.68,-31.92 9.88,-10.34 19.78,-15.29 29.22,-15.29 8.99,0 17.53,6.74 25.17,19.79 4.5,18.43 9.44,35.97 14.39,52.6 11.69,23.83 17.08,48.55 17.08,75.08l0 4.05c4.5,13.93 6.74,29.22 6.74,45.85 0,29.22 -3.6,58.89 -10.34,89.47 0,0.89 0,1.79 0,2.69 -0.9,18.43 -2.25,35.97 -4.05,53.05 -2.69,22.48 -4.05,48.11 -4.05,75.98l0 14.84c-2.69,33.27 -4.04,66.54 -4.04,99.8 0,19.33 0.9,38.66 2.69,57.99 4.5,79.13 14.84,157.36 31.47,234.69 3.6,23.37 11.24,46.75 22.48,69.68 8.99,17.54 14.84,33.72 18.43,48.55 25.63,-23.37 49.01,-52.15 70.14,-85.42 7.64,-12.14 16.18,-24.73 24.73,-36.87 17.53,-33.27 35.51,-65.64 53.94,-96.21 6.3,-9.45 12.6,-19.79 18.44,-30.12 9.89,-27.42 22.48,-53.05 38.22,-77.78 11.69,-20.23 21.58,-40.46 30.57,-60.7 11.24,-24.73 21.58,-49.46 30.12,-75.08 10.35,-28.78 22.48,-57.1 35.52,-84.08 8.09,-22.03 15.74,-43.61 23.83,-64.74 9.44,-27.88 19.79,-55.3 30.12,-81.83 7.19,-24.27 14.84,-49 22.48,-73.73 9.88,-25.18 17.98,-51.26 25.17,-77.33 23.38,-93.51 38.66,-187.93 44.51,-283.24 3.6,-32.82 16.63,-49 38.21,-49zm-722.93 695.5c0,0 -0.45,0 -0.89,0 0,0 -0.45,0 -0.45,0l-1.35 1.35c-0.9,0.9 -1.8,4.95 -2.69,11.69 -0.9,7.19 -1.8,15.74 -2.7,25.17 -0.9,9.89 -1.35,16.64 -1.35,21.13 0,6.29 0.9,8.99 2.69,8.99l2.7 -2.25c4.5,-5.4 6.74,-16.18 6.74,-31.92 0,-5.85 -0.45,-11.24 -1.35,-15.74 0,-12.14 -0.45,-18.44 -1.36,-18.44zm593.91 48.55c-0.9,0 -2.25,1.8 -4.05,5.4 -1.35,1.8 -2.69,4.5 -3.6,8.09 -0.9,3.6 -1.35,5.84 -1.35,7.64 0,3.6 0.45,5.4 1.35,5.4 0.9,0 2.25,-1.8 3.6,-5.4 1.8,-1.8 3.15,-4.05 3.6,-7.64 0.45,-3.6 0.45,-6.29 0.45,-8.09l0 -5.4zm-605.59 44.96l-1.35 0c-0.9,0.9 -1.35,1.8 -1.35,2.7 0,1.79 0.45,4.04 1.35,6.74 0.9,2.25 1.79,4.94 2.69,7.19 0.45,2.25 1.35,3.15 2.25,3.15 0.9,0 1.35,-1.35 1.35,-4.05 0,-0.9 0,-2.25 0,-4.04l-2.69 -7.64c0,-2.7 -0.9,-4.05 -2.25,-4.05zm6.3 32.82c-0.9,0 -1.8,0 -2.7,0 -0.9,0 -1.79,0.45 -2.25,1.35 -0.9,1.8 -1.79,5.85 -2.69,12.6 -0.9,6.74 -1.35,14.38 -1.35,22.93l0 44.96c0,5.4 0.45,8.99 1.35,10.34 0.9,1.8 1.79,5.4 2.69,10.79 0.45,5.39 1.35,11.24 2.25,18.43 0,6.3 0.9,12.59 2.7,18.88 1.79,6.74 3.6,11.24 5.39,13.93 5.4,6.3 8.99,9.44 11.69,9.44 0.9,0 1.35,-0.45 1.35,-1.35 0,-2.69 -1.8,-6.74 -5.4,-12.14 -1.35,-4.04 -3.6,-10.79 -5.84,-18.88 -2.25,-8.55 -3.6,-17.08 -4.5,-25.63 -0.9,-6.3 -1.35,-12.59 -1.35,-18.43 -0.9,-12.6 -1.8,-22.48 -2.7,-30.57l0 -4.95c0,-5.4 0.45,-10.79 1.36,-16.18 0.89,-4.95 2.69,-9.45 5.39,-13.04 3.6,-6.29 5.4,-10.34 5.4,-13.03 0,-2.7 -1.79,-4.95 -5.4,-6.74 -0.89,-0.9 -1.79,-1.36 -2.69,-1.8 -0.9,-0.45 -1.8,-0.9 -2.69,-0.9zm563.77 9.45l-1.35 0c0,0.89 0,1.35 0,1.35l-1.35 0c-0.9,0.9 -1.79,1.79 -2.69,3.15 -0.9,1.35 -0.9,2.69 -0.9,4.5 0,3.6 0,5.39 0.9,5.39 0.9,0 2.69,-2.69 5.39,-7.64 0.9,-1.8 1.36,-3.6 1.36,-5.4 0,-0.9 -0.45,-1.35 -1.36,-1.35zm-23.83 47.21c-0.89,0 -1.79,0.89 -2.25,2.69 -0.89,0.9 -1.79,1.8 -2.69,2.69l0 2.7c0,0.89 0,1.35 0.45,1.79 0.45,0.45 1.36,0.9 2.25,0.9 1.36,0 2.7,-0.9 3.6,-2.25 0.89,-1.35 1.35,-2.25 1.35,-3.15 0,-1.79 0,-3.14 -0.45,-4.04 -0.45,-0.9 -1.35,-1.35 -2.25,-1.35zm-527.81 114.64c-0.89,1.8 -1.79,4.5 -2.69,7.2 -0.9,3.14 -1.35,6.74 -1.35,9.88 0,2.7 0.45,5.4 1.35,8.55 0.9,3.15 1.8,5.4 2.69,5.84 1.8,0.9 2.7,1.35 3.6,1.35 2.69,0 4.04,-2.69 4.04,-8.99 0,-3.6 -0.45,-8.09 -1.35,-13.03l0 -1.35c-1.8,-6.3 -4.05,-9.45 -6.3,-9.45zm13.04 44.96c-3.6,0 -5.4,1.8 -5.4,5.4 0,2.25 2.25,6.29 6.74,11.69 1.8,1.8 2.69,4.05 2.69,6.74 0,1.35 -1.79,4.05 -5.39,7.64 -4.5,2.69 -6.74,4.94 -6.74,6.74 0,1.8 2.25,4.05 6.74,6.3 4.5,2.69 7.64,4.04 8.99,4.04 1.79,0 3.14,-1.35 3.6,-4.5 0.45,-3.15 0.45,-8.99 0.45,-17.98l0 -10.34c0,-5.4 -0.45,-8.99 -1.79,-11.24 -1.36,-2.25 -3.15,-3.6 -5.85,-4.5l-4.04 0zm419.91 8.99c-2.25,0 -3.6,0.9 -3.6,2.69 0,1.8 0.45,3.6 1.8,4.5 1.35,1.36 2.25,2.25 3.14,2.25 1.8,0 3.15,-0.45 4.05,-0.89 0.9,-0.45 1.35,-0.9 1.35,-1.8 0,-0.9 -0.45,-1.8 -1.35,-2.69 -0.9,-0.9 -2.25,-2.25 -4.05,-4.05l-1.35 0zm-404.17 53.05c0,0 0,0.9 0,3.6 0.9,0.9 1.35,1.8 1.35,2.7 1.8,4.5 3.15,6.74 4.05,6.74l1.35 0 0 -2.7c0,-2.69 -0.9,-5.4 -2.7,-8.09 -0.89,-0.9 -1.79,-1.35 -2.69,-1.35 0,-0.45 0,-0.9 0,-0.9l-1.35 0zm19.78 26.08c-2.69,0 -5.39,1.8 -8.09,5.4 -0.9,0.9 -0.9,2.25 -0.9,4.05 0,5.84 5.85,13.49 17.98,22.03 0,0 0.45,-0.9 0.9,-3.6 0.45,-2.69 0.45,-5.84 0.45,-9.44l0 -2.7c0,-4.5 -0.9,-8.09 -3.15,-11.24 -2.25,-2.69 -4.5,-4.5 -7.2,-4.5zm14.39 40.91l-1.35 0c-3.6,0 -4.94,2.25 -4.94,6.74 0,0.9 0.45,2.7 1.79,5.85 1.35,3.14 3.15,5.84 5.84,8.54l6.74 6.3c1.8,0 2.7,-1.8 2.7,-6.3l0 -4.04c0,-4.5 -1.35,-8.99 -4.05,-13.04 -1.79,-2.69 -4.04,-4.05 -6.74,-4.05zm4.05 77.78c-7.2,0 -10.34,1.36 -10.34,4.05 0,1.35 1.79,4.05 6.29,7.64 3.6,3.6 6.3,5.4 8.09,5.4 2.7,0 4.95,-2.25 7.64,-6.74 3.6,-2.7 5.4,-4.95 5.4,-6.3 0,-1.8 -3.15,-3.15 -8.99,-4.05l-8.09 0zm1285.81 -1002.58l13.04 0c22.93,0 40.91,8.1 53.95,24.28 13.03,16.64 24.27,33.27 32.82,50.8 0.9,7.19 1.35,13.93 1.35,19.79 0,41.36 -8.55,81.37 -26.08,120.04 -58.89,137.13 -143.42,256.72 -253.12,359.67 -23.83,18.43 -48.55,27.42 -75.08,27.42 -10.34,0 -21.13,-2.25 -31.47,-6.29 -8.09,23.37 -12.14,48.1 -12.14,73.73 0,10.34 0.45,20.23 1.35,30.12l0 38.22c0,17.53 2.7,35.51 8.1,53.94 4.49,16.64 6.74,33.27 6.74,49.91 0,4.5 -0.45,9.44 -1.35,14.84 7.64,10.34 14.84,22.03 20.69,35.51 8.09,15.74 17.53,30.12 27.87,42.71 10.79,12.59 25.18,21.13 43.61,25.63l8.99 0c24.73,0 49.46,-4.05 73.73,-12.59 24.73,-8.09 47.66,-17.98 68.79,-29.68 33.27,-19.33 64.29,-41.81 93.51,-68.33 9.45,-8.09 19.33,-15.74 28.78,-23.83 4.5,-5.4 9.44,-10.34 14.39,-15.74 36.86,-40.46 71.48,-82.73 104.3,-126.33 6.74,-11.69 14.39,-23.38 22.48,-35.52 14.84,-22.93 28.77,-45.41 41.81,-67.44 3.6,-5.84 8.09,-14.84 13.49,-26.08 4.05,-12.59 9.44,-23.83 15.74,-34.17 5.84,-10.79 12.59,-16.18 19.79,-16.18 3.6,0 7.19,2.25 11.69,6.74 3.6,2.69 5.4,8.54 5.4,17.08 0,12.14 -2.7,28.32 -8.1,48.1 -5.39,19.79 -11.23,36.87 -18.43,50.81 -11.24,46.31 -27.88,92.16 -49.9,137.12 -4.5,9.45 -9.44,18.88 -14.39,28.78 -14.39,33.27 -33.27,63.84 -56.65,90.81 -24.73,44.06 -54.4,84.08 -89.92,120.04 -3.15,4.94 -7.19,9.88 -11.69,14.38 -34.17,37.77 -73.74,68.34 -118.69,92.17 -19.34,15.74 -40.92,26.53 -65.65,32.37 -24.73,5.4 -48.55,8.54 -72.38,8.54l-12.14 0 -7.64 -1.35c-22.03,0 -44.51,-3.6 -67.89,-11.24 -23.37,-7.64 -42.26,-18.43 -57.09,-33.72l-13.49 0c-22.93,0 -44.51,-2.25 -65.19,-7.19 -20.68,-4.94 -40.01,-14.39 -58.45,-28.32l-9.44 0c-13.04,0 -23.83,-3.6 -31.92,-10.34 -8.55,-7.2 -16.19,-15.29 -23.38,-25.18 -6.74,-9.44 -14.84,-17.98 -23.38,-25.17 -31.92,-56.2 -47.65,-114.19 -47.65,-174.89l0 -12.14c0.9,-12.14 1.79,-24.73 2.69,-38.22 0,-3.15 0,-6.74 0,-10.34 0,-35.07 8.09,-67.89 23.83,-98.91 3.6,-26.08 12.14,-50.8 26.08,-73.73 8.99,-15.74 16.19,-32.82 22.48,-51.25 10.79,-34.17 26.98,-66.54 48.55,-97.56 6.3,-9.44 12.6,-19.33 18.88,-28.77 10.34,-18.44 21.58,-35.52 34.17,-51.7 11.24,-14.84 22.03,-30.57 31.47,-47.21 6.3,-8.09 11.69,-15.74 17.09,-23.83 18.43,-25.18 39.11,-50.8 62.04,-76.43 10.34,-13.04 21.58,-25.63 32.82,-38.22l23.83 -26.08c11.24,-12.59 22.48,-25.17 32.82,-38.22 2.69,-3.6 5.84,-7.19 8.99,-10.79 9.89,-12.13 20.68,-23.83 32.37,-34.61 12.13,-11.24 25.17,-19.33 40.46,-24.28 14.84,-18.43 34.62,-31.92 58.9,-39.56 24.73,-8.09 49,-12.14 72.83,-12.14zm-34.61 141.18l-2.25 0c-3.6,0 -7.2,1.35 -9.89,4.04 -3.15,2.25 -6.3,4.95 -8.55,7.64 -3.6,3.6 -6.74,6.74 -9.44,9.44l-59.35 66.99c-33.27,44.96 -61.59,93.06 -84.07,144.76 -7.2,15.74 -13.94,32.37 -19.79,49.01 -2.69,6.74 -5.4,13.93 -8.09,21.12 -0.9,4.05 -3.15,8.55 -6.3,13.04 -3.6,4.5 -5.39,8.09 -5.39,11.69l0 1.35c3.6,-0.89 6.29,-2.25 8.99,-4.5 2.69,-2.25 4.94,-4.94 6.74,-8.54 0.89,-2.7 2.25,-4.5 4.04,-5.4 1.8,-0.9 4.05,-1.35 6.3,-1.35 2.69,-0.9 4.94,-1.8 6.74,-3.15 1.79,-1.35 2.69,-3.6 2.69,-7.19l0 -1.35c6.3,-8.99 12.59,-17.09 19.79,-25.18l15.74 -15.74c7.19,-8.09 13.49,-16.18 19.78,-25.17 0.9,-0.9 1.8,-1.8 2.7,-2.25 5.39,-10.79 12.13,-19.33 21.12,-26.53 4.05,-13.03 10.79,-25.17 19.79,-35.51 1.79,-2.69 3.15,-5.4 4.94,-8.09 3.6,-4.05 6.74,-9.45 9.45,-15.74 2.69,-7.2 6.74,-12.59 11.69,-17.08 5.4,-6.3 8.99,-13.04 10.79,-21.13 0.9,-6.3 2.7,-11.24 4.95,-15.74 2.69,-6.3 5.84,-12.59 9.44,-19.79 11.24,-22.03 20.69,-45.41 27.43,-69.68zm-269.76 211.75l-2.69 0c-0.9,0 -1.35,0.45 -1.35,0.9 0,0.45 0,0.9 0,1.8 0,0.9 0.45,2.25 1.35,3.6 0.9,1.35 1.8,1.8 2.69,1.8 1.8,0 3.15,0 4.05,-0.45 0.9,-0.45 1.35,-1.35 1.35,-2.25 0,-0.9 -0.45,-1.79 -1.35,-2.69 -0.9,-0.9 -2.25,-1.8 -4.05,-2.7zm616.39 176.69c-1.8,0 -2.69,0.9 -2.69,2.69 0,1.8 0.45,3.15 1.35,4.05 0.9,0.9 2.25,1.35 4.04,1.35 0.9,0 1.8,-0.45 2.7,-0.9 0.9,-0.45 1.35,-0.45 1.35,-0.45 0,-0.9 -0.45,-1.8 -1.35,-2.69 -0.9,-0.9 -1.8,-1.8 -2.7,-2.7 -0.89,-0.9 -1.79,-1.35 -2.69,-1.35zm-802.06 201.42c-1.8,0.89 -3.15,4.5 -3.6,9.88 -0.45,5.85 -0.45,12.6 -0.45,20.69 0,11.24 0.45,22.48 1.8,34.17 1.35,11.24 3.15,18.43 4.94,21.13 3.15,4.94 4.94,9.89 4.94,14.39l0 2.69c0,3.6 1.36,6.74 4.05,10.34 1.8,1.8 3.15,4.94 4.5,9.44 1.35,4.05 2.25,8.55 2.25,13.04 0.9,5.4 2.69,9.44 4.94,12.59 2.7,3.15 5.4,4.5 8.1,4.5 2.69,0 4.94,-1.79 6.74,-5.4 0.89,-1.79 1.35,-3.6 1.35,-6.29 0,-3.6 -0.9,-6.74 -2.7,-9.45 -1.79,-2.69 -3.6,-4.5 -4.5,-6.29 -1.35,-1.8 -3.14,-2.7 -4.94,-2.7 -0.9,0 -1.8,-1.35 -3.15,-4.04 -1.35,-2.7 -1.79,-5.84 -1.79,-9.44 0,-4.05 -0.45,-8.1 -1.36,-10.79 -0.89,-3.15 -2.25,-5.84 -4.04,-7.64 -1.8,-2.25 -3.15,-6.74 -4.5,-13.03 -1.35,-6.3 -2.7,-12.6 -3.6,-19.79 -1.8,-26.98 -3.6,-45.86 -4.95,-56.65 0,-0.9 0,-1.35 0,-1.35l-4.04 0zm55.3 165.9c-0.9,0 -1.8,0.9 -2.7,2.69 -0.89,1.8 -1.35,4.05 -1.35,6.74 0,4.5 0.9,7.64 2.7,10.34 1.79,2.7 4.04,4.05 6.29,4.05 2.7,0 4.95,-2.25 6.74,-6.74l0 -2.25c0,-3.6 -0.9,-6.74 -3.15,-9.89 -2.25,-3.15 -4.94,-4.94 -8.54,-4.94zm1.35 81.82l-12.14 0 12.14 9.45c3.6,2.25 7.19,4.94 11.24,7.19 3.6,2.25 6.74,3.15 8.54,3.15 4.05,0 6.3,-0.45 6.3,-1.35 0,-1.8 -2.25,-4.95 -6.3,-8.99 -1.79,-2.7 -4.94,-4.95 -8.54,-6.74 -4.05,-1.8 -7.64,-2.7 -11.24,-2.7zm-3917.25 -978.75l13.04 0c22.93,0 40.91,8.1 53.95,24.28 13.03,16.64 24.27,33.27 32.82,50.8 0.9,7.19 1.35,13.93 1.35,19.79 0,41.36 -8.55,81.37 -26.08,120.04 -58.89,137.13 -143.42,256.72 -253.12,359.67 -23.83,18.43 -48.55,27.42 -75.08,27.42 -10.34,0 -21.13,-2.25 -31.47,-6.29 -8.09,23.37 -12.14,48.1 -12.14,73.73 0,10.34 0.45,20.23 1.35,30.12l0 38.22c0,17.53 2.7,35.51 8.1,53.94 4.49,16.64 6.74,33.27 6.74,49.91 0,4.5 -0.45,9.44 -1.35,14.84 7.64,10.34 14.84,22.03 20.69,35.51 8.09,15.74 17.53,30.12 27.87,42.71 10.79,12.59 25.18,21.13 43.61,25.63l8.99 0c24.73,0 49.46,-4.05 73.73,-12.59 24.73,-8.09 47.66,-17.98 68.79,-29.68 33.27,-19.33 64.29,-41.81 93.51,-68.33 9.45,-8.09 19.33,-15.74 28.78,-23.83 4.5,-5.4 9.44,-10.34 14.39,-15.74 36.86,-40.46 71.48,-82.73 104.3,-126.33 6.74,-11.69 14.39,-23.38 22.48,-35.52 14.84,-22.93 28.77,-45.41 41.81,-67.44 3.6,-5.84 8.09,-14.84 13.49,-26.08 4.05,-12.59 9.44,-23.83 15.74,-34.17 5.84,-10.79 12.59,-16.18 19.79,-16.18 3.6,0 7.19,2.25 11.69,6.74 3.6,2.69 5.4,8.54 5.4,17.08 0,12.14 -2.7,28.32 -8.1,48.1 -5.39,19.79 -11.23,36.87 -18.43,50.81 -11.24,46.31 -27.88,92.16 -49.9,137.12 -4.5,9.45 -9.44,18.88 -14.39,28.78 -14.39,33.27 -33.27,63.84 -56.65,90.81 -24.73,44.06 -54.4,84.08 -89.92,120.04 -3.15,4.94 -7.19,9.88 -11.69,14.38 -34.17,37.77 -73.74,68.34 -118.69,92.17 -19.34,15.74 -40.92,26.53 -65.65,32.37 -24.73,5.4 -48.55,8.54 -72.38,8.54l-12.14 0 -7.64 -1.35c-22.03,0 -44.51,-3.6 -67.89,-11.24 -23.37,-7.64 -42.26,-18.43 -57.09,-33.72l-13.49 0c-22.93,0 -44.51,-2.25 -65.19,-7.19 -20.68,-4.94 -40.01,-14.39 -58.45,-28.32l-9.44 0c-13.04,0 -23.83,-3.6 -31.92,-10.34 -8.55,-7.2 -16.19,-15.29 -23.38,-25.18 -6.74,-9.44 -14.84,-17.98 -23.38,-25.17 -31.92,-56.2 -47.65,-114.19 -47.65,-174.89l0 -12.14c0.9,-12.14 1.79,-24.73 2.69,-38.22 0,-3.15 0,-6.74 0,-10.34 0,-35.07 8.09,-67.89 23.83,-98.91 3.6,-26.08 12.14,-50.8 26.08,-73.73 8.99,-15.74 16.19,-32.82 22.48,-51.25 10.79,-34.17 26.98,-66.54 48.55,-97.56 6.3,-9.44 12.6,-19.33 18.88,-28.77 10.34,-18.44 21.58,-35.52 34.17,-51.7 11.24,-14.84 22.03,-30.57 31.47,-47.21 6.3,-8.09 11.69,-15.74 17.09,-23.83 18.43,-25.18 39.11,-50.8 62.04,-76.43 10.34,-13.04 21.58,-25.63 32.82,-38.22l23.83 -26.08c11.24,-12.59 22.48,-25.17 32.82,-38.22 2.69,-3.6 5.84,-7.19 8.99,-10.79 9.89,-12.13 20.68,-23.83 32.37,-34.61 12.13,-11.24 25.17,-19.33 40.46,-24.28 14.84,-18.43 34.62,-31.92 58.9,-39.56 24.73,-8.09 49,-12.14 72.83,-12.14zm-34.61 141.18l-2.25 0c-3.6,0 -7.2,1.35 -9.89,4.04 -3.15,2.25 -6.3,4.95 -8.55,7.64 -3.6,3.6 -6.74,6.74 -9.44,9.44l-59.35 66.99c-33.27,44.96 -61.59,93.06 -84.07,144.76 -7.2,15.74 -13.94,32.37 -19.79,49.01 -2.69,6.74 -5.4,13.93 -8.09,21.12 -0.9,4.05 -3.15,8.55 -6.3,13.04 -3.6,4.5 -5.39,8.09 -5.39,11.69l0 1.35c3.6,-0.89 6.29,-2.25 8.99,-4.5 2.69,-2.25 4.94,-4.94 6.74,-8.54 0.89,-2.7 2.25,-4.5 4.04,-5.4 1.8,-0.9 4.05,-1.35 6.3,-1.35 2.69,-0.9 4.94,-1.8 6.74,-3.15 1.79,-1.35 2.69,-3.6 2.69,-7.19l0 -1.35c6.3,-8.99 12.59,-17.09 19.79,-25.18l15.74 -15.74c7.19,-8.09 13.49,-16.18 19.78,-25.17 0.9,-0.9 1.8,-1.8 2.7,-2.25 5.39,-10.79 12.13,-19.33 21.12,-26.53 4.05,-13.03 10.79,-25.17 19.79,-35.51 1.79,-2.69 3.15,-5.4 4.94,-8.09 3.6,-4.05 6.74,-9.45 9.45,-15.74 2.69,-7.2 6.74,-12.59 11.69,-17.08 5.4,-6.3 8.99,-13.04 10.79,-21.13 0.9,-6.3 2.7,-11.24 4.95,-15.74 2.69,-6.3 5.84,-12.59 9.44,-19.79 11.24,-22.03 20.69,-45.41 27.43,-69.68zm-269.76 211.75l-2.69 0c-0.9,0 -1.35,0.45 -1.35,0.9 0,0.45 0,0.9 0,1.8 0,0.9 0.45,2.25 1.35,3.6 0.9,1.35 1.8,1.8 2.69,1.8 1.8,0 3.15,0 4.05,-0.45 0.9,-0.45 1.35,-1.35 1.35,-2.25 0,-0.9 -0.45,-1.79 -1.35,-2.69 -0.9,-0.9 -2.25,-1.8 -4.05,-2.7zm616.39 176.69c-1.8,0 -2.69,0.9 -2.69,2.69 0,1.8 0.45,3.15 1.35,4.05 0.9,0.9 2.25,1.35 4.04,1.35 0.9,0 1.8,-0.45 2.7,-0.9 0.9,-0.45 1.35,-0.45 1.35,-0.45 0,-0.9 -0.45,-1.8 -1.35,-2.69 -0.9,-0.9 -1.8,-1.8 -2.7,-2.7 -0.89,-0.9 -1.79,-1.35 -2.69,-1.35zm-802.06 201.42c-1.8,0.89 -3.15,4.5 -3.6,9.88 -0.45,5.85 -0.45,12.6 -0.45,20.69 0,11.24 0.45,22.48 1.8,34.17 1.35,11.24 3.15,18.43 4.94,21.13 3.15,4.94 4.94,9.89 4.94,14.39l0 2.69c0,3.6 1.36,6.74 4.05,10.34 1.8,1.8 3.15,4.94 4.5,9.44 1.35,4.05 2.25,8.55 2.25,13.04 0.9,5.4 2.69,9.44 4.94,12.59 2.7,3.15 5.4,4.5 8.1,4.5 2.69,0 4.94,-1.79 6.74,-5.4 0.89,-1.79 1.35,-3.6 1.35,-6.29 0,-3.6 -0.9,-6.74 -2.7,-9.45 -1.79,-2.69 -3.6,-4.5 -4.5,-6.29 -1.35,-1.8 -3.14,-2.7 -4.94,-2.7 -0.9,0 -1.8,-1.35 -3.15,-4.04 -1.35,-2.7 -1.79,-5.84 -1.79,-9.44 0,-4.05 -0.45,-8.1 -1.36,-10.79 -0.89,-3.15 -2.25,-5.84 -4.04,-7.64 -1.8,-2.25 -3.15,-6.74 -4.5,-13.03 -1.35,-6.3 -2.7,-12.6 -3.6,-19.79 -1.8,-26.98 -3.6,-45.86 -4.95,-56.65 0,-0.9 0,-1.35 0,-1.35l-4.04 0zm55.3 165.9c-0.9,0 -1.8,0.9 -2.7,2.69 -0.89,1.8 -1.35,4.05 -1.35,6.74 0,4.5 0.9,7.64 2.7,10.34 1.79,2.7 4.04,4.05 6.29,4.05 2.7,0 4.95,-2.25 6.74,-6.74l0 -2.25c0,-3.6 -0.9,-6.74 -3.15,-9.89 -2.25,-3.15 -4.94,-4.94 -8.54,-4.94zm1.35 81.82l-12.14 0 12.14 9.45c3.6,2.25 7.19,4.94 11.24,7.19 3.6,2.25 6.74,3.15 8.54,3.15 4.05,0 6.3,-0.45 6.3,-1.35 0,-1.8 -2.25,-4.95 -6.3,-8.99 -1.79,-2.7 -4.94,-4.95 -8.54,-6.74 -4.05,-1.8 -7.64,-2.7 -11.24,-2.7zm1405.41 -980.1c15.74,0 31.47,0.45 47.65,1.35 5.84,0.9 13.03,1.8 20.68,2.7 22.93,1.79 44.96,5.84 66.54,12.59 21.58,6.74 35.52,18.88 41.81,37.31 0.9,1.8 0.9,4.05 0.9,6.74 0,10.79 -7.19,19.33 -21.58,25.63 -14.39,6.74 -31.03,12.59 -49.46,17.98 -21.58,5.39 -40.01,11.69 -53.95,19.78 -28.77,6.74 -56.65,17.08 -83.62,31.03 -26.52,13.49 -49,32.82 -66.54,58.45 -16.64,15.74 -24.73,33.71 -24.73,53.94 0,24.73 5.84,49.46 18.44,75.08 3.14,8.09 6.29,15.74 8.99,23.83 1.79,14.84 6.74,30.12 14.38,45.86 8.99,16.64 13.49,32.36 13.49,46.31l0 4.04c21.58,20.23 38.67,44.51 49.91,73.74 8.54,17.53 18.43,34.17 28.77,49.9 31.03,46.76 56.2,95.32 76.43,146.12 7.19,23.83 10.79,48.1 10.79,72.38 0,54.4 -14.84,106.1 -43.6,154.21 -29.68,56.19 -71.94,99.36 -126.33,129.93 -54.41,30.12 -112.85,47.65 -175.34,51.7 -5.4,0.89 -10.79,1.35 -17.08,1.35 -8.09,1.79 -15.74,2.69 -23.83,2.69 -4.05,0 -8.99,-0.45 -14.39,-1.35 -8.54,0.9 -17.08,1.35 -25.17,1.35 -30.57,0 -60.7,-4.94 -90.82,-14.84 -29.67,-10.34 -58.89,-21.13 -86.77,-32.37 -45.85,-22.03 -88.12,-35.07 -127.68,-39.56 -4.5,0.9 -8.54,1.35 -12.14,1.35 -25.17,0 -44.96,-10.79 -58.89,-32.36 -14.39,-21.58 -22.93,-44.06 -26.52,-67.89 -0.9,-5.85 -1.36,-12.6 -1.36,-19.79 0,-24.28 7.2,-47.65 21.13,-69.69 13.94,-22.03 30.12,-40.91 48.55,-56.65 39.56,-33.27 85.42,-58.45 137.13,-75.08 11.24,-7.19 21.13,-10.34 28.77,-10.34 14.39,0 24.28,8.55 29.68,25.63 5.84,17.08 8.54,33.27 8.54,49.46 0,5.84 -0.45,11.24 -0.9,15.74 28.78,60.24 76.43,95.31 143.42,103.85 29.67,13.03 60.69,19.78 92.16,19.78 33.27,0 64.29,-9.44 93.51,-28.77 12.14,-13.49 18.44,-27.88 18.44,-43.61 0,-13.93 -4.05,-28.77 -11.69,-44.06 -8.09,-15.28 -17.08,-30.57 -26.52,-45.41 -8.09,-11.69 -14.39,-22.48 -19.79,-33.27 -27.88,-44.51 -62.04,-84.97 -101.61,-120.94 -13.04,-17.53 -26.52,-34.17 -40.46,-49.9 -27.42,-29.22 -50.35,-60.7 -68.79,-94.86 -41.36,-52.6 -61.59,-109.7 -61.59,-171.29 0,-33.27 8.09,-65.64 24.72,-96.21 6.3,-22.93 16.64,-44.06 31.93,-63.4 14.84,-19.33 29.67,-36.86 44.51,-52.6 11.69,-13.94 24.73,-24.28 39.56,-30.12 14.84,-6.3 30.57,-11.24 47.66,-14.39 18.43,-4.5 35.96,-10.79 52.6,-18.43 65.64,-21.13 132.63,-32.82 200.07,-34.62zm18.43 94.86l-4.05 0c-4.5,2.7 -6.29,4.5 -6.29,5.4 0,0.9 1.35,1.35 3.6,1.35 2.69,0 5.4,-1.35 8.09,-4.04l0 -1.35c0,-0.9 -0.45,-1.36 -1.35,-1.36zm-339.88 150.16c0,0 0,0.45 -0.45,0.9 -0.45,0.45 -0.9,0.9 -1.35,1.8 -0.45,0.9 -1.35,1.79 -2.25,2.69 -0.9,0.9 -1.35,1.8 -1.35,2.7 0,1.79 0.9,2.69 2.69,2.69 1.8,0 3.15,-0.9 4.05,-2.25 0.9,-1.35 1.35,-2.25 1.35,-3.15 0,-1.79 0,-3.15 -0.45,-4.04 -0.45,-0.9 -1.36,-1.36 -2.25,-1.36zm1.35 27.88c-2.7,0 -4.05,3.15 -4.05,8.99 -0.9,3.6 -1.35,6.74 -1.35,9.45 0,2.69 0.9,4.5 2.25,5.39 1.35,0.45 3.6,0.9 7.19,0.9 1.8,0 3.15,-0.45 4.5,-2.25 1.36,-1.79 2.25,-3.6 2.25,-5.4 0,-2.69 -0.89,-5.39 -2.25,-8.09 -1.35,-2.69 -2.69,-4.5 -4.5,-6.29 -0.89,-0.9 -1.79,-1.8 -2.25,-2.25 -0.45,-0.45 -0.89,-0.45 -1.79,-0.45zm14.39 42.27l-2.7 0 0 1.35c0,1.35 0.9,3.6 2.7,6.29 1.79,2.7 4.04,4.05 6.74,4.05 1.79,0 2.69,-0.45 2.69,-1.35 0,-0.9 -0.9,-2.7 -2.69,-5.4 -3.6,-3.6 -5.85,-4.94 -6.74,-4.94zm5.39 26.08c-0.89,0 -1.35,0.45 -1.35,1.35 0,0.9 0.9,2.25 1.8,4.05 1.35,1.79 3.6,3.6 6.29,5.39 7.64,7.64 11.69,15.74 11.69,23.38 0,4.5 -1.8,8.55 -5.4,12.14 -1.8,1.79 -2.25,3.6 -2.25,4.94 0,5.4 7.64,8.99 23.38,10.79 2.69,0 4.04,-0.45 4.04,-1.35 0,-0.9 -1.35,-2.7 -4.04,-5.4 -1.8,-3.6 -2.7,-7.2 -2.7,-11.69l0 -5.39c0.9,-1.8 1.35,-3.6 1.35,-5.4 0,-4.94 -3.6,-11.24 -11.69,-18.43 -4.5,-4.05 -8.54,-7.64 -12.59,-10.35 -4.05,-2.69 -6.74,-4.04 -8.55,-4.04zm60.7 110.6c-1.79,0 -3.6,0.45 -5.4,1.35 -1.79,0.9 -3.14,2.25 -4.04,4.05l0 1.35c0,1.79 3.15,2.69 9.44,2.69 5.84,0 9.45,-0.9 10.34,-2.69l-1.35 -1.35c-0.9,-1.8 -2.25,-3.15 -3.6,-4.05 -1.8,-0.9 -3.6,-1.35 -5.4,-1.35zm193.33 311.11c-0.45,0 -1.36,0.45 -1.8,1.79 -0.45,1.36 -0.45,2.7 -0.45,4.5 0,1.8 0.45,4.05 1.35,6.74 1.35,3.6 2.69,5.4 3.6,5.4 0.9,0 1.35,-1.8 1.35,-5.4 0.9,-1.79 1.35,-4.04 1.35,-6.74 0,-1.79 -0.45,-3.6 -1.35,-4.94 -0.9,-0.9 -1.35,-1.35 -1.79,-1.35 -0.45,0 -1.36,0 -2.25,0zm4.04 24.73c-0.9,0 -3.6,1.35 -7.64,4.04 -1.79,1.8 -2.69,3.6 -2.69,5.4 0,2.69 0.45,5.4 1.35,7.64 1.8,2.69 3.15,5.84 4.5,9.44 1.35,3.6 2.25,6.3 3.15,8.09 1.8,4.95 3.15,7.64 4.05,7.64 1.79,0 2.69,-4.5 2.69,-13.03l0 -12.14c-0.9,-5.84 -1.35,-10.34 -1.8,-13.04 -0.45,-2.69 -1.79,-4.04 -3.6,-4.04zm-557.04 93.51c-0.9,0 -2.25,2.25 -4.04,6.74l0 2.69c0,2.69 0.89,4.5 2.25,5.84 1.35,1.35 2.69,1.8 4.5,1.8 2.69,0 4.94,-1.35 6.74,-3.6l0 -1.36c0,-1.79 -0.45,-3.6 -1.36,-4.94 -0.89,-0.9 -1.79,-2.25 -2.69,-3.15 -1.8,-1.79 -3.15,-2.69 -4.05,-2.69 0,0 -0.45,-0.45 -1.35,-1.35zm9.45 67.43c-2.7,0 -5.85,0.45 -9.45,1.36 -1.79,0.89 -3.6,1.35 -5.4,1.35l-17.08 4.94 19.79 8.09c6.29,2.7 11.69,4.95 15.74,7.2 4.5,2.25 7.19,4.04 8.09,5.84 1.8,2.69 4.5,4.94 7.64,6.74 3.6,1.79 6.74,2.69 9.44,2.69 1.8,0 3.15,-0.45 4.05,-1.35l0 -1.35c0,-1.8 -0.45,-3.6 -0.9,-5.84 -0.45,-2.25 -1.35,-4.5 -3.15,-6.3 -1.79,-3.15 -4.04,-6.29 -7.19,-8.54 -3.15,-1.8 -5.4,-3.15 -7.2,-3.15 -1.79,0 -3.6,-0.45 -5.39,-1.8 -1.8,-1.35 -3.15,-3.15 -4.05,-4.94l-4.94 -4.95zm1344.26 -806.1l-2.25 0c-3.6,0 -7.2,1.35 -9.89,4.04 -3.15,2.25 -6.3,4.95 -8.55,7.64 -3.6,3.6 -6.74,6.74 -9.44,9.44l-59.35 66.99c-33.27,44.96 -61.59,93.06 -84.07,144.76 -7.2,15.74 -13.94,32.37 -19.79,49.01 -2.69,6.74 -5.4,13.93 -8.09,21.12 -0.9,4.05 -3.15,8.55 -6.3,13.04 -3.6,4.5 -5.39,8.09 -5.39,11.69l0 1.35c3.6,-0.89 6.29,-2.25 8.99,-4.5 2.69,-2.25 4.94,-4.94 6.74,-8.54 0.89,-2.7 2.25,-4.5 4.04,-5.4 1.8,-0.9 4.05,-1.35 6.3,-1.35 2.69,-0.9 4.94,-1.8 6.74,-3.15 1.79,-1.35 2.69,-3.6 2.69,-7.19l0 -1.35c6.3,-8.99 12.59,-17.09 19.79,-25.18l15.74 -15.74c7.19,-8.09 13.49,-16.18 19.78,-25.17 0.9,-0.9 1.8,-1.8 2.7,-2.25 5.39,-10.79 12.13,-19.33 21.12,-26.53 4.05,-13.03 10.79,-25.17 19.79,-35.51 1.79,-2.69 3.15,-5.4 4.94,-8.09 3.6,-4.05 6.74,-9.45 9.45,-15.74 2.69,-7.2 6.74,-12.59 11.69,-17.08 5.4,-6.3 8.99,-13.04 10.79,-21.13 0.9,-6.3 2.7,-11.24 4.95,-15.74 2.69,-6.3 5.84,-12.59 9.44,-19.79 11.24,-22.03 20.69,-45.41 27.43,-69.68zm-269.76 211.75l-2.69 0c-0.9,0 -1.35,0.45 -1.35,0.9 0,0.45 0,0.9 0,1.8 0,0.9 0.45,2.25 1.35,3.6 0.9,1.35 1.8,1.8 2.69,1.8 1.8,0 3.15,0 4.05,-0.45 0.9,-0.45 1.35,-1.35 1.35,-2.25 0,-0.9 -0.45,-1.79 -1.35,-2.69 -0.9,-0.9 -2.25,-1.8 -4.05,-2.7zm-185.67 378.11c-1.8,0.89 -3.15,4.5 -3.6,9.88 -0.45,5.85 -0.45,12.6 -0.45,20.69 0,11.24 0.45,22.48 1.8,34.17 1.35,11.24 3.15,18.43 4.94,21.13 3.15,4.94 4.94,9.89 4.94,14.39l0 2.69c0,3.6 1.36,6.74 4.05,10.34 1.8,1.8 3.15,4.94 4.5,9.44 1.35,4.05 2.25,8.55 2.25,13.04 0.9,5.4 2.69,9.44 4.94,12.59 2.7,3.15 5.4,4.5 8.1,4.5 2.69,0 4.94,-1.79 6.74,-5.4 0.89,-1.79 1.35,-3.6 1.35,-6.29 0,-3.6 -0.9,-6.74 -2.7,-9.45 -1.79,-2.69 -3.6,-4.5 -4.5,-6.29 -1.35,-1.8 -3.14,-2.7 -4.94,-2.7 -0.9,0 -1.8,-1.35 -3.15,-4.04 -1.35,-2.7 -1.79,-5.84 -1.79,-9.44 0,-4.05 -0.45,-8.1 -1.36,-10.79 -0.89,-3.15 -2.25,-5.84 -4.04,-7.64 -1.8,-2.25 -3.15,-6.74 -4.5,-13.03 -1.35,-6.3 -2.7,-12.6 -3.6,-19.79 -1.8,-26.98 -3.6,-45.86 -4.95,-56.65 0,-0.9 0,-1.35 0,-1.35l-4.04 0zm55.3 165.9c-0.9,0 -1.8,0.9 -2.7,2.69 -0.89,1.8 -1.35,4.05 -1.35,6.74 0,4.5 0.9,7.64 2.7,10.34 1.79,2.7 4.04,4.05 6.29,4.05 2.7,0 4.95,-2.25 6.74,-6.74l0 -2.25c0,-3.6 -0.9,-6.74 -3.15,-9.89 -2.25,-3.15 -4.94,-4.94 -8.54,-4.94zm1.35 81.82l-12.14 0 12.14 9.45c3.6,2.25 7.19,4.94 11.24,7.19 3.6,2.25 6.74,3.15 8.54,3.15 4.05,0 6.3,-0.45 6.3,-1.35 0,-1.8 -2.25,-4.95 -6.3,-8.99 -1.79,-2.7 -4.94,-4.95 -8.54,-6.74 -4.05,-1.8 -7.64,-2.7 -11.24,-2.7zm-2535.67 -1658.07c-1.79,0 -3.6,0.45 -5.4,0.9 -0.45,0 -1.35,0 -2.25,0 -1.79,0 -2.69,0.45 -2.69,1.35 0,0.9 3.6,1.35 10.34,1.35 6.3,0 9.89,-0.45 10.79,-1.35 0,-0.9 -0.9,-1.35 -2.7,-1.35 -0.89,0 -1.79,0 -2.69,0 -1.8,-0.45 -3.6,-0.9 -5.4,-0.9zm-60.7 6.3c-1.35,0.89 -2.25,1.35 -2.25,1.35 0,0.9 2.25,1.79 7.64,2.69 6.3,0 9.89,-0.45 10.79,-1.35 0,-0.9 -0.45,-1.35 -1.36,-1.35 -0.89,-0.9 -1.79,-1.35 -2.69,-1.35l-12.14 0zm189.73 109.24c-10.35,0 -17.54,1.36 -21.13,4.05 -1.35,1.8 -4.95,7.19 -9.89,15.74 -4.5,8.99 -9.44,18.88 -13.49,30.57 -5.4,12.14 -11.69,26.98 -19.33,44.51 -7.19,17.53 -14.84,34.17 -22.93,49 -7.2,13.93 -13.04,26.98 -18.44,38.66 -5.4,12.14 -8.99,19.79 -10.34,22.93 -1.79,3.6 -4.5,9.44 -8.09,17.08 -2.69,6.29 -5.4,12.14 -8.09,17.53 -3.15,6.74 -9.45,20.69 -18.44,41.36 -8.54,20.68 -18.43,43.16 -28.77,67.89 -10.79,24.28 -19.33,45.41 -26.53,62.5 -6.74,17.08 -11.24,26.52 -13.03,28.32 -0.9,0.9 -1.8,2.25 -2.7,4.5 -0.89,2.25 -1.79,4.5 -2.69,7.19 0,0 0,0.45 0,1.35 0,2.7 -0.45,5.4 -1.35,8.1 -0.9,2.69 -1.8,4.94 -2.7,6.29l-2.25 2.69c-0.89,1.8 -1.79,3.6 -2.69,5.4 -0.9,3.6 -1.8,6.3 -2.69,8.09 -0.9,4.05 -7.64,19.79 -19.79,46.76 -12.14,26.52 -26.98,57.99 -43.61,94.86 -16.63,36.41 -32.36,70.13 -47.2,102.06 -8.99,18.43 -17.54,36.41 -25.63,53.94 -8.55,17.54 -14.39,30.57 -17.98,39.56 -2.69,7.64 -5.4,14.84 -7.64,20.69 -2.69,6.29 -4.5,9.89 -5.4,10.79 -0.89,0.9 -2.69,4.05 -5.39,8.99 -2.7,5.4 -5.4,12.14 -7.64,19.79 -2.7,7.19 -6.3,15.74 -10.79,25.17 -4.5,9.89 -8.09,17.98 -11.69,25.18 -8.09,15.73 -12.14,25.62 -12.14,30.12 0,2.7 1.35,4.05 4.05,4.05 2.69,0 8.09,-1.8 15.74,-5.4 8.09,-2.69 13.03,-4.05 14.84,-4.05l0.9 0c0,0 0.89,-0.45 2.25,-1.35 1.35,-0.9 2.69,-1.79 4.5,-3.6 4.5,-5.4 10.34,-8.99 17.08,-10.79 2.69,-0.89 5.84,-2.25 9.44,-4.49 3.6,-2.25 5.84,-4.5 7.64,-7.2 1.79,-1.79 3.6,-3.6 5.4,-5.4 1.79,-1.79 3.14,-2.69 4.04,-2.69 1.8,0 4.5,-0.9 7.64,-3.15 3.6,-2.25 7.19,-4.5 10.79,-7.19 3.6,-2.7 6.74,-5.4 9.88,-8.09 3.15,-2.7 4.5,-4.5 4.5,-5.4 0,-1.35 0.9,-2.7 2.7,-3.6 1.79,-0.9 4.04,-1.36 6.74,-1.36 2.25,0 4.94,-0.45 7.19,-1.35 2.25,-0.9 3.6,-2.25 4.5,-4.04 0.9,-1.8 3.6,-4.05 8.55,-6.74 4.94,-2.25 10.34,-4.95 16.63,-7.64 5.85,-2.69 10.79,-5.4 14.84,-8.09 4.04,-2.7 5.84,-4.5 5.84,-4.95 0,-0.89 1.35,-2.69 4.04,-4.94 2.7,-2.25 6.3,-3.6 10.79,-4.5 9.44,-4.5 15.28,-8.55 17.08,-13.04 0,-3.6 1.35,-7.19 4.05,-10.79 2.25,-3.15 4.94,-4.95 7.64,-4.95 0.9,0 1.8,0.45 2.7,1.36l1.35 0.89 1.35 0c0,-0.89 -0.45,-1.79 -1.35,-3.6 0,-1.79 1.8,-4.5 5.4,-7.19 3.15,-3.15 7.64,-6.3 12.14,-8.55 4.94,-2.69 8.99,-4.04 11.24,-4.04l1.35 0c0.9,0 1.79,-0.9 2.69,-2.7 0.9,-1.79 1.8,-4.04 2.69,-6.74 1.8,-3.6 3.6,-6.29 5.4,-8.54 1.8,-2.25 3.15,-3.15 4.05,-3.15 1.35,0 4.04,-1.35 7.64,-3.15 3.6,-2.25 6.74,-5.4 9.44,-8.99 2.25,-2.25 5.84,-5.4 9.89,-8.99 3.6,-3.6 7.64,-6.29 10.79,-8.09 2.7,-0.9 4.95,-2.25 6.3,-4.5 1.35,-2.25 1.8,-3.6 1.8,-4.5l0 -2.69c0,-0.9 1.35,-2.25 3.14,-4.05 2.25,-1.79 4.95,-3.15 7.64,-4.04 2.25,-0.9 4.94,-2.25 7.19,-4.5 2.25,-2.25 3.15,-3.6 3.15,-4.5l0 -1.36c0,-0.89 -0.45,-1.35 -1.35,-1.35 -0.9,0 -1.8,0.45 -2.69,1.35l-1.36 0c0,-0.89 1.36,-3.14 4.05,-6.74 2.69,-1.79 4.94,-3.14 7.19,-4.94 2.25,-1.8 3.6,-2.69 4.5,-2.69 1.8,0 3.6,-1.36 5.4,-3.6 1.8,-1.79 3.6,-4.94 5.4,-8.54 1.8,-3.15 4.05,-6.3 6.3,-8.55 2.69,-2.25 4.5,-3.15 5.39,-3.15 0.9,0 1.8,-0.45 2.7,-1.79 0.9,-1.35 1.35,-2.7 1.35,-3.6 0.9,-1.8 1.8,-2.7 2.69,-3.6 0.9,-0.89 1.8,-1.35 2.7,-1.35 1.79,0 3.6,-1.35 4.94,-4.04 0.9,-0.9 1.8,-1.8 2.7,-2.7l5.39 -10.34c0.9,-0.9 1.8,-2.25 2.7,-4.04 1.79,-1.8 3.14,-2.7 4.04,-2.7 2.25,0 6.3,-3.15 11.24,-9.89 4.5,-6.74 9.89,-15.28 14.84,-25.62 1.8,-4.5 4.5,-8.1 7.2,-11.24 3.15,-3.15 5.4,-4.5 6.29,-4.5 1.36,0 4.5,-2.25 8.99,-6.74 4.5,-4.5 8.1,-9.45 11.24,-14.39 3.15,-5.4 4.5,-8.99 4.5,-10.79l0 -2.69c0,-0.9 0.9,-1.8 2.25,-3.15 0.9,-1.35 2.7,-2.25 4.5,-3.15 4.5,-2.69 6.3,-4.5 6.3,-5.39l0 -2.7c0,-1.79 1.79,-5.4 4.94,-10.34 3.15,-5.4 6.74,-11.24 11.24,-17.08 14.84,-21.13 27.88,-41.81 38.66,-61.6 11.24,-19.78 17.09,-32.82 17.98,-40.01 0.9,-1.8 1.8,-3.15 2.25,-4.5 0.9,-1.35 2.25,-3.15 4.05,-4.5 2.69,-3.6 4.94,-8.09 6.74,-13.49 1.8,-5.84 4.05,-11.69 6.74,-17.08 1.35,-1.8 3.6,-5.4 5.84,-11.24 2.25,-5.4 4.05,-12.14 5.84,-18.88 1.8,-6.3 3.6,-12.59 5.4,-19.33 1.8,-6.3 3.15,-11.69 4.95,-14.84 1.79,-2.7 3.6,-6.3 4.94,-11.24 1.35,-4.95 2.25,-9.45 3.15,-13.94 0.89,-4.5 1.79,-8.09 2.69,-10.34 0.9,-2.69 1.8,-4.5 2.69,-5.4 3.15,-2.69 5.4,-30.12 6.3,-81.82 0,-6.74 0.45,-13.49 0.9,-18.88 0.45,-5.84 0.45,-9.89 0.45,-12.59 0,-1.8 0,-2.69 0,-2.69 0,-1.8 0,-3.15 -0.45,-4.5 -0.45,-1.36 -1.35,-2.7 -2.25,-3.6 -0.9,-1.35 -1.35,-4.04 -1.35,-7.64l0 -12.14c0,-3.15 -0.9,-8.55 -2.25,-14.84 -1.8,-6.74 -4.05,-12.59 -6.74,-17.98 -2.7,-4.95 -4.95,-7.64 -6.74,-7.64 -0.9,0 -2.25,-1.8 -4.5,-5.4 -2.25,-3.6 -4.95,-8.09 -8.55,-13.03 -6.29,-11.69 -9.89,-17.08 -11.69,-17.08l-1.35 0c-1.8,0 -4.95,-1.36 -8.55,-4.05 -4.05,-2.69 -7.64,-5.84 -10.79,-9.44 -3.14,-3.6 -4.5,-6.3 -4.5,-8.99 0,-0.9 -0.45,-1.8 -1.35,-2.7 -0.9,-0.9 -2.25,-1.35 -4.04,-1.35 -0.9,0 -2.25,-0.9 -4.05,-2.69 -1.35,-1.8 -3.15,-3.6 -4.94,-5.4 -1.8,-3.15 -7.64,-6.3 -17.08,-8.99 -9.89,-2.7 -21.13,-4.95 -33.72,-6.74 -12.6,-1.8 -24.28,-2.7 -35.07,-2.7zm324.15 58c-0.9,0 -1.8,0.45 -2.69,0.9 -0.9,0.45 -1.36,0.45 -1.36,0.45l0 1.35c0.9,1.8 3.15,3.15 6.74,4.05 3.6,0.9 6.74,1.35 8.99,1.35 1.8,0 3.15,0 4.05,0 0.9,0 1.35,-0.45 1.35,-1.35 0,-0.9 -0.9,-1.8 -3.15,-2.7 -2.25,-0.89 -4.94,-1.79 -8.54,-2.69 -0.9,0 -1.8,-0.45 -2.7,-1.35 -0.89,0 -1.79,0 -2.69,0zm29.22 33.27c-1.8,0 -2.69,0.9 -2.69,3.6 0,0.89 0.45,2.25 1.35,3.6 0.9,1.35 1.79,1.79 3.6,1.79 0.9,0 1.79,0 2.69,-0.45 0.9,-0.45 1.35,-1.35 1.35,-2.25 0,-0.9 -0.45,-1.8 -1.35,-2.69 -0.9,-0.9 -1.79,-1.8 -2.69,-2.7 -0.9,-0.9 -1.8,-0.9 -2.25,-0.9zm4.94 15.74c-0.9,0 -1.35,1.8 -1.35,4.95 0,4.5 0.45,10.34 1.35,17.08 1.8,8.99 3.15,13.49 4.05,13.49 0.9,0 1.79,-1.8 2.69,-5.4 0.9,-2.69 1.35,-5.84 1.35,-8.99 0,-4.5 -0.89,-8.54 -2.69,-12.14 -0.9,-1.79 -1.35,-3.14 -1.35,-4.04 -1.8,-3.15 -3.15,-4.95 -4.05,-4.95zm-770.59 27.43c-1.8,0 -2.69,0.89 -2.69,2.69 0,0.9 0.45,1.8 1.35,2.69 0.9,1.8 1.79,3.15 2.25,4.05 0.45,0.9 0.9,1.35 1.79,1.35 0,0.9 0,1.35 0,1.35 0,0 0,0 0,0 0,0 0,0 0,0 0,0 0,0 0,0 0,0 0,0 0,0 0.9,0 1.8,-0.89 2.25,-2.25 0.45,-1.35 0.45,-2.69 0.45,-4.5 0,-1.79 -0.45,-3.14 -1.35,-4.04 -0.9,-0.9 -2.25,-1.35 -4.05,-1.35zm774.64 17.08c-0.9,0.9 -1.35,1.79 -1.8,2.25 -0.45,0.45 -0.9,1.35 -0.9,3.15 0,0.89 0.45,2.69 1.36,5.84 0.89,3.15 1.79,5.84 2.69,8.54 0.9,4.5 1.8,6.74 2.69,6.74 1.8,0 3.15,-1.35 4.05,-4.04 0.9,-3.6 0.9,-7.2 0.9,-10.34l0 -4.05c-3.15,-5.4 -6.3,-8.09 -8.99,-8.09zm1.35 39.56l-1.35 -2.69c-0.9,0 -1.35,0.45 -1.35,1.35l0 8.09c0,2.69 0.45,4.04 1.35,4.04l1.35 0c0.9,-1.79 1.35,-3.6 1.35,-5.39 0,-1.8 -0.45,-3.6 -1.35,-5.4zm-907.71 12.14c0,0 0,0 -0.45,0.45 -0.45,0.45 -0.9,0.9 -1.35,1.8 -0.45,0.89 -0.9,1.79 -1.8,2.69 -0.9,1.8 -1.35,3.15 -1.35,4.05 0,1.79 0.9,2.69 2.69,2.69 1.35,0 2.7,-0.9 3.6,-1.8 0.9,-1.35 1.36,-3.14 1.36,-4.94 0,-1.8 0,-3.15 -0.45,-4.05 -0.45,-0.45 -1.35,-0.89 -2.25,-0.89zm-269.75 62.94c-0.9,0 -2.25,0.45 -3.6,1.36 -0.9,0.89 -1.8,2.25 -1.8,4.04 0,0.9 0.45,1.8 0.45,3.15 0.45,1.35 1.35,2.25 2.25,2.25 0,0 0,-0.45 0.45,-0.9 0.45,-0.45 0.9,-0.9 1.35,-1.79 0.45,-0.9 1.35,-1.8 2.25,-2.7 0.9,-0.9 1.35,-1.79 1.35,-2.69 0,-1.8 -0.89,-2.7 -2.69,-2.7zm1189.15 81.83l-1.35 0c-0.9,1.8 -1.79,3.15 -2.69,4.5 -0.45,1.35 -0.9,2.69 -0.9,4.5 0,3.6 0.45,5.4 0.9,5.4 0.9,0 2.69,-3.15 5.4,-8.99l0 -5.4c0,0 -0.45,0 -1.36,0zm-1265.58 32.82l0 13.04c0.9,8.99 2.7,16.18 5.4,22.03 2.25,5.4 5.4,8.99 8.99,9.89 1.8,0 2.69,-1.35 2.69,-4.05 0,-1.79 -0.89,-4.04 -2.69,-6.74 -1.8,-2.69 -3.15,-5.84 -4.5,-10.34 -1.35,-4.5 -3.15,-8.99 -4.5,-13.49 -0.9,-3.14 -1.8,-5.84 -2.69,-7.64 -0.9,-1.8 -1.8,-2.7 -2.7,-2.7zm1251.2 4.05c-3.6,0 -5.4,2.25 -5.4,6.29 0,0.9 0,2.25 0,3.6 0,1.35 0.45,1.79 1.35,1.79 0.9,0 1.8,-0.45 2.69,-1.35 0.9,-0.9 1.8,-2.25 2.7,-4.05 0.9,-1.35 1.35,-2.69 1.35,-3.6 0,-1.79 -0.9,-2.69 -2.69,-2.69zm-688.77 88.12l-2.69 0c-0.9,1.79 -1.8,3.6 -2.7,5.4 -0.9,1.79 -1.35,3.14 -1.35,4.04 0,1.8 0.45,2.7 1.35,3.6 0.9,0.9 1.8,1.36 2.7,1.36 1.79,0 3.14,-0.9 4.04,-2.7 0.9,-1.35 1.35,-3.15 1.35,-4.94 0,-4.5 -0.89,-6.74 -2.69,-6.74zm-15.74 22.48l-1.35 1.35c-0.9,0.9 -1.35,1.8 -1.35,2.69l0 8.99c1.79,5.4 3.14,8.1 4.04,8.1 1.8,0 2.25,-4.05 2.25,-12.14 0,-2.25 0,-4.5 -0.45,-6.3 -0.45,-1.79 -1.35,-2.69 -3.15,-2.69zm628.07 15.74c-2.69,0 -5.4,1.35 -7.64,4.04 -1.79,2.7 -2.69,4.5 -2.69,5.4l1.35 0c0.9,0 2.25,-0.45 4.94,-1.35 3.6,-1.8 5.4,-4.05 5.4,-6.74l0 -1.35 -1.35 0zm-654.6 52.6l-1.35 0c-1.79,0 -4.5,1.8 -7.64,4.95 -3.6,2.69 -6.74,6.29 -9.44,10.34 -2.69,4.05 -4.04,6.74 -4.04,8.55 0,1.79 0.89,2.69 2.69,2.69 2.69,0 7.64,-4.05 14.39,-11.69 1.79,-2.7 3.14,-5.4 4.04,-7.64 0.9,-1.8 1.35,-4.05 1.35,-5.84l0 -1.36zm595.25 26.53c-0.9,0 -1.79,0.9 -2.69,2.69 -0.45,1.8 -0.9,4.05 -0.9,6.3 0,3.6 0.45,5.4 0.9,5.4 0.9,0 1.35,0 1.35,0l1.35 0c1.8,-0.9 3.15,-2.25 4.05,-4.5 0.9,-2.25 1.35,-3.6 1.35,-4.5 0,-1.8 -0.45,-3.15 -1.35,-4.05 -0.9,-0.9 -2.25,-1.35 -4.05,-1.35zm-619.08 13.03c-0.89,0.9 -1.79,1.8 -2.69,2.7 -0.45,0.9 -0.9,2.25 -0.9,4.04 0,5.85 0.9,8.99 2.25,8.99 0.9,0 2.7,-1.79 5.4,-4.94l0 -2.69c0,-1.8 -0.9,-4.05 -2.69,-6.74 0,0 0,0 -0.45,0 -0.45,0 -0.9,-0.45 -0.9,-1.36zm-7.64 27.88c-0.9,0 -3.15,1.35 -6.74,3.6 -1.8,2.7 -2.7,4.5 -2.7,5.4 0.9,0 2.7,-0.45 5.4,-1.35 4.5,-1.8 6.74,-3.6 6.74,-6.3l0 -1.35 -2.69 0zm-19.79 22.48c-0.9,0 -2.25,0 -3.6,0.9 -0.9,0.9 -1.8,2.25 -1.8,4.05 0,1.79 0.9,3.14 1.8,4.04 1.35,0.9 2.69,1.35 3.6,1.35 1.8,0 3.15,-0.45 4.05,-1.35 0.89,-0.9 1.35,-2.25 1.35,-4.04 0,-1.8 -0.45,-3.15 -1.35,-4.05 -0.9,-0.9 -2.25,-0.9 -4.05,-0.9zm-17.08 31.47c0,0 -0.9,0.45 -2.7,1.35 -1.79,0.9 -3.6,2.25 -5.39,4.05 -0.9,0.45 -1.8,1.35 -2.7,2.25 -3.6,1.79 -5.84,3.6 -7.64,5.4 -1.8,1.79 -2.7,3.6 -2.7,5.39 0,1.8 0.9,4.5 2.7,7.64l0 1.35c1.79,3.6 3.6,5.4 4.94,5.4 1.79,0 3.6,-1.35 5.4,-4.04 0.89,-0.9 1.35,-3.15 1.35,-6.3l0 -5.4c0,-1.79 0.45,-4.04 1.35,-6.74 0.9,-3.6 2.25,-5.84 4.05,-7.64 0.89,-0.89 1.35,-1.79 1.35,-2.69zm-60.7 127.68c-1.8,0 -3.15,1.35 -4.5,4.5 -1.35,3.15 -2.25,6.74 -2.25,11.24 0,1.8 0.45,4.05 1.35,6.74l2.7 14.39 5.39 -15.74c1.8,-6.3 2.7,-11.24 2.7,-14.39 0,-2.69 -0.45,-4.5 -1.35,-5.4 -0.9,-0.89 -1.8,-1.35 -2.25,-1.35 -0.45,0 -0.9,0 -1.8,0zm-59.35 143.42l-1.35 1.36c-1.79,1.79 -3.6,4.94 -5.4,9.88 -1.35,4.95 -2.25,8.55 -2.25,11.24 0,3.6 0.9,5.4 2.25,5.4 0.9,0 2.25,-0.9 3.6,-2.69 1.35,-1.8 2.25,-4.05 3.14,-6.74 1.8,-5.84 2.7,-10.34 2.7,-13.04 0,-3.6 -0.9,-5.4 -2.7,-5.4zm-217.15 517.93c-0.9,0 -2.25,1.35 -3.6,4.5 -1.36,3.14 -2.25,6.74 -3.15,11.24l0 7.64c0,4.5 0.45,6.74 1.35,6.74 1.8,0 4.05,-5.39 6.74,-15.74l0 -13.03c0,-0.9 -0.45,-1.35 -1.35,-1.35zm-6.74 40.46c-2.7,0 -4.05,1.35 -4.05,4.04 0,1.8 0.9,3.6 2.25,4.95 1.35,0.89 2.25,1.79 3.15,1.79 1.8,0 3.15,-0.45 4.05,-0.9 0.89,0 1.35,-0.89 1.35,-1.79 0,-0.9 -0.45,-1.8 -1.35,-3.15 -0.9,-1.35 -2.25,-2.69 -4.05,-3.6l-1.35 0 0 -1.35zm-2.7 43.6c-2.69,0.9 -4.04,1.8 -4.04,2.7 0,1.79 1.79,4.94 5.4,9.44 3.6,4.94 5.39,9.44 5.39,13.04 0,6.29 -3.6,9.44 -10.79,10.34 -3.15,0 -4.94,0.45 -4.94,1.35 0,0.9 2.25,3.15 6.29,6.74 6.3,5.4 10.79,7.64 13.49,7.64 1.8,0 3.15,-0.9 4.94,-3.6 0.9,-0.9 1.36,-2.7 1.36,-5.4 0,-4.5 -0.9,-9.89 -3.15,-16.64 -2.25,-6.3 -4.5,-12.14 -6.74,-17.54 -2.25,-5.39 -4.5,-8.09 -7.2,-8.09zm18.44 52.6c-0.9,0 -3.6,3.15 -7.64,9.44 -1.8,3.6 -2.69,6.74 -2.69,10.34 0,1.8 0.45,4.05 1.35,6.74 3.6,4.5 5.84,6.74 7.64,6.74 2.69,0 4.04,-5.39 4.04,-16.18 0,-11.24 -0.9,-17.08 -2.69,-17.08 0,0 0,0 0,0zm2.69 44.96c-4.5,0 -6.74,1.35 -6.74,4.04 0,3.6 4.05,10.35 12.14,21.13 5.84,7.64 8.99,13.49 8.99,17.08 0,0.9 -0.45,1.8 -1.35,2.7 -2.25,0.89 -3.6,1.79 -3.6,3.6 0,1.79 0.89,4.04 2.25,6.74 3.6,5.4 6.74,8.09 9.44,8.09 2.69,0 4.05,-2.25 4.05,-6.74 0,-2.69 -0.45,-5.84 -1.36,-9.44 -0.89,-4.05 -2.25,-8.1 -3.14,-11.69 -1.36,-3.6 -2.7,-5.84 -3.6,-6.74 -0.89,-0.9 -1.79,-2.25 -3.14,-4.5 -1.36,-2.25 -2.25,-4.5 -3.15,-7.19 0,-1.8 -0.45,-3.15 -1.35,-4.05 -0.9,-3.14 -2.25,-6.29 -4.05,-8.99 -1.8,-2.69 -3.6,-4.04 -5.4,-4.04zm22.48 71.03c-0.9,0 -1.35,0.45 -1.79,0.9 -0.45,0.45 -0.9,0.89 -0.9,1.79 -0.9,0.9 -1.35,1.8 -1.35,2.7 0,0.89 0.45,1.79 1.35,2.69 0.9,0.9 1.79,1.8 2.69,2.69 4.5,2.25 7.64,3.6 8.99,3.6 2.7,0 4.05,-1.8 4.05,-4.95 0,-2.69 -1.35,-4.94 -4.5,-6.74 -3.15,-1.79 -5.84,-2.69 -8.55,-2.69zm13.04 31.92c-0.9,0 -1.35,0 -1.8,0.45 -0.45,0.45 -0.9,0.9 -0.9,1.8l0 2.69c2.7,4.5 5.4,6.74 8.1,6.74 1.79,0 2.69,-1.35 2.69,-4.04l0 -2.7c-0.9,-1.79 -2.25,-3.14 -3.6,-4.04 -0.9,-0.45 -2.7,-0.9 -4.5,-0.9zm8.09 36.87c-1.8,0 -2.69,1.35 -2.69,4.94 0,2.7 0.45,4.95 1.35,6.74 0.89,1.8 1.79,2.7 2.69,2.7 1.8,0 3.15,-0.45 4.05,-1.36 0.45,-0.89 0.89,-2.25 0.89,-4.04 0,-1.8 -0.45,-3.6 -0.89,-5.4 -0.9,-1.8 -2.25,-2.69 -4.05,-3.6l-1.35 0z"/>
 </g>
</svg>
