<?xml version="1.0" encoding="UTF-8"?>
<!DOCTYPE svg PUBLIC "-//W3C//DTD SVG 1.1//EN" "http://www.w3.org/Graphics/SVG/1.1/DTD/svg11.dtd">
<!-- Creator: CorelDRAW 2021 (64-Bit) -->
<svg xmlns="http://www.w3.org/2000/svg" xml:space="preserve" width="74.4858mm" height="29.9082mm" version="1.1" style="shape-rendering:geometricPrecision; text-rendering:geometricPrecision; image-rendering:optimizeQuality; fill-rule:evenodd; clip-rule:evenodd"
viewBox="0 0 5197.82 2087.08"
 xmlns:xlink="http://www.w3.org/1999/xlink"
 xmlns:xodm="http://www.corel.com/coreldraw/odm/2003">
 <defs>
  <style type="text/css">
   <![CDATA[
    .fil0 {fill:#990000;fill-rule:nonzero}
   ]]>
  </style>
 </defs>
 <g id="Capa_x0020_1">
  <metadata id="CorelCorpID_0Corel-Layer"/>
  <path class="fil0" d="M890.24 0c66.12,0 132.24,4.72 198.36,13.78 40.15,9.45 77.14,27.94 111.38,55.89 34.24,28.33 54.71,64.15 61.79,107.84 -7.87,22.44 -20.08,37.39 -36.6,45.26 -16.53,7.47 -35.03,11.41 -55.89,11.41 -24.4,0 -49.59,-2.76 -74.78,-8.26 -16.92,-1.97 -32.27,-3.94 -46.04,-5.51l-24.4 0c-37.78,0 -75.57,1.18 -114.14,3.54 -37.78,2.76 -74.77,4.33 -111.77,4.33l-12.6 0c-16.92,1.58 -27.94,7.87 -33.06,19.29 -5.12,11.02 -8.26,24.4 -9.84,39.75 -1.58,12.2 -3.94,24.4 -7.48,36.21 -3.54,11.81 -10.23,22.04 -20.07,30.7 -11.42,22.04 -23.22,44.47 -34.63,66.91 -32.27,54.31 -59.43,112.16 -81.86,172.78 -25.19,63.75 -48.8,128.3 -70.45,193.63 -24.4,74.78 -51.95,147.98 -81.86,220.39 -9.84,25.97 -19.68,51.95 -29.92,77.14 -46.83,107.44 -83.04,219.22 -108.23,334.53 -13.78,52.73 -20.86,106.66 -20.86,161.36 0,29.92 2.75,59.82 7.87,89.73 14.95,19.29 22.04,40.93 22.04,64.55 0,16.13 -3.94,31.09 -11.42,44.47 -7.87,13.38 -20.07,20.07 -36.99,20.07 -2.36,0 -5.12,-0.39 -7.87,-0.79 -7.08,1.97 -14.95,3.15 -24.4,3.15 -21.65,0 -45.26,-7.09 -70.84,-21.26 -25.58,-14.17 -43.68,-39.75 -53.52,-76.75 -13.78,-28.33 -23.61,-57.85 -29.12,-88.16 -5.12,-30.31 -7.87,-61.39 -7.87,-92.88 0,-33.06 2.36,-66.12 7.08,-99.18 4.33,-33.06 10.23,-65.33 16.92,-96.82 9.45,-41.33 21.26,-82.25 35.81,-122 15.35,-40.93 27.95,-83.04 37,-126.73 28.34,-73.99 49.98,-149.95 64.54,-228.66 0.79,-0.79 1.18,-1.58 1.18,-3.15 9.06,-58.65 13.78,-117.28 13.78,-176.71 0,-88.95 -11.81,-177.11 -35.81,-264.09 0,-1.18 -0.39,-3.15 -1.18,-5.51 -1.97,-9.44 -7.08,-23.22 -14.17,-41.72 -7.48,-18.1 -18.5,-36.2 -33.45,-53.52 -14.95,-17.32 -35.82,-29.13 -62.97,-35.02l-6.69 0c-18.5,0 -39.36,-4.72 -62.57,-14.56 -22.83,-9.45 -34.63,-21.65 -34.63,-36.21 0,-10.63 10.62,-22.83 31.49,-35.81 41.32,-16.92 84.22,-30.31 127.9,-40.15 50.77,-11.02 99.96,-27.15 147.59,-48.8 92.88,-29.92 187.33,-53.13 283.76,-69.66 96.03,-16.53 192.84,-24.79 290.45,-24.79l9.05 0zm3444.1 606.48c2.37,-0.78 5.12,-1.18 8.27,-1.18 2.36,0 4.72,0.4 6.69,1.18l3.54 0c3.15,0 6.69,-0.39 10.63,-1.18 3.54,-0.79 7.47,-1.18 11.41,-1.18 3.15,0 5.9,0.79 7.87,2.36 2.37,1.58 3.54,4.72 3.54,9.45l0 2.36c11.42,5.9 18.89,15.74 22.04,29.13 3.15,13.38 4.72,28.34 4.72,44.47l0 48.41c0.79,5.51 0.79,10.63 0.79,16.13 0,15.35 -1.58,29.92 -5.51,43.69 -2.36,13.38 -3.54,25.18 -3.54,35.81l0 8.26c0,17.71 -3.94,37 -11.42,57.46 -3.94,12.99 -6.69,24.4 -8.26,33.45 1.57,6.3 2.36,12.6 2.36,19.68 0,15.35 -3.54,30.7 -10.23,46.05 -6.3,14.56 -9.45,29.12 -9.45,43.68 0,5.51 0.79,11.02 2.37,16.53 -1.58,48.41 -10.63,93.27 -27.55,134.6 -3.94,12.6 -6.3,24.01 -7.08,34.63 -0.79,18.5 -6.69,38.57 -18.5,60.22 0,28.34 -3.94,56.68 -12.6,85.01 -4.72,19.29 -8.26,38.97 -11.42,59.04 -0.78,13.78 -1.18,27.55 -1.18,41.33 -0.79,26.37 -2.76,53.92 -5.9,83.04 -2.36,4.72 -3.15,9.84 -3.15,14.95 0,5.51 0.4,11.42 1.97,17.32 1.58,7.08 2.36,13.78 2.36,20.86 0,10.63 -3.93,22.04 -12.59,33.45l0 2.36c0,10.63 -4.72,21.26 -13.78,31.49 -9.45,10.63 -19.29,15.74 -29.92,15.74 -4.72,0 -9.05,-1.18 -12.99,-3.54 -4.33,-11.41 -11.81,-17.31 -21.65,-17.31 -8.65,0 -17.71,1.97 -27.94,5.9 -9.05,3.94 -17.71,5.9 -26.37,6.69 -4.72,-2.76 -10.62,-4.72 -18.49,-5.51 -6.69,-1.57 -12.99,-3.94 -18.89,-7.08 -5.9,-3.15 -9.45,-9.05 -11.03,-18.5 -13.78,-38.96 -24.79,-80.68 -33.45,-124.37 -2.36,-12.2 -3.54,-26.36 -3.54,-41.72 0,-4.33 0,-8.66 0,-12.6 -0.79,-12.99 -1.58,-24.79 -2.37,-35.81 -0.78,-10.63 -2.75,-18.89 -6.69,-24.01 -15.35,18.49 -29.52,37.38 -42.9,56.28 -21.25,32.27 -46.04,62.18 -73.59,88.95 -20.08,26.76 -45.66,47.62 -77.14,62.18 -11.03,6.29 -21.65,12.59 -32.27,19.68 -22.44,10.62 -44.87,16.13 -66.91,16.13 -26.37,0 -50.38,-5.9 -72.81,-17.32 -5.51,0 -10.23,0.4 -14.95,1.19 -9.05,0 -18.1,0 -26.37,0 -22.43,0 -44.86,-4.72 -66.9,-13.78 -2.37,-6.3 -6.3,-11.42 -11.81,-15.74 -5.12,-3.94 -11.42,-7.87 -18.11,-11.02 -9.44,-4.33 -17.31,-9.84 -24.4,-16.53 -7.08,-6.69 -10.63,-16.53 -11.42,-29.52 -12.99,-46.05 -19.68,-93.28 -19.68,-141.69 0,-22.43 0.79,-44.47 2.37,-66.9 1.57,-11.42 3.15,-23.61 4.72,-35.82 1.97,-37.78 11.81,-73.59 28.73,-108.23 4.72,-13.78 8.27,-28.73 11.42,-45.26 3.15,-32.27 14.56,-61 34.63,-86.19 17.71,-49.99 40.54,-97.61 69.27,-142.87 5.9,-9.45 11.81,-17.71 17.32,-25.58 7.47,-10.63 14.95,-21.26 21.65,-31.1 7.08,-9.84 14.17,-22.04 22.04,-35.81 17.71,-22.44 37,-43.29 57.86,-63.36 9.84,-9.84 19.68,-20.47 29.91,-31.09 15.35,-7.87 30.31,-16.14 44.86,-25.58 23.22,-13.78 47.63,-25.98 73.6,-36.6 11.02,-0.79 21.65,-2.37 32.27,-4.72 16.13,-3.15 31.88,-4.72 47.62,-4.72 18.1,0 34.63,4.72 49.59,13.78 31.49,24.01 51.16,53.52 59.82,88.95 6.29,26.76 9.05,54.7 9.05,83.04 0,20.86 -2.36,40.93 -6.69,61 -3.94,11.02 -7.87,22.04 -11.81,33.45 -9.05,35.42 -24.01,67.69 -44.86,96.82 -12.2,-1.58 -20.47,-8.26 -24.79,-20.07 -4.33,-11.81 -7.09,-25.98 -8.66,-42.11 -2.37,-20.07 -6.69,-36.6 -13.78,-49.59 -3.94,-13.78 -6.69,-28.73 -9.05,-44.87 -3.15,-16.92 -7.08,-33.45 -11.81,-49.2 -4.33,-15.74 -12.6,-28.73 -24.01,-39.75 -27.15,23.22 -49.59,49.99 -67.69,80.29 -17.71,30.31 -34.24,61.4 -48.81,92.89 0,0.78 -0.39,1.57 -1.18,2.36 -17.71,32.27 -31.49,64.94 -41.33,98 -4.72,12.2 -9.44,24.4 -14.17,36.6 -9.84,29.92 -17.71,59.82 -22.83,88.95 -3.15,16.92 -6.69,33.45 -10.63,49.59 -1.18,12.2 -2.76,23.61 -4.33,34.63 -3.94,24.4 -5.9,49.59 -5.9,74.77l0 16.14c0.79,17.71 2.76,35.81 5.9,53.52 3.15,18.1 7.87,33.84 14.95,46.83 3.94,16.93 10.23,25.58 19.68,25.58 9.05,0 18.89,-4.72 29.12,-13.38 10.63,-9.05 20.47,-18.5 29.52,-28.34 5.51,-4.72 9.84,-8.66 13.78,-12.6 7.87,-8.65 15.35,-16.92 23.22,-25.58 22.04,-21.25 39.36,-44.47 51.95,-68.87 33.06,-47.63 62.97,-96.82 89.73,-146.41 0.79,-1.57 1.58,-3.15 2.37,-4.72 10.62,-17.71 20.46,-35.82 28.73,-54.31 12.2,-24.4 26.36,-48.42 41.72,-71.24 15.35,-46.44 33.84,-91.3 55.1,-134.99 4.72,-27.95 13.38,-54.31 25.58,-79.5 8.26,-17.71 15.35,-35.81 20.46,-54.31 16.93,-21.65 29.52,-44.86 37,-70.45 8.66,-25.98 21.65,-49.2 39.36,-69.27 7.47,-13.78 18.1,-26.77 31.49,-39.76 13.78,-12.59 27.55,-20.46 42.11,-23.61zm-316.82 198.36c-1.57,0 -2.36,0.4 -2.36,1.18l1.18 1.19c0.79,1.57 1.58,2.36 2.76,2.75 1.18,0.4 2.36,0.79 3.94,0.79 0.79,0 1.58,-0.39 2.36,-0.79 0.79,-0.39 1.19,-0.78 1.19,-1.57 0,-0.79 -0.79,-1.18 -2.37,-1.58 -1.57,-0.39 -3.15,-1.18 -4.33,-1.97l-2.37 0zm4.33 10.63c-0.79,0 -1.58,0.39 -1.97,1.58 -0.79,1.18 -1.18,1.97 -1.18,2.75 0,1.58 0.39,2.76 1.18,3.15 0.39,0.39 1.18,0.39 1.97,0.39 1.57,0 2.76,-0.39 3.54,-1.58 0.79,-1.18 1.19,-2.36 1.19,-3.15 0,-1.57 -0.4,-2.36 -1.19,-2.76 -0.78,-0.39 -1.97,-0.39 -3.54,-0.39zm0 20.47c-1.18,0 -1.97,1.57 -1.97,4.72 0,2.36 0.39,4.72 0.79,7.08 3.15,11.41 5.51,16.92 7.08,16.92 0,0 0.39,-0.79 1.18,-3.15 0,-0.79 -0.39,-2.76 -1.18,-5.9 0,-3.94 -0.4,-7.48 -1.18,-10.24 0,-2.36 0,-3.94 0,-4.72 0,-1.58 -0.4,-2.76 -1.19,-3.54 -0.78,-0.79 -1.97,-1.18 -3.54,-1.18zm-295.17 118.85c-0.79,0 -1.58,0.79 -1.97,2.76 -0.79,1.97 -1.18,4.72 -1.18,7.48l0 4.72c0.78,6.3 1.57,9.45 1.97,9.45 0.78,0 1.97,-2.76 3.54,-8.26 1.58,-3.94 2.37,-7.09 2.37,-9.06 0,-2.36 -0.4,-3.94 -1.19,-4.72 -0.78,-0.79 -1.18,-1.58 -1.57,-1.97 -0.4,0 -1.18,-0.4 -1.97,-0.4zm313.67 42.5c0,0.79 0,1.58 0,2.37 0.78,0.78 1.18,1.57 1.18,2.36 1.57,3.15 2.76,4.72 3.54,4.72l1.19 0c0.78,0 1.18,-0.4 1.18,-1.18 0,-0.79 -0.4,-1.58 -1.18,-2.76 -0.79,-1.18 -1.58,-2.37 -2.37,-3.15 -0.79,-0.79 -1.18,-1.19 -1.57,-1.58 -0.4,-0.39 -1.19,-0.79 -1.97,-0.79zm-463.23 305.8c-0.79,0 -1.97,1.58 -3.54,4.33 -1.58,1.58 -2.76,3.94 -3.54,6.69 -0.79,2.37 -1.18,4.72 -1.18,6.3 0,3.15 0.39,4.33 1.18,4.33 0.79,0 1.97,-1.18 3.54,-4.33 1.57,-2.37 2.36,-5.12 2.75,-7.48 0.4,-2.76 0.79,-5.12 0.79,-6.29l0 -3.54zm436.86 20.86c-1.58,0.4 -2.37,1.58 -2.37,3.15l0 1.19c0.79,0.78 1.58,1.57 2.37,2.36 0.79,0.79 1.57,1.18 2.36,1.18 0.79,0 1.18,-0.39 1.58,-1.57 0.39,-1.19 0.79,-2.37 0.79,-3.15 0,-1.57 -0.4,-2.36 -1.19,-2.75 -0.78,-0.4 -1.97,-0.4 -3.54,-0.4zm-438.04 5.51c-1.57,0 -3.15,7.87 -4.72,23.22 -0.78,5.12 -1.18,9.05 -1.18,11.42 0,3.15 0.4,4.72 1.18,4.72 0.79,0 1.58,-0.79 2.37,-2.37 1.57,-2.36 2.36,-5.9 2.75,-10.23 0.4,-4.72 0.79,-9.05 0.79,-12.99 0,-9.05 -0.39,-13.78 -1.18,-13.78zm567.13 22.04c-0.79,0 -1.58,0.79 -2.37,2.76 -0.79,1.97 -1.18,3.94 -1.18,6.29 0,2.37 0.39,4.33 0.79,5.9 0.39,1.58 0.79,2.37 1.57,2.37 0,0 0.4,-0.4 0.79,-1.19 0,-0.78 0.4,-1.97 0.79,-3.54 0.39,-1.58 1.18,-3.15 1.97,-4.72l0 -3.15c0,-3.15 -0.79,-4.72 -2.36,-4.72zm-86.59 46.05c-0.79,0.78 -1.58,1.18 -2.37,1.18 -0.78,0.79 -1.57,1.97 -3.15,3.54l-2.36 3.54 0 0.79c0.79,0 2.36,-0.79 4.72,-1.97 2.75,-2.37 4.33,-3.94 4.33,-4.72l0 -2.36c0,0 -0.39,0 -1.18,0zm-480.54 2.36c-0.79,0 -1.97,0.79 -3.15,2.76 -1.18,1.97 -1.97,4.33 -2.76,7.47 -1.57,2.37 -2.36,4.72 -2.36,7.09 0,3.15 1.57,5.12 4.72,6.69 3.93,0.79 6.29,1.19 7.86,1.19l2.37 0c0.79,-0.79 1.18,-1.58 1.18,-2.37 0,-1.18 -1.18,-2.36 -3.54,-3.15 -3.15,-2.36 -4.33,-5.51 -4.33,-9.45l0 -2.36c0.79,-2.36 1.18,-3.94 1.18,-5.51 0,-1.57 -0.39,-2.36 -1.18,-2.36zm562.41 33.45c0,0 -0.4,0.39 -1.18,1.18 0,0.79 -0.4,1.58 -1.19,2.37l-4.33 4.33c0,0.79 -0.39,1.18 -1.18,1.18 -0.79,1.58 -1.18,3.15 -1.18,4.72 0,4.72 2.36,12.2 6.69,23.22 2.37,5.9 3.94,11.42 4.72,16.53 0.79,5.12 1.18,9.05 1.18,12.2l0 4.72c0,1.97 0.79,3.15 2.37,3.15 1.57,0 2.36,-1.97 2.76,-6.3 0.39,-4.33 0.78,-9.05 0.78,-14.17 0,-6.3 -0.39,-11.42 -0.78,-15.74 -0.4,-4.33 -0.79,-6.69 -1.58,-7.48 -0.79,-0.79 -1.58,-2.76 -2.36,-6.29 -0.79,-3.54 -1.19,-6.69 -1.19,-9.84 0,-1.58 0,-3.15 0,-4.72 -0.78,-5.9 -1.57,-9.05 -2.36,-9.05l-1.18 0zm-554.54 4.72c-0.79,0 -1.18,0 -1.58,0.39 -0.39,0.4 -1.18,0.79 -1.97,1.58 -1.57,1.57 -2.36,3.15 -2.36,4.72 0,2.36 0.79,4.33 2.36,5.9 1.58,1.57 3.54,2.36 5.9,2.36 0.79,-0.79 1.19,-2.76 1.19,-5.9l0 -3.54c-0.79,-1.57 -1.19,-2.75 -1.58,-3.54 -0.39,-0.79 -1.18,-1.18 -1.97,-1.97zm4.72 24.01c-1.58,0.79 -2.76,1.58 -3.54,2.36 -0.79,0.79 -1.57,1.97 -2.36,3.54 -0.79,2.36 -1.58,4.33 -2.76,6.69 -1.18,2.36 -1.97,3.94 -2.76,4.72l0 1.18c0,0.79 1.58,2.36 5.51,4.72 3.94,2.36 7.87,4.33 12.2,6.29 4.33,1.97 7.87,3.15 11.02,3.94 0,-1.58 -1.57,-4.33 -4.72,-8.26 -1.58,-1.97 -3.15,-4.72 -4.72,-7.87 -1.58,-3.15 -2.37,-5.9 -2.37,-7.87 0,-3.15 -0.39,-5.51 -1.57,-7.09 -1.18,-1.57 -2.37,-2.36 -3.94,-2.36zm27.55 47.23l-1.18 1.18c0,0.79 0.78,1.97 1.97,2.76 1.18,1.18 2.36,2.76 3.94,4.33 4.72,2.37 7.47,3.54 9.05,3.54l1.18 0c0,-1.58 -1.97,-3.94 -5.51,-7.08 -3.15,-3.15 -5.9,-4.72 -8.26,-4.72l-1.18 0zm525.8 10.63c-0.78,0 -1.18,0 -1.57,0.39 -0.4,0.39 -0.79,1.18 -0.79,2.76 0,0.79 0.79,2.36 2.36,4.33 1.58,1.97 3.15,3.54 4.72,5.12 1.58,1.58 3.15,2.37 4.72,2.37 0,0 0,-0.79 0,-2.37 0,-1.57 -0.39,-3.54 -1.18,-5.9 -3.15,-4.72 -5.9,-6.69 -8.27,-6.69zm-552.17 16.92c-1.58,0 -2.36,0.39 -2.36,1.18 0,0.79 0.39,1.97 1.18,3.54 0.79,1.57 2.36,2.75 4.72,3.54 1.97,0.79 4.72,1.18 7.87,1.18 2.36,0 4.72,-0.39 7.08,-1.18 1.97,-0.79 3.15,-1.97 3.15,-3.54 0,-0.79 -0.39,-1.58 -1.58,-2.37 -1.18,-0.79 -1.97,-1.18 -2.75,-1.18l-7.09 0c-3.15,0 -5.51,-0.39 -7.87,-1.18l-2.36 0zm554.54 7.08c-1.58,0.79 -2.76,1.58 -3.54,2.36 -0.79,0.79 -1.57,1.97 -2.36,3.54l0 1.18c0,0.79 1.18,1.97 3.15,4.33 1.97,2.36 3.94,4.33 6.29,5.9 2.37,1.57 3.94,2.36 5.51,2.36l1.18 0 0 -1.18c0,-1.58 -0.39,-3.94 -1.18,-7.08 0,-0.79 0,-1.58 0,-1.97 -1.58,-6.3 -4.33,-9.45 -9.05,-9.45zm14.95 25.58c-0.79,0 -1.18,0 -1.58,0.39 -0.39,0.4 -1.18,0.79 -1.97,1.58 -1.57,1.57 -2.36,3.54 -2.36,5.9 0,1.57 0.39,2.76 1.18,3.54 1.58,1.58 2.76,2.37 3.54,2.37 1.57,0 2.76,-0.79 3.54,-2.37 1.58,-2.36 2.37,-4.33 2.37,-5.9 0,-1.57 -0.4,-2.75 -1.18,-3.54 -0.79,-0.79 -1.58,-1.18 -1.97,-1.58 -0.4,-0.39 -0.79,-0.39 -1.58,-0.39zm-526.99 6.69c-3.15,0.78 -4.72,1.18 -4.72,1.18l4.72 2.36c3.15,1.58 6.29,2.37 9.45,2.37l3.15 0c3.15,0 4.72,-0.4 4.72,-1.19 0,-0.78 -1.58,-1.57 -4.72,-2.36 -2.76,-1.58 -5.9,-2.36 -9.05,-2.36l-3.54 0zm535.25 17.31c-0.79,0 -1.57,0 -1.97,0 -0.39,0 -0.78,0.4 -1.57,1.18 -4.72,1.58 -7.08,3.54 -7.08,5.9 0,2.76 3.15,6.69 9.44,11.42 4.33,3.94 7.87,5.9 10.23,5.9 0.79,0 1.19,-0.39 1.19,-1.18 0,-1.58 -1.58,-4.33 -4.72,-8.27 -1.58,-1.57 -2.76,-3.15 -3.54,-4.72 -0.79,-1.19 -1.18,-2.76 -1.18,-4.33l0 -5.9c0,0 0,0 -0.79,0zm0 46.05l-1.18 0c0,0 0,0.39 0,1.18 -0.79,0 -1.18,0.39 -1.18,1.18 0,0.79 0.39,1.58 1.18,2.37 0.79,0.78 1.97,1.57 3.15,2.36 3.15,1.58 5.51,2.36 7.08,2.36 0,-0.78 -1.18,-2.75 -3.54,-5.9 -2.37,-2.36 -4.33,-3.54 -5.51,-3.54zm24.01 9.44c-0.79,0 -1.19,0.4 -1.19,1.19 -0.78,0 -1.18,0 -1.57,0 -0.4,0 -0.79,0.39 -0.79,1.18l0 0.79c0.79,0.78 1.97,1.57 3.54,1.97 1.57,0.39 3.15,0.39 4.72,0.39 2.37,0 3.94,0 5.12,-0.39 1.18,-0.4 1.57,-1.19 1.57,-1.97 0,-1.19 -2.76,-1.97 -9.05,-1.97 0,0 0,-0.4 0,-1.19 -0.79,0 -1.18,0 -1.18,0 0,0 0,0 0,0 0,0 0,0 0,0 0,0 0,0 0,0 0,0 0,0 0,0 0,0 -0.4,0 -1.18,0zm850.89 -995.32c13.78,0 27.55,0.4 41.72,1.18 5.12,0.79 11.41,1.58 18.1,2.37 20.08,1.57 39.36,5.12 58.25,11.02 18.89,5.9 31.1,16.53 36.6,32.67 0.79,1.58 0.79,3.54 0.79,5.9 0,9.45 -6.29,16.92 -18.89,22.44 -12.6,5.9 -27.16,11.02 -43.29,15.74 -18.89,4.72 -35.02,10.23 -47.23,17.31 -25.18,5.9 -49.59,14.95 -73.2,27.16 -23.22,11.81 -42.9,28.73 -58.25,51.16 -14.56,13.78 -21.65,29.51 -21.65,47.22 0,21.65 5.12,43.29 16.14,65.73 2.75,7.08 5.51,13.78 7.87,20.86 1.57,12.99 5.9,26.37 12.59,40.15 7.87,14.56 11.81,28.33 11.81,40.54l0 3.54c18.89,17.71 33.85,38.97 43.69,64.55 7.47,15.35 16.13,29.91 25.18,43.68 27.16,40.93 49.2,83.44 66.91,127.91 6.29,20.86 9.44,42.11 9.44,63.36 0,47.62 -12.99,92.88 -38.17,134.99 -25.98,49.19 -62.97,86.98 -110.59,113.74 -47.63,26.36 -98.78,41.72 -153.49,45.26 -4.72,0.78 -9.44,1.18 -14.95,1.18 -7.08,1.57 -13.78,2.36 -20.86,2.36 -3.54,0 -7.87,-0.39 -12.6,-1.18 -7.47,0.79 -14.95,1.18 -22.04,1.18 -26.76,0 -53.13,-4.33 -79.5,-12.99 -25.97,-9.05 -51.56,-18.5 -75.96,-28.34 -40.14,-19.28 -77.14,-30.7 -111.77,-34.63 -3.94,0.79 -7.47,1.18 -10.63,1.18 -22.04,0 -39.36,-9.44 -51.56,-28.33 -12.6,-18.89 -20.07,-38.57 -23.22,-59.43 -0.79,-5.12 -1.19,-11.03 -1.19,-17.32 0,-21.26 6.3,-41.72 18.5,-61 12.2,-19.28 26.37,-35.81 42.5,-49.59 34.63,-29.13 74.78,-51.16 120.04,-65.73 9.84,-6.29 18.5,-9.05 25.18,-9.05 12.6,0 21.26,7.48 25.98,22.44 5.12,14.95 7.47,29.12 7.47,43.29 0,5.12 -0.39,9.84 -0.79,13.78 25.19,52.73 66.91,83.43 125.55,90.91 25.97,11.41 53.13,17.31 80.68,17.31 29.13,0 56.28,-8.26 81.86,-25.18 10.63,-11.81 16.14,-24.4 16.14,-38.18 0,-12.2 -3.54,-25.18 -10.24,-38.57 -7.08,-13.38 -14.95,-26.76 -23.22,-39.75 -7.08,-10.23 -12.6,-19.68 -17.32,-29.13 -24.4,-38.96 -54.31,-74.38 -88.95,-105.87 -11.42,-15.35 -23.22,-29.91 -35.42,-43.68 -24.01,-25.58 -44.07,-53.13 -60.22,-83.04 -36.2,-46.05 -53.91,-96.03 -53.91,-149.95 0,-29.13 7.08,-57.46 21.64,-84.22 5.51,-20.08 14.56,-38.57 27.95,-55.5 12.99,-16.92 25.97,-32.27 38.96,-46.04 10.24,-12.2 21.65,-21.26 34.63,-26.37 12.99,-5.51 26.76,-9.84 41.72,-12.6 16.13,-3.94 31.48,-9.44 46.04,-16.13 57.46,-18.5 116.1,-28.73 175.14,-30.31zm16.13 83.04l-3.54 0c-3.94,2.37 -5.51,3.94 -5.51,4.72 0,0.79 1.18,1.18 3.15,1.18 2.36,0 4.72,-1.18 7.08,-3.54l0 -1.18c0,-0.79 -0.39,-1.19 -1.18,-1.19zm-297.53 131.45c0,0 0,0.4 -0.4,0.79 -0.39,0.4 -0.79,0.79 -1.18,1.58 -0.39,0.79 -1.18,1.57 -1.97,2.36 -0.79,0.79 -1.18,1.58 -1.18,2.37 0,1.57 0.79,2.36 2.36,2.36 1.58,0 2.76,-0.79 3.54,-1.97 0.79,-1.18 1.18,-1.97 1.18,-2.76 0,-1.57 0,-2.76 -0.39,-3.54 -0.4,-0.79 -1.19,-1.19 -1.97,-1.19zm1.18 24.4c-2.37,0 -3.54,2.76 -3.54,7.87 -0.79,3.15 -1.18,5.9 -1.18,8.27 0,2.36 0.79,3.94 1.97,4.72 1.18,0.4 3.15,0.79 6.29,0.79 1.58,0 2.76,-0.39 3.94,-1.97 1.19,-1.57 1.97,-3.15 1.97,-4.72 0,-2.36 -0.78,-4.72 -1.97,-7.08 -1.18,-2.36 -2.36,-3.94 -3.94,-5.51 -0.78,-0.79 -1.57,-1.58 -1.97,-1.97 -0.39,-0.4 -0.78,-0.4 -1.57,-0.4zm12.6 37l-2.37 0 0 1.18c0,1.18 0.79,3.15 2.37,5.51 1.57,2.37 3.54,3.54 5.9,3.54 1.57,0 2.36,-0.39 2.36,-1.18 0,-0.79 -0.79,-2.37 -2.36,-4.72 -3.15,-3.15 -5.12,-4.33 -5.9,-4.33zm4.72 22.83c-0.78,0 -1.18,0.39 -1.18,1.18 0,0.79 0.79,1.97 1.58,3.54 1.18,1.57 3.15,3.15 5.51,4.72 6.69,6.69 10.24,13.78 10.24,20.47 0,3.94 -1.58,7.48 -4.72,10.63 -1.58,1.57 -1.97,3.15 -1.97,4.33 0,4.72 6.69,7.87 20.47,9.45 2.36,0 3.54,-0.4 3.54,-1.18 0,-0.79 -1.18,-2.37 -3.54,-4.72 -1.58,-3.15 -2.37,-6.3 -2.37,-10.24l0 -4.72c0.79,-1.58 1.18,-3.15 1.18,-4.72 0,-4.33 -3.15,-9.84 -10.23,-16.13 -3.94,-3.54 -7.47,-6.69 -11.02,-9.06 -3.54,-2.36 -5.9,-3.54 -7.48,-3.54zm53.13 96.82c-1.57,0 -3.15,0.39 -4.72,1.18 -1.57,0.79 -2.75,1.97 -3.54,3.54l0 1.18c0,1.57 2.76,2.36 8.26,2.36 5.12,0 8.27,-0.79 9.05,-2.36l-1.18 -1.18c-0.79,-1.58 -1.97,-2.76 -3.15,-3.54 -1.58,-0.79 -3.15,-1.18 -4.72,-1.18zm169.24 272.35c-0.4,0 -1.19,0.39 -1.58,1.57 -0.39,1.19 -0.39,2.37 -0.39,3.94 0,1.58 0.39,3.54 1.18,5.9 1.18,3.15 2.36,4.72 3.15,4.72 0.79,0 1.18,-1.58 1.18,-4.72 0.79,-1.57 1.18,-3.54 1.18,-5.9 0,-1.57 -0.39,-3.15 -1.18,-4.33 -0.79,-0.79 -1.18,-1.18 -1.57,-1.18 -0.4,0 -1.19,0 -1.97,0zm3.54 21.65c-0.79,0 -3.15,1.18 -6.69,3.54 -1.57,1.58 -2.36,3.15 -2.36,4.72 0,2.36 0.39,4.72 1.18,6.69 1.58,2.36 2.76,5.12 3.94,8.26 1.18,3.15 1.97,5.51 2.76,7.08 1.58,4.33 2.76,6.69 3.54,6.69 1.57,0 2.36,-3.94 2.36,-11.41l0 -10.63c-0.79,-5.12 -1.18,-9.05 -1.58,-11.42 -0.39,-2.36 -1.57,-3.54 -3.15,-3.54zm-487.63 81.86c-0.79,0 -1.97,1.97 -3.54,5.9l0 2.36c0,2.36 0.78,3.94 1.97,5.12 1.18,1.18 2.36,1.58 3.94,1.58 2.36,0 4.33,-1.18 5.9,-3.15l0 -1.19c0,-1.57 -0.4,-3.15 -1.19,-4.33 -0.78,-0.79 -1.57,-1.97 -2.36,-2.76 -1.58,-1.57 -2.76,-2.36 -3.54,-2.36 0,0 -0.39,-0.4 -1.18,-1.18zm8.27 59.03c-2.37,0 -5.12,0.4 -8.27,1.19 -1.57,0.78 -3.15,1.18 -4.72,1.18l-14.95 4.33 17.32 7.08c5.51,2.37 10.23,4.33 13.78,6.3 3.94,1.97 6.29,3.54 7.08,5.12 1.58,2.36 3.94,4.33 6.69,5.9 3.15,1.57 5.9,2.36 8.26,2.36 1.58,0 2.76,-0.39 3.54,-1.18l0 -1.18c0,-1.58 -0.4,-3.15 -0.79,-5.12 -0.39,-1.97 -1.18,-3.94 -2.76,-5.51 -1.57,-2.76 -3.54,-5.51 -6.29,-7.47 -2.76,-1.58 -4.72,-2.76 -6.3,-2.76 -1.57,0 -3.15,-0.4 -4.72,-1.58 -1.58,-1.18 -2.76,-2.76 -3.54,-4.33l-4.33 -4.33zm-1757.28 -1312.15c11.41,0 23.61,0.79 36.6,2.37l5.9 0c18.49,0 34.24,7.08 46.83,21.65 12.6,14.56 18.89,30.7 18.89,48.41 0,7.08 -1.18,13.38 -3.54,19.68 -6.69,20.86 -18.5,39.35 -35.03,55.49 -16.53,16.13 -34.63,28.33 -54.7,36.6 -12.2,11.81 -25.19,17.31 -38.18,17.31 -12.2,0 -24.4,-1.97 -36.99,-6.69 -12.2,-4.72 -24.79,-7.09 -37.79,-7.09l-9.44 0c-14.56,0 -24.4,-2.75 -29.13,-7.87 -5.12,-5.51 -7.87,-12.2 -7.87,-20.86 0,-15.35 4.33,-31.88 12.99,-49.59 3.54,-9.84 6.29,-18.89 7.86,-26.37 9.45,-27.94 25.58,-48.01 48.42,-60.61 23.22,-12.6 48.01,-20.07 75.17,-22.44zm-14.95 399.86c6.69,0 11.8,2.37 14.95,6.3 2.75,4.33 5.51,8.65 7.87,13.38 0,0.79 0.39,1.58 1.18,2.37 11.41,9.84 19.68,22.04 24.79,35.81 5.12,13.78 7.48,27.15 7.48,40.15 0,12.59 -1.97,23.61 -5.51,33.45 -5.51,24.01 -10.63,48.02 -15.35,72.81 -4.33,23.22 -9.05,45.65 -13.78,68.09 -3.15,14.56 -7.08,29.91 -12.59,46.05 -11.42,31.49 -17.32,60.22 -17.32,86.59l0 12.59c0,22.83 -3.94,46.05 -11.41,69.27 -6.3,21.26 -10.24,43.29 -11.81,65.73 -10.63,25.19 -16.93,51.95 -19.29,80.68 -1.58,12.2 -3.54,24.79 -5.9,37.78 -2.36,15.35 -5.51,30.7 -9.05,45.26 -6.29,26.76 -10.23,52.73 -11.81,78.32l0 5.9c0,17.32 -2.36,34.63 -6.69,51.56 -5.51,16.14 -8.26,33.06 -8.26,50.77 0,7.08 0.79,14.17 2.36,22.04 17.71,-3.15 37.78,-15.74 59.82,-37.39 22.44,-22.04 43.68,-46.83 63.75,-74.38 19.68,-27.94 34.24,-50.77 43.69,-69.27 7.47,-8.66 13.38,-12.6 17.31,-12.6 2.37,0 3.54,1.58 3.54,4.33 0,1.58 0,2.76 0,3.54l0 5.9c-12.6,56.28 -31.1,98.39 -55.49,126.73 -7.09,12.99 -15.35,25.58 -25.19,37 -12.6,14.56 -22.04,29.52 -29.12,44.86 -4.33,7.87 -9.06,15.35 -13.78,23.22 -18.5,36.2 -42.5,68.48 -72.42,96.82 -7.87,7.47 -14.95,11.41 -20.86,11.41 -6.29,0 -11.41,-1.97 -16.13,-6.29 -4.72,-4.33 -9.45,-9.05 -13.78,-14.56 -3.94,-3.54 -7.48,-7.47 -11.02,-10.62 -3.54,-3.54 -7.09,-5.51 -11.03,-5.51 -2.36,0 -4.72,0.79 -7.08,2.36 -7.47,1.58 -14.95,2.37 -21.65,2.37 -20.86,0 -38.96,-6.3 -54.7,-19.68 -15.74,-12.99 -25.97,-30.31 -30.7,-51.56 -7.87,-58.65 -11.42,-117.28 -11.42,-176.71 0,-54.31 2.37,-108.62 6.69,-162.54 4.72,-25.19 8.26,-50.77 10.63,-75.96 2.76,-26.37 6.69,-51.95 11.41,-77.14 12.2,-48.81 26.37,-96.03 42.5,-142.08 7.09,-28.34 14.96,-55.89 24.4,-83.04 7.48,-21.26 14.56,-43.68 20.86,-66.91 3.54,-9.05 7.87,-18.89 12.6,-28.73 12.99,-33.06 29.13,-65.73 48.41,-98 30.7,-35.42 69.66,-58.25 116.5,-69.27 0.79,0 1.18,0 1.18,-0.39 0,-0.39 0.4,-0.79 1.19,-0.79zm70.05 774.93c0,0 0,0 -0.39,0 -0.39,0 -0.79,0 -0.79,0l0 1.18c-1.18,0.79 -2.36,1.58 -3.15,2.76 -0.79,1.18 -1.18,2.37 -1.18,3.15 0,2.76 0.39,4.33 1.18,4.33 1.58,0 2.76,-1.97 4.33,-6.69 0.79,-1.58 1.19,-2.76 1.19,-3.54 0,-0.78 -0.4,-1.18 -1.19,-1.18zm-295.17 78.32c-0.78,0 -1.18,0.39 -1.57,1.18 -0.4,0.79 -0.79,1.97 -0.79,3.54l0 2.37c0.79,1.57 1.58,2.76 2.36,3.94 0.79,1.18 1.58,1.97 2.37,1.97 0.79,0 1.18,-0.79 1.18,-1.97 0,-1.18 0,-2.37 0,-3.94 0,-1.58 0,-3.15 -0.39,-4.72 -0.4,-1.58 -1.58,-2.36 -3.15,-2.36zm1.19 47.22c-0.79,0.79 -1.19,1.58 -1.19,2.37 0,1.57 0.4,3.54 1.19,5.9 2.36,17.71 4.72,30.31 7.08,37.39 2.36,7.47 5.51,12.99 10.23,16.92 6.3,5.12 10.63,7.87 12.6,7.87 0.79,0 1.18,-0.79 1.18,-2.37 0,-0.78 -0.79,-1.97 -2.76,-3.94 -1.97,-1.97 -3.94,-3.94 -6.29,-6.29 -2.36,-2.36 -3.94,-4.33 -5.12,-5.9 -1.18,-1.58 -1.97,-2.76 -1.97,-3.15l0 -1.18c0.79,-0.79 1.18,-1.97 1.18,-3.54 0,-4.72 -1.18,-11.41 -3.54,-19.68 -1.97,-5.51 -4.33,-10.23 -6.69,-14.95l-5.9 -9.45zm47.23 106.27c-0.79,0 -1.58,0 -3.15,0.39 -1.57,0.4 -2.75,1.19 -3.54,1.97 -0.79,1.58 -2.76,2.37 -5.9,2.37l-2.37 0c-1.57,-0.79 -2.75,-1.18 -3.15,-1.18l0 2.36c1.18,2.76 4.33,4.33 9.05,4.33 3.94,0 7.87,-1.18 12.6,-3.15 2.36,-1.57 3.54,-2.76 3.54,-3.54 0,-0.79 -1.58,-1.58 -4.72,-2.37 0,-0.79 0,-1.18 -0.39,-1.18 -0.4,0 -1.19,0 -1.97,0zm869.38 -1330.64l10.63 0c16.92,0 32.27,4.33 46.44,13.38 14.56,8.66 24.01,22.83 29.52,42.11l0 7.87c0,40.93 -9.44,79.11 -28.34,115.32 -18.89,36.21 -39.75,70.45 -62.57,102.72 -57.86,214.5 -110.2,430.96 -157.03,648.99 -3.94,21.65 -7.87,43.29 -12.6,64.54 -10.63,55.49 -19.68,110.98 -26.36,166.08 12.99,7.87 28.73,14.17 47.22,19.68 14.56,3.94 28.73,9.05 42.5,14.95 13.78,6.3 25.58,14.56 34.63,24.79 9.06,10.63 13.78,24.4 13.78,42.11l0 7.08c-5.51,25.98 -18.1,43.69 -38.57,53.53 -20.46,9.44 -42.5,16.13 -66.12,20.07 -21.65,3.94 -40.93,9.44 -57.85,16.13 -14.56,35.42 -22.04,73.6 -22.04,114.14 0,3.94 0,7.87 0,11.81 -0.78,26.76 -2.75,52.73 -6.69,78.32 -1.58,13.78 -2.37,27.16 -2.37,40.15 0,27.94 1.97,55.49 5.9,83.04 4.33,27.94 6.69,55.1 6.69,81.86 0,15.35 -1.18,30.7 -3.54,46.04 -1.18,6.3 -4.33,11.81 -8.65,16.93 -3.94,5.12 -9.05,7.47 -15.35,7.47 -3.94,0 -8.26,-1.97 -12.6,-5.9l-2.36 0c-31.49,0 -59.43,-9.84 -83.04,-29.12 -24.01,-19.68 -39.36,-45.26 -46.05,-76.75 -23.22,-77.54 -35.02,-157.03 -35.81,-237.71 -0.79,-10.63 -1.58,-20.86 -2.36,-31.09 3.94,-6.69 5.9,-12.6 5.9,-17.32 0,-5.9 -2.76,-10.63 -8.27,-12.99 -5.51,-2.76 -11.81,-5.12 -19.68,-6.69 -7.47,-1.97 -14.56,-4.72 -20.46,-7.87 -6.3,-3.15 -9.45,-8.66 -9.45,-16.13 -16.13,9.84 -30.7,14.95 -43.68,14.95 -24.79,0 -38.97,-12.6 -42.9,-38.18 0,-12.99 6.3,-27.94 18.5,-44.86 5.51,-16.92 14.17,-29.91 25.97,-38.57 12.2,-9.05 24.79,-16.92 38.57,-23.61 14.56,-7.08 27.55,-14.95 38.97,-23.61 11.02,-9.05 18.5,-21.65 22.44,-38.57 8.26,-95.64 21.64,-190.1 40.14,-283.76 5.51,-60.61 17.71,-120.82 37,-179.86 4.72,-16.92 9.05,-34.24 13.78,-51.95 8.65,-25.98 16.13,-52.34 23.22,-78.32 9.84,-40.14 22.44,-79.5 37.78,-118.85 33.85,-89.34 70.84,-176.32 110.99,-261.72 13.78,-23.61 26.76,-48.41 38.96,-73.6 19.29,-41.72 42.11,-81.07 68.09,-117.67 20.86,-24.01 46.44,-36.99 77.14,-39.36zm-187.73 562.8c0,0 -0.39,0.4 -1.18,1.18 -1.58,0.79 -2.76,1.97 -3.54,3.54l0 1.97c0,1.58 0.79,2.36 2.37,2.36 1.57,0 2.76,-0.39 3.54,-1.57 0.79,-1.18 1.19,-2.37 1.19,-2.76 -0.79,-0.79 -1.19,-1.58 -1.19,-2.36 0,-0.79 0,-1.58 0,-2.37 -0.78,0 -1.18,0 -1.18,0 0,0 0,0 0,0 0,0 0,0 0,0 0,0 0,0 0,0 0,0 0,0 0,0zm-11.41 28.73l0 4.72c0,1.58 0.39,2.76 1.18,3.54l0 0.79 0.79 0c0.79,-0.4 1.18,-1.58 1.18,-3.15 0,-1.57 -0.39,-3.15 -1.18,-4.72 0,0 0,-0.4 0,-1.19 -0.79,0 -0.79,0 -0.79,0 0,0 0,0 0,0 0,0 0,0 0,0 0,0 0,0 0,0 0,0 0,0 0,0 0,0 -0.39,0 -1.18,0zm-8.27 703.31c-3.15,0 -5.51,0.39 -7.08,1.18 -1.18,0.79 -1.97,1.97 -1.97,3.54 0,1.57 2.76,2.36 9.05,2.36l7.09 0c7.47,-0.79 11.41,-1.58 11.41,-2.36 0,-0.79 -0.79,-1.58 -2.36,-2.37 -3.94,-1.57 -7.48,-2.36 -11.42,-2.36l-4.72 0zm-176.31 209.77c-0.79,0.79 -1.97,3.15 -3.54,7.08l0 2.37c0,1.57 0.4,2.76 0.4,3.54 0.39,0.79 1.18,1.19 1.97,1.19 2.36,-1.58 3.54,-3.94 3.54,-7.09l-2.36 -7.08zm4.33 64.55l-0.79 1.18c-1.57,0.79 -2.75,1.97 -3.15,3.15 -0.39,1.18 -0.39,2.36 -0.39,3.94 0,0.79 0.39,1.58 1.18,2.36 0.79,0.79 1.97,1.19 3.15,1.19 0.79,0 1.58,-0.79 2.37,-2.37 0.78,-1.57 1.18,-3.15 1.18,-4.72 -0.79,-3.15 -1.97,-4.72 -3.54,-4.72zm2.37 19.68c0,0 0,0.39 -0.4,0.78 -0.39,0.4 -0.79,0.79 -1.18,1.58 -0.39,0.79 -0.79,1.58 -1.58,2.36l0 2.37c0,0.79 0.4,1.18 0.79,1.18l1.18 0c0.79,0 1.58,-0.39 2.37,-1.18 0.79,-0.79 1.18,-1.58 1.18,-2.37l0 -1.18c0,-1.57 0,-2.36 -0.39,-2.76 -0.4,-0.39 -1.19,-0.78 -1.97,-0.78zm1.18 13.78l0 1.18c0.79,0.79 1.18,2.36 1.18,4.72 0,2.36 -0.39,5.12 -1.18,8.26 -0.79,2.76 -1.18,5.12 -1.18,6.69 0,2.36 0.39,3.54 1.18,3.54 1.57,0 2.76,-1.18 3.54,-2.76 0.79,-1.97 1.58,-4.72 2.37,-7.47 0,-2.36 -0.4,-4.72 -0.79,-7.08 -0.4,-2.37 -1.18,-4.33 -2.76,-5.9 0,0 0,0 -0.39,0 -0.4,0 -0.79,0 -0.79,0l-1.18 -1.18zm1.18 27.94c-0.79,0 -1.18,0.79 -1.58,2.36 -0.39,1.18 -0.78,3.15 -0.78,5.51 0,4.72 0.78,9.84 1.97,14.95 1.18,5.51 2.36,8.66 3.93,9.45 1.58,0.78 2.37,1.97 2.37,3.54l0 3.15c0,1.58 0.79,2.37 2.36,2.37 1.58,0 2.37,-1.18 2.37,-3.54 0,-1.57 -0.4,-3.15 -1.19,-5.51 -0.78,-2.37 -1.57,-5.51 -2.36,-9.84 -0.79,-4.33 -1.18,-7.87 -1.18,-11.03 -0.79,-3.15 -1.58,-5.9 -2.37,-8.26 -0.78,-1.97 -1.96,-3.15 -3.54,-3.15zm14.95 47.23l-2.36 0c-0.4,0.78 -0.79,1.97 -0.79,3.54 0,2.76 0.79,7.08 3.15,12.6 1.58,5.51 2.36,9.84 2.36,13.78l0 3.54c0,0.78 0.79,2.36 1.97,4.33 1.19,2.36 2.37,4.72 4.33,6.69 1.97,1.97 3.54,2.76 4.33,2.76 0,0 -0.39,-1.58 -0.79,-4.72 -0.39,-3.15 -0.78,-6.3 -1.57,-10.24 -4.72,-21.65 -8.27,-32.27 -10.63,-32.27zm17.32 50.77c-0.79,0 -1.19,0.4 -1.58,1.18 -0.39,0.79 -1.18,1.97 -1.58,3.15l0 2.36c0,1.58 0.4,2.36 1.97,2.36 0.79,0 1.58,-0.39 2.37,-1.18 0.79,-0.79 1.18,-1.57 1.18,-2.36l0 -1.18c0,-1.19 0,-2.37 -0.39,-3.15 -0.4,-0.78 -1.19,-1.18 -1.97,-1.18zm-1556.56 -1370c2.37,-0.78 5.12,-1.18 8.27,-1.18 2.36,0 4.72,0.4 6.69,1.18l3.54 0c3.15,0 6.69,-0.39 10.63,-1.18 3.54,-0.79 7.47,-1.18 11.41,-1.18 3.15,0 5.9,0.79 7.87,2.36 2.37,1.58 3.54,4.72 3.54,9.45l0 2.36c11.42,5.9 18.89,15.74 22.04,29.13 3.15,13.38 4.72,28.34 4.72,44.47l0 48.41c0.79,5.51 0.79,10.63 0.79,16.13 0,15.35 -1.58,29.92 -5.51,43.69 -2.36,13.38 -3.54,25.18 -3.54,35.81l0 8.26c0,17.71 -3.94,37 -11.42,57.46 -3.94,12.99 -6.69,24.4 -8.26,33.45 1.57,6.3 2.36,12.6 2.36,19.68 0,15.35 -3.54,30.7 -10.23,46.05 -6.3,14.56 -9.45,29.12 -9.45,43.68 0,5.51 0.79,11.02 2.37,16.53 -1.58,48.41 -10.63,93.27 -27.55,134.6 -3.94,12.6 -6.3,24.01 -7.08,34.63 -0.79,18.5 -6.69,38.57 -18.5,60.22 0,28.34 -3.94,56.68 -12.6,85.01 -4.72,19.29 -8.26,38.97 -11.42,59.04 -0.78,13.78 -1.18,27.55 -1.18,41.33 -0.79,26.37 -2.76,53.92 -5.9,83.04 -2.36,4.72 -3.15,9.84 -3.15,14.95 0,5.51 0.4,11.42 1.97,17.32 1.58,7.08 2.36,13.78 2.36,20.86 0,10.63 -3.93,22.04 -12.59,33.45l0 2.36c0,10.63 -4.72,21.26 -13.78,31.49 -9.45,10.63 -19.29,15.74 -29.92,15.74 -4.72,0 -9.05,-1.18 -12.99,-3.54 -4.33,-11.41 -11.81,-17.31 -21.65,-17.31 -8.65,0 -17.71,1.97 -27.94,5.9 -9.05,3.94 -17.71,5.9 -26.37,6.69 -4.72,-2.76 -10.62,-4.72 -18.49,-5.51 -6.69,-1.57 -12.99,-3.94 -18.89,-7.08 -5.9,-3.15 -9.45,-9.05 -11.03,-18.5 -13.78,-38.96 -24.79,-80.68 -33.45,-124.37 -2.36,-12.2 -3.54,-26.36 -3.54,-41.72 0,-4.33 0,-8.66 0,-12.6 -0.79,-12.99 -1.58,-24.79 -2.37,-35.81 -0.78,-10.63 -2.75,-18.89 -6.69,-24.01 -15.35,18.49 -29.52,37.38 -42.9,56.28 -21.25,32.27 -46.04,62.18 -73.59,88.95 -20.08,26.76 -45.66,47.62 -77.14,62.18 -11.03,6.29 -21.65,12.59 -32.27,19.68 -22.44,10.62 -44.87,16.13 -66.91,16.13 -26.37,0 -50.38,-5.9 -72.81,-17.32 -5.51,0 -10.23,0.4 -14.95,1.19 -9.05,0 -18.1,0 -26.37,0 -22.43,0 -44.86,-4.72 -66.9,-13.78 -2.37,-6.3 -6.3,-11.42 -11.81,-15.74 -5.12,-3.94 -11.42,-7.87 -18.11,-11.02 -9.44,-4.33 -17.31,-9.84 -24.4,-16.53 -7.08,-6.69 -10.63,-16.53 -11.42,-29.52 -12.99,-46.05 -19.68,-93.28 -19.68,-141.69 0,-22.43 0.79,-44.47 2.37,-66.9 1.57,-11.42 3.15,-23.61 4.72,-35.82 1.97,-37.78 11.81,-73.59 28.73,-108.23 4.72,-13.78 8.27,-28.73 11.42,-45.26 3.15,-32.27 14.56,-61 34.63,-86.19 17.71,-49.99 40.54,-97.61 69.27,-142.87 5.9,-9.45 11.81,-17.71 17.32,-25.58 7.47,-10.63 14.95,-21.26 21.65,-31.1 7.08,-9.84 14.17,-22.04 22.04,-35.81 17.71,-22.44 37,-43.29 57.86,-63.36 9.84,-9.84 19.68,-20.47 29.91,-31.09 15.35,-7.87 30.31,-16.14 44.86,-25.58 23.22,-13.78 47.63,-25.98 73.6,-36.6 11.02,-0.79 21.65,-2.37 32.27,-4.72 16.13,-3.15 31.88,-4.72 47.62,-4.72 18.1,0 34.63,4.72 49.59,13.78 31.49,24.01 51.16,53.52 59.82,88.95 6.29,26.76 9.05,54.7 9.05,83.04 0,20.86 -2.36,40.93 -6.69,61 -3.94,11.02 -7.87,22.04 -11.81,33.45 -9.05,35.42 -24.01,67.69 -44.86,96.82 -12.2,-1.58 -20.47,-8.26 -24.79,-20.07 -4.33,-11.81 -7.09,-25.98 -8.66,-42.11 -2.37,-20.07 -6.69,-36.6 -13.78,-49.59 -3.94,-13.78 -6.69,-28.73 -9.05,-44.87 -3.15,-16.92 -7.08,-33.45 -11.81,-49.2 -4.33,-15.74 -12.6,-28.73 -24.01,-39.75 -27.15,23.22 -49.59,49.99 -67.69,80.29 -17.71,30.31 -34.24,61.4 -48.81,92.89 0,0.78 -0.39,1.57 -1.18,2.36 -17.71,32.27 -31.49,64.94 -41.33,98 -4.72,12.2 -9.44,24.4 -14.17,36.6 -9.84,29.92 -17.71,59.82 -22.83,88.95 -3.15,16.92 -6.69,33.45 -10.63,49.59 -1.18,12.2 -2.76,23.61 -4.33,34.63 -3.94,24.4 -5.9,49.59 -5.9,74.77l0 16.14c0.79,17.71 2.76,35.81 5.9,53.52 3.15,18.1 7.87,33.84 14.95,46.83 3.94,16.93 10.23,25.58 19.68,25.58 9.05,0 18.89,-4.72 29.12,-13.38 10.63,-9.05 20.47,-18.5 29.52,-28.34 5.51,-4.72 9.84,-8.66 13.78,-12.6 7.87,-8.65 15.35,-16.92 23.22,-25.58 22.04,-21.25 39.36,-44.47 51.95,-68.87 33.06,-47.63 62.97,-96.82 89.73,-146.41 0.79,-1.57 1.58,-3.15 2.37,-4.72 10.62,-17.71 20.46,-35.82 28.73,-54.31 12.2,-24.4 26.36,-48.42 41.72,-71.24 15.35,-46.44 33.84,-91.3 55.1,-134.99 4.72,-27.95 13.38,-54.31 25.58,-79.5 8.26,-17.71 15.35,-35.81 20.46,-54.31 16.93,-21.65 29.52,-44.86 37,-70.45 8.66,-25.98 21.65,-49.2 39.36,-69.27 7.47,-13.78 18.1,-26.77 31.49,-39.76 13.78,-12.59 27.55,-20.46 42.11,-23.61zm-316.82 198.36c-1.57,0 -2.36,0.4 -2.36,1.18l1.18 1.19c0.79,1.57 1.58,2.36 2.76,2.75 1.18,0.4 2.36,0.79 3.94,0.79 0.79,0 1.58,-0.39 2.36,-0.79 0.79,-0.39 1.19,-0.78 1.19,-1.57 0,-0.79 -0.79,-1.18 -2.37,-1.58 -1.57,-0.39 -3.15,-1.18 -4.33,-1.97l-2.37 0zm4.33 10.63c-0.79,0 -1.58,0.39 -1.97,1.58 -0.79,1.18 -1.18,1.97 -1.18,2.75 0,1.58 0.39,2.76 1.18,3.15 0.39,0.39 1.18,0.39 1.97,0.39 1.57,0 2.76,-0.39 3.54,-1.58 0.79,-1.18 1.19,-2.36 1.19,-3.15 0,-1.57 -0.4,-2.36 -1.19,-2.76 -0.78,-0.39 -1.97,-0.39 -3.54,-0.39zm0 20.47c-1.18,0 -1.97,1.57 -1.97,4.72 0,2.36 0.39,4.72 0.79,7.08 3.15,11.41 5.51,16.92 7.08,16.92 0,0 0.39,-0.79 1.18,-3.15 0,-0.79 -0.39,-2.76 -1.18,-5.9 0,-3.94 -0.4,-7.48 -1.18,-10.24 0,-2.36 0,-3.94 0,-4.72 0,-1.58 -0.4,-2.76 -1.19,-3.54 -0.78,-0.79 -1.97,-1.18 -3.54,-1.18zm-295.17 118.85c-0.79,0 -1.58,0.79 -1.97,2.76 -0.79,1.97 -1.18,4.72 -1.18,7.48l0 4.72c0.78,6.3 1.57,9.45 1.97,9.45 0.78,0 1.97,-2.76 3.54,-8.26 1.58,-3.94 2.37,-7.09 2.37,-9.06 0,-2.36 -0.4,-3.94 -1.19,-4.72 -0.78,-0.79 -1.18,-1.58 -1.57,-1.97 -0.4,0 -1.18,-0.4 -1.97,-0.4zm313.67 42.5c0,0.79 0,1.58 0,2.37 0.78,0.78 1.18,1.57 1.18,2.36 1.57,3.15 2.76,4.72 3.54,4.72l1.19 0c0.78,0 1.18,-0.4 1.18,-1.18 0,-0.79 -0.4,-1.58 -1.18,-2.76 -0.79,-1.18 -1.58,-2.37 -2.37,-3.15 -0.79,-0.79 -1.18,-1.19 -1.57,-1.58 -0.4,-0.39 -1.19,-0.79 -1.97,-0.79zm-463.23 305.8c-0.79,0 -1.97,1.58 -3.54,4.33 -1.58,1.58 -2.76,3.94 -3.54,6.69 -0.79,2.37 -1.18,4.72 -1.18,6.3 0,3.15 0.39,4.33 1.18,4.33 0.79,0 1.97,-1.18 3.54,-4.33 1.57,-2.37 2.36,-5.12 2.75,-7.48 0.4,-2.76 0.79,-5.12 0.79,-6.29l0 -3.54zm436.86 20.86c-1.58,0.4 -2.37,1.58 -2.37,3.15l0 1.19c0.79,0.78 1.58,1.57 2.37,2.36 0.79,0.79 1.57,1.18 2.36,1.18 0.79,0 1.18,-0.39 1.58,-1.57 0.39,-1.19 0.79,-2.37 0.79,-3.15 0,-1.57 -0.4,-2.36 -1.19,-2.75 -0.78,-0.4 -1.97,-0.4 -3.54,-0.4zm-438.04 5.51c-1.57,0 -3.15,7.87 -4.72,23.22 -0.78,5.12 -1.18,9.05 -1.18,11.42 0,3.15 0.4,4.72 1.18,4.72 0.79,0 1.58,-0.79 2.37,-2.37 1.57,-2.36 2.36,-5.9 2.75,-10.23 0.4,-4.72 0.79,-9.05 0.79,-12.99 0,-9.05 -0.39,-13.78 -1.18,-13.78zm567.13 22.04c-0.79,0 -1.58,0.79 -2.37,2.76 -0.79,1.97 -1.18,3.94 -1.18,6.29 0,2.37 0.39,4.33 0.79,5.9 0.39,1.58 0.79,2.37 1.57,2.37 0,0 0.4,-0.4 0.79,-1.19 0,-0.78 0.4,-1.97 0.79,-3.54 0.39,-1.58 1.18,-3.15 1.97,-4.72l0 -3.15c0,-3.15 -0.79,-4.72 -2.36,-4.72zm-86.59 46.05c-0.79,0.78 -1.58,1.18 -2.37,1.18 -0.78,0.79 -1.57,1.97 -3.15,3.54l-2.36 3.54 0 0.79c0.79,0 2.36,-0.79 4.72,-1.97 2.75,-2.37 4.33,-3.94 4.33,-4.72l0 -2.36c0,0 -0.39,0 -1.18,0zm-480.54 2.36c-0.79,0 -1.97,0.79 -3.15,2.76 -1.18,1.97 -1.97,4.33 -2.76,7.47 -1.57,2.37 -2.36,4.72 -2.36,7.09 0,3.15 1.57,5.12 4.72,6.69 3.93,0.79 6.29,1.19 7.86,1.19l2.37 0c0.79,-0.79 1.18,-1.58 1.18,-2.37 0,-1.18 -1.18,-2.36 -3.54,-3.15 -3.15,-2.36 -4.33,-5.51 -4.33,-9.45l0 -2.36c0.79,-2.36 1.18,-3.94 1.18,-5.51 0,-1.57 -0.39,-2.36 -1.18,-2.36zm562.41 33.45c0,0 -0.4,0.39 -1.18,1.18 0,0.79 -0.4,1.58 -1.19,2.37l-4.33 4.33c0,0.79 -0.39,1.18 -1.18,1.18 -0.79,1.58 -1.18,3.15 -1.18,4.72 0,4.72 2.36,12.2 6.69,23.22 2.37,5.9 3.94,11.42 4.72,16.53 0.79,5.12 1.18,9.05 1.18,12.2l0 4.72c0,1.97 0.79,3.15 2.37,3.15 1.57,0 2.36,-1.97 2.76,-6.3 0.39,-4.33 0.78,-9.05 0.78,-14.17 0,-6.3 -0.39,-11.42 -0.78,-15.74 -0.4,-4.33 -0.79,-6.69 -1.58,-7.48 -0.79,-0.79 -1.58,-2.76 -2.36,-6.29 -0.79,-3.54 -1.19,-6.69 -1.19,-9.84 0,-1.58 0,-3.15 0,-4.72 -0.78,-5.9 -1.57,-9.05 -2.36,-9.05l-1.18 0zm-554.54 4.72c-0.79,0 -1.18,0 -1.58,0.39 -0.39,0.4 -1.18,0.79 -1.97,1.58 -1.57,1.57 -2.36,3.15 -2.36,4.72 0,2.36 0.79,4.33 2.36,5.9 1.58,1.57 3.54,2.36 5.9,2.36 0.79,-0.79 1.19,-2.76 1.19,-5.9l0 -3.54c-0.79,-1.57 -1.19,-2.75 -1.58,-3.54 -0.39,-0.79 -1.18,-1.18 -1.97,-1.97zm4.72 24.01c-1.58,0.79 -2.76,1.58 -3.54,2.36 -0.79,0.79 -1.57,1.97 -2.36,3.54 -0.79,2.36 -1.58,4.33 -2.76,6.69 -1.18,2.36 -1.97,3.94 -2.76,4.72l0 1.18c0,0.79 1.58,2.36 5.51,4.72 3.94,2.36 7.87,4.33 12.2,6.29 4.33,1.97 7.87,3.15 11.02,3.94 0,-1.58 -1.57,-4.33 -4.72,-8.26 -1.58,-1.97 -3.15,-4.72 -4.72,-7.87 -1.58,-3.15 -2.37,-5.9 -2.37,-7.87 0,-3.15 -0.39,-5.51 -1.57,-7.09 -1.18,-1.57 -2.37,-2.36 -3.94,-2.36zm27.55 47.23l-1.18 1.18c0,0.79 0.78,1.97 1.97,2.76 1.18,1.18 2.36,2.76 3.94,4.33 4.72,2.37 7.47,3.54 9.05,3.54l1.18 0c0,-1.58 -1.97,-3.94 -5.51,-7.08 -3.15,-3.15 -5.9,-4.72 -8.26,-4.72l-1.18 0zm525.8 10.63c-0.78,0 -1.18,0 -1.57,0.39 -0.4,0.39 -0.79,1.18 -0.79,2.76 0,0.79 0.79,2.36 2.36,4.33 1.58,1.97 3.15,3.54 4.72,5.12 1.58,1.58 3.15,2.37 4.72,2.37 0,0 0,-0.79 0,-2.37 0,-1.57 -0.39,-3.54 -1.18,-5.9 -3.15,-4.72 -5.9,-6.69 -8.27,-6.69zm-552.17 16.92c-1.58,0 -2.36,0.39 -2.36,1.18 0,0.79 0.39,1.97 1.18,3.54 0.79,1.57 2.36,2.75 4.72,3.54 1.97,0.79 4.72,1.18 7.87,1.18 2.36,0 4.72,-0.39 7.08,-1.18 1.97,-0.79 3.15,-1.97 3.15,-3.54 0,-0.79 -0.39,-1.58 -1.58,-2.37 -1.18,-0.79 -1.97,-1.18 -2.75,-1.18l-7.09 0c-3.15,0 -5.51,-0.39 -7.87,-1.18l-2.36 0zm554.54 7.08c-1.58,0.79 -2.76,1.58 -3.54,2.36 -0.79,0.79 -1.57,1.97 -2.36,3.54l0 1.18c0,0.79 1.18,1.97 3.15,4.33 1.97,2.36 3.94,4.33 6.29,5.9 2.37,1.57 3.94,2.36 5.51,2.36l1.18 0 0 -1.18c0,-1.58 -0.39,-3.94 -1.18,-7.08 0,-0.79 0,-1.58 0,-1.97 -1.58,-6.3 -4.33,-9.45 -9.05,-9.45zm14.95 25.58c-0.79,0 -1.18,0 -1.58,0.39 -0.39,0.4 -1.18,0.79 -1.97,1.58 -1.57,1.57 -2.36,3.54 -2.36,5.9 0,1.57 0.39,2.76 1.18,3.54 1.58,1.58 2.76,2.37 3.54,2.37 1.57,0 2.76,-0.79 3.54,-2.37 1.58,-2.36 2.37,-4.33 2.37,-5.9 0,-1.57 -0.4,-2.75 -1.18,-3.54 -0.79,-0.79 -1.58,-1.18 -1.97,-1.58 -0.4,-0.39 -0.79,-0.39 -1.58,-0.39zm-526.99 6.69c-3.15,0.78 -4.72,1.18 -4.72,1.18l4.72 2.36c3.15,1.58 6.29,2.37 9.45,2.37l3.15 0c3.15,0 4.72,-0.4 4.72,-1.19 0,-0.78 -1.58,-1.57 -4.72,-2.36 -2.76,-1.58 -5.9,-2.36 -9.05,-2.36l-3.54 0zm535.25 17.31c-0.79,0 -1.57,0 -1.97,0 -0.39,0 -0.78,0.4 -1.57,1.18 -4.72,1.58 -7.08,3.54 -7.08,5.9 0,2.76 3.15,6.69 9.44,11.42 4.33,3.94 7.87,5.9 10.23,5.9 0.79,0 1.19,-0.39 1.19,-1.18 0,-1.58 -1.58,-4.33 -4.72,-8.27 -1.58,-1.57 -2.76,-3.15 -3.54,-4.72 -0.79,-1.19 -1.18,-2.76 -1.18,-4.33l0 -5.9c0,0 0,0 -0.79,0zm0 46.05l-1.18 0c0,0 0,0.39 0,1.18 -0.79,0 -1.18,0.39 -1.18,1.18 0,0.79 0.39,1.58 1.18,2.37 0.79,0.78 1.97,1.57 3.15,2.36 3.15,1.58 5.51,2.36 7.08,2.36 0,-0.78 -1.18,-2.75 -3.54,-5.9 -2.37,-2.36 -4.33,-3.54 -5.51,-3.54zm24.01 9.44c-0.79,0 -1.19,0.4 -1.19,1.19 -0.78,0 -1.18,0 -1.57,0 -0.4,0 -0.79,0.39 -0.79,1.18l0 0.79c0.79,0.78 1.97,1.57 3.54,1.97 1.57,0.39 3.15,0.39 4.72,0.39 2.37,0 3.94,0 5.12,-0.39 1.18,-0.4 1.57,-1.19 1.57,-1.97 0,-1.19 -2.76,-1.97 -9.05,-1.97 0,0 0,-0.4 0,-1.19 -0.79,0 -1.18,0 -1.18,0 0,0 0,0 0,0 0,0 0,0 0,0 0,0 0,0 0,0 0,0 0,0 0,0 0,0 -0.4,0 -1.18,0zm573.03 -1044.91c20.08,1.58 38.57,8.26 55.89,20.47 17.31,11.81 25.97,28.33 25.97,49.98l0 3.54c3.15,-0.79 7.48,-3.94 13.38,-9.84 5.51,-5.9 12.2,-12.6 20.07,-20.07 12.2,-14.56 23.22,-25.98 33.45,-33.45 2.36,-0.79 4.33,-1.58 5.9,-2.37 13.78,-6.29 27.94,-11.81 42.5,-17.31 14.56,-5.51 29.52,-8.27 44.86,-8.27 10.24,0 20.08,1.58 29.92,4.72 30.7,20.08 46.44,45.26 46.44,76.36 0,6.69 -0.79,14.17 -2.37,21.64 -1.57,7.09 -2.75,13.38 -3.54,19.68 -7.87,29.13 -11.42,59.43 -11.42,90.92l0 7.08c-1.57,14.56 -2.36,29.12 -2.36,43.68 0,16.92 1.57,34.24 5.12,51.95 3.54,17.71 9.84,34.63 18.89,50.77 -2.36,5.51 -4.33,9.45 -6.69,12.6 -2.36,3.15 -3.54,5.9 -3.54,8.26 0,1.58 1.18,3.15 3.54,5.12 2.37,1.97 5.9,3.94 11.42,6.3 7.08,15.35 12.6,29.52 17.31,42.9 9.84,25.19 21.26,46.44 33.45,63.76 12.2,17.31 33.85,32.27 64.55,44.47 -21.65,32.27 -50.38,57.07 -86.59,74.78 -36.21,17.7 -70.05,26.76 -102.72,26.76 -12.2,0 -23.61,-1.19 -34.24,-3.54l-2.36 0c-22.44,0 -43.29,-10.23 -62.97,-31.09 -19.68,-20.87 -33.84,-42.9 -43.29,-65.73 -10.63,-18.5 -19.28,-37.78 -25.97,-57.86 -6.29,-19.68 -9.84,-40.14 -9.84,-61 0,-5.51 0.39,-10.63 1.18,-16.14 0,-0.79 -0.39,-1.18 -1.18,-1.18 -1.97,0 -5.51,4.72 -9.84,14.56 -3.94,9.44 -8.26,20.07 -12.99,31.49 -5.51,13.78 -10.24,24.79 -13.78,32.27 -16.92,39.36 -29.91,73.21 -38.18,101.54 -8.66,28.34 -16.53,64.15 -24.4,107.44 -2.75,9.84 -5.9,19.29 -9.05,28.73 -8.65,24.4 -16.13,49.59 -22.43,74.78 -6.69,25.58 -9.84,51.16 -9.84,77.53 0,14.56 1.57,29.13 4.72,43.69 0,19.28 -1.57,46.83 -4.33,82.25 -2.36,35.81 -5.9,64.54 -9.45,86.19l0 1.19c0,4.33 -1.97,8.26 -5.51,10.62 -3.15,2.76 -7.48,4.33 -11.81,4.33l-3.54 0c-12.99,-5.51 -27.15,-9.05 -41.72,-10.63 -13.78,-1.58 -26.76,-4.72 -38.57,-10.23 -11.81,-5.51 -21.65,-16.14 -29.52,-32.27 -25.18,-46.84 -40.54,-96.03 -46.05,-147.59 -3.15,-25.58 -4.33,-50.38 -4.33,-75.17 0,-46.04 2.76,-92.48 9.05,-139.32 0.79,-14.56 1.97,-29.52 3.54,-44.86 3.15,-14.56 5.12,-29.92 5.51,-46.44 0,-28.34 5.9,-53.53 17.32,-75.96l0 -6.69c0,-39.36 7.48,-78.32 22.04,-116.5 1.58,-42.5 12.99,-81.07 34.63,-116.5 3.15,-10.24 6.3,-20.07 9.06,-29.91 9.44,-33.85 21.25,-65.73 35.81,-96.03 7.87,-13.78 14.56,-28.33 20.86,-43.68 7.48,-22.83 18.5,-43.68 32.27,-62.18 3.15,-7.08 7.87,-12.2 14.56,-15.74 6.3,-3.15 13.38,-6.69 21.26,-9.84 12.2,-2.76 22.04,-7.87 29.91,-14.95zm-64.54 312.49c-0.79,0 -2.76,2.36 -5.9,7.08 -1.58,2.36 -2.76,4.72 -3.94,7.47 -1.18,2.76 -1.58,4.72 -1.58,6.3 0,0.78 0.4,1.18 1.18,1.18 1.19,0 3.15,-2.37 5.51,-7.08 1.58,-1.97 2.76,-4.72 3.54,-7.87 0.78,-3.15 1.18,-5.12 1.18,-5.9l0 -1.18zm228.27 79.5c-0.79,0 -1.18,0.39 -1.18,1.18 0,0 0.79,1.18 2.36,3.54 0.79,0.79 1.58,2.36 2.37,4.72 4.33,6.69 7.87,10.23 10.23,10.23 1.58,0 2.36,-1.18 2.36,-3.54l0 -1.97c0,-1.57 -0.78,-3.54 -2.75,-5.9 -1.97,-2.36 -4.72,-4.33 -7.48,-5.9 -1.58,-0.78 -2.76,-1.18 -3.54,-1.57 -0.78,-0.4 -1.57,-0.79 -2.36,-0.79zm11.42 24.4c-0.79,0.79 -1.19,1.57 -1.58,2.36 -0.39,0.79 -1.18,2.37 -1.58,4.72l0 1.18c0,2.76 1.19,6.3 4.33,9.45 3.15,3.54 6.29,5.51 9.44,5.51 0.79,0 1.19,-0.79 1.19,-2.36 0,-2.36 -0.79,-5.51 -2.37,-9.45 -2.36,-7.47 -5.51,-11.41 -9.44,-11.41zm24.4 43.68l-1.18 1.18c0,1.58 -1.18,3.15 -3.54,3.94 -2.37,1.18 -5.12,2.37 -7.87,3.15 -3.15,0 -6.3,0.4 -8.66,1.58 -2.76,1.18 -4.72,2.76 -5.51,4.33l0 0.79c0,1.58 1.18,2.37 3.54,2.37l2.36 0c2.37,0 5.51,0.78 9.84,1.97 4.33,1.18 8.27,2.36 12.2,3.94 8.26,3.94 13.38,5.9 14.95,5.9l0 -1.19c0,0 -1.58,-1.18 -4.72,-3.54 -1.58,-1.58 -3.15,-3.94 -5.12,-7.48 -1.97,-3.54 -2.76,-6.69 -2.76,-9.84 -0.79,-2.36 -1.58,-3.94 -1.97,-5.12 -0.39,-1.18 -0.79,-1.97 -1.58,-1.97zm37.79 47.23c-1.19,0 -2.37,0.39 -3.15,1.18 0,0 -0.39,0 -1.18,0 0,0.79 0,1.97 0.4,3.15 0.39,1.18 1.18,2.37 1.97,3.94 1.57,1.58 3.15,2.76 5.12,3.54 1.97,0.79 3.54,1.18 5.12,1.18 1.58,0 3.15,-0.39 4.72,-1.18 1.57,-0.79 2.36,-1.97 2.36,-3.54 -0.79,-1.57 -2.76,-3.15 -5.9,-4.72 -3.15,-1.57 -6.29,-2.75 -9.44,-3.54zm-0.79 36.99c-1.58,0 -2.37,0.4 -2.37,1.19 0,1.57 1.19,3.54 3.15,5.9 3.94,3.15 6.69,4.33 8.26,4.33 1.58,0 2.36,-0.4 2.36,-0.79 0,-1.57 -1.18,-3.54 -3.54,-5.9 -0.79,-1.57 -1.97,-2.76 -3.54,-3.54 -1.57,-0.79 -3.15,-1.19 -4.33,-1.19zm-1482.96 -1074.43c-0.78,0 -1.97,0.39 -3.54,1.18 -1.58,0.79 -2.76,1.97 -3.54,3.15l-1.18 2.37c0,1.57 0.79,2.36 2.36,2.36 1.58,0 3.15,-0.39 4.33,-1.18 0.79,-0.79 1.97,-1.97 2.76,-3.54l1.18 -1.97c0,-1.57 -0.79,-2.36 -2.37,-2.36zm-94.45 12.6c-3.15,0 -5.51,0.39 -7.48,1.18 -1.97,0.79 -3.15,1.97 -3.15,3.54 0,0.78 0.79,1.18 2.36,1.18l8.27 0c2.75,-0.79 5.51,-1.58 7.47,-1.97 1.97,-0.4 2.76,-0.79 2.76,-1.58 0,-0.79 -0.79,-1.57 -2.76,-1.97 -1.97,-0.39 -4.72,-0.39 -7.47,-0.39zm-118.86 107.05c-0.79,0 -1.18,0.4 -1.18,1.18 0,0.79 2.36,1.19 7.08,1.19 3.54,0 5.51,-0.4 5.51,-1.19 0,-0.78 -0.4,-1.18 -1.18,-1.18 -0.79,-0.79 -1.19,-0.79 -1.19,-0.79l-5.51 0c-1.58,0 -2.76,0 -3.54,0.79zm84.23 49.59c-2.37,0 -5.51,0.4 -9.45,1.19 -1.58,0.78 -3.15,1.18 -5.51,1.18 -25.58,1.57 -50.77,3.54 -76.35,5.9 -42.9,4.72 -86.19,7.47 -130.27,9.05 -16.92,-1.58 -33.84,-2.36 -50.77,-2.36 -22.04,0 -44.47,0.78 -66.91,2.36 -17.32,0.79 -35.03,1.58 -52.73,2.36l0 1.19c0,9.44 2.36,17.7 6.69,25.58 4.72,7.48 9.84,14.96 14.95,21.65 13.38,14.56 21.65,31.88 25.58,51.95 29.92,57.07 50.38,117.28 61,181.04 5.51,29.92 8.27,59.43 8.27,88.95 0,17.71 -1.19,34.64 -3.54,51.56 1.58,3.15 2.36,7.47 2.76,12.2 0.39,5.12 0.79,10.63 0.79,16.92 0,5.12 0,9.84 0.39,13.78 0.39,3.94 1.18,5.9 2.76,5.9 1.57,0 4.33,-5.51 8.26,-16.53 0.79,-0.39 1.18,-1.57 1.18,-3.15 1.58,-5.51 4.33,-10.63 7.87,-14.95 14.17,-18.5 25.98,-38.57 35.82,-60.22 7.87,-18.5 17.31,-35.81 28.73,-51.95 11.02,-18.89 21.65,-37.78 32.27,-56.28 16.92,-27.54 33.06,-56.67 48.41,-86.58 12.6,-20.08 24.4,-40.54 35.82,-62.18 14.56,-29.13 31.09,-57.46 49.59,-84.23 3.15,-5.51 7.87,-11.81 13.78,-19.68 4.72,-5.12 9.05,-10.62 12.99,-16.13 3.54,-5.12 5.51,-9.84 5.51,-13.78 0,-3.15 -2.37,-4.72 -7.87,-4.72zm-418.76 51.95c-0.78,0.79 -1.18,1.58 -1.57,1.97 -0.4,0.39 -0.4,1.18 -0.4,2.76 -0.78,0.79 -1.18,1.97 -1.18,3.54 0,1.58 0.4,3.15 1.97,4.33 1.58,1.57 3.15,2.36 4.72,2.36 1.58,0 3.15,-1.18 4.72,-3.54l0 -0.79c0,-1.58 -1.18,-3.94 -3.54,-7.08 -1.57,-2.37 -3.15,-3.54 -4.72,-3.54zm439.62 65.73c-0.79,0 -1.58,0.39 -2.37,0.78 -0.78,0.4 -1.57,0.79 -2.36,1.58 -3.94,3.15 -5.9,5.51 -5.9,7.08 1.58,0 3.15,-0.39 4.72,-1.18l1.18 0c1.58,-0.79 2.76,-1.97 3.94,-3.54 1.18,-1.57 1.97,-2.75 1.97,-3.54l0 -1.18c0,0 -0.39,0 -1.18,0zm-390.02 8.26c-0.79,0 -1.58,0.39 -2.37,1.18 -0.79,0.79 -0.79,1.97 -0.79,3.15 0.4,4.72 1.58,7.09 3.15,7.09 0.78,0 1.97,-1.19 3.54,-3.54l0 -2.36c0,-0.79 0,-1.58 -0.39,-1.97 -0.4,-0.79 -1.18,-1.58 -1.97,-2.37l0 -1.18 -1.18 0zm29.91 74.78l-0.79 0 -1.18 2.36c0,1.58 0.39,3.54 1.18,5.9 0.4,2.36 1.58,3.94 2.76,5.51 1.18,1.57 1.97,2.36 2.76,2.36l0 -4.72c0,-1.18 -0.4,-2.76 -1.18,-4.33 -0.79,-4.72 -1.97,-7.08 -3.54,-7.08zm316.03 2.36c-0.79,0 -1.97,1.18 -3.94,3.94 -1.97,2.76 -4.33,5.9 -7.47,9.84 -3.15,5.51 -4.72,9.05 -4.72,10.63 0,1.18 0.39,1.97 1.18,1.97 1.58,0 3.15,-1.18 5.12,-3.15 1.97,-2.37 3.94,-5.51 5.51,-9.45 2.75,-6.69 4.33,-11.41 4.33,-13.78zm-329.81 2.37l-3.15 0c-0.79,0 -1.18,0.78 -1.18,2.36 0,0.79 0.39,1.57 1.57,2.76 1.18,1.18 1.97,1.57 2.76,1.57 1.58,0 2.76,0 3.15,-0.39 0.4,-0.4 0.4,-0.79 0.4,-1.58 0,-0.79 0,-1.57 -0.4,-2.36 -0.39,-0.79 -1.57,-1.58 -3.15,-2.36zm312.49 29.91c0,0 0,0 -0.4,0 -0.39,0 -0.79,0 -0.79,0l0 1.18c-1.57,0.79 -2.75,1.58 -3.15,2.76 -0.79,1.18 -1.18,2.76 -1.18,4.33 0,1.18 0.79,1.97 1.97,1.97 0.79,0 1.58,-0.39 2.36,-0.79 1.58,-0.78 2.76,-1.97 3.15,-3.54 0.39,-1.58 0.39,-2.76 0.39,-3.54 0,-0.79 0,-1.18 -0.39,-1.57 -0.4,-0.4 -1.19,-0.79 -1.97,-0.79zm-65.73 125.55c-0.79,0 -1.58,0.39 -2.36,1.18 -0.79,0.79 -1.19,1.97 -1.19,3.54 0,1.57 0.4,2.76 1.19,3.54 0.78,0.79 1.57,1.19 2.36,1.19 1.58,0 2.76,-0.4 3.54,-1.19 0.78,-0.78 1.18,-1.97 1.18,-3.54 0,-1.58 -0.4,-2.76 -1.18,-3.54 -0.79,-0.79 -1.97,-1.18 -3.54,-1.18zm-37.78 94.85c0,0 -0.4,0 -0.79,0 -0.4,0 -0.79,0.39 -1.58,1.18 -1.57,1.18 -2.36,3.15 -2.36,5.51 0,1.57 0.39,2.76 1.18,3.54 1.58,3.15 2.76,4.72 3.54,4.72 1.57,0 1.97,-2.76 1.97,-8.26l0 -1.18c0,-1.58 0,-2.76 -0.4,-3.94 -0.39,-1.19 -0.79,-1.58 -1.57,-1.58zm-35.82 77.14c-2.36,0 -4.33,1.18 -5.9,3.54 -2.36,4.33 -3.54,7.87 -3.54,10.23 0,0.79 0.39,1.58 1.18,2.37 0.79,0 2.76,-1.58 5.9,-4.72 3.15,-3.94 4.72,-6.69 4.72,-9.05 0,-0.79 -0.4,-1.19 -1.18,-1.19l0 -1.18 -1.19 0zm-26.76 58.65l-1.18 0 -3.15 3.54c-3.15,3.94 -4.72,7.48 -4.72,10.24l0 1.18c1.58,2.36 3.15,3.54 4.72,3.54 1.57,0 2.76,-1.18 3.94,-3.54 1.18,-1.97 1.57,-5.12 1.57,-9.05 0,-1.58 0,-2.76 0,-3.94 0,-1.19 -0.39,-1.97 -1.18,-1.97zm-27.55 69.27c-3.15,0 -5.12,1.97 -5.9,5.9 0,1.57 0.4,2.76 1.19,3.94 0.78,1.18 1.57,1.57 2.36,1.57 0.79,0 1.58,-0.39 2.36,-1.57 0.79,-1.18 1.58,-2.37 2.37,-3.94l0 -2.37c0,-2.36 -0.79,-3.54 -2.37,-3.54zm-7.87 25.58c-0.78,0 -1.57,0.39 -2.36,0.78 -0.79,0.79 -1.58,1.97 -2.36,3.54l0 1.18c0,1.58 0.78,2.37 2.36,2.37 1.58,0 2.76,-0.4 3.15,-1.19 0.79,-0.78 1.18,-1.57 1.18,-2.36 0,-0.79 -0.39,-1.58 -0.78,-2.36 0,-0.79 0,-1.19 0,-1.58 0,-0.39 -0.4,-0.39 -1.19,-0.39zm-59.03 138.14c-0.79,0 -1.58,0.39 -2.76,0.78 -1.18,0.4 -2.37,0.79 -3.15,1.58 -1.19,1.58 -2.76,3.94 -3.94,7.08 -1.19,2.76 -1.58,5.9 -1.58,9.05 0,3.15 0.39,5.51 1.18,7.09 0.79,1.18 1.58,1.97 2.37,1.97l1.18 0c1.97,-1.19 3.15,-2.37 3.15,-3.15l0 -2.36c0,-0.79 0.39,-1.97 1.18,-3.54 0.79,-1.57 1.97,-3.15 3.54,-4.72 2.36,-3.15 3.54,-5.51 3.54,-7.87 0,-3.15 -1.57,-5.12 -4.72,-5.9zm-18.5 56.67l-1.18 0c-0.79,1.58 -1.19,2.76 -1.19,4.33l0 2.37c1.58,2.36 2.76,3.54 3.54,3.54 0.79,0 1.18,-0.78 1.18,-2.36l0 -6.69c0,-0.79 -0.79,-1.18 -2.36,-1.18zm-6.69 20.47c0,0 -0.39,0.79 -0.79,1.97 -0.39,1.18 -0.39,2.36 -0.39,3.94 0,3.15 0.39,5.12 1.18,5.9 0.79,0 1.18,-0.4 1.18,-1.18 1.58,-0.79 2.37,-1.97 2.37,-3.54 0,-1.58 -0.4,-3.15 -1.19,-4.72l-1.18 -2.36c-0.79,0 -1.18,0 -1.18,0 0,0 0,0 0,0 0,0 0,0 0,0 0,0 0,0 0,0 0,0 0,0 0,0zm-122.4 332.17c-3.94,0 -5.9,8.27 -5.9,24.4 0,2.36 0,4.72 0,7.87 0,1.58 0,3.15 0,4.72 0,1.57 -0.39,2.36 -1.97,2.36 -0.79,0 -1.57,1.18 -1.97,3.54 -0.39,1.97 -0.39,4.72 -0.39,7.87 0,4.72 0.39,9.84 1.18,15.74 0.79,5.51 1.58,10.62 2.36,14.95 0.79,3.94 1.58,7.08 3.15,8.66 1.57,0.78 3.15,2.36 4.33,4.33 1.18,2.36 1.57,5.12 1.57,8.26l0 10.24c0,10.23 1.58,14.95 4.72,14.95 0.79,0 1.18,-1.18 1.18,-3.15l0 -16.14c-3.15,-23.22 -4.72,-42.9 -4.72,-59.04 0,-11.41 0.78,-18.89 2.36,-22.04 0.79,-1.18 1.18,-2.36 1.18,-3.15 0,-1.58 -0.79,-2.36 -2.36,-2.36 -2.37,0 -3.54,-1.97 -3.54,-5.9l0 -4.72c0.79,-2.76 1.18,-5.12 1.18,-6.69 0,-3.15 -0.78,-4.72 -2.36,-4.72zm9.45 145.22c0.78,1.58 1.57,2.37 3.15,2.37 0.79,0 1.97,-1.18 3.54,-3.54 0.79,-0.79 1.19,-1.97 1.19,-3.15l0 -4.72 -2.37 0c-1.57,0 -2.76,0.79 -3.94,2.37 -1.18,1.57 -1.57,3.15 -1.57,4.33l0 2.36zm9.05 8.27c-0.79,0 -1.58,0.39 -2.37,1.18 -0.78,0.79 -1.57,1.97 -2.36,3.15l0 2.36c0,0.79 0.39,1.58 0.79,1.97 0.39,0.4 0.79,0.4 1.57,0.4 1.58,0 2.76,-0.4 3.15,-1.58 0,-1.18 0.39,-2.36 0.39,-3.15 0,-1.18 0,-2.36 0,-3.15 0,-0.79 -0.39,-1.18 -1.18,-1.18zm5.9 16.13c-2.37,0 -4.33,1.18 -5.9,3.54l0 1.18c0,1.18 0.79,2.36 1.57,2.76 1.19,0.39 2.76,0.39 4.33,0.39 2.36,0 4.33,-0.79 6.69,-2.36l0 -0.79c0,-1.58 -1.19,-3.15 -3.15,-4.72l-3.54 0zm17.31 24.01c-1.57,0 -2.36,0.4 -2.36,1.19 0,0.78 0.39,1.57 1.18,2.36 0.79,1.58 1.58,2.76 2.37,3.54 0.78,0.78 1.18,1.18 1.97,1.18 0,0 0.39,-0.4 0.78,-0.79 0.4,-0.39 0.4,-0.79 0.4,-1.58 0,-0.78 0,-1.57 0,-2.36 0,-1.58 -0.4,-2.36 -1.18,-2.76 -0.79,-0.39 -1.58,-0.79 -3.15,-0.79zm-9.44 5.9l-2.37 0c-1.57,0.79 -2.36,1.58 -3.15,2.76 -0.79,1.18 -1.18,2.76 -1.18,4.33 0,1.97 0.79,3.15 2.36,3.15 0.4,0 1.19,-0.4 1.97,-1.18 1.58,-0.79 2.76,-1.58 3.15,-3.15 0.39,-1.57 0.39,-2.75 0.39,-3.54 0,-1.58 -0.39,-2.37 -1.18,-2.37zm17.31 44.87l-7.87 0c0,0.79 1.97,3.54 5.51,8.26 3.94,5.12 7.08,7.87 9.45,7.87 2.36,0 3.54,-2.76 3.54,-7.87 0,-1.57 -1.18,-3.15 -3.15,-4.72 -1.97,-1.57 -4.33,-2.75 -7.48,-3.54z"/>
 </g>
</svg>
