<?xml version="1.0" encoding="UTF-8"?>
<!DOCTYPE svg PUBLIC "-//W3C//DTD SVG 1.1//EN" "http://www.w3.org/Graphics/SVG/1.1/DTD/svg11.dtd">
<!-- Creator: CorelDRAW 2021 (64-Bit) -->
<svg xmlns="http://www.w3.org/2000/svg" xml:space="preserve" width="66.8494mm" height="29.2145mm" version="1.1" style="shape-rendering:geometricPrecision; text-rendering:geometricPrecision; image-rendering:optimizeQuality; fill-rule:evenodd; clip-rule:evenodd"
viewBox="0 0 4174.77 1824.46"
 xmlns:xlink="http://www.w3.org/1999/xlink"
 xmlns:xodm="http://www.corel.com/coreldraw/odm/2003">
 <defs>
  <style type="text/css">
   <![CDATA[
    .fil0 {fill:#990000;fill-rule:nonzero}
   ]]>
  </style>
 </defs>
 <g id="Capa_x0020_1">
  <metadata id="CorelCorpID_0Corel-Layer"/>
  <path class="fil0" d="M884.4 0l2.82 0c39.44,0 76.78,8.46 112,25.36 35.58,16.91 64.81,42.62 88.4,77.84 55.65,77.13 90.87,166.95 105.32,269.44 5.98,29.58 9.16,59.52 9.16,90.52 0,28.18 -1.41,56.36 -4.23,84.88 0,7.4 -0.35,15.15 -1.06,22.54 -3.17,69.38 -14.09,139.48 -31.7,209.56 -9.86,47.9 -23.6,94.74 -41.56,140.18 -9.51,25.35 -17.96,51.07 -25.71,76.43 -106.72,270.5 -263.1,495.56 -469.5,675.89 -33.11,25.36 -67.28,49.67 -102.49,72.21 -35.58,22.89 -72.21,41.56 -109.54,56.7 -37.34,15.14 -75.38,22.89 -114.12,22.89 -41.2,-4.23 -83.82,-12.68 -128.2,-25.36 -44.38,-12.68 -78.19,-31.34 -100.73,-55.29 -27.47,-28.88 -46.49,-62.69 -57.41,-101.09 -10.57,-38.39 -15.85,-79.6 -15.85,-122.92 0,-53.53 5.28,-107.07 15.5,-160.96 29.58,-147.93 74.32,-290.58 134.19,-428.29 15.14,-57.05 35.22,-111.3 60.93,-162.72 21.13,-43.32 39.09,-88.06 53.53,-134.19 33.82,-69.03 61.99,-140.53 84.53,-214.85 1.41,-3.87 2.82,-7.75 4.23,-11.27 -0.71,-10.21 -2.82,-15.49 -6.34,-15.49 -5.28,0 -13.38,9.51 -23.6,27.82 -10.22,18.67 -20.43,38.39 -29.94,58.82 -10.92,22.89 -19.72,39.09 -25.71,48.61 -5.63,15.85 -14.44,32.41 -26.42,50.01 -11.97,17.61 -22.54,26.42 -31.34,26.42 -9.16,0 -14.44,-13.73 -16.56,-41.2 -1.41,-13.74 -2.12,-27.83 -2.12,-42.27 0,-50.37 7.75,-100.38 23.25,-149.69 15.49,-49.66 41.2,-89.81 77.84,-120.8 34.52,-25.36 71.14,-38.04 110.24,-38.04 19.37,0 37.33,3.52 54.24,10.57 16.91,7.39 31.7,18.67 44.03,34.52 15.85,23.59 23.6,49.3 23.6,77.48 0,22.89 -3.52,46.49 -10.92,70.8 -7.04,24.3 -14.79,47.9 -23.24,70.79 -2.47,5.98 -4.93,12.33 -7.04,18.31 -16.56,59.17 -36.63,117.29 -59.88,174.35 -15.14,40.15 -29.58,80.3 -43.32,120.8 -40.51,106.72 -78.54,214.5 -113.41,322.98 -22.89,71.5 -41.56,144.4 -56.7,218.73 -13.03,57.76 -19.73,115.52 -19.73,173.29 0,48.95 6.69,96.15 19.73,141.59 19.02,36.98 41.56,55.65 66.92,55.65 23.95,0 51.43,-11.62 81.36,-35.22 115.88,-89.46 213.44,-194.77 293.04,-316.29 79.96,-121.16 144.05,-247.25 191.95,-377.57 48.26,-130.32 83.12,-253.59 104.96,-369.82 21.49,-116.23 32.41,-212.03 32.41,-287.05 0,-13.73 -0.36,-26.42 -1.06,-38.04 -3.52,-39.09 -18.67,-73.26 -45.79,-102.49 -27.12,-29.58 -56.01,-55.29 -86.29,-78.19 -2.11,-1.41 -4.23,-2.47 -5.99,-3.88 -13.38,-10.57 -26.77,-18.31 -40.5,-23.95 -10.92,-5.28 -20.08,-10.92 -27.83,-15.85 -7.39,-5.28 -11.27,-12.68 -11.27,-22.19l0 -4.23c40.51,-17.96 81.36,-26.77 122.92,-26.77zm2750.78 683.99l3.17 0c23.25,0 42.62,8.46 57.77,25.36 15.14,16.91 22.54,30.64 22.54,40.86 0,2.12 0,3.88 -0.71,4.93 -12.68,57.41 -35.92,129.26 -70.44,215.9 -28.18,72.91 -50.72,139.48 -67.98,200.06l1.06 0c4.93,0 13.38,-10.57 25.71,-31.35 12.33,-21.13 26.42,-45.79 42.27,-73.97 17.26,-30.29 33.81,-58.47 49.66,-84.53 15.85,-26.07 28.53,-42.62 38.04,-49.66 4.23,-3.88 8.46,-8.46 12.68,-13.39 30.64,-34.16 65.16,-65.86 102.85,-94.74 38.04,-28.88 81.71,-44.73 131.02,-47.55 30.99,0 52.48,10.92 64.8,32.41 11.98,21.84 17.97,45.43 17.97,70.79 0,20.78 -3.17,40.16 -9.16,58.82 -4.22,20.07 -8.81,40.15 -13.73,60.93 -13.03,52.83 -23.24,106.72 -30.64,160.96 -9.16,34.87 -14.79,70.44 -17.61,106.37 -2.82,35.58 -4.23,71.86 -4.23,108.13 2.82,15.14 4.58,32.4 5.28,51.77 0.71,30.99 4.58,59.88 11.63,87 7.39,27.12 23.95,44.38 50.01,51.07 14.44,-2.47 32.06,-9.16 52.83,-19.37 10.92,-5.64 21.13,-10.22 30.99,-14.09 9.51,-3.88 17.61,-5.64 23.6,-5.64 6.34,0 9.86,3.17 10.21,9.16 0,7.04 -3.87,18.31 -12.33,34.16 -15.84,24.66 -35.57,45.79 -59.87,63.05 -23.95,17.26 -50.37,25.71 -79.25,25.71 -21.48,0 -43.67,-6.69 -67.27,-19.73 -41.92,-3.17 -75.02,-20.78 -99.33,-52.13 -24.66,-31.34 -37.68,-66.57 -39.8,-105.66 -4.93,-28.18 -7.39,-56.01 -7.39,-83.48 0,-28.88 1.76,-57.76 5.28,-86.29 3.52,-28.53 7.39,-56.71 12.33,-85.24 2.82,-19.72 5.63,-39.8 8.45,-59.52 2.47,-20.78 8.46,-44.03 17.26,-69.39 11.27,-30.29 16.56,-55.29 16.56,-75.37 0,-7.39 -1.41,-14.09 -3.88,-19.37 -51.07,39.8 -95.09,90.52 -131.73,151.45 -36.63,61.29 -68.33,125.74 -94.39,193.02 -26.06,67.62 -48.95,130.67 -67.98,189.84 -18.67,57.05 -35.57,103.9 -50.72,140.53 -15.14,36.28 -30.29,54.59 -45.43,54.59 -24.66,0 -45.08,-8.81 -61.29,-26.77 -16.2,-17.96 -28.88,-39.44 -38.39,-64.46 -9.16,-25.35 -15.85,-50.01 -19.37,-74.32 -3.87,-24.66 -5.63,-42.97 -5.63,-55.29l0 -17.61c0,-115.53 11.62,-230 34.87,-343.41 12.33,-29.58 21.13,-60.23 25.71,-91.93 4.93,-38.39 16.91,-74.67 36.28,-108.48 28.88,-82.42 68.33,-158.49 118.7,-227.88 25.35,-24.3 48.61,-36.28 69.03,-36.28zm-20.43 141.59c-0.71,0 -1.41,0 -1.76,0.35 -0.36,0.35 -1.06,1.06 -2.47,1.76 -0.71,0.35 -1.41,1.06 -2.12,1.76 -2.11,1.41 -3.87,3.17 -5.28,4.93 -1.41,1.41 -1.76,2.82 -1.76,3.52 0,0.71 0.36,1.06 0.71,1.06 2.12,0 4.93,-2.47 8.46,-7.4 0.71,-0.71 1.41,-1.41 2.11,-2.11 0.71,-1.41 1.06,-2.11 1.41,-2.47 0.35,-0.35 0.71,-0.71 0.71,-1.41zm-35.22 65.86l-3.17 0c-1.41,1.41 -2.82,2.82 -4.23,4.58 -1.06,1.76 -1.76,3.52 -1.76,4.93 0.71,2.47 2.12,3.87 3.88,3.87 0.7,0 1.76,-0.35 3.17,-1.06 2.12,-0.71 3.52,-1.76 4.58,-3.52 1.06,-1.76 1.76,-3.17 1.76,-4.58 0,-1.41 -0.35,-2.47 -1.06,-3.17 -0.71,-0.71 -1.76,-1.06 -3.17,-1.06zm-44.38 138.42c-0.7,0 -1.76,0.71 -3.17,2.11 -0.71,0.71 -1.76,1.41 -3.17,1.76 -1.06,1.41 -2.47,3.52 -3.52,6.34 -1.06,2.82 -1.41,5.64 -1.41,8.46l0 2.82c0,5.63 0.35,8.46 1.06,8.46 0.71,0 2.47,-4.23 4.93,-12.33 1.41,-4.23 2.82,-7.75 3.88,-10.92 1.06,-3.17 1.41,-4.93 1.41,-5.63l0 -1.06zm333.2 355.73l0 7.4c0,5.63 0.35,8.45 1.06,9.16 0.71,0 1.06,-0.35 1.06,-1.06 0.71,-1.76 1.06,-3.87 1.06,-5.99 0,-2.82 -0.35,-5.28 -1.06,-7.39l-1.06 -2.12 -1.06 0zm3.17 33.11c-0.71,0 -1.06,0.35 -1.41,1.06 -0.36,0.71 -0.71,1.76 -0.71,3.17 0.71,3.52 1.76,6.34 2.82,8.1 1.06,2.11 2.11,3.17 3.52,3.17 1.41,0 2.47,-1.06 3.17,-3.17l0 -1.76c0,-2.82 -1.41,-5.64 -4.23,-8.46 -0.71,-0.71 -1.41,-1.06 -1.41,-1.06 -0.35,0 -0.71,-0.35 -0.71,-1.06 -0.7,0 -1.06,0 -1.06,0 0,0 0,0 0,0 0,0 0,0 0,0 0,0 0,0 0,0 0,0 0,0 0,0zm6.34 27.82c-0.7,0 -1.06,0.36 -1.06,1.06 0,0.7 0,2.11 0,4.22 0,1.41 0,2.82 0.36,4.23 0.35,1.41 1.06,2.12 1.76,2.12 0.7,0 1.06,-0.36 1.06,-1.06 0.71,-0.7 1.06,-1.76 1.06,-3.17 0,-2.12 -0.35,-3.88 -1.06,-5.28l-2.12 -2.12zm2.12 22.89l-2.12 0c-1.41,1.41 -2.11,2.82 -2.11,4.23 0,1.06 0.35,2.11 1.06,2.82 2.12,2.82 3.52,4.23 4.23,4.23 1.06,0 1.76,-2.11 1.76,-6.34 0,-1.06 -0.35,-2.47 -1.06,-3.52 -0.71,-1.06 -1.06,-1.41 -1.76,-1.41zm16.2 29.94c-0.71,0 -1.06,0.36 -1.76,1.06 -0.71,0.71 -1.41,1.76 -2.11,2.82 -0.71,1.41 -1.06,2.46 -1.06,3.17 0,1.41 1.06,2.12 3.17,2.12 2.47,0 3.87,-1.41 3.87,-4.23l0 -1.06c0,-1.06 0,-2.12 -0.35,-2.82 -0.35,-0.7 -1.06,-1.06 -1.76,-1.06zm19.72 33.11c0,0 0,0.35 -0.35,1.41 -0.35,1.06 -0.71,2.12 -0.71,3.52 0.71,2.12 1.41,3.52 1.76,4.58 0,1.06 0.71,1.76 1.41,1.76 0.71,-1.41 1.06,-2.82 1.06,-4.22 0,-2.12 -0.35,-3.88 -1.06,-5.28l-1.06 -1.76c-0.71,0 -1.06,0 -1.06,0 0,0 0,0 0,0 0,0 0,0 0,0 0,0 0,0 0,0 0,0 0,0 0,0zm7.4 41.2c-0.71,0 -1.41,0 -1.76,0 -0.36,0 -0.71,0.36 -1.41,1.06 -4.23,1.41 -6.34,2.47 -6.34,3.88 0,1.41 3.17,2.11 9.51,2.11 1.76,0 3.52,-0.35 4.93,-1.06 1.41,-0.71 2.12,-1.41 2.12,-2.11l-1.06 -0.71c-0.71,-1.41 -1.41,-2.47 -2.47,-2.82 -1.06,-0.36 -2.47,-0.36 -3.52,-0.36zm-1835.73 -773.1c12.33,0 24.66,0.36 37.33,1.06 4.58,0.71 10.21,1.41 16.2,2.12 17.97,1.41 35.22,4.58 52.13,9.86 16.91,5.28 27.83,14.79 32.76,29.23 0.71,1.41 0.71,3.17 0.71,5.28 0,8.46 -5.63,15.14 -16.91,20.08 -11.27,5.28 -24.31,9.86 -38.74,14.09 -16.91,4.22 -31.34,9.16 -42.27,15.49 -22.54,5.28 -44.38,13.38 -65.51,24.31 -20.78,10.57 -38.39,25.71 -52.13,45.79 -13.03,12.33 -19.37,26.41 -19.37,42.26 0,19.37 4.58,38.74 14.44,58.82 2.46,6.34 4.93,12.33 7.04,18.67 1.41,11.62 5.28,23.6 11.27,35.93 7.04,13.03 10.57,25.35 10.57,36.28l0 3.17c16.91,15.85 30.29,34.87 39.1,57.77 6.69,13.73 14.44,26.77 22.54,39.09 24.31,36.63 44.03,74.67 59.88,114.47 5.63,18.67 8.45,37.68 8.45,56.7 0,42.62 -11.62,83.12 -34.16,120.81 -23.25,44.02 -56.36,77.84 -98.97,101.79 -42.62,23.59 -88.4,37.33 -137.37,40.51 -4.23,0.7 -8.45,1.06 -13.38,1.06 -6.34,1.41 -12.33,2.11 -18.67,2.11 -3.17,0 -7.04,-0.35 -11.27,-1.06 -6.69,0.71 -13.38,1.06 -19.72,1.06 -23.95,0 -47.55,-3.87 -71.15,-11.62 -23.24,-8.1 -46.14,-16.56 -67.98,-25.36 -35.92,-17.26 -69.03,-27.47 -100.03,-30.99 -3.52,0.71 -6.69,1.06 -9.51,1.06 -19.72,0 -35.22,-8.45 -46.14,-25.35 -11.27,-16.91 -17.96,-34.52 -20.78,-53.18 -0.71,-4.58 -1.06,-9.87 -1.06,-15.5 0,-19.02 5.64,-37.33 16.56,-54.59 10.92,-17.26 23.6,-32.05 38.04,-44.38 30.99,-26.07 66.92,-45.79 107.43,-58.82 8.81,-5.63 16.56,-8.1 22.54,-8.1 11.27,0 19.02,6.69 23.25,20.08 4.58,13.38 6.69,26.06 6.69,38.74 0,4.58 -0.35,8.81 -0.71,12.33 22.54,47.19 59.88,74.67 112.36,81.36 23.24,10.21 47.54,15.49 72.2,15.49 26.07,0 50.37,-7.39 73.26,-22.54 9.51,-10.57 14.44,-21.84 14.44,-34.17 0,-10.92 -3.17,-22.54 -9.16,-34.52 -6.34,-11.97 -13.38,-23.95 -20.78,-35.57 -6.34,-9.16 -11.27,-17.61 -15.5,-26.07 -21.84,-34.87 -48.61,-66.57 -79.6,-94.74 -10.22,-13.73 -20.78,-26.77 -31.7,-39.09 -21.48,-22.89 -39.44,-47.55 -53.89,-74.32 -32.4,-41.21 -48.25,-85.94 -48.25,-134.19 0,-26.07 6.34,-51.42 19.37,-75.37 4.93,-17.97 13.03,-34.52 25.01,-49.67 11.62,-15.14 23.24,-28.88 34.87,-41.2 9.16,-10.92 19.37,-19.02 30.99,-23.6 11.63,-4.93 23.95,-8.81 37.34,-11.27 14.44,-3.52 28.17,-8.45 41.2,-14.44 51.42,-16.56 103.9,-25.71 156.74,-27.12zm14.44 74.32l-3.17 0c-3.52,2.12 -4.93,3.52 -4.93,4.23 0,0.71 1.06,1.06 2.82,1.06 2.11,0 4.23,-1.06 6.34,-3.17l0 -1.06c0,-0.71 -0.35,-1.06 -1.06,-1.06zm-266.27 117.64c0,0 0,0.36 -0.36,0.71 -0.35,0.36 -0.71,0.71 -1.06,1.41 -0.35,0.71 -1.06,1.41 -1.76,2.11 -0.71,0.71 -1.06,1.41 -1.06,2.12 0,1.41 0.71,2.11 2.11,2.11 1.41,0 2.47,-0.71 3.17,-1.76 0.71,-1.06 1.06,-1.76 1.06,-2.47 0,-1.41 0,-2.47 -0.35,-3.17 -0.36,-0.71 -1.06,-1.06 -1.76,-1.06zm1.06 21.84c-2.12,0 -3.17,2.47 -3.17,7.04 -0.71,2.82 -1.06,5.28 -1.06,7.4 0,2.11 0.71,3.52 1.76,4.22 1.06,0.36 2.82,0.71 5.63,0.71 1.41,0 2.47,-0.35 3.52,-1.76 1.06,-1.41 1.76,-2.82 1.76,-4.23 0,-2.11 -0.7,-4.22 -1.76,-6.34 -1.06,-2.11 -2.11,-3.52 -3.52,-4.93 -0.7,-0.71 -1.41,-1.41 -1.76,-1.76 -0.35,-0.36 -0.7,-0.36 -1.41,-0.36zm11.27 33.11l-2.12 0 0 1.06c0,1.06 0.71,2.82 2.12,4.93 1.41,2.12 3.17,3.17 5.28,3.17 1.41,0 2.11,-0.35 2.11,-1.06 0,-0.71 -0.71,-2.12 -2.11,-4.23 -2.82,-2.82 -4.58,-3.87 -5.28,-3.87zm4.22 20.43c-0.7,0 -1.06,0.35 -1.06,1.06 0,0.71 0.71,1.76 1.41,3.17 1.06,1.41 2.82,2.82 4.93,4.22 5.99,5.99 9.16,12.33 9.16,18.32 0,3.52 -1.41,6.69 -4.23,9.51 -1.41,1.41 -1.76,2.82 -1.76,3.87 0,4.23 5.99,7.04 18.32,8.46 2.11,0 3.17,-0.36 3.17,-1.06 0,-0.71 -1.06,-2.12 -3.17,-4.23 -1.41,-2.82 -2.12,-5.64 -2.12,-9.16l0 -4.22c0.71,-1.41 1.06,-2.82 1.06,-4.23 0,-3.87 -2.82,-8.81 -9.16,-14.44 -3.52,-3.17 -6.69,-5.99 -9.86,-8.11 -3.17,-2.11 -5.28,-3.17 -6.69,-3.17zm47.55 86.64c-1.41,0 -2.82,0.35 -4.23,1.06 -1.41,0.71 -2.46,1.76 -3.17,3.17l0 1.06c0,1.41 2.47,2.11 7.39,2.11 4.58,0 7.4,-0.71 8.1,-2.11l-1.06 -1.06c-0.71,-1.41 -1.76,-2.47 -2.82,-3.17 -1.41,-0.71 -2.82,-1.06 -4.23,-1.06zm151.45 243.73c-0.36,0 -1.06,0.35 -1.41,1.41 -0.35,1.06 -0.35,2.12 -0.35,3.52 0,1.41 0.35,3.17 1.06,5.28 1.06,2.82 2.11,4.23 2.82,4.23 0.71,0 1.06,-1.41 1.06,-4.23 0.71,-1.41 1.06,-3.17 1.06,-5.28 0,-1.41 -0.35,-2.82 -1.06,-3.87 -0.71,-0.71 -1.06,-1.06 -1.41,-1.06 -0.36,0 -1.06,0 -1.76,0zm3.17 19.37c-0.71,0 -2.82,1.06 -5.99,3.17 -1.41,1.41 -2.11,2.82 -2.11,4.23 0,2.11 0.35,4.23 1.06,5.99 1.41,2.11 2.47,4.58 3.52,7.39 1.06,2.82 1.76,4.93 2.47,6.34 1.41,3.88 2.47,5.99 3.17,5.99 1.41,0 2.11,-3.52 2.11,-10.21l0 -9.51c-0.71,-4.58 -1.06,-8.1 -1.41,-10.22 -0.35,-2.11 -1.41,-3.17 -2.82,-3.17zm-436.39 73.26c-0.71,0 -1.76,1.76 -3.17,5.28l0 2.11c0,2.11 0.7,3.52 1.76,4.58 1.06,1.06 2.11,1.41 3.52,1.41 2.11,0 3.87,-1.06 5.28,-2.82l0 -1.06c0,-1.41 -0.36,-2.82 -1.06,-3.87 -0.7,-0.71 -1.41,-1.76 -2.11,-2.47 -1.41,-1.41 -2.47,-2.11 -3.17,-2.11 0,0 -0.35,-0.36 -1.06,-1.06zm7.4 52.83c-2.12,0 -4.58,0.36 -7.4,1.06 -1.41,0.7 -2.82,1.06 -4.23,1.06l-13.38 3.87 15.5 6.34c4.93,2.12 9.16,3.88 12.33,5.64 3.52,1.76 5.63,3.17 6.34,4.58 1.41,2.11 3.52,3.87 5.99,5.28 2.82,1.41 5.28,2.11 7.39,2.11 1.41,0 2.47,-0.35 3.17,-1.06l0 -1.06c0,-1.41 -0.36,-2.82 -0.71,-4.58 -0.35,-1.76 -1.06,-3.52 -2.47,-4.93 -1.41,-2.47 -3.17,-4.93 -5.63,-6.69 -2.47,-1.41 -4.23,-2.47 -5.64,-2.47 -1.41,0 -2.82,-0.36 -4.22,-1.41 -1.41,-1.06 -2.47,-2.47 -3.17,-3.87l-3.87 -3.88zm917.16 -1174.27c10.21,0 21.13,0.71 32.76,2.12l5.28 0c16.55,0 30.64,6.34 41.91,19.37 11.27,13.03 16.91,27.47 16.91,43.32 0,6.34 -1.06,11.97 -3.17,17.61 -5.99,18.67 -16.56,35.22 -31.35,49.66 -14.79,14.44 -30.99,25.35 -48.95,32.76 -10.92,10.57 -22.54,15.49 -34.17,15.49 -10.92,0 -21.84,-1.76 -33.1,-5.98 -10.92,-4.23 -22.19,-6.34 -33.82,-6.34l-8.45 0c-13.03,0 -21.84,-2.46 -26.07,-7.04 -4.58,-4.93 -7.04,-10.92 -7.04,-18.67 0,-13.73 3.88,-28.53 11.63,-44.38 3.17,-8.81 5.63,-16.91 7.04,-23.6 8.46,-25.01 22.89,-42.97 43.33,-54.24 20.78,-11.27 42.97,-17.96 67.27,-20.08zm-13.38 357.85c5.98,0 10.56,2.12 13.38,5.64 2.46,3.87 4.93,7.74 7.04,11.97 0,0.71 0.35,1.41 1.06,2.12 10.21,8.81 17.61,19.72 22.19,32.05 4.58,12.33 6.69,24.3 6.69,35.93 0,11.27 -1.76,21.13 -4.93,29.93 -4.93,21.49 -9.51,42.97 -13.74,65.16 -3.87,20.78 -8.1,40.86 -12.33,60.93 -2.82,13.03 -6.34,26.77 -11.27,41.21 -10.22,28.18 -15.5,53.89 -15.5,77.49l0 11.27c0,20.43 -3.52,41.21 -10.21,61.99 -5.64,19.02 -9.16,38.74 -10.57,58.82 -9.51,22.54 -15.15,46.49 -17.26,72.21 -1.41,10.92 -3.17,22.19 -5.28,33.81 -2.11,13.74 -4.93,27.47 -8.1,40.51 -5.63,23.95 -9.16,47.19 -10.57,70.09l0 5.28c0,15.5 -2.11,30.99 -5.99,46.14 -4.93,14.44 -7.39,29.59 -7.39,45.44 0,6.34 0.71,12.68 2.11,19.72 15.85,-2.82 33.81,-14.09 53.54,-33.46 20.08,-19.72 39.09,-41.91 57.05,-66.57 17.61,-25.01 30.64,-45.43 39.1,-61.99 6.69,-7.75 11.97,-11.27 15.49,-11.27 2.12,0 3.17,1.41 3.17,3.87 0,1.41 0,2.47 0,3.17l0 5.28c-11.27,50.37 -27.83,88.06 -49.66,113.41 -6.34,11.62 -13.74,22.89 -22.54,33.11 -11.27,13.03 -19.72,26.42 -26.06,40.15 -3.88,7.04 -8.11,13.74 -12.33,20.78 -16.56,32.4 -38.04,61.28 -64.81,86.64 -7.04,6.69 -13.38,10.21 -18.67,10.21 -5.63,0 -10.21,-1.76 -14.44,-5.63 -4.23,-3.87 -8.46,-8.1 -12.33,-13.03 -3.52,-3.17 -6.69,-6.69 -9.86,-9.5 -3.17,-3.17 -6.34,-4.93 -9.87,-4.93 -2.11,0 -4.22,0.71 -6.34,2.11 -6.69,1.41 -13.38,2.12 -19.37,2.12 -18.67,0 -34.87,-5.64 -48.95,-17.61 -14.09,-11.62 -23.24,-27.12 -27.47,-46.14 -7.04,-52.48 -10.22,-104.96 -10.22,-158.14 0,-48.61 2.12,-97.21 5.99,-145.47 4.23,-22.54 7.39,-45.44 9.51,-67.98 2.47,-23.6 5.99,-46.49 10.21,-69.03 10.92,-43.68 23.6,-85.94 38.04,-127.15 6.34,-25.36 13.39,-50.02 21.84,-74.32 6.69,-19.02 13.03,-39.09 18.67,-59.88 3.17,-8.1 7.04,-16.91 11.27,-25.71 11.62,-29.59 26.07,-58.82 43.32,-87.7 27.47,-31.7 62.34,-52.13 104.25,-61.99 0.71,0 1.06,0 1.06,-0.35 0,-0.35 0.36,-0.71 1.06,-0.71zm62.69 693.51c0,0 0,0 -0.35,0 -0.35,0 -0.71,0 -0.71,0l0 1.06c-1.06,0.71 -2.11,1.41 -2.82,2.47 -0.71,1.06 -1.06,2.12 -1.06,2.82 0,2.47 0.35,3.88 1.06,3.88 1.41,0 2.47,-1.76 3.87,-5.99 0.71,-1.41 1.06,-2.47 1.06,-3.17 0,-0.7 -0.36,-1.06 -1.06,-1.06zm-264.16 70.09c-0.7,0 -1.06,0.35 -1.41,1.06 -0.36,0.71 -0.71,1.76 -0.71,3.17l0 2.12c0.71,1.41 1.41,2.47 2.11,3.52 0.71,1.06 1.41,1.76 2.12,1.76 0.71,0 1.06,-0.71 1.06,-1.76 0,-1.06 0,-2.12 0,-3.52 0,-1.41 0,-2.82 -0.35,-4.23 -0.36,-1.41 -1.41,-2.11 -2.82,-2.11zm1.06 42.26c-0.71,0.71 -1.06,1.41 -1.06,2.12 0,1.41 0.36,3.17 1.06,5.28 2.11,15.85 4.22,27.12 6.34,33.46 2.11,6.69 4.93,11.62 9.16,15.14 5.64,4.58 9.51,7.04 11.27,7.04 0.71,0 1.06,-0.71 1.06,-2.12 0,-0.7 -0.71,-1.76 -2.47,-3.52 -1.76,-1.76 -3.52,-3.52 -5.63,-5.63 -2.11,-2.11 -3.52,-3.87 -4.58,-5.28 -1.06,-1.41 -1.76,-2.47 -1.76,-2.82l0 -1.06c0.71,-0.71 1.06,-1.76 1.06,-3.17 0,-4.23 -1.06,-10.21 -3.17,-17.61 -1.76,-4.93 -3.87,-9.16 -5.98,-13.38l-5.28 -8.46zm42.27 95.1c-0.71,0 -1.41,0 -2.82,0.35 -1.41,0.36 -2.46,1.06 -3.17,1.76 -0.71,1.41 -2.47,2.12 -5.28,2.12l-2.12 0c-1.41,-0.71 -2.46,-1.06 -2.82,-1.06l0 2.11c1.06,2.47 3.88,3.87 8.1,3.87 3.52,0 7.04,-1.06 11.27,-2.82 2.11,-1.41 3.17,-2.47 3.17,-3.17 0,-0.71 -1.41,-1.41 -4.23,-2.12 0,-0.71 0,-1.06 -0.35,-1.06 -0.36,0 -1.06,0 -1.76,0zm701.95 -1037.97c-3.52,-0.71 -5.98,-2.82 -7.39,-6.34 -1.41,-3.52 -2.47,-7.04 -3.17,-11.27 -0.7,-2.11 -1.06,-4.23 -1.41,-6.34 -0.36,-2.11 -1.41,-2.82 -2.47,-2.82 -2.11,0 -5.28,2.47 -9.51,8.1 -5.28,4.23 -10.92,6.34 -16.56,6.34 -5.98,0 -11.27,-2.47 -15.84,-7.39 -4.58,-4.93 -6.69,-9.86 -6.69,-15.5 0,-6.69 3.52,-13.38 10.22,-19.72 7.04,-3.87 13.73,-7.75 20.78,-11.27 17.26,-7.39 31.35,-19.02 42.27,-34.16 4.93,-5.28 9.86,-10.57 15.49,-15.15 28.88,-28.53 55.3,-58.11 79.25,-89.81 5.64,-7.75 13.03,-13.74 21.84,-18.32 8.81,-4.23 17.96,-6.69 26.77,-6.69 12.33,0 22.89,5.28 30.99,15.5 3.52,7.75 5.28,15.5 5.28,23.95 0,13.03 -3.52,25.36 -10.57,37.69 -6.69,11.97 -14.09,23.24 -21.48,33.46 -8.46,8.1 -16.56,16.55 -25.01,24.66 -28.88,30.29 -58.82,58.82 -90.52,85.58 0,0 -0.35,0 -1.06,0 -4.23,2.82 -8.81,5.64 -14.09,8.46 -4.93,2.82 -10.57,3.87 -15.85,3.87 -4.23,0 -8.1,-0.7 -11.27,-2.82zm79.25 193.02c17.26,0 33.81,3.52 49.66,10.57 15.85,7.39 29.23,18.67 40.16,33.81 15.14,16.2 26.42,34.87 34.16,54.94 7.4,20.43 13.39,41.21 17.61,62.69 0.71,0.35 0.71,1.06 0.71,1.76 4.23,30.29 6.34,60.23 6.34,89.82 0,52.48 -5.28,103.9 -15.49,154.97 -2.82,9.51 -5.28,19.37 -8.1,29.94 -15.85,67.27 -40.51,130.67 -73.26,189.84 -38.74,83.83 -90.17,159.2 -154.98,225.76 -15.85,14.44 -33.1,28.18 -52.48,40.86 -19.37,12.68 -40.16,19.02 -63.05,19.02 -8.81,0 -17.96,-1.41 -26.77,-3.87 -23.95,-11.27 -49.31,-18.67 -75.37,-22.89 -19.37,-3.52 -37.33,-8.1 -54.59,-14.44 -23.6,-2.12 -41.56,-10.57 -54.24,-25.36 -12.68,-14.79 -22.89,-32.05 -30.29,-52.13 -13.38,-16.56 -21.48,-33.81 -25.01,-52.48 -3.52,-18.67 -5.28,-37.33 -5.99,-56.7 0,-6.34 -0.35,-12.33 -1.06,-18.67 3.87,-42.62 9.86,-85.23 17.26,-127.85 4.22,-25.35 10.21,-50.37 17.61,-74.32 3.52,-11.62 7.04,-23.59 10.57,-35.22 6.69,-13.73 13.03,-27.82 18.31,-42.26 11.27,-28.18 24.66,-54.59 40.51,-79.25 8.1,-20.08 17.61,-38.74 28.88,-56 8.1,-13.03 15.49,-26.07 21.48,-39.1 9.86,-10.92 19.37,-22.19 28.88,-33.1 14.44,-17.26 29.23,-33.81 44.38,-50.37 24.31,-24.31 53.89,-40.51 89.82,-48.61 9.5,-3.52 19.02,-7.04 27.82,-10.22 6.34,-2.11 11.62,-3.17 16.56,-3.17 8.81,0 14.79,3.17 16.91,9.86 2.47,6.34 3.87,14.44 3.87,24.3 0,6.69 -0.35,13.74 -1.06,20.43l0 27.83c-8.45,15.14 -14.79,31.34 -19.72,48.61 -6.34,20.08 -14.79,38.39 -25.71,55.65 -3.52,20.78 -10.57,40.15 -20.78,58.82 -8.81,15.85 -15.49,32.76 -19.37,50.72 -14.44,39.8 -26.06,80.65 -34.16,122.57 -2.12,14.44 -4.58,28.53 -7.4,42.62 -3.87,23.24 -7.74,46.49 -11.27,70.09 -2.12,8.81 -3.17,17.97 -3.17,27.83 0,11.62 0.71,22.89 2.11,34.16 2.12,11.63 3.17,23.25 3.17,34.87 0,5.63 -0.35,10.92 -1.06,16.56 0,2.82 0,5.63 0,8.1 0,11.27 1.06,22.54 3.17,34.16 2.12,11.63 7.04,17.61 15.5,17.61 4.58,0 10.57,-2.46 17.61,-7.39 30.29,-23.24 56,-51.07 77.13,-83.48 64.11,-96.85 109.89,-202.16 137.37,-315.58 16.55,-52.48 24.66,-105.66 24.66,-160.25 0,-20.43 -1.41,-41.21 -3.88,-61.64 -2.11,-19.37 -7.39,-38.04 -16.2,-56.36 -8.46,-18.31 -22.89,-30.64 -42.62,-37.68 -3.52,0 -9.16,0.7 -16.56,2.11 -6.34,1.41 -12.68,2.47 -19.02,3.52 -6.69,1.06 -12.33,1.76 -17.26,1.76 -7.4,0 -11.62,-1.76 -12.33,-5.28 0,-3.52 3.17,-8.1 9.16,-14.44 25.71,-25.36 54.59,-38.04 86.64,-38.04l4.23 0zm60.93 112.35l-1.06 0c0,0.71 0.71,2.11 2.11,4.23 1.41,3.17 2.47,4.93 3.17,4.93l1.06 0c0.71,-0.71 1.06,-1.41 1.06,-2.11 0,-0.71 -0.35,-1.41 -1.06,-2.47 -0.71,-1.06 -1.41,-1.76 -2.11,-2.47 -0.71,-0.71 -1.41,-1.41 -2.12,-1.76 -0.71,-0.35 -1.06,-0.35 -1.06,-0.35zm-288.81 86.64l0 4.23c0,3.17 0.35,4.93 1.06,4.93l1.06 0c0.71,-0.71 1.06,-1.76 1.06,-2.82 0,-1.41 -0.36,-2.82 -1.06,-4.23l-1.06 -2.11c-0.71,0 -1.06,0 -1.06,0 0,0 0,0 0,0 0,0 0,0 0,0 0,0 0,0 0,0 0,0 0,0 0,0zm-21.84 40.15c-0.7,0 -1.41,0.71 -2.11,2.12 -0.71,1.41 -1.06,3.17 -1.06,5.28 0.71,5.28 2.11,8.1 4.23,8.1 2.11,0 3.87,-1.76 5.28,-4.93l0 -3.17c0,-4.23 -2.12,-6.69 -6.34,-7.4zm-8.1 20.78l-2.11 0c-0.71,0.71 -1.06,1.41 -1.06,2.11l0 3.88c2.11,2.11 3.52,3.17 4.22,3.17 0.71,0 1.06,-1.06 1.06,-3.17l0 -2.82c0,-1.41 -0.36,-2.46 -0.71,-2.82 -0.36,-0.35 -0.71,-0.35 -1.41,-0.35zm-25.01 50.37c-0.35,0 -1.06,0.35 -1.41,1.06 -0.35,0.71 -0.35,1.41 -0.35,2.11 0,0.71 0.35,1.76 1.06,3.17 0.36,1.41 1.06,2.47 1.76,3.52 0.71,1.06 1.41,1.76 2.11,1.76 0,0 0.36,-0.71 0.71,-1.76 0.36,-1.06 0.36,-2.11 0.36,-3.52 -0.71,-1.41 -1.06,-2.82 -1.41,-4.23 -0.35,-1.41 -1.41,-2.11 -2.82,-2.11zm-123.63 309.59c-0.71,0 -1.41,0 -1.76,0 -0.35,0 -0.71,0.36 -1.41,1.06 -1.41,0.7 -2.11,1.76 -2.11,3.17 0,1.41 0.71,2.82 2.11,4.23 1.41,1.41 3.17,2.11 5.28,2.11 1.41,0 2.12,-0.35 2.47,-1.06 0.36,-0.71 0.71,-1.41 0.71,-2.11 0,-2.12 -0.71,-3.88 -1.76,-5.28 -1.06,-1.41 -2.11,-2.12 -3.52,-2.12zm375.46 17.61l-3.17 3.17c-0.35,0.71 -0.7,1.41 -0.7,2.11 0,1.41 1.06,2.12 2.82,2.12 1.41,0 2.47,-0.71 2.82,-1.76 0.35,-1.06 0.35,-1.76 0.35,-2.47 0,-1.41 0,-2.12 -0.35,-2.47 -0.35,-0.35 -1.06,-0.71 -1.76,-0.71zm-374.4 1.06c-0.71,0 -1.41,0.36 -1.76,1.06 -0.35,0.7 -0.35,1.76 -0.35,3.17 0,3.17 0.71,4.93 2.11,4.93 0.71,0 1.76,-1.06 3.17,-2.82l0 -1.06c0,-0.7 -0.36,-1.41 -0.71,-2.11 -0.35,-0.71 -0.71,-1.41 -1.41,-2.11l0 -1.06 -1.06 0zm0 19.73l-4.23 10.21c-2.11,4.23 -3.17,7.4 -3.17,9.16 0,1.41 0.35,2.47 1.06,3.17 0.71,0.71 2.11,1.41 4.23,2.12 3.52,2.11 5.28,5.98 5.28,11.27l0 10.57c0,2.47 0.35,4.58 1.06,5.99 0.35,1.41 1.41,2.47 2.82,3.17 1.41,0.71 2.82,1.76 4.23,3.52 1.41,1.76 2.11,3.52 2.11,5.63 0,2.12 0.71,4.23 2.12,6.69 1.41,2.47 2.82,4.58 3.87,5.63 1.41,0.71 2.47,1.76 3.17,2.82 0.7,1.06 1.06,1.76 1.06,2.47l0 2.11c0,0.71 0.71,1.76 1.76,3.52 1.06,1.76 2.11,3.52 3.52,5.28 1.41,1.76 2.47,2.47 3.17,2.47l-2.11 -12.33c-0.71,-3.52 -1.76,-7.04 -3.17,-10.92 -1.41,-3.87 -2.82,-6.69 -4.22,-8.81 -1.41,-1.41 -2.47,-3.17 -3.17,-5.99 -0.35,-2.82 -0.71,-5.63 -0.71,-8.45l0 -7.04c0,-6.34 -2.11,-10.22 -6.34,-12.33 -2.82,-1.41 -4.93,-3.88 -6.69,-7.4 -1.76,-3.52 -2.82,-6.69 -3.52,-10.21l-2.12 -12.33zm344.46 13.38c-0.71,0 -1.41,0 -2.11,0.35 -0.36,0.36 -0.71,1.06 -0.71,1.76l0 1.06c0,0.7 0,1.06 0.35,1.76 0.36,0.7 0.36,1.06 0.36,1.06l0 1.06c0.7,0 1.41,-0.35 2.11,-1.06 0.71,-0.71 1.41,-1.76 2.11,-2.82l0 -1.06c0,-1.41 -0.7,-2.11 -2.11,-2.11zm-312.41 89.82c-0.7,0 -1.76,0.35 -3.17,1.06 -1.41,0.71 -3.52,1.41 -6.34,2.82 -3.88,2.82 -5.99,4.93 -5.99,6.34 0,1.41 1.76,2.12 4.93,2.12l4.23 0c5.64,-2.12 8.1,-4.58 8.1,-7.4 0,-1.41 0,-2.47 0,-3.52 0,-1.06 -0.35,-1.41 -1.76,-1.41zm-5.28 43.32c-0.7,0 -1.06,0.35 -1.06,1.06 0,1.41 0.36,2.47 1.06,3.87 2.12,1.41 3.88,2.12 5.28,2.12l1.76 0c0.71,-0.71 1.06,-1.41 1.06,-2.12 0,-1.41 -0.71,-2.47 -2.82,-3.87 -1.41,-0.71 -2.82,-1.06 -4.22,-1.06l-1.06 0zm34.17 18.31c-2.82,0 -4.23,1.41 -4.23,4.23 0,2.12 0.71,3.52 2.12,4.23 1.41,0.71 2.82,1.06 3.87,1.06 2.12,0 4.23,-1.06 6.34,-3.17l0 -1.06c0,-1.41 -1.76,-2.82 -5.28,-4.22 -0.7,-0.71 -1.06,-1.06 -1.41,-1.06 -0.36,0 -0.71,0 -1.41,0zm-1738.88 -1359.89l-1.06 0c-1.41,0 -2.11,0.71 -2.11,2.12 0,0.7 1.06,2.11 3.17,4.22 3.52,2.82 6.34,3.88 8.46,3.88 0.35,0 1.06,-0.36 1.76,-0.71 0.71,-0.71 1.06,-1.41 1.06,-2.12 0,-0.7 -0.71,-1.76 -2.11,-3.17 -3.88,-2.82 -7.04,-4.23 -9.16,-4.23zm17.61 44.38c0,0 -0.35,0.36 -0.71,0.71 -0.35,0.36 -0.35,0.36 -0.35,0.36l-1.06 0c-2.12,0.7 -3.88,1.41 -5.28,2.11 -2.11,0.71 -3.52,1.06 -4.93,1.06 -0.7,0 -1.06,0.36 -1.06,1.06 0,0.71 1.76,2.47 4.93,4.93 2.82,1.41 5.28,2.82 6.69,4.23 1.76,1.41 2.82,2.11 2.82,2.11 0,0 0,-0.71 0,-2.47 0,-1.76 0.36,-4.22 1.06,-6.69l0 -3.17c0,-2.82 -0.71,-4.23 -2.12,-4.23zm4.23 26.77c-0.71,0.7 -1.41,1.41 -1.76,2.11 -0.35,0.71 -0.71,1.76 -1.41,3.17 0,2.11 0.36,3.87 1.06,5.28 0.7,1.41 1.41,1.76 2.11,1.76 1.06,0 2.11,-0.36 2.82,-1.41 0.71,-1.06 1.06,-1.76 1.06,-2.47l0 -2.11c0,-0.71 -0.35,-1.76 -1.06,-2.47 -0.71,-1.06 -1.41,-2.11 -2.11,-2.82l-0.71 -1.06zm1.76 25.01c-2.47,0 -4.93,0.71 -6.69,1.76 -1.76,1.41 -2.46,3.17 -2.46,5.28 0,1.41 0.7,2.82 2.11,4.23 2.82,2.11 4.93,5.63 6.69,10.92 1.76,4.93 2.46,10.22 2.46,15.85 0,3.52 -0.7,6.69 -2.11,9.16 -1.06,3.52 -1.76,6.69 -1.76,9.51 0,3.17 1.06,6.69 2.82,10.22 1.41,3.52 2.12,7.04 2.12,10.21 0,2.82 -0.36,5.64 -1.06,8.46 -1.41,3.52 -2.11,6.34 -2.11,9.16 0,2.12 0.35,3.52 1.06,4.23 0,0.71 0.36,1.06 1.06,1.06 0.71,0 1.76,-1.76 2.82,-5.28 1.06,-3.52 1.76,-7.39 2.46,-11.97 0.71,-4.23 1.06,-8.46 1.06,-11.63l0 -36.28c0,-5.98 -0.36,-11.62 -1.06,-16.91 -0.7,-5.28 -1.76,-7.74 -3.17,-7.74 -1.41,-0.71 -2.12,-1.76 -2.12,-3.17 0,-1.41 0.36,-2.47 1.06,-3.17l0 -1.06c0,-1.76 -1.06,-2.82 -3.17,-2.82zm-665.33 101.08c-0.71,0 -1.41,0.71 -2.11,2.12 -0.71,0.71 -1.41,1.06 -2.12,1.76 -0.71,1.41 -1.06,2.47 -1.06,3.17 0,1.41 0.71,2.12 2.11,2.12 2.12,0 3.88,-1.76 5.28,-5.28 0,-1.06 -0.35,-2.12 -0.7,-2.82 -0.36,-0.71 -0.71,-1.06 -1.41,-1.06zm668.5 45.44c0,0 0,0 0,0 -0.71,0 -1.76,4.23 -3.17,13.38 0,4.58 0.35,8.81 0.71,11.62 0.35,3.17 1.06,4.93 2.47,4.93 0.7,0 1.41,-1.41 2.11,-4.23 0.71,-2.82 1.06,-6.34 1.06,-10.22 -0.71,-9.86 -1.76,-14.79 -3.17,-15.49zm-871.73 9.16l-2.11 0c-1.41,1.41 -2.47,2.47 -3.17,3.52 -0.71,1.06 -1.06,2.47 -1.06,3.52 0,2.82 0.35,4.23 1.06,4.23 0.71,0 2.11,-2.47 4.23,-7.04 1.41,-1.41 2.11,-2.47 2.11,-3.17 0,-0.7 -0.35,-1.06 -1.06,-1.06zm868.55 25.71l0 1.06c-1.06,2.12 -2.47,9.16 -3.87,20.78 -1.41,11.62 -2.82,24.66 -3.88,38.74 -0.71,14.09 -1.41,24.66 -1.41,32.41 0,4.93 0.35,7.04 1.06,7.04 1.41,0 2.47,-1.41 3.17,-4.58 0.71,-3.17 1.41,-6.34 2.12,-9.86 3.17,-35.57 4.93,-60.23 4.93,-73.26 0,-8.1 -0.7,-12.33 -2.11,-12.33zm-874.89 26.77c-1.41,2.11 -2.47,3.87 -3.17,5.28 -0.71,0.7 -1.06,1.41 -1.06,2.11 0,2.11 0.71,3.17 2.11,3.17 0.71,0 1.41,-0.36 2.12,-1.06 1.41,-0.7 2.47,-2.11 3.17,-3.87 0.71,-1.41 1.06,-2.82 1.06,-3.52 0,-1.41 0,-2.11 0,-2.11l-4.23 0zm-11.27 27.12l-1.06 0c-2.12,1.76 -3.17,3.52 -3.17,4.93l0 2.11c1.41,2.82 2.47,4.23 3.17,4.23 1.41,0 2.47,-2.47 3.17,-7.39 0,-1.41 -0.35,-2.47 -0.7,-3.17 -0.36,-0.35 -0.71,-0.71 -1.41,-0.71zm151.45 47.2c-1.76,0 -2.82,1.76 -2.82,5.28l0 2.11c0,2.82 0.71,4.23 2.12,4.23 0.35,0 1.41,-1.06 2.82,-3.17 0.71,-1.41 1.06,-2.82 1.06,-4.23 0,-1.41 -0.71,-2.46 -2.11,-3.17l-1.06 -1.06zm-11.27 32.05l-3.17 0c-1.76,0.71 -3.52,1.76 -4.58,3.52 -1.06,1.76 -1.41,3.17 -1.41,3.87 0,1.76 1.06,2.82 3.17,2.82 1.41,0 2.47,-0.71 3.52,-1.76 1.06,-1.41 1.76,-2.82 2.47,-4.23 0.7,-1.41 1.06,-2.47 1.06,-3.17 0,-0.71 -0.36,-1.06 -1.06,-1.06zm-88.76 227.18c0,0 0,0 0,0.35 0,0.36 0,0.71 0,0.71l-1.06 0c-1.41,0.71 -2.11,1.76 -2.82,3.52 -0.71,1.76 -1.06,3.52 -1.06,5.64l0 2.11c0,0.71 0,1.06 0.35,1.41 0.35,0.35 1.06,0.7 1.41,0.7l1.06 0c1.41,-1.41 2.47,-3.17 3.17,-4.58 0.71,-1.76 1.06,-3.52 1.06,-4.93l0 -2.12c0,-1.76 -0.71,-2.82 -2.12,-2.82zm743.17 144.41c-0.7,0 -1.76,1.06 -3.17,3.17 -0.71,0.71 -1.41,1.41 -2.12,2.82 -4.93,5.64 -7.04,9.86 -7.04,12.68 0,1.76 0.71,2.82 2.82,2.82 1.41,0 2.46,-0.36 3.17,-1.41 0.71,-1.06 1.06,-1.76 1.06,-2.47 0,-2.11 0.71,-4.93 2.12,-8.45 0,-1.41 0.35,-2.82 1.06,-4.23 0.71,-0.35 1.06,-1.06 1.41,-1.76 0.35,-0.71 0.7,-1.41 0.7,-2.11l0 -1.06zm-21.83 43.32c-0.71,0 -1.76,0.35 -3.17,1.06 -1.41,0.71 -2.11,1.76 -2.82,3.17l0 1.06c0,1.76 0.71,2.82 2.82,2.82 1.41,0 2.82,-0.36 4.23,-1.41 1.41,-1.06 2.11,-1.76 2.11,-2.47 0,-1.41 -0.35,-2.46 -0.71,-3.17 -0.35,-0.71 -1.06,-1.06 -2.46,-1.06zm-7.04 18.67c-0.71,0 -1.41,0 -1.76,0.35 -0.36,0.36 -0.71,0.71 -1.41,1.41 -1.41,1.41 -2.47,3.52 -3.52,5.98 -1.06,2.12 -2.11,4.58 -2.82,6.69l0 3.87c0.71,0 1.76,-0.7 3.17,-2.11 1.41,-1.06 2.46,-2.82 3.52,-4.93 1.06,-2.11 2.11,-4.22 2.82,-6.34 0.71,-2.11 1.06,-3.52 1.06,-3.87 0,-0.71 -0.35,-1.06 -1.06,-1.06zm-26.77 62.69l-10.57 8.45c-9.5,9.51 -14.44,16.56 -14.44,20.43 0,1.41 1.06,2.12 3.17,2.12 1.41,0 2.82,-0.71 4.22,-2.12 1.41,-1.41 2.12,-2.46 2.12,-3.87 0,-2.11 0.71,-4.93 2.47,-7.75 1.76,-3.17 3.17,-5.99 4.58,-8.81l8.45 -8.45zm-30.29 47.54c-1.06,0 -3.17,1.06 -5.99,2.47 -2.82,1.76 -4.93,4.23 -6.34,6.69 -0.71,1.41 -1.06,2.82 -1.06,4.23 0,1.41 0.71,2.11 2.11,2.11 1.41,0 3.88,-1.76 7.4,-5.28 3.52,-3.17 4.93,-5.99 4.93,-8.1l0 -2.12c0,0 -0.35,0 -1.06,0zm-27.82 46.49c-0.71,0 -1.41,0.36 -2.47,1.06 -1.06,0.71 -1.41,1.76 -1.41,3.17l0 3.87c0,0.71 0.36,1.06 1.06,1.06 0.71,0 1.41,-0.35 1.76,-1.41 0.71,-1.06 1.41,-2.12 2.12,-3.52l1.06 -2.11c0,-1.41 -0.71,-2.12 -2.11,-2.12zm-787.19 10.22l-3.17 3.17c-1.41,2.82 -2.11,5.28 -2.11,7.4l0 1.76c1.41,2.11 2.46,3.17 3.17,3.17 1.41,0 2.47,-3.17 3.17,-9.16 0,-4.23 -0.36,-6.34 -1.06,-6.34zm770.99 7.39c-0.71,0 -1.41,0.35 -1.76,1.06 -0.35,0.71 -0.35,1.76 -0.35,2.82l0 2.12c0.71,2.11 1.06,3.87 1.41,5.28 0.36,1.41 1.06,2.11 1.41,2.11 0.71,0 1.41,-0.71 1.76,-2.11 0.35,-1.41 0.35,-3.17 0.35,-5.28 0,-1.41 0,-2.82 -0.35,-3.88 -0.35,-1.41 -1.41,-2.11 -2.47,-2.11zm-27.12 39.09l-1.06 -2.11c-0.35,0 -0.7,0.71 -0.7,2.11 -0.71,0.71 -1.06,1.41 -1.06,2.12 0,4.22 0.71,6.34 1.76,6.34 0.71,-1.41 1.06,-3.17 1.06,-5.28l0 -3.17zm-9.16 13.38c-0.71,0 -2.47,2.82 -5.28,8.46 -2.47,4.58 -3.87,7.39 -3.87,8.1 0,0.71 0.35,1.06 1.06,1.06 0,0 1.06,-1.76 3.87,-5.28 1.41,-2.11 2.82,-3.87 3.88,-5.63 0.71,-1.76 1.41,-3.17 1.41,-4.58l0 -2.12c0,0 -0.35,0 -1.06,0zm-750.21 57.77l-2.11 0c-3.88,1.41 -7.04,7.04 -9.16,16.56 -0.7,4.22 -1.76,9.5 -3.17,16.55 -1.41,6.69 -2.82,13.74 -4.23,20.78 0,1.76 -0.35,3.52 -1.06,4.93 -1.06,11.63 -1.76,20.43 -1.76,25.72l0 4.22c0.71,1.41 1.06,3.52 1.06,6.34 0,3.88 -0.35,8.81 -1.06,14.44 -1.41,4.58 -2.12,8.81 -2.12,12.33 0,4.23 1.41,6.34 3.88,7.04 3.52,2.11 5.28,6.69 5.28,13.38l0 10.57c0,8.81 2.11,13.38 6.34,13.38 0.71,0 1.06,0 1.06,0 1.41,0 1.76,-0.35 1.76,-1.06 0,-1.41 -0.35,-2.82 -1.76,-4.23 -1.41,-2.11 -2.11,-4.93 -2.11,-9.16 0,-2.12 0.35,-4.23 1.06,-6.34 0.71,-2.11 1.06,-4.22 1.06,-7.04 0,-3.52 -0.35,-6.34 -1.06,-8.46 -0.71,-1.41 -1.41,-4.93 -2.11,-11.27 -0.71,-5.99 -1.41,-13.38 -2.12,-21.13 -0.71,-7.75 -1.06,-14.79 -1.06,-21.13 0,-5.63 0.35,-9.86 1.06,-13.38 2.12,-13.73 3.88,-23.6 5.28,-29.94 1.41,-6.34 2.82,-10.92 4.93,-14.44 3.52,-7.04 5.28,-11.98 5.28,-15.5 0,-2.11 -1.06,-3.17 -3.17,-3.17zm699.49 9.51c-1.06,0 -2.47,0.35 -3.52,1.06 -1.06,0.35 -1.41,1.41 -1.41,2.82l0 1.06c0,0.71 0.36,1.41 1.06,1.76 0.71,0.36 1.41,0.36 2.12,0.36 1.76,0 3.52,-1.06 4.93,-3.17l0 -1.06c0,-2.12 -1.06,-2.82 -3.17,-2.82zm-38.04 48.25c0,0 0,0.36 0,0.71 0,0.35 0,0.35 0,0.35l-1.06 0c-1.41,0.71 -2.47,1.76 -3.17,3.17 -0.71,1.41 -1.06,2.82 -1.06,4.23 0,2.82 0.35,3.87 1.06,3.87 0.71,0 2.11,-2.11 4.23,-7.04 0.71,-1.41 1.06,-2.82 1.06,-4.23 0,-0.7 -0.35,-1.06 -1.06,-1.06zm-63.05 71.15c0,0 0,0 -0.35,0 -0.35,0 -0.71,0.35 -0.71,0.71 0,0.35 -0.35,0.35 -0.71,0.35 -3.52,1.41 -5.28,3.52 -5.28,6.34 0,1.41 0.71,3.17 2.12,5.28 1.41,1.76 2.47,2.82 3.17,2.82 0.36,0 1.41,-2.47 2.82,-8.1 0.7,-2.11 1.06,-3.87 1.06,-5.28 0,-1.41 -0.71,-2.11 -2.12,-2.11zm-604.39 50.72c-2.82,0 -6.69,1.41 -11.62,4.23 -2.47,2.11 -3.87,2.82 -3.87,2.82 0,0.71 1.41,1.06 4.93,1.06 1.41,0 3.17,1.06 4.58,2.82 1.76,1.76 3.52,3.87 4.93,6.69 0.71,2.11 1.76,3.52 2.82,4.93 1.41,1.41 2.47,2.11 3.17,2.11l0 -2.11c0,-1.76 -0.71,-4.23 -2.12,-7.04 -1.41,-2.12 -2.11,-4.58 -2.11,-7.4 0,-1.41 0.35,-2.46 1.06,-3.87l0 -2.11c0,-0.71 0,-1.41 -0.35,-1.76 -0.36,-0.36 -0.71,-0.36 -1.41,-0.36zm5.99 30.99c-0.71,0 -1.76,0.36 -3.17,1.06 -1.41,0.71 -2.11,1.76 -2.82,3.17 -0.71,0.71 -1.06,1.06 -1.06,1.76 0,0.71 0.35,1.41 1.06,1.76 0.36,0.35 1.41,0.35 2.82,0.35 1.41,0 2.82,-0.35 4.23,-1.41 1.41,-1.06 2.12,-1.76 2.12,-2.47 0,-1.41 -0.36,-2.47 -0.71,-3.17 -0.36,-0.7 -1.06,-1.06 -2.47,-1.06zm10.22 18.67c-0.71,0 -1.06,1.76 -1.06,5.99l0 2.12c0,4.22 0.71,7.39 2.12,9.16 1.41,2.11 2.82,3.17 4.23,3.17 1.41,0 3.17,-1.41 5.28,-4.22l0 -0.71c0,-1.41 -0.36,-3.17 -1.06,-4.93 -0.7,-1.76 -1.76,-3.52 -3.17,-5.63 -2.82,-3.52 -4.58,-4.93 -5.28,-4.93l-1.06 0zm13.73 34.87c-1.41,0 -2.11,1.06 -2.11,3.17 0,1.41 0.35,2.47 1.06,3.17 0.71,0.71 1.06,1.06 1.76,1.06 1.41,0 2.47,-0.35 3.17,-0.71 0.7,-0.35 1.06,-0.7 1.06,-1.41 0,0 -0.36,-0.71 -1.06,-1.76 -0.71,-1.06 -1.41,-1.76 -2.12,-2.47 -0.71,-0.71 -1.41,-1.06 -1.76,-1.06zm5.99 61.99c-0.71,0 -1.06,0.71 -1.06,2.11 0,1.41 0.35,3.17 1.06,5.28 0.71,1.06 2.11,1.76 4.23,1.76l2.11 0c0.71,-0.7 1.06,-1.76 1.06,-2.82 0,-1.41 -0.7,-2.82 -2.11,-4.23 -1.41,-0.7 -2.47,-1.41 -3.17,-1.76 -0.7,-0.35 -1.41,-0.35 -2.11,-0.35zm1316.92 -1332.07c10.21,0 21.13,0.71 32.76,2.12l5.28 0c16.55,0 30.64,6.34 41.91,19.37 11.27,13.03 16.91,27.47 16.91,43.32 0,6.34 -1.06,11.97 -3.17,17.61 -5.99,18.67 -16.56,35.22 -31.35,49.66 -14.79,14.44 -30.99,25.35 -48.95,32.76 -10.92,10.57 -22.54,15.49 -34.17,15.49 -10.92,0 -21.84,-1.76 -33.1,-5.98 -10.92,-4.23 -22.19,-6.34 -33.82,-6.34l-8.45 0c-13.03,0 -21.84,-2.46 -26.07,-7.04 -4.58,-4.93 -7.04,-10.92 -7.04,-18.67 0,-13.73 3.88,-28.53 11.63,-44.38 3.17,-8.81 5.63,-16.91 7.04,-23.6 8.46,-25.01 22.89,-42.97 43.33,-54.24 20.78,-11.27 42.97,-17.96 67.27,-20.08zm-13.38 357.85c5.98,0 10.56,2.12 13.38,5.64 2.46,3.87 4.93,7.74 7.04,11.97 0,0.71 0.35,1.41 1.06,2.12 10.21,8.81 17.61,19.72 22.19,32.05 4.58,12.33 6.69,24.3 6.69,35.93 0,11.27 -1.76,21.13 -4.93,29.93 -4.93,21.49 -9.51,42.97 -13.74,65.16 -3.87,20.78 -8.1,40.86 -12.33,60.93 -2.82,13.03 -6.34,26.77 -11.27,41.21 -10.22,28.18 -15.5,53.89 -15.5,77.49l0 11.27c0,20.43 -3.52,41.21 -10.21,61.99 -5.64,19.02 -9.16,38.74 -10.57,58.82 -9.51,22.54 -15.15,46.49 -17.26,72.21 -1.41,10.92 -3.17,22.19 -5.28,33.81 -2.11,13.74 -4.93,27.47 -8.1,40.51 -5.63,23.95 -9.16,47.19 -10.57,70.09l0 5.28c0,15.5 -2.11,30.99 -5.99,46.14 -4.93,14.44 -7.39,29.59 -7.39,45.44 0,6.34 0.71,12.68 2.11,19.72 15.85,-2.82 33.81,-14.09 53.54,-33.46 20.08,-19.72 39.09,-41.91 57.05,-66.57 17.61,-25.01 30.64,-45.43 39.1,-61.99 6.69,-7.75 11.97,-11.27 15.49,-11.27 2.12,0 3.17,1.41 3.17,3.87 0,1.41 0,2.47 0,3.17l0 5.28c-11.27,50.37 -27.83,88.06 -49.66,113.41 -6.34,11.62 -13.74,22.89 -22.54,33.11 -11.27,13.03 -19.72,26.42 -26.06,40.15 -3.88,7.04 -8.11,13.74 -12.33,20.78 -16.56,32.4 -38.04,61.28 -64.81,86.64 -7.04,6.69 -13.38,10.21 -18.67,10.21 -5.63,0 -10.21,-1.76 -14.44,-5.63 -4.23,-3.87 -8.46,-8.1 -12.33,-13.03 -3.52,-3.17 -6.69,-6.69 -9.86,-9.5 -3.17,-3.17 -6.34,-4.93 -9.87,-4.93 -2.11,0 -4.22,0.71 -6.34,2.11 -6.69,1.41 -13.38,2.12 -19.37,2.12 -18.67,0 -34.87,-5.64 -48.95,-17.61 -14.09,-11.62 -23.24,-27.12 -27.47,-46.14 -7.04,-52.48 -10.22,-104.96 -10.22,-158.14 0,-48.61 2.12,-97.21 5.99,-145.47 4.23,-22.54 7.39,-45.44 9.51,-67.98 2.47,-23.6 5.99,-46.49 10.21,-69.03 10.92,-43.68 23.6,-85.94 38.04,-127.15 6.34,-25.36 13.39,-50.02 21.84,-74.32 6.69,-19.02 13.03,-39.09 18.67,-59.88 3.17,-8.1 7.04,-16.91 11.27,-25.71 11.62,-29.59 26.07,-58.82 43.32,-87.7 27.47,-31.7 62.34,-52.13 104.25,-61.99 0.71,0 1.06,0 1.06,-0.35 0,-0.35 0.36,-0.71 1.06,-0.71zm62.69 693.51c0,0 0,0 -0.35,0 -0.35,0 -0.71,0 -0.71,0l0 1.06c-1.06,0.71 -2.11,1.41 -2.82,2.47 -0.71,1.06 -1.06,2.12 -1.06,2.82 0,2.47 0.35,3.88 1.06,3.88 1.41,0 2.47,-1.76 3.87,-5.99 0.71,-1.41 1.06,-2.47 1.06,-3.17 0,-0.7 -0.36,-1.06 -1.06,-1.06zm-264.16 70.09c-0.7,0 -1.06,0.35 -1.41,1.06 -0.36,0.71 -0.71,1.76 -0.71,3.17l0 2.12c0.71,1.41 1.41,2.47 2.11,3.52 0.71,1.06 1.41,1.76 2.12,1.76 0.71,0 1.06,-0.71 1.06,-1.76 0,-1.06 0,-2.12 0,-3.52 0,-1.41 0,-2.82 -0.35,-4.23 -0.36,-1.41 -1.41,-2.11 -2.82,-2.11zm1.06 42.26c-0.71,0.71 -1.06,1.41 -1.06,2.12 0,1.41 0.36,3.17 1.06,5.28 2.11,15.85 4.22,27.12 6.34,33.46 2.11,6.69 4.93,11.62 9.16,15.14 5.64,4.58 9.51,7.04 11.27,7.04 0.71,0 1.06,-0.71 1.06,-2.12 0,-0.7 -0.71,-1.76 -2.47,-3.52 -1.76,-1.76 -3.52,-3.52 -5.63,-5.63 -2.11,-2.11 -3.52,-3.87 -4.58,-5.28 -1.06,-1.41 -1.76,-2.47 -1.76,-2.82l0 -1.06c0.71,-0.71 1.06,-1.76 1.06,-3.17 0,-4.23 -1.06,-10.21 -3.17,-17.61 -1.76,-4.93 -3.87,-9.16 -5.98,-13.38l-5.28 -8.46zm42.27 95.1c-0.71,0 -1.41,0 -2.82,0.35 -1.41,0.36 -2.46,1.06 -3.17,1.76 -0.71,1.41 -2.47,2.12 -5.28,2.12l-2.12 0c-1.41,-0.71 -2.46,-1.06 -2.82,-1.06l0 2.11c1.06,2.47 3.88,3.87 8.1,3.87 3.52,0 7.04,-1.06 11.27,-2.82 2.11,-1.41 3.17,-2.47 3.17,-3.17 0,-0.71 -1.41,-1.41 -4.23,-2.12 0,-0.71 0,-1.06 -0.35,-1.06 -0.36,0 -1.06,0 -1.76,0z"/>
 </g>
</svg>
