<?xml version="1.0" encoding="UTF-8"?>
<!DOCTYPE svg PUBLIC "-//W3C//DTD SVG 1.1//EN" "http://www.w3.org/Graphics/SVG/1.1/DTD/svg11.dtd">
<!-- Creator: CorelDRAW 2021 (64-Bit) -->
<svg xmlns="http://www.w3.org/2000/svg" xml:space="preserve" width="75.1964mm" height="27.4944mm" version="1.1" style="shape-rendering:geometricPrecision; text-rendering:geometricPrecision; image-rendering:optimizeQuality; fill-rule:evenodd; clip-rule:evenodd"
viewBox="0 0 2113.03 772.6"
 xmlns:xlink="http://www.w3.org/1999/xlink"
 xmlns:xodm="http://www.corel.com/coreldraw/odm/2003">
 <defs>
  <style type="text/css">
   <![CDATA[
    .fil0 {fill:#990000;fill-rule:nonzero}
   ]]>
  </style>
 </defs>
 <g id="Capa_x0020_1">
  <metadata id="CorelCorpID_0Corel-Layer"/>
  <path class="fil0" d="M425.84 0c10.46,0 18.86,3.49 25.04,10.46 6.18,6.97 10.46,15.69 12.99,25.99 2.54,10.3 3.64,20.6 3.64,30.9 0,5.23 -0.31,10.3 -0.79,15.37 -0.95,18.54 -1.42,37.08 -1.42,55.62l0 50.56c0,16.8 -0.32,33.44 -0.95,50.24 -0.95,3.01 -1.75,6.81 -2.54,11.41 -0.79,4.44 -1.27,8.87 -1.27,13.15 0,3.8 0.32,6.81 0.95,9.35 0.64,2.38 1.75,3.64 3.33,3.64 1.9,0 4.75,-3.8 8.72,-11.57 18.07,-31.85 38.99,-62.12 62.76,-90.49 9.99,-10.62 19.65,-21.71 29.32,-33.44 10.78,-13.31 22.19,-25.99 34.07,-38.19 11.89,-12.05 25.36,-21.87 40.1,-29.64 8.4,-4.91 17.75,-7.45 27.89,-7.45 10.3,0 19.81,2.69 28.53,8.08 8.87,5.55 13.31,13.95 13.31,25.35 0,3.65 -0.63,7.77 -1.9,12.05 -6.81,30.9 -15.37,61.17 -25.51,90.49 -8.08,23.3 -15.21,46.91 -21.4,71.16 -19.81,71.48 -29.63,144.85 -29.63,219.97 0,27.57 1.27,54.99 4.12,82.25 1.58,6.81 2.85,14.26 3.64,22.35 1.9,15.06 5.07,29.48 9.67,43.11 4.44,13.63 12.99,22.98 25.67,27.89 3.8,1.27 7.61,1.9 11.57,1.9 6.18,0 12.68,-1.27 19.18,-3.8 6.5,-2.54 12.99,-5.39 19.49,-8.88 5.55,-2.69 10.93,-5.23 16.48,-7.29 5.39,-2.22 10.46,-3.33 15.53,-3.33l1.75 0c-0.32,0.31 -0.48,0.63 -0.48,0.95l0.48 0.95c0.31,0.32 0.63,0.64 0.95,0.95 0.32,0.63 0.64,0.95 0.95,0.95 0.32,0 0.64,-0.32 0.79,-0.79 0,-0.47 0.16,-0.79 0.16,-1.11 0,-0.31 -0.16,-0.63 -0.16,-0.79 -0.16,-0.16 -0.47,-0.31 -0.79,-0.63 3.8,0.32 7.29,2.22 10.62,5.55 -6.97,12.68 -15.53,24.4 -25.2,35.34 -9.83,10.78 -20.76,19.65 -32.96,26.46 -12.2,6.81 -25.36,10.14 -39.3,10.14 -3.33,0 -6.97,-0.32 -10.62,-0.95 -10.46,-3.33 -21.4,-6.02 -32.49,-7.76 -14.58,-2.85 -28.53,-6.81 -42,-11.89 -13.47,-5.07 -25.36,-14.11 -35.5,-27.1 -10.3,-16.48 -17.59,-34.23 -21.87,-53.25 -4.28,-19.02 -6.5,-38.35 -6.5,-57.85 0,-22.82 2.22,-45.17 6.5,-66.88 9.19,-41.36 20.13,-82.25 32.49,-122.51 6.18,-21.08 12.2,-42.16 18.07,-63.08 2.22,-8.72 5.23,-18.86 9.35,-30.27 3.01,-9.19 5.86,-18.23 8.4,-26.94 2.38,-8.56 3.65,-15.69 3.65,-21.4 0,-1.74 -0.16,-3.33 -0.48,-4.59 -57.53,86.37 -107.61,178.29 -149.92,275.76 -7.13,9.35 -12.84,20.92 -17.27,34.86 -3.96,11.41 -8.56,21.55 -13.95,30.43 -5.23,8.87 -12.84,13.47 -22.66,14.1 -4.6,-3.64 -9.98,-6.34 -15.85,-7.76 -5.86,-1.58 -12.05,-2.69 -18.54,-3.33 -6.18,-0.63 -12.04,-1.58 -17.59,-3.01 -5.55,-1.43 -10.14,-3.96 -13.47,-7.61 -3.49,-3.8 -5.07,-9.67 -5.07,-17.75 0,-4.28 0.64,-9.35 1.75,-15.21 -0.95,-7.45 -1.27,-14.74 -1.27,-21.87 0,-10.78 0.64,-21.55 2.22,-32.33 1.58,-10.62 3.33,-21.24 5.07,-31.69 2.53,-13.63 4.59,-27.42 6.02,-41.36 4.44,-19.49 7.92,-39.46 10.78,-59.91 3.33,-30.9 9.98,-60.86 19.97,-89.54 3.01,-29.16 9.03,-57.37 18.07,-84.63 2.22,-7.92 4.28,-15.85 6.5,-23.62 -0.95,-2.85 -2.06,-4.12 -3.17,-4.12 -2.22,0 -4.75,2.53 -7.76,7.61 -2.85,5.07 -5.71,10.94 -8.56,17.43 -2.53,4.91 -4.75,9.35 -6.66,13.47 -2.06,3.96 -3.96,6.81 -5.86,8.24 -5.55,9.67 -11.09,19.33 -16.64,28.84 -19.81,34.07 -39.15,68.62 -57.69,103.49 -18.54,35.02 -34.87,71.47 -49.13,109.19 -35.34,85.42 -68.46,172.11 -99.37,260.07 -2.53,6.82 -4.91,14.26 -6.97,22.66 -2.53,9.35 -5.39,18.54 -8.87,27.58 -3.33,9.19 -7.92,16.8 -13.47,22.82 -5.55,6.02 -12.84,9.03 -21.87,9.03 -3.64,0 -7.61,-0.64 -12.04,-1.9 -3.64,-7.61 -8.08,-12.68 -13.15,-15.06 -5.07,-2.38 -10.46,-3.49 -16.01,-3.49 -2.54,0 -5.07,0.16 -7.45,0.48l-5.07 0c-2.85,0.31 -5.55,0.47 -7.92,0.47 -5.86,0 -11.25,-1.43 -16.01,-4.44 -4.91,-2.85 -8.4,-9.03 -10.94,-18.23 -1.58,-10.3 -2.38,-20.45 -2.38,-30.74 0,-13.31 1.11,-26.47 3.01,-39.62 2.06,-13.15 4.44,-26.31 7.29,-39.3 3.33,-16.64 6.18,-33.44 8.24,-50.08 7.13,-27.26 13.63,-54.83 19.49,-82.73 8.08,-38.35 17.59,-76.23 28.37,-113.79 3.17,-10.46 5.86,-20.92 8.4,-31.54 6.5,-26.94 15.05,-52.93 25.51,-77.97 6.5,-16.96 13.31,-33.76 20.44,-50.08 10.46,-23.3 19.81,-46.75 27.89,-70.68 5.86,-12.68 10.94,-25.99 15.22,-39.94 5.07,-14.74 10.78,-29 17.27,-42.63 6.5,-13.63 15.37,-24.72 26.94,-33.44 6.18,-2.54 11.57,-3.8 16.17,-3.8 8.71,0 14.9,3.64 18.54,10.78 3.8,7.13 5.71,15.37 5.71,25.04 0,9.03 -1.43,17.91 -3.96,26.94 -2.69,9.03 -6.18,16.48 -10.46,22.66 -12.04,41.84 -22.35,84.47 -30.74,127.73 -4.6,22.66 -9.51,45.17 -14.74,67.83 -3.49,22.35 -8.72,43.74 -15.85,64.5 -5.55,18.23 -10.14,36.93 -13.95,55.78 11.73,-15.85 22.5,-33.28 32.01,-52.46 6.5,-12.99 13.47,-25.51 20.92,-37.72 17.91,-33.12 36.45,-66.09 55.31,-98.89 12.04,-20.76 24.25,-41.36 36.61,-62.12 15.22,-25.68 30.27,-51.51 45.01,-77.18 7.13,-10.46 13.79,-21.71 19.97,-33.91 6.81,-13.79 14.58,-26.62 23.3,-38.51 8.72,-11.73 19.97,-19.97 33.92,-24.57zm1191.46 167.67c-1.58,-0.32 -2.69,-1.27 -3.33,-2.85 -0.64,-1.58 -1.11,-3.17 -1.43,-5.07 -0.31,-0.95 -0.47,-1.9 -0.63,-2.85 -0.16,-0.95 -0.64,-1.27 -1.11,-1.27 -0.95,0 -2.38,1.11 -4.28,3.64 -2.38,1.9 -4.91,2.85 -7.45,2.85 -2.69,0 -5.07,-1.11 -7.13,-3.33 -2.06,-2.22 -3.01,-4.44 -3.01,-6.97 0,-3.01 1.58,-6.02 4.6,-8.87 3.17,-1.74 6.18,-3.49 9.35,-5.07 7.77,-3.33 14.11,-8.56 19.02,-15.37 2.22,-2.38 4.44,-4.75 6.97,-6.82 13,-12.84 24.88,-26.15 35.66,-40.41 2.54,-3.49 5.86,-6.18 9.83,-8.24 3.96,-1.9 8.08,-3.01 12.04,-3.01 5.55,0 10.3,2.38 13.95,6.97 1.58,3.49 2.38,6.97 2.38,10.78 0,5.86 -1.58,11.41 -4.75,16.96 -3.01,5.39 -6.34,10.46 -9.67,15.06 -3.8,3.64 -7.45,7.45 -11.25,11.09 -13,13.63 -26.47,26.46 -40.73,38.51 0,0 -0.16,0 -0.47,0 -1.9,1.27 -3.96,2.54 -6.34,3.8 -2.22,1.27 -4.75,1.74 -7.13,1.74 -1.9,0 -3.64,-0.31 -5.07,-1.27zm35.66 86.85c7.77,0 15.21,1.58 22.35,4.75 7.13,3.33 13.15,8.4 18.07,15.21 6.81,7.29 11.89,15.69 15.37,24.72 3.33,9.19 6.02,18.54 7.92,28.21 0.32,0.16 0.32,0.47 0.32,0.79 1.9,13.63 2.85,27.1 2.85,40.41 0,23.61 -2.38,46.75 -6.97,69.73 -1.27,4.28 -2.38,8.72 -3.64,13.47 -7.13,30.27 -18.23,58.8 -32.96,85.42 -17.43,37.72 -40.57,71.63 -69.73,101.58 -7.13,6.5 -14.9,12.68 -23.61,18.39 -8.72,5.7 -18.07,8.56 -28.37,8.56 -3.96,0 -8.08,-0.63 -12.04,-1.74 -10.78,-5.07 -22.19,-8.4 -33.91,-10.3 -8.72,-1.58 -16.8,-3.64 -24.57,-6.5 -10.62,-0.95 -18.7,-4.75 -24.4,-11.41 -5.71,-6.66 -10.3,-14.42 -13.63,-23.46 -6.02,-7.45 -9.67,-15.21 -11.25,-23.62 -1.58,-8.4 -2.38,-16.8 -2.69,-25.51 0,-2.85 -0.16,-5.55 -0.47,-8.4 1.74,-19.18 4.44,-38.35 7.77,-57.53 1.9,-11.41 4.59,-22.66 7.92,-33.44 1.58,-5.23 3.17,-10.62 4.75,-15.85 3.01,-6.18 5.86,-12.52 8.24,-19.02 5.07,-12.68 11.09,-24.57 18.23,-35.66 3.64,-9.03 7.92,-17.43 13,-25.2 3.64,-5.86 6.97,-11.73 9.67,-17.59 4.44,-4.91 8.72,-9.98 13,-14.9 6.5,-7.77 13.15,-15.21 19.97,-22.66 10.94,-10.94 24.25,-18.23 40.41,-21.87 4.28,-1.58 8.56,-3.17 12.52,-4.6 2.85,-0.95 5.23,-1.42 7.45,-1.42 3.96,0 6.66,1.42 7.61,4.44 1.11,2.85 1.74,6.5 1.74,10.93 0,3.01 -0.16,6.18 -0.47,9.19l0 12.52c-3.8,6.81 -6.65,14.1 -8.87,21.87 -2.85,9.03 -6.66,17.27 -11.57,25.04 -1.58,9.35 -4.75,18.07 -9.35,26.46 -3.96,7.13 -6.97,14.74 -8.72,22.82 -6.5,17.91 -11.73,36.29 -15.37,55.15 -0.95,6.5 -2.06,12.84 -3.33,19.18 -1.74,10.46 -3.48,20.92 -5.07,31.54 -0.95,3.96 -1.43,8.08 -1.43,12.52 0,5.23 0.32,10.3 0.95,15.37 0.95,5.23 1.43,10.46 1.43,15.69 0,2.53 -0.16,4.91 -0.47,7.45 0,1.27 0,2.53 0,3.64 0,5.07 0.47,10.14 1.42,15.37 0.95,5.23 3.17,7.92 6.97,7.92 2.06,0 4.75,-1.11 7.92,-3.33 13.63,-10.46 25.2,-22.98 34.71,-37.56 28.84,-43.58 49.45,-90.97 61.81,-142 7.45,-23.61 11.09,-47.54 11.09,-72.11 0,-9.19 -0.64,-18.54 -1.75,-27.73 -0.95,-8.72 -3.33,-17.12 -7.29,-25.36 -3.8,-8.24 -10.3,-13.79 -19.18,-16.96 -1.58,0 -4.12,0.31 -7.45,0.95 -2.85,0.64 -5.71,1.11 -8.56,1.58 -3.01,0.47 -5.55,0.79 -7.76,0.79 -3.33,0 -5.23,-0.79 -5.55,-2.38 0,-1.58 1.42,-3.64 4.12,-6.5 11.57,-11.41 24.57,-17.12 38.99,-17.12l1.9 0zm27.42 50.55l-0.47 0c0,0.32 0.32,0.95 0.95,1.9 0.64,1.42 1.11,2.22 1.43,2.22l0.47 0c0.32,-0.32 0.47,-0.63 0.47,-0.95 0,-0.32 -0.16,-0.64 -0.47,-1.11 -0.32,-0.47 -0.64,-0.79 -0.95,-1.11 -0.32,-0.32 -0.64,-0.63 -0.95,-0.79 -0.32,-0.16 -0.47,-0.16 -0.47,-0.16zm-129.95 38.99l0 1.9c0,1.42 0.16,2.22 0.47,2.22l0.47 0c0.32,-0.32 0.48,-0.79 0.48,-1.27 0,-0.63 -0.16,-1.27 -0.48,-1.9l-0.47 -0.95c-0.32,0 -0.47,0 -0.47,0 0,0 0,0 0,0 0,0 0,0 0,0 0,0 0,0 0,0 0,0 0,0 0,0zm-9.83 18.07c-0.31,0 -0.63,0.32 -0.95,0.95 -0.32,0.63 -0.47,1.42 -0.47,2.38 0.32,2.38 0.95,3.64 1.9,3.64 0.95,0 1.74,-0.79 2.38,-2.22l0 -1.42c0,-1.9 -0.95,-3.01 -2.85,-3.33zm-3.64 9.35l-0.95 0c-0.32,0.32 -0.47,0.63 -0.47,0.95l0 1.75c0.95,0.95 1.58,1.42 1.9,1.42 0.32,0 0.48,-0.47 0.48,-1.42l0 -1.27c0,-0.63 -0.16,-1.11 -0.32,-1.27 -0.16,-0.16 -0.32,-0.16 -0.64,-0.16zm-11.25 22.66c-0.16,0 -0.47,0.16 -0.64,0.47 -0.16,0.32 -0.16,0.64 -0.16,0.95 0,0.32 0.16,0.79 0.47,1.43 0.16,0.64 0.47,1.11 0.79,1.58 0.32,0.47 0.64,0.79 0.95,0.79 0,0 0.16,-0.32 0.32,-0.79 0.16,-0.47 0.16,-0.95 0.16,-1.58 -0.32,-0.64 -0.48,-1.27 -0.64,-1.9 -0.16,-0.63 -0.64,-0.95 -1.27,-0.95zm-55.63 139.3c-0.32,0 -0.64,0 -0.79,0 -0.16,0 -0.32,0.16 -0.64,0.48 -0.63,0.31 -0.95,0.79 -0.95,1.42 0,0.64 0.32,1.27 0.95,1.9 0.64,0.63 1.43,0.95 2.38,0.95 0.64,0 0.95,-0.16 1.11,-0.47 0.16,-0.32 0.32,-0.64 0.32,-0.95 0,-0.95 -0.32,-1.75 -0.79,-2.38 -0.47,-0.64 -0.95,-0.95 -1.58,-0.95zm168.94 7.92l-1.43 1.43c-0.16,0.32 -0.31,0.63 -0.31,0.95 0,0.64 0.47,0.95 1.27,0.95 0.63,0 1.11,-0.32 1.27,-0.79 0.16,-0.48 0.16,-0.79 0.16,-1.11 0,-0.64 0,-0.95 -0.16,-1.11 -0.16,-0.16 -0.47,-0.32 -0.79,-0.32zm-168.47 0.47c-0.32,0 -0.63,0.16 -0.79,0.48 -0.16,0.31 -0.16,0.79 -0.16,1.42 0,1.43 0.32,2.22 0.95,2.22 0.32,0 0.79,-0.47 1.43,-1.27l0 -0.48c0,-0.31 -0.16,-0.63 -0.32,-0.95 -0.16,-0.32 -0.32,-0.64 -0.64,-0.95l0 -0.48 -0.47 0zm0 8.88l-1.9 4.59c-0.95,1.9 -1.42,3.33 -1.42,4.12 0,0.63 0.16,1.11 0.47,1.42 0.32,0.32 0.95,0.64 1.9,0.95 1.58,0.95 2.38,2.69 2.38,5.07l0 4.75c0,1.11 0.16,2.06 0.47,2.69 0.16,0.64 0.64,1.11 1.27,1.43 0.64,0.32 1.27,0.79 1.9,1.58 0.64,0.79 0.95,1.58 0.95,2.53 0,0.95 0.32,1.9 0.95,3.01 0.63,1.11 1.27,2.06 1.74,2.53 0.64,0.32 1.11,0.79 1.43,1.27 0.31,0.47 0.47,0.79 0.47,1.11l0 0.95c0,0.32 0.32,0.79 0.79,1.58 0.47,0.79 0.95,1.58 1.58,2.38 0.63,0.79 1.11,1.11 1.42,1.11l-0.95 -5.55c-0.32,-1.58 -0.79,-3.17 -1.43,-4.91 -0.63,-1.74 -1.27,-3.01 -1.9,-3.96 -0.64,-0.64 -1.11,-1.43 -1.43,-2.69 -0.16,-1.27 -0.32,-2.53 -0.32,-3.8l0 -3.17c0,-2.85 -0.95,-4.6 -2.85,-5.55 -1.27,-0.64 -2.22,-1.75 -3.01,-3.33 -0.79,-1.58 -1.27,-3.01 -1.58,-4.59l-0.95 -5.55zm154.99 6.02c-0.32,0 -0.64,0 -0.95,0.16 -0.16,0.16 -0.32,0.48 -0.32,0.79l0 0.48c0,0.31 0,0.47 0.16,0.79 0.16,0.31 0.16,0.47 0.16,0.47l0 0.47c0.31,0 0.63,-0.16 0.95,-0.47 0.32,-0.32 0.64,-0.79 0.95,-1.27l0 -0.48c0,-0.63 -0.31,-0.95 -0.95,-0.95zm-140.57 40.41c-0.31,0 -0.79,0.16 -1.42,0.47 -0.64,0.32 -1.58,0.63 -2.85,1.27 -1.75,1.27 -2.69,2.22 -2.69,2.85 0,0.64 0.79,0.95 2.22,0.95l1.9 0c2.54,-0.95 3.64,-2.06 3.64,-3.33 0,-0.63 0,-1.11 0,-1.58 0,-0.47 -0.16,-0.63 -0.79,-0.63zm-2.38 19.49c-0.31,0 -0.47,0.16 -0.47,0.47 0,0.63 0.16,1.11 0.47,1.74 0.95,0.64 1.75,0.95 2.38,0.95l0.79 0c0.32,-0.32 0.48,-0.64 0.48,-0.95 0,-0.63 -0.32,-1.11 -1.27,-1.74 -0.63,-0.32 -1.27,-0.47 -1.9,-0.47l-0.48 0zm15.37 8.24c-1.27,0 -1.9,0.64 -1.9,1.9 0,0.95 0.32,1.58 0.95,1.9 0.63,0.32 1.27,0.47 1.74,0.47 0.95,0 1.9,-0.47 2.85,-1.42l0 -0.48c0,-0.63 -0.79,-1.27 -2.38,-1.9 -0.31,-0.32 -0.47,-0.48 -0.63,-0.48 -0.16,0 -0.32,0 -0.64,0zm372.27 -415.06l1.42 0c10.46,0 19.18,3.8 25.99,11.41 6.81,7.61 10.14,13.79 10.14,18.38 0,0.95 0,1.75 -0.32,2.22 -5.7,25.83 -16.16,58.16 -31.69,97.15 -12.68,32.81 -22.82,62.76 -30.59,90.02l0.47 0c2.22,0 6.02,-4.75 11.57,-14.11 5.55,-9.51 11.89,-20.6 19.02,-33.28 7.76,-13.63 15.21,-26.31 22.35,-38.03 7.13,-11.73 12.84,-19.18 17.12,-22.35 1.9,-1.75 3.8,-3.8 5.7,-6.02 13.79,-15.37 29.32,-29.63 46.28,-42.63 17.12,-13 36.77,-20.13 58.95,-21.4 13.95,0 23.62,4.91 29.16,14.58 5.39,9.83 8.08,20.44 8.08,31.85 0,9.35 -1.43,18.07 -4.12,26.47 -1.9,9.03 -3.96,18.07 -6.18,27.42 -5.86,23.77 -10.46,48.02 -13.79,72.43 -4.12,15.69 -6.66,31.7 -7.92,47.86 -1.27,16.01 -1.9,32.33 -1.9,48.66 1.27,6.81 2.06,14.58 2.38,23.3 0.32,13.95 2.06,26.94 5.23,39.15 3.33,12.2 10.78,19.97 22.5,22.98 6.5,-1.11 14.42,-4.12 23.77,-8.72 4.91,-2.54 9.51,-4.6 13.95,-6.34 4.28,-1.75 7.92,-2.54 10.62,-2.54 2.85,0 4.44,1.43 4.59,4.12 0,3.17 -1.74,8.24 -5.55,15.37 -7.13,11.09 -16.01,20.6 -26.94,28.37 -10.78,7.76 -22.66,11.57 -35.66,11.57 -9.67,0 -19.65,-3.01 -30.27,-8.88 -18.86,-1.42 -33.76,-9.35 -44.69,-23.46 -11.09,-14.1 -16.96,-29.95 -17.91,-47.54 -2.22,-12.68 -3.33,-25.2 -3.33,-37.56 0,-12.99 0.79,-25.99 2.38,-38.83 1.58,-12.84 3.33,-25.52 5.55,-38.35 1.27,-8.87 2.53,-17.91 3.8,-26.78 1.11,-9.35 3.8,-19.81 7.77,-31.22 5.07,-13.63 7.45,-24.88 7.45,-33.91 0,-3.33 -0.64,-6.34 -1.75,-8.72 -22.98,17.91 -42.79,40.73 -59.27,68.15 -16.48,27.58 -30.74,56.58 -42.47,86.85 -11.73,30.43 -22.03,58.8 -30.59,85.42 -8.4,25.67 -16.01,46.75 -22.82,63.23 -6.81,16.32 -13.63,24.57 -20.44,24.57 -11.09,0 -20.29,-3.96 -27.58,-12.05 -7.29,-8.08 -12.99,-17.75 -17.27,-29 -4.12,-11.41 -7.13,-22.5 -8.72,-33.44 -1.74,-11.09 -2.53,-19.33 -2.53,-24.88l0 -7.92c0,-51.98 5.23,-103.49 15.69,-154.52 5.55,-13.31 9.51,-27.1 11.57,-41.36 2.22,-17.27 7.61,-33.6 16.32,-48.81 13,-37.08 30.74,-71.32 53.41,-102.54 11.41,-10.93 21.87,-16.32 31.06,-16.32zm-9.19 63.71c-0.32,0 -0.64,0 -0.79,0.16 -0.16,0.16 -0.48,0.47 -1.11,0.79 -0.32,0.16 -0.64,0.47 -0.95,0.79 -0.95,0.63 -1.74,1.42 -2.38,2.22 -0.63,0.64 -0.79,1.27 -0.79,1.58 0,0.32 0.16,0.48 0.32,0.48 0.95,0 2.22,-1.11 3.8,-3.33 0.32,-0.32 0.63,-0.63 0.95,-0.95 0.32,-0.64 0.47,-0.95 0.64,-1.11 0.16,-0.16 0.32,-0.32 0.32,-0.63zm-15.85 29.63l-1.43 0c-0.64,0.64 -1.27,1.27 -1.9,2.06 -0.47,0.79 -0.79,1.58 -0.79,2.22 0.32,1.11 0.95,1.74 1.75,1.74 0.31,0 0.79,-0.16 1.42,-0.47 0.95,-0.32 1.58,-0.79 2.06,-1.58 0.48,-0.79 0.79,-1.43 0.79,-2.06 0,-0.64 -0.16,-1.11 -0.47,-1.43 -0.32,-0.32 -0.79,-0.47 -1.42,-0.47zm-19.97 62.28c-0.31,0 -0.79,0.32 -1.42,0.95 -0.32,0.32 -0.79,0.64 -1.43,0.79 -0.47,0.64 -1.11,1.58 -1.58,2.85 -0.47,1.27 -0.63,2.54 -0.63,3.8l0 1.27c0,2.53 0.16,3.8 0.47,3.8 0.32,0 1.11,-1.9 2.22,-5.55 0.64,-1.9 1.27,-3.49 1.75,-4.91 0.47,-1.42 0.63,-2.22 0.63,-2.53l0 -0.47zm149.93 160.06l0 3.33c0,2.53 0.16,3.8 0.47,4.12 0.32,0 0.47,-0.16 0.47,-0.47 0.32,-0.79 0.47,-1.74 0.47,-2.69 0,-1.27 -0.16,-2.38 -0.47,-3.33l-0.47 -0.95 -0.47 0zm1.42 14.9c-0.32,0 -0.47,0.16 -0.63,0.47 -0.16,0.32 -0.32,0.79 -0.32,1.43 0.32,1.58 0.79,2.85 1.27,3.64 0.47,0.95 0.95,1.42 1.58,1.42 0.64,0 1.11,-0.47 1.43,-1.42l0 -0.79c0,-1.27 -0.64,-2.54 -1.9,-3.8 -0.32,-0.32 -0.64,-0.47 -0.64,-0.47 -0.16,0 -0.32,-0.16 -0.32,-0.47 -0.31,0 -0.47,0 -0.47,0 0,0 0,0 0,0 0,0 0,0 0,0 0,0 0,0 0,0 0,0 0,0 0,0zm2.85 12.52c-0.31,0 -0.47,0.16 -0.47,0.48 0,0.31 0,0.95 0,1.9 0,0.64 0,1.27 0.16,1.9 0.16,0.64 0.47,0.95 0.79,0.95 0.31,0 0.47,-0.16 0.47,-0.48 0.32,-0.31 0.47,-0.79 0.47,-1.42 0,-0.95 -0.16,-1.75 -0.47,-2.38l-0.95 -0.95zm0.95 10.3l-0.95 0c-0.63,0.64 -0.95,1.27 -0.95,1.9 0,0.47 0.16,0.95 0.47,1.27 0.95,1.27 1.58,1.9 1.9,1.9 0.47,0 0.79,-0.95 0.79,-2.85 0,-0.47 -0.16,-1.11 -0.47,-1.58 -0.32,-0.47 -0.47,-0.64 -0.79,-0.64zm7.29 13.47c-0.32,0 -0.47,0.16 -0.79,0.47 -0.32,0.32 -0.64,0.79 -0.95,1.27 -0.32,0.63 -0.48,1.11 -0.48,1.42 0,0.64 0.48,0.95 1.43,0.95 1.11,0 1.74,-0.64 1.74,-1.9l0 -0.47c0,-0.48 0,-0.95 -0.16,-1.27 -0.16,-0.31 -0.47,-0.47 -0.79,-0.47zm8.87 14.9c0,0 0,0.16 -0.16,0.63 -0.16,0.47 -0.32,0.95 -0.32,1.58 0.32,0.95 0.64,1.58 0.79,2.06 0,0.48 0.32,0.79 0.64,0.79 0.32,-0.63 0.47,-1.27 0.47,-1.9 0,-0.95 -0.16,-1.75 -0.47,-2.38l-0.47 -0.79c-0.32,0 -0.48,0 -0.48,0 0,0 0,0 0,0 0,0 0,0 0,0 0,0 0,0 0,0 0,0 0,0 0,0zm3.33 18.54c-0.32,0 -0.64,0 -0.79,0 -0.16,0 -0.32,0.16 -0.64,0.47 -1.9,0.64 -2.85,1.11 -2.85,1.75 0,0.63 1.43,0.95 4.28,0.95 0.79,0 1.58,-0.16 2.22,-0.47 0.64,-0.32 0.95,-0.64 0.95,-0.95l-0.47 -0.32c-0.32,-0.64 -0.64,-1.11 -1.11,-1.27 -0.47,-0.16 -1.11,-0.16 -1.58,-0.16zm-1121.26 -541.85c4.59,0 9.51,0.32 14.74,0.95l2.38 0c7.45,0 13.79,2.85 18.86,8.72 5.07,5.86 7.61,12.36 7.61,19.49 0,2.85 -0.47,5.39 -1.42,7.92 -2.69,8.4 -7.45,15.85 -14.11,22.35 -6.66,6.5 -13.95,11.41 -22.03,14.74 -4.91,4.75 -10.14,6.97 -15.37,6.97 -4.91,0 -9.83,-0.79 -14.9,-2.69 -4.91,-1.9 -9.98,-2.85 -15.22,-2.85l-3.8 0c-5.86,0 -9.83,-1.11 -11.73,-3.17 -2.06,-2.22 -3.17,-4.91 -3.17,-8.4 0,-6.18 1.75,-12.84 5.23,-19.97 1.42,-3.96 2.53,-7.61 3.17,-10.62 3.8,-11.25 10.3,-19.33 19.5,-24.4 9.35,-5.07 19.33,-8.08 30.27,-9.03zm-6.02 161.02c2.69,0 4.75,0.95 6.02,2.54 1.11,1.74 2.22,3.48 3.17,5.39 0,0.32 0.16,0.64 0.47,0.95 4.59,3.96 7.92,8.87 9.98,14.42 2.06,5.55 3.01,10.93 3.01,16.17 0,5.07 -0.79,9.51 -2.22,13.47 -2.22,9.67 -4.28,19.34 -6.18,29.32 -1.74,9.35 -3.64,18.38 -5.55,27.42 -1.27,5.86 -2.85,12.04 -5.07,18.54 -4.6,12.68 -6.97,24.25 -6.97,34.87l0 5.07c0,9.19 -1.58,18.54 -4.59,27.89 -2.54,8.56 -4.12,17.43 -4.75,26.47 -4.28,10.14 -6.82,20.92 -7.77,32.49 -0.64,4.91 -1.42,9.98 -2.38,15.21 -0.95,6.18 -2.22,12.36 -3.64,18.23 -2.53,10.78 -4.12,21.24 -4.75,31.54l0 2.38c0,6.97 -0.95,13.95 -2.69,20.76 -2.22,6.5 -3.33,13.31 -3.33,20.45 0,2.85 0.32,5.7 0.95,8.87 7.13,-1.27 15.21,-6.34 24.09,-15.06 9.03,-8.87 17.59,-18.86 25.67,-29.95 7.92,-11.25 13.79,-20.44 17.59,-27.89 3.01,-3.49 5.39,-5.07 6.97,-5.07 0.95,0 1.43,0.64 1.43,1.74 0,0.64 0,1.11 0,1.43l0 2.38c-5.07,22.66 -12.52,39.62 -22.35,51.03 -2.85,5.23 -6.18,10.3 -10.14,14.9 -5.07,5.86 -8.87,11.89 -11.73,18.07 -1.75,3.17 -3.65,6.18 -5.55,9.35 -7.45,14.58 -17.12,27.57 -29.16,38.99 -3.17,3.01 -6.02,4.59 -8.4,4.59 -2.53,0 -4.59,-0.79 -6.5,-2.53 -1.9,-1.74 -3.8,-3.64 -5.55,-5.86 -1.58,-1.42 -3.01,-3.01 -4.44,-4.28 -1.43,-1.43 -2.85,-2.22 -4.44,-2.22 -0.95,0 -1.9,0.32 -2.85,0.95 -3.01,0.64 -6.02,0.95 -8.72,0.95 -8.4,0 -15.69,-2.54 -22.03,-7.92 -6.34,-5.23 -10.46,-12.2 -12.36,-20.76 -3.17,-23.62 -4.6,-47.23 -4.6,-71.16 0,-21.87 0.95,-43.74 2.69,-65.45 1.9,-10.14 3.33,-20.45 4.28,-30.59 1.11,-10.62 2.69,-20.92 4.59,-31.06 4.91,-19.65 10.62,-38.67 17.12,-57.21 2.85,-11.41 6.02,-22.51 9.83,-33.44 3.01,-8.56 5.86,-17.59 8.4,-26.94 1.43,-3.64 3.17,-7.61 5.07,-11.57 5.23,-13.31 11.73,-26.47 19.49,-39.46 12.36,-14.26 28.05,-23.46 46.91,-27.9 0.32,0 0.47,0 0.47,-0.16 0,-0.16 0.16,-0.32 0.48,-0.32zm28.21 312.05c0,0 0,0 -0.16,0 -0.16,0 -0.32,0 -0.32,0l0 0.47c-0.47,0.32 -0.95,0.64 -1.27,1.11 -0.32,0.47 -0.47,0.95 -0.47,1.27 0,1.11 0.16,1.75 0.47,1.75 0.64,0 1.11,-0.79 1.74,-2.69 0.32,-0.64 0.48,-1.11 0.48,-1.43 0,-0.31 -0.16,-0.47 -0.48,-0.47zm-118.86 31.54c-0.31,0 -0.47,0.16 -0.63,0.47 -0.16,0.32 -0.32,0.79 -0.32,1.42l0 0.95c0.32,0.63 0.64,1.11 0.95,1.58 0.32,0.47 0.64,0.79 0.95,0.79 0.32,0 0.47,-0.32 0.47,-0.79 0,-0.47 0,-0.95 0,-1.58 0,-0.64 0,-1.27 -0.16,-1.9 -0.16,-0.64 -0.64,-0.95 -1.27,-0.95zm0.48 19.02c-0.32,0.32 -0.48,0.64 -0.48,0.95 0,0.63 0.16,1.42 0.48,2.38 0.95,7.13 1.9,12.2 2.85,15.06 0.95,3.01 2.22,5.23 4.12,6.81 2.54,2.06 4.28,3.17 5.07,3.17 0.32,0 0.47,-0.32 0.47,-0.95 0,-0.31 -0.32,-0.79 -1.11,-1.58 -0.79,-0.79 -1.58,-1.58 -2.53,-2.53 -0.95,-0.95 -1.58,-1.74 -2.06,-2.38 -0.47,-0.64 -0.79,-1.11 -0.79,-1.27l0 -0.47c0.32,-0.32 0.47,-0.79 0.47,-1.43 0,-1.9 -0.47,-4.59 -1.43,-7.92 -0.79,-2.22 -1.74,-4.12 -2.69,-6.02l-2.38 -3.8zm19.02 42.79c-0.32,0 -0.64,0 -1.27,0.16 -0.63,0.16 -1.11,0.48 -1.42,0.79 -0.32,0.64 -1.11,0.95 -2.38,0.95l-0.95 0c-0.63,-0.32 -1.11,-0.47 -1.27,-0.47l0 0.95c0.47,1.11 1.75,1.74 3.64,1.74 1.58,0 3.17,-0.47 5.07,-1.27 0.95,-0.63 1.43,-1.11 1.43,-1.42 0,-0.32 -0.64,-0.64 -1.9,-0.95 0,-0.32 0,-0.47 -0.16,-0.47 -0.16,0 -0.48,0 -0.79,0zm372.43 -372.43c5.55,0 11.09,0.16 16.8,0.47 2.06,0.32 4.59,0.64 7.29,0.95 8.08,0.63 15.85,2.06 23.46,4.44 7.61,2.38 12.52,6.66 14.74,13.15 0.32,0.64 0.32,1.43 0.32,2.38 0,3.8 -2.53,6.81 -7.61,9.03 -5.07,2.38 -10.94,4.44 -17.43,6.34 -7.61,1.9 -14.1,4.12 -19.02,6.97 -10.14,2.38 -19.97,6.02 -29.48,10.94 -9.35,4.75 -17.27,11.57 -23.46,20.6 -5.86,5.55 -8.72,11.88 -8.72,19.02 0,8.72 2.06,17.43 6.5,26.47 1.11,2.85 2.22,5.55 3.17,8.4 0.63,5.23 2.38,10.62 5.07,16.17 3.17,5.86 4.75,11.41 4.75,16.32l0 1.42c7.61,7.13 13.63,15.69 17.59,25.99 3.01,6.18 6.5,12.04 10.14,17.59 10.94,16.48 19.81,33.6 26.94,51.51 2.53,8.4 3.8,16.96 3.8,25.51 0,19.18 -5.23,37.4 -15.37,54.36 -10.46,19.81 -25.36,35.02 -44.53,45.8 -19.18,10.62 -39.78,16.8 -61.81,18.23 -1.9,0.31 -3.8,0.47 -6.02,0.47 -2.85,0.63 -5.55,0.95 -8.4,0.95 -1.43,0 -3.17,-0.16 -5.07,-0.47 -3.01,0.32 -6.02,0.47 -8.87,0.47 -10.78,0 -21.4,-1.74 -32.01,-5.23 -10.46,-3.64 -20.76,-7.45 -30.59,-11.41 -16.16,-7.76 -31.06,-12.36 -45.01,-13.95 -1.58,0.32 -3.01,0.47 -4.28,0.47 -8.87,0 -15.85,-3.8 -20.76,-11.41 -5.07,-7.61 -8.08,-15.53 -9.35,-23.93 -0.32,-2.06 -0.48,-4.44 -0.48,-6.97 0,-8.56 2.54,-16.8 7.45,-24.57 4.91,-7.76 10.62,-14.42 17.12,-19.97 13.95,-11.73 30.11,-20.6 48.34,-26.47 3.96,-2.53 7.45,-3.64 10.14,-3.64 5.07,0 8.56,3.01 10.46,9.03 2.06,6.02 3.01,11.73 3.01,17.43 0,2.06 -0.16,3.96 -0.32,5.55 10.14,21.24 26.94,33.6 50.56,36.61 10.46,4.59 21.39,6.97 32.49,6.97 11.73,0 22.66,-3.33 32.96,-10.14 4.28,-4.75 6.5,-9.83 6.5,-15.37 0,-4.91 -1.43,-10.14 -4.12,-15.53 -2.85,-5.39 -6.02,-10.78 -9.35,-16.01 -2.85,-4.12 -5.07,-7.92 -6.97,-11.73 -9.83,-15.69 -21.87,-29.95 -35.82,-42.63 -4.6,-6.18 -9.35,-12.04 -14.26,-17.59 -9.67,-10.3 -17.75,-21.4 -24.25,-33.44 -14.58,-18.54 -21.71,-38.67 -21.71,-60.38 0,-11.73 2.85,-23.14 8.71,-33.91 2.22,-8.08 5.86,-15.53 11.25,-22.35 5.23,-6.81 10.46,-12.99 15.69,-18.54 4.12,-4.91 8.72,-8.56 13.95,-10.62 5.23,-2.22 10.78,-3.96 16.8,-5.07 6.5,-1.58 12.68,-3.8 18.54,-6.5 23.14,-7.45 46.75,-11.57 70.53,-12.2zm6.5 33.44l-1.43 0c-1.58,0.95 -2.22,1.58 -2.22,1.9 0,0.32 0.47,0.47 1.27,0.47 0.95,0 1.9,-0.47 2.85,-1.42l0 -0.47c0,-0.32 -0.16,-0.48 -0.47,-0.48zm-119.81 52.93c0,0 0,0.16 -0.16,0.32 -0.16,0.16 -0.32,0.32 -0.47,0.64 -0.16,0.32 -0.47,0.63 -0.79,0.95 -0.32,0.32 -0.47,0.64 -0.47,0.95 0,0.63 0.32,0.95 0.95,0.95 0.64,0 1.11,-0.32 1.43,-0.79 0.32,-0.47 0.47,-0.79 0.47,-1.11 0,-0.63 0,-1.11 -0.16,-1.42 -0.16,-0.32 -0.48,-0.48 -0.79,-0.48zm0.47 9.83c-0.95,0 -1.43,1.11 -1.43,3.17 -0.32,1.27 -0.47,2.38 -0.47,3.33 0,0.95 0.32,1.58 0.79,1.9 0.47,0.16 1.27,0.32 2.53,0.32 0.64,0 1.11,-0.16 1.58,-0.79 0.48,-0.63 0.79,-1.27 0.79,-1.9 0,-0.95 -0.31,-1.9 -0.79,-2.85 -0.47,-0.95 -0.95,-1.58 -1.58,-2.22 -0.31,-0.32 -0.63,-0.64 -0.79,-0.79 -0.16,-0.16 -0.31,-0.16 -0.63,-0.16zm5.07 14.9l-0.95 0 0 0.47c0,0.47 0.32,1.27 0.95,2.22 0.63,0.95 1.42,1.43 2.38,1.43 0.63,0 0.95,-0.16 0.95,-0.47 0,-0.32 -0.32,-0.95 -0.95,-1.9 -1.27,-1.27 -2.06,-1.74 -2.38,-1.74zm1.9 9.19c-0.31,0 -0.47,0.16 -0.47,0.47 0,0.32 0.32,0.79 0.64,1.43 0.47,0.63 1.27,1.27 2.22,1.9 2.69,2.69 4.12,5.55 4.12,8.24 0,1.58 -0.64,3.01 -1.9,4.28 -0.64,0.63 -0.79,1.27 -0.79,1.74 0,1.9 2.69,3.17 8.24,3.8 0.95,0 1.42,-0.16 1.42,-0.47 0,-0.32 -0.47,-0.95 -1.42,-1.9 -0.64,-1.27 -0.95,-2.54 -0.95,-4.12l0 -1.9c0.32,-0.64 0.47,-1.27 0.47,-1.9 0,-1.74 -1.27,-3.96 -4.12,-6.5 -1.58,-1.43 -3.01,-2.69 -4.44,-3.65 -1.43,-0.95 -2.38,-1.42 -3.01,-1.42zm21.4 38.99c-0.63,0 -1.27,0.16 -1.9,0.47 -0.63,0.32 -1.11,0.79 -1.42,1.43l0 0.47c0,0.63 1.11,0.95 3.33,0.95 2.06,0 3.33,-0.32 3.64,-0.95l-0.47 -0.47c-0.32,-0.64 -0.79,-1.11 -1.27,-1.43 -0.64,-0.32 -1.27,-0.47 -1.9,-0.47zm68.15 109.67c-0.16,0 -0.48,0.16 -0.64,0.63 -0.16,0.48 -0.16,0.95 -0.16,1.58 0,0.64 0.16,1.43 0.47,2.38 0.47,1.27 0.95,1.9 1.27,1.9 0.32,0 0.47,-0.64 0.47,-1.9 0.32,-0.63 0.47,-1.42 0.47,-2.38 0,-0.63 -0.16,-1.27 -0.47,-1.74 -0.32,-0.32 -0.47,-0.47 -0.63,-0.47 -0.16,0 -0.48,0 -0.79,0zm1.42 8.72c-0.32,0 -1.27,0.47 -2.69,1.42 -0.63,0.64 -0.95,1.27 -0.95,1.9 0,0.95 0.16,1.9 0.47,2.69 0.64,0.95 1.11,2.06 1.58,3.33 0.47,1.27 0.79,2.22 1.11,2.85 0.64,1.75 1.11,2.69 1.43,2.69 0.63,0 0.95,-1.58 0.95,-4.59l0 -4.28c-0.32,-2.06 -0.47,-3.64 -0.64,-4.6 -0.16,-0.95 -0.63,-1.42 -1.27,-1.42zm-196.36 32.96c-0.32,0 -0.79,0.79 -1.42,2.38l0 0.95c0,0.95 0.31,1.58 0.79,2.06 0.47,0.47 0.95,0.64 1.58,0.64 0.95,0 1.74,-0.47 2.38,-1.27l0 -0.48c0,-0.63 -0.16,-1.27 -0.48,-1.74 -0.31,-0.32 -0.63,-0.79 -0.95,-1.11 -0.64,-0.63 -1.11,-0.95 -1.43,-0.95 0,0 -0.16,-0.16 -0.47,-0.47zm3.33 23.77c-0.95,0 -2.06,0.16 -3.33,0.48 -0.63,0.31 -1.27,0.47 -1.9,0.47l-6.02 1.74 6.97 2.85c2.22,0.95 4.12,1.75 5.55,2.54 1.58,0.79 2.53,1.42 2.85,2.06 0.64,0.95 1.58,1.74 2.69,2.38 1.27,0.63 2.38,0.95 3.33,0.95 0.64,0 1.11,-0.16 1.43,-0.47l0 -0.47c0,-0.64 -0.16,-1.27 -0.32,-2.06 -0.16,-0.79 -0.47,-1.58 -1.11,-2.22 -0.63,-1.11 -1.42,-2.22 -2.53,-3.01 -1.11,-0.64 -1.9,-1.11 -2.54,-1.11 -0.63,0 -1.27,-0.16 -1.9,-0.64 -0.64,-0.47 -1.11,-1.11 -1.43,-1.74l-1.74 -1.75zm412.68 -528.38c4.59,0 9.51,0.32 14.74,0.95l2.38 0c7.45,0 13.79,2.85 18.86,8.72 5.07,5.86 7.61,12.36 7.61,19.49 0,2.85 -0.47,5.39 -1.42,7.92 -2.69,8.4 -7.45,15.85 -14.11,22.35 -6.66,6.5 -13.95,11.41 -22.03,14.74 -4.91,4.75 -10.14,6.97 -15.37,6.97 -4.91,0 -9.83,-0.79 -14.9,-2.69 -4.91,-1.9 -9.98,-2.85 -15.22,-2.85l-3.8 0c-5.86,0 -9.83,-1.11 -11.73,-3.17 -2.06,-2.22 -3.17,-4.91 -3.17,-8.4 0,-6.18 1.75,-12.84 5.23,-19.97 1.42,-3.96 2.53,-7.61 3.17,-10.62 3.8,-11.25 10.3,-19.33 19.5,-24.4 9.35,-5.07 19.33,-8.08 30.27,-9.03zm-6.02 161.02c2.69,0 4.75,0.95 6.02,2.54 1.11,1.74 2.22,3.48 3.17,5.39 0,0.32 0.16,0.64 0.47,0.95 4.59,3.96 7.92,8.87 9.98,14.42 2.06,5.55 3.01,10.93 3.01,16.17 0,5.07 -0.79,9.51 -2.22,13.47 -2.22,9.67 -4.28,19.34 -6.18,29.32 -1.74,9.35 -3.64,18.38 -5.55,27.42 -1.27,5.86 -2.85,12.04 -5.07,18.54 -4.6,12.68 -6.97,24.25 -6.97,34.87l0 5.07c0,9.19 -1.58,18.54 -4.59,27.89 -2.54,8.56 -4.12,17.43 -4.75,26.47 -4.28,10.14 -6.82,20.92 -7.77,32.49 -0.64,4.91 -1.42,9.98 -2.38,15.21 -0.95,6.18 -2.22,12.36 -3.64,18.23 -2.53,10.78 -4.12,21.24 -4.75,31.54l0 2.38c0,6.97 -0.95,13.95 -2.69,20.76 -2.22,6.5 -3.33,13.31 -3.33,20.45 0,2.85 0.32,5.7 0.95,8.87 7.13,-1.27 15.21,-6.34 24.09,-15.06 9.03,-8.87 17.59,-18.86 25.67,-29.95 7.92,-11.25 13.79,-20.44 17.59,-27.89 3.01,-3.49 5.39,-5.07 6.97,-5.07 0.95,0 1.43,0.64 1.43,1.74 0,0.64 0,1.11 0,1.43l0 2.38c-5.07,22.66 -12.52,39.62 -22.35,51.03 -2.85,5.23 -6.18,10.3 -10.14,14.9 -5.07,5.86 -8.87,11.89 -11.73,18.07 -1.75,3.17 -3.65,6.18 -5.55,9.35 -7.45,14.58 -17.12,27.57 -29.16,38.99 -3.17,3.01 -6.02,4.59 -8.4,4.59 -2.53,0 -4.59,-0.79 -6.5,-2.53 -1.9,-1.74 -3.8,-3.64 -5.55,-5.86 -1.58,-1.42 -3.01,-3.01 -4.44,-4.28 -1.43,-1.43 -2.85,-2.22 -4.44,-2.22 -0.95,0 -1.9,0.32 -2.85,0.95 -3.01,0.64 -6.02,0.95 -8.72,0.95 -8.4,0 -15.69,-2.54 -22.03,-7.92 -6.34,-5.23 -10.46,-12.2 -12.36,-20.76 -3.17,-23.62 -4.6,-47.23 -4.6,-71.16 0,-21.87 0.95,-43.74 2.69,-65.45 1.9,-10.14 3.33,-20.45 4.28,-30.59 1.11,-10.62 2.69,-20.92 4.59,-31.06 4.91,-19.65 10.62,-38.67 17.12,-57.21 2.85,-11.41 6.02,-22.51 9.83,-33.44 3.01,-8.56 5.86,-17.59 8.4,-26.94 1.43,-3.64 3.17,-7.61 5.07,-11.57 5.23,-13.31 11.73,-26.47 19.49,-39.46 12.36,-14.26 28.05,-23.46 46.91,-27.9 0.32,0 0.47,0 0.47,-0.16 0,-0.16 0.16,-0.32 0.48,-0.32zm28.21 312.05c0,0 0,0 -0.16,0 -0.16,0 -0.32,0 -0.32,0l0 0.47c-0.47,0.32 -0.95,0.64 -1.27,1.11 -0.32,0.47 -0.47,0.95 -0.47,1.27 0,1.11 0.16,1.75 0.47,1.75 0.64,0 1.11,-0.79 1.74,-2.69 0.32,-0.64 0.48,-1.11 0.48,-1.43 0,-0.31 -0.16,-0.47 -0.48,-0.47zm-118.86 31.54c-0.31,0 -0.47,0.16 -0.63,0.47 -0.16,0.32 -0.32,0.79 -0.32,1.42l0 0.95c0.32,0.63 0.64,1.11 0.95,1.58 0.32,0.47 0.64,0.79 0.95,0.79 0.32,0 0.47,-0.32 0.47,-0.79 0,-0.47 0,-0.95 0,-1.58 0,-0.64 0,-1.27 -0.16,-1.9 -0.16,-0.64 -0.64,-0.95 -1.27,-0.95zm0.48 19.02c-0.32,0.32 -0.48,0.64 -0.48,0.95 0,0.63 0.16,1.42 0.48,2.38 0.95,7.13 1.9,12.2 2.85,15.06 0.95,3.01 2.22,5.23 4.12,6.81 2.54,2.06 4.28,3.17 5.07,3.17 0.32,0 0.47,-0.32 0.47,-0.95 0,-0.31 -0.32,-0.79 -1.11,-1.58 -0.79,-0.79 -1.58,-1.58 -2.53,-2.53 -0.95,-0.95 -1.58,-1.74 -2.06,-2.38 -0.47,-0.64 -0.79,-1.11 -0.79,-1.27l0 -0.47c0.32,-0.32 0.47,-0.79 0.47,-1.43 0,-1.9 -0.47,-4.59 -1.43,-7.92 -0.79,-2.22 -1.74,-4.12 -2.69,-6.02l-2.38 -3.8zm19.02 42.79c-0.32,0 -0.64,0 -1.27,0.16 -0.63,0.16 -1.11,0.48 -1.42,0.79 -0.32,0.64 -1.11,0.95 -2.38,0.95l-0.95 0c-0.63,-0.32 -1.11,-0.47 -1.27,-0.47l0 0.95c0.47,1.11 1.75,1.74 3.64,1.74 1.58,0 3.17,-0.47 5.07,-1.27 0.95,-0.63 1.43,-1.11 1.43,-1.42 0,-0.32 -0.64,-0.64 -1.9,-0.95 0,-0.32 0,-0.47 -0.16,-0.47 -0.16,0 -0.48,0 -0.79,0zm-1072.45 -606.82c-0.31,0 -0.63,0 -0.79,0.16 -0.16,0.16 -0.16,0.47 -0.16,0.79l0 0.95c0.64,0.48 1.11,0.95 1.43,1.27 0.16,0.31 0.47,0.47 0.79,0.47 0,0 0.16,0 0.31,-0.16 0.16,-0.16 0.16,-0.47 0.16,-0.79 0,-0.16 0,-0.47 0,-0.79 0,-0.63 -0.16,-1.11 -0.47,-1.42 -0.32,-0.32 -0.79,-0.47 -1.27,-0.47zm170.84 35.66c-0.32,0 -0.63,0.32 -0.95,0.95 -0.32,0.63 -0.47,1.42 -0.47,2.38 0,0.63 0.16,1.11 0.47,1.42 0.32,0.32 0.63,0.47 0.95,0.47l0.47 0c0.64,-0.63 0.95,-1.27 1.11,-1.9 0.16,-0.64 0.16,-1.11 0.16,-1.43 0,-0.64 -0.16,-1.11 -0.48,-1.43 -0.16,-0.31 -0.63,-0.47 -1.27,-0.47zm-26.46 40.41c-0.95,0 -1.43,0.47 -1.43,1.43 0,0.31 0.32,0.95 0.95,1.9 0.32,0.32 0.64,0.48 1.11,0.64 0.47,0.16 0.79,0.32 1.11,0.32l1.43 0c1.27,-0.64 1.9,-1.11 1.9,-1.43 0,-0.32 -0.79,-0.95 -2.38,-1.9 -0.63,-0.31 -1.11,-0.47 -1.42,-0.47 -0.47,-0.32 -0.95,-0.47 -1.27,-0.47zm-15.85 30.74c-0.32,0 -0.47,1.11 -0.47,3.17 0,1.9 0.16,2.85 0.47,2.85 0.32,0 0.47,-0.16 0.47,-0.47 0.32,-0.95 0.47,-1.9 0.47,-2.85 0,-0.95 -0.16,-1.58 -0.47,-2.22 0,0 0,0 -0.16,0 -0.16,0 -0.32,-0.16 -0.32,-0.47zm307.93 19.02l-0.47 0c0,0 0,0.16 0,0.47 -0.32,0.32 -0.63,0.64 -0.79,1.11 -0.16,0.47 -0.16,0.95 -0.16,1.58l0 0.95c0,1.58 0.16,2.38 0.47,2.38 0.32,0 0.64,-1.27 1.27,-3.8l0 -1.27c0,-0.95 -0.16,-1.43 -0.32,-1.43zm-93.82 34.39l-1.42 0c-0.64,0 -0.95,0.31 -0.95,0.79 0,0.31 0.32,0.79 0.95,1.27 0.63,0.47 1.27,0.63 1.9,0.63 0.63,0 1.11,0 1.58,-0.16 0.47,-0.16 0.63,-0.47 0.63,-0.79 0,-0.32 -0.32,-0.64 -0.95,-0.95 -0.47,-0.16 -1.11,-0.48 -1.75,-0.79zm-253.57 13.79c-0.32,0 -0.64,0.32 -0.95,0.79 -0.32,0.48 -0.47,0.79 -0.47,1.11 0,0.64 0.16,1.11 0.47,1.43 0.32,0.31 0.79,0.47 1.43,0.47 0.32,0 0.63,-0.16 0.95,-0.47 0.32,-0.32 0.47,-0.79 0.47,-1.43 0,-0.32 -0.16,-0.63 -0.47,-1.11 -0.32,-0.47 -0.79,-0.79 -1.42,-0.79zm330.11 5.71c-0.32,0 -0.64,0.16 -1.11,0.63 -0.47,0.47 -0.79,0.95 -0.79,1.58 0,0.32 0.16,0.79 0.32,1.27 0.16,0.48 0.32,0.64 0.64,0.64 0.31,0 0.63,-0.16 0.95,-0.47 0.32,-0.32 0.64,-0.79 0.95,-1.43l0 -0.95c0,-0.79 -0.31,-1.27 -0.95,-1.27zm-480.04 9.67c-0.31,0 -0.63,0.16 -0.95,0.47 -0.32,0.32 -0.64,0.79 -0.95,1.43l0 0.95c0,0.32 0.16,0.47 0.31,0.64 0,0.16 0.32,0.32 0.64,0.32 0.32,0 0.64,-0.16 0.95,-0.48 0.32,-0.31 0.48,-0.63 0.48,-0.95l0 -1.43c0,-0.31 0,-0.63 0,-0.95 -0.32,0 -0.48,0 -0.48,0 0,0 0,0 0,0 0,0 0,0 0,0 0,0 0,0 0,0 0,0 0,0 0,0zm376.55 6.5c-1.9,0 -3.49,1.9 -4.75,5.55 -0.48,1.58 -0.79,2.85 -0.79,3.8 0,0.63 0.31,0.95 0.79,1.11 0.63,0.16 1.58,0.31 2.85,0.31 2.22,0 3.33,-0.63 3.33,-1.9 0,-0.32 -0.16,-0.79 -0.47,-1.43 -0.32,-0.64 -0.47,-1.27 -0.47,-1.9 0,-0.63 0.32,-0.95 0.95,-0.95 0.47,0 0.79,-0.16 0.79,-0.79 0,-0.64 -0.16,-1.27 -0.32,-1.9 -0.31,-0.63 -0.63,-1.11 -0.95,-1.42 -0.32,-0.32 -0.64,-0.48 -0.95,-0.48zm-9.83 15.37l-0.95 0c-1.43,0.95 -2.22,1.9 -2.22,2.69 0,0.95 1.11,1.58 3.17,1.9 1.9,0 2.85,-0.48 2.85,-1.43 0,-0.32 -0.16,-0.64 -0.47,-1.27 -0.32,-0.64 -0.64,-1.11 -0.95,-1.43 -0.31,-0.32 -0.79,-0.47 -1.42,-0.47zm-376.08 5.07c0,0 0,0.16 0,0.32 0,0.16 0,0.16 0,0.16l-0.47 0c-0.32,0.32 -0.64,0.79 -0.95,1.43 -0.32,0.63 -0.47,1.27 -0.47,1.9 0,0.48 0.32,0.79 0.95,0.79l0.95 -0.47c0.32,-0.16 0.63,-0.63 0.95,-1.27 0.32,-0.64 0.47,-1.11 0.47,-1.43 0,-0.95 -0.47,-1.42 -1.42,-1.42zm132.81 3.33c-0.95,0.32 -1.9,0.79 -3.01,1.58 -1.11,0.79 -1.58,1.43 -1.58,2.06 0.32,0.64 0.79,0.95 1.43,0.95 0.32,0 0.95,-0.32 2.22,-0.95 1.58,-0.95 2.38,-1.9 2.38,-2.85l0 -0.32c-0.32,-0.31 -0.64,-0.47 -0.79,-0.47 0,0 -0.32,0 -0.64,0zm-2.69 9.19c-0.32,0 -0.79,0.32 -1.27,0.95 -0.47,0.63 -0.95,1.42 -1.58,2.38 -0.32,0.31 -0.64,0.63 -0.95,0.95 -0.95,1.11 -1.43,2.22 -1.43,3.17 0,0.32 0.16,0.47 0.47,0.47 0.64,0 1.27,-0.32 1.9,-1.11 0.64,-0.79 1.27,-1.74 1.9,-2.53 0.32,-1.27 0.47,-2.38 0.63,-3.01 0.16,-0.79 0.32,-1.27 0.32,-1.27zm-136.13 1.43l-0.47 0c-0.64,0 -1.27,0.32 -1.9,0.95 -0.47,0.64 -0.79,1.43 -0.79,2.22l0 1.42c0,0.95 0.32,1.43 0.79,1.43 0,0 0.16,0 0.47,0l1.43 0c0.63,-0.32 1.27,-0.79 1.9,-1.43 0.64,-0.63 0.95,-1.27 0.95,-1.74 0,-1.9 -0.79,-2.85 -2.38,-2.85zm367.2 0c-0.16,0.32 -0.47,0.63 -0.63,0.95 -0.16,0.32 -0.16,0.79 -0.16,1.43 -0.95,2.06 -1.42,3.8 -1.42,5.07 0,0.95 0.32,1.42 0.95,1.42 0.64,0 1.58,-0.63 3.17,-1.9 2.22,-1.27 3.33,-2.38 3.33,-3.33 0,-0.47 -0.79,-1.27 -2.38,-2.22 -0.95,-0.95 -1.9,-1.42 -2.85,-1.42zm-6.81 13.95l-1.42 0c0,0.32 -0.16,0.47 -0.47,0.47 -1.58,1.58 -2.38,3.01 -2.38,4.6 0,0.63 0.31,1.11 0.95,1.58 0.64,0.47 1.27,0.79 1.9,0.79 1.58,0 2.22,-0.95 2.22,-2.85l0 -1.42c0,-2.06 -0.32,-3.17 -0.79,-3.17 0,0 0,0 0,0zm-96.67 9.67c-0.63,0 -1.11,0.16 -1.58,0.47 -0.47,0.32 -0.79,0.79 -0.79,1.43 0,0.32 0.32,0.64 0.79,1.11 0.47,0.47 0.95,0.79 1.58,0.79 0.95,0 1.58,-0.32 2.06,-0.79 0.47,-0.47 0.79,-0.79 0.79,-1.11 -0.32,-0.64 -0.79,-1.11 -1.27,-1.43 -0.47,-0.31 -0.95,-0.47 -1.58,-0.47zm-151.35 13c-0.63,0 -1.11,0.16 -1.58,0.47 -0.47,0.32 -0.79,0.79 -0.79,1.43 0,0.32 0.16,0.79 0.48,1.11 0.31,0.47 0.63,0.79 0.95,0.79 0.64,0 1.27,-0.16 1.58,-0.48 0.47,-0.31 0.95,-0.79 1.27,-1.42l0 -0.47c0,-0.32 -0.16,-0.64 -0.47,-0.95 -0.32,-0.32 -0.79,-0.47 -1.43,-0.47zm-122.51 6.02c-0.32,0 -0.63,0.16 -0.95,0.47 -0.32,0.32 -0.79,0.79 -1.43,1.43 -0.95,1.27 -1.42,2.69 -1.42,4.28 0,0.79 0.16,1.58 0.47,2.22 0.63,1.58 1.11,2.38 1.42,2.38 0.32,0 0.64,-0.47 0.95,-1.42 0.63,-0.95 0.95,-2.06 1.11,-3.17 0.16,-1.27 0.31,-2.38 0.31,-3.33 0,-1.9 -0.16,-2.85 -0.47,-2.85zm119.81 0c0,0 -0.16,0.16 -0.32,0.32 -0.16,0.16 -0.16,0.16 -0.16,0.16l-0.47 0c-0.63,0.64 -0.95,1.27 -0.95,1.9 0,1.27 0.32,2.38 0.95,3.49 0.64,1.11 1.27,1.58 2.22,1.58 0.63,0 0.95,-0.47 0.95,-1.27 0,-0.32 -0.16,-0.95 -0.47,-1.9 -0.32,-0.64 -0.64,-1.27 -0.95,-1.9 0,-0.64 0,-1.11 -0.16,-1.43 -0.16,-0.31 -0.32,-0.47 -0.32,-0.47l0 -0.47c0,0 -0.16,0 -0.31,0zm234.39 0.47c-0.32,0 -0.47,0.95 -0.47,2.85 0,2.54 0.32,3.65 0.95,3.65 0.32,0 0.48,0 0.48,0 0.63,0 1.58,-0.16 2.69,-0.79 0.64,-0.32 1.27,-0.79 1.75,-1.27 0.47,-0.47 0.63,-0.95 0.63,-1.58l0 -0.47c0,-0.63 -0.16,-0.95 -0.47,-0.95 0,0 -0.16,0.16 -0.47,0.47l-0.47 0c-0.64,0 -1.11,0 -1.58,-0.16 -0.47,-0.16 -0.79,-0.48 -1.11,-0.79 -0.32,-0.32 -0.64,-0.48 -0.95,-0.48 -0.32,-0.31 -0.64,-0.47 -0.95,-0.47zm-3.33 14.42c-0.16,0 -0.47,0.16 -0.79,0.47 -0.32,0.32 -0.47,0.79 -0.47,1.42 0,0.32 0,0.64 0.16,0.95 0.16,0.32 0.32,0.47 0.32,0.47l0 0.47c0.32,0 0.63,-0.16 0.79,-0.47 0.32,-0.32 0.63,-0.79 0.95,-1.43l0 -0.95c0,-0.32 0,-0.47 -0.16,-0.64 -0.16,-0.16 -0.47,-0.31 -0.79,-0.31zm-358.8 12.99c-0.32,0 -0.79,0.32 -1.11,0.79 -0.47,0.47 -0.79,0.95 -0.79,1.58 0,0.32 0.16,0.64 0.32,1.11 0.16,0.47 0.32,0.79 0.64,0.79 0.32,0 0.63,-0.32 0.95,-0.95 0.32,-0.32 0.64,-0.64 0.95,-0.95l0 -0.95c0,-0.95 -0.32,-1.43 -0.95,-1.43zm344.06 6.02c-0.32,0 -0.64,0.16 -0.95,0.48 -0.31,0.31 -0.63,0.79 -0.95,1.42l0 0.95c0,0.31 0,0.47 0.16,0.63 0.16,0.16 0.48,0.32 0.79,0.32 0.64,0 1.11,-0.32 1.43,-0.79 0.32,-0.32 0.47,-0.79 0.47,-1.11 0,-0.63 -0.16,-1.11 -0.32,-1.42 -0.16,-0.32 -0.31,-0.48 -0.63,-0.48zm-346.92 10.3l-0.95 0c-0.32,0 -0.32,0.16 -0.32,0.48l0 0.47c0,0.32 0,0.63 0.32,1.11 0.32,0.48 0.63,0.64 0.95,0.64 0.64,0 1.11,0 1.43,-0.16 0.31,-0.16 0.47,-0.48 0.47,-0.64 0,-0.32 -0.32,-0.63 -0.95,-0.95 -0.31,-0.32 -0.63,-0.64 -0.95,-0.95zm343.59 2.22c-0.95,0 -2.06,0.95 -3.64,2.85l-3.8 4.12 4.28 -1.74c0.95,-0.32 1.75,-0.64 2.69,-0.95 0.95,-0.32 1.58,-0.64 1.9,-0.95 0,0 0,-0.32 0,-0.95 0,-0.64 -0.16,-1.27 -0.47,-1.9 0,-0.32 -0.32,-0.47 -0.95,-0.47zm-237.72 3.33l-0.95 0c-0.64,0.64 -0.95,1.27 -0.95,1.9 0,0.64 0.16,1.11 0.47,1.43 0.95,0.79 1.58,1.27 1.9,1.27 0.31,0 0.47,-0.47 0.47,-1.27l0 -1.43c0,-0.64 0,-1.11 -0.16,-1.43 -0.16,-0.31 -0.47,-0.47 -0.79,-0.47zm231.22 9.35c-0.32,0 -0.64,0 -0.95,0 -0.32,0 -0.79,0.16 -1.27,0.32 -1.27,0.63 -1.9,1.74 -1.9,3.33 0,0.64 0.16,1.43 0.47,2.38 0.32,0.95 0.47,1.74 0.47,2.69 0,1.58 -0.64,2.69 -1.9,3.33 -0.63,0.32 -1.11,0.64 -1.58,1.11 -0.47,0.47 -0.79,0.95 -0.79,1.58 0,0.95 0.32,1.42 0.95,1.42 0.63,0 1.58,-0.79 2.85,-2.53 1.27,-1.74 2.22,-3.8 3.17,-6.34 1.27,-3.01 1.9,-5.07 1.9,-6.02 0,-0.79 -0.48,-1.27 -1.43,-1.27zm-348.18 27.73c-0.32,0 -0.63,0.16 -0.95,0.47 -0.32,0.32 -0.47,0.79 -0.47,1.42 0,0.32 0.16,0.64 0.31,1.11 0.16,0.47 0.32,0.79 0.64,0.79 0.32,0 0.47,-0.16 0.64,-0.47 0.16,-0.32 0.47,-0.79 0.79,-1.43 0.31,-0.31 0.47,-0.63 0.47,-0.95 0,-0.64 -0.47,-0.95 -1.43,-0.95zm332.97 0c-0.64,0 -0.95,0.16 -0.95,0.47 0,0.63 0.48,1.42 1.27,2.38 1.27,1.27 2.06,1.9 2.38,1.9 0.63,0 0.95,-0.16 0.95,-0.48 0,-0.63 -0.32,-1.42 -0.95,-2.38 -0.32,-0.63 -0.64,-1.11 -1.11,-1.42 -0.47,-0.32 -1.11,-0.47 -1.58,-0.47zm-53.41 7.45c-0.31,0 -0.79,0.16 -1.27,0.47 -0.47,0.32 -0.95,0.79 -1.58,1.43l0 0.95c0,0.64 0.32,0.95 0.95,0.95 0.63,0 1.11,-0.16 1.58,-0.47 0.47,-0.32 0.95,-0.79 1.11,-1.43l0 -0.95c0,-0.32 0,-0.48 -0.16,-0.64 -0.16,-0.16 -0.32,-0.32 -0.64,-0.32zm-282.41 1.9c-0.32,0 -0.64,0.16 -0.79,0.64 -0.32,0.47 -0.47,0.95 -0.47,1.27 0,0.63 0.16,1.11 0.47,1.27 0.16,0.32 0.64,0.47 1.27,0.47 0.32,0 0.64,-0.16 0.95,-0.47 0.31,-0.16 0.47,-0.64 0.47,-1.27 0,-0.32 -0.16,-0.79 -0.47,-1.27 -0.32,-0.48 -0.79,-0.64 -1.43,-0.64zm96.2 4.6c-0.64,0 -0.95,0.16 -0.95,0.47l0 0.47c0,1.27 0.47,2.06 1.42,2.38 0.64,0 1.11,-0.16 1.43,-0.32 0.16,-0.16 0.32,-0.32 0.32,-0.63 0,-0.32 -0.16,-0.64 -0.32,-0.95 -0.32,-0.32 -0.79,-0.63 -1.43,-0.95l0 -0.47 -0.47 0zm-11.57 19.97c-0.32,0 -0.79,0.16 -1.43,0.47 -0.63,0.32 -0.95,0.79 -0.95,1.43l0 0.47c0,0.63 0.47,0.95 1.43,0.95 1.42,0 2.22,-0.47 2.22,-1.42 0,-0.64 -0.16,-1.11 -0.47,-1.43 -0.16,-0.32 -0.47,-0.47 -0.79,-0.47zm-46.91 11.73c-0.32,0 -0.79,0 -1.27,0.32 -0.47,0.32 -0.79,0.79 -1.11,1.43l0 0.47c0,0.95 0.47,1.43 1.43,1.43 0.63,0 1.27,-0.32 1.9,-0.64 0.47,-0.47 0.79,-0.95 0.79,-1.27 0,-0.64 -0.16,-1.11 -0.47,-1.43 -0.16,-0.32 -0.64,-0.32 -1.27,-0.32zm41.68 0.79c-0.32,0 -0.95,0.48 -1.75,1.43 -0.31,0.64 -0.63,1.27 -0.95,1.9 -0.32,0.63 -0.47,1.27 -0.47,1.9 0,0.47 0.16,0.95 0.47,1.27 0.32,0.95 0.64,1.42 0.95,1.42 0.32,0 0.64,-0.79 0.79,-2.38 0.64,-1.11 1.11,-2.22 1.27,-3.17 0.16,-0.95 0.16,-1.58 0.16,-1.9l0 -0.48 -0.47 0zm-11.57 24.73c0,0 0,0 -0.16,0 -0.16,0 -0.32,0 -0.32,0l-0.47 0.47c-0.63,0.32 -1.11,0.63 -1.58,1.27 -0.47,0.64 -0.63,1.27 -0.63,1.9 0.31,1.9 0.63,2.85 1.27,2.85 0.95,0 1.74,-1.27 2.38,-3.8 0.32,-0.63 0.47,-1.27 0.47,-1.9 0,-0.48 -0.32,-0.79 -0.95,-0.79zm178.76 23.61c-0.31,0 -0.63,0.16 -1.11,0.47 -0.48,0.32 -0.79,0.79 -0.79,1.43 0.31,0.32 0.47,0.63 0.47,0.95 0,0.32 0.16,0.47 0.47,0.47 0,0.16 0,0.32 0,0.32 0,0 0,0 0,0 0,0 0,0 0,0 0,0 0,0 0,0 0,0 0,0 0,0 0.32,0 0.64,-0.16 0.95,-0.32 0.32,-0.31 0.64,-0.79 0.95,-1.42l0 -0.95c0,-0.31 -0.16,-0.63 -0.32,-0.79 -0.16,0 -0.32,-0.16 -0.64,-0.16zm-193.19 6.02c-0.31,0 -0.47,0.16 -0.63,0.32 -0.16,0.16 -0.32,0.47 -0.32,1.11 0,0.31 0,0.95 0,1.9 0,0.79 -0.16,1.75 -0.32,2.69 -0.32,0.64 -0.47,1.27 -0.47,1.9 0,0.64 0.32,0.95 0.79,0.95 0.64,0 1.27,-0.31 1.74,-0.95 0.48,-0.64 0.64,-1.58 0.64,-2.85l0 -1.27c0,-0.95 0,-1.75 -0.16,-2.22 -0.16,-0.47 -0.48,-0.79 -0.79,-1.11l0 -0.47 -0.48 0zm191.76 1.43c-0.32,0 -0.64,0.47 -0.95,1.42 -0.31,0.95 -0.47,2.06 -0.47,3.64 0.32,2.22 0.47,6.02 0.47,11.57 0,5.7 -0.16,13.15 -0.47,22.82l0 3.17c0,5.07 0.79,8.08 2.38,9.35 0.95,1.58 1.43,2.85 1.43,3.65l0 1.42c0,0.64 0.16,1.11 0.63,1.43 0.48,0.32 1.27,0.47 2.22,0.47 0.79,0 1.58,0.16 2.22,0.47 0.64,0.32 0.95,0.79 0.95,1.43 0.32,0.63 0.63,1.11 1.11,1.27 0.47,0.32 1.11,0.47 1.74,0.47 0.47,0 1.11,-0.16 1.58,-0.47 0.47,-0.16 0.64,-0.64 0.64,-1.27l0 -0.47c0,-0.64 -0.16,-0.95 -0.48,-0.95 -0.31,0 -0.63,0.16 -0.95,0.47l-0.47 0c-0.47,0 -0.95,-0.79 -1.27,-2.38 0,-0.63 -0.48,-1.74 -1.27,-3.17 -0.79,-1.58 -1.74,-3.17 -3.01,-4.75 -0.95,-1.11 -1.58,-2.53 -2.06,-4.12 -0.47,-1.58 -0.79,-3.8 -1.11,-6.97 -0.32,-3.01 -0.64,-7.61 -0.95,-13.47 0,-0.64 0,-1.43 0,-2.38 0,-6.18 -0.16,-11.41 -0.48,-16.01 -0.31,-4.44 -0.79,-6.65 -1.42,-6.65zm198.26 36.13c-0.31,0 -0.63,0.31 -1.11,0.95 -0.48,0.64 -0.64,1.27 -0.64,1.9 0.16,0.63 0.47,1.11 0.64,1.42 0.16,0.32 0.31,0.48 0.63,0.48l0.47 0c0.64,-0.32 1.11,-0.79 1.43,-1.43 0.32,-0.64 0.47,-1.27 0.47,-1.9 -0.32,-0.95 -0.95,-1.42 -1.9,-1.42zm0.48 13.95c-0.32,0 -0.95,0.79 -1.9,2.38 -0.16,0.31 -0.47,0.63 -0.79,0.95 -1.27,1.58 -1.9,2.85 -1.9,4.12 0,0.64 0.32,1.11 0.95,1.43 0.63,0.64 1.11,1.9 1.27,3.96 0.31,2.06 0.63,4.28 0.95,6.66 0.32,2.53 0.47,4.91 0.47,6.97 0,1.9 -0.16,3.17 -0.47,3.8 -0.32,0.63 -0.47,1.42 -0.47,2.22 0,1.27 0.16,2.69 0.47,4.28 0.64,1.58 1.11,3.33 1.27,5.55 0.16,2.22 0.16,4.12 0.16,6.02 0,4.6 0.95,7.45 2.85,8.4 0.95,0.95 1.42,1.58 1.42,2.22l0 1.43c0,0.63 0,1.27 0.32,2.06 0.32,0.79 0.95,1.58 1.9,2.22 2.22,1.43 3.8,2.22 4.6,2.22 0.31,0 0.47,-0.16 0.47,-0.47 0,-0.64 -0.32,-1.58 -0.79,-2.69 -0.95,-1.9 -1.43,-3.49 -1.43,-4.75l0 -0.95c0.32,-0.48 0.47,-1.11 0.47,-1.75 0,-0.95 -0.31,-1.74 -0.95,-2.38 -0.32,-0.63 -0.64,-1.74 -0.95,-3.17l-0.95 -5.23c-0.32,-1.42 -0.63,-3.33 -0.95,-5.55 -0.64,-2.69 -1.11,-5.55 -1.43,-8.24 0,-0.63 -0.16,-1.27 -0.32,-1.9 -0.31,-2.85 -0.79,-5.86 -1.27,-9.35 -0.47,-3.33 -0.79,-6.34 -1.11,-8.72 -0.31,-2.85 -0.63,-5.39 -0.95,-7.45 -0.32,-2.22 -0.47,-3.48 -0.47,-3.8l0 -0.47 -0.47 0zm-194.93 14.42c-2.22,0 -3.33,0.64 -3.33,1.9 0,1.58 2.53,3.49 7.45,6.02 4.59,1.9 7.29,2.85 7.92,2.85 0,-0.32 -0.79,-1.11 -2.38,-2.38 -0.95,-0.64 -1.9,-1.27 -3.01,-1.9 -1.11,-0.63 -1.9,-0.95 -2.53,-0.95 -0.32,0 -0.64,-0.16 -0.95,-0.64 -0.32,-0.47 -0.47,-0.79 -0.47,-1.11l0 -0.95c0.32,-0.63 0.47,-1.11 0.47,-1.42 0,-0.95 -1.11,-1.43 -3.17,-1.43zm8.24 0c-0.32,0 -0.47,0.16 -0.64,0.32 -0.16,0.16 -0.31,0.32 -0.63,0.63 -0.32,0.32 -0.47,0.64 -0.47,0.95 0,0.63 0.79,0.95 2.22,0.95 1.27,0 1.9,-0.32 1.9,-0.95 0,-0.32 -0.16,-0.64 -0.47,-0.95 -0.32,-0.31 -0.64,-0.47 -0.95,-0.63 -0.31,-0.16 -0.63,-0.32 -0.95,-0.32zm-232.49 7.45c-0.32,0 -0.63,0.16 -0.79,0.16 -0.16,0.16 -0.16,0.47 -0.16,0.79l0 0.95c0.32,0.32 0.63,0.64 0.95,0.95 0.32,0.47 0.64,0.79 0.95,0.79 0.16,0 0.47,-0.16 0.63,-0.64 0.16,-0.47 0.16,-0.79 0.16,-1.11 0,-0.63 -0.16,-1.11 -0.48,-1.42 -0.16,-0.32 -0.63,-0.47 -1.27,-0.47zm-16.32 45.48c-1.9,0 -3.01,2.38 -3.64,6.97 0,0.31 0,0.79 0,1.42l-0.95 3.17c0,0.32 0,0.79 0,1.43 -0.32,0.32 -0.48,0.63 -0.48,0.95l0 1.43c0,0.32 0,0.63 0.16,1.11 0.16,0.47 0.47,0.79 0.79,0.79 0.63,0 1.27,-0.95 1.74,-2.69 0.64,-1.58 1.27,-3.8 1.9,-6.18 0.64,-3.17 0.95,-5.39 0.95,-6.97 0,-0.95 -0.16,-1.43 -0.47,-1.43zm448.03 6.02c-0.63,0.32 -1.11,0.64 -1.58,0.95 -0.47,0.31 -0.63,0.63 -0.63,0.95l0 0.47c0,0.32 -0.32,0.79 -0.95,1.43 -0.63,0.63 -1.58,0.95 -2.85,1.27l-3.64 0.47 4.12 3.8c1.27,0.95 2.54,1.74 3.96,2.53 1.43,0.79 2.54,1.11 3.49,1.11 0.95,0 1.58,-0.16 2.06,-0.47 0.47,-0.32 0.79,-0.95 0.79,-1.75 0,-0.95 -0.16,-2.38 -0.47,-4.28 -0.32,-2.38 -0.79,-4.12 -1.43,-5.07 -0.63,-0.95 -1.58,-1.43 -2.85,-1.43zm8.88 21.4c-0.64,0 -0.95,0.32 -0.95,0.95 0,1.27 1.43,3.33 4.12,6.5 3.17,3.01 5.23,4.59 6.02,4.59 0.31,0 0.47,-0.47 0.47,-1.42l0 -0.47c0,-0.79 -0.32,-1.9 -1.11,-3.17 -0.79,-1.27 -1.74,-2.54 -3.01,-3.8 -2.85,-2.06 -4.59,-3.17 -5.54,-3.17zm-468.95 5.55l-0.95 0c-0.63,0.64 -1.11,1.11 -1.42,1.58 -0.32,0.47 -0.47,1.11 -0.47,1.74 0,0.32 0.16,0.48 0.31,0.64 0.16,0.16 0.32,0.16 0.64,0.16l0.95 0c0.64,-0.47 0.95,-1.11 1.11,-1.74 0.16,-0.64 0.32,-1.11 0.32,-1.43 0,-0.63 -0.16,-0.95 -0.47,-0.95zm643.91 6.97l0.95 0c0.32,0 0.64,0.16 0.95,0.47 -0.63,-0.32 -1.27,-0.47 -1.9,-0.47zm-647.55 3.33c-0.32,0 -0.64,0 -0.79,0 -0.16,0 -0.32,0.16 -0.64,0.47 -0.64,0.79 -0.95,1.75 -0.95,2.69l0 0.95c0.95,1.27 1.74,1.9 2.38,1.9 0.79,0 1.27,-0.95 1.27,-2.85l0 -0.95c-0.32,-0.95 -0.47,-1.58 -0.64,-1.75 -0.16,-0.32 -0.47,-0.47 -0.63,-0.47zm488.44 2.69c-0.63,0 -1.11,0.16 -1.42,0.47 -0.32,0 -0.64,0 -0.95,0 -1.27,0.64 -1.9,1.27 -1.9,1.9l0.95 0.95c0.64,0.32 1.27,0.47 1.9,0.47 0.95,0 1.58,-0.32 2.22,-0.79 0.64,-0.47 0.95,-0.95 0.95,-1.58 0,-0.31 -0.16,-0.63 -0.47,-0.95 -0.32,-0.32 -0.48,-0.47 -0.64,-0.47 -0.16,0 -0.47,0 -0.64,0zm-14.42 1.42c0,0 -0.16,0 -0.32,0 -0.16,0 -0.16,0 -0.16,0l-0.47 0.48c-0.64,0.31 -1.11,0.79 -1.58,1.42 -0.47,0.64 -0.95,1.11 -1.27,1.74l0 0.48c0,0.63 0.31,0.95 0.95,0.95l0.47 0c0.64,-0.32 1.27,-0.79 1.9,-1.43 0.63,-0.63 0.95,-1.11 0.95,-1.74l0 -1.42c0,0 -0.16,-0.16 -0.47,-0.48zm6.02 13.47c-0.32,0 -0.63,0.16 -0.79,0.64 -0.16,0.47 -0.16,1.11 -0.16,1.74 0,1.11 0.32,2.06 1.11,2.69 0.79,0.64 1.74,0.95 2.53,0.95 0.95,0 1.74,-0.31 2.38,-0.95 0.32,-0.32 0.47,-0.64 0.47,-0.95 0,-0.95 -0.47,-1.75 -1.42,-2.69 -1.9,-0.95 -3.17,-1.43 -4.12,-1.43zm15.37 13.95c-0.32,0 -0.47,0.16 -0.47,0.47 0,0.32 0.16,1.11 0.79,2.22 0.63,0.64 1.42,1.11 2.22,1.43 0.64,0.31 1.43,0.47 2.06,0.47 1.27,0 1.75,-0.16 1.75,-0.47 0,-0.32 -0.64,-1.11 -2.22,-2.22 -1.9,-1.27 -3.33,-1.9 -4.12,-1.9zm-572.59 4.6c-0.32,0 -0.48,0.16 -0.48,0.47l0 5.07c0,1.27 -0.16,2.22 -0.47,2.85 0,0.64 0.32,1.43 0.79,2.53 0.47,1.11 0.95,1.9 1.58,2.54 0.64,0.63 1.11,0.95 1.43,0.95 0.32,0 0.47,-0.16 0.47,-0.47 0,-0.64 -0.16,-1.74 -0.32,-3.49 -0.16,-1.74 -0.47,-3.64 -1.11,-5.86l-1.9 -4.59zm663.08 17.12c-0.64,0 -1.11,0.16 -1.43,0.47 -0.32,0.32 -0.47,0.79 -0.47,1.43 0,0.63 0.16,1.11 0.63,1.42 0.48,0.32 0.95,0.47 1.27,0.47 0.63,0 1.11,-0.16 1.42,-0.47 0.16,-0.32 0.32,-0.79 0.32,-1.42 -0.16,-0.64 -0.47,-1.11 -0.79,-1.43 -0.32,-0.32 -0.64,-0.47 -0.95,-0.47z"/>
 </g>
</svg>
